<svg viewBox="0 0 456 362" fill="none" xmlns="http://www.w3.org/2000/svg">
<g clip-path="url(#clip0_4339_590449)">
<g clip-path="url(#clip1_4339_590449)">
<g clip-path="url(#clip2_4339_590449)">
<path d="M91.6325 85.6895H366.762C368.601 85.6895 370.364 86.4004 371.664 87.6658C372.964 88.9312 373.695 90.6475 373.695 92.4371V282.64H84.6997V92.4371C84.6997 90.6475 85.4301 88.9312 86.7303 87.6658C88.0304 86.4004 89.7938 85.6895 91.6325 85.6895Z" fill="url(#paint0_linear_4339_590449)"/>
<path d="M362.726 96.8145H95.8098C93.9249 96.8145 92.397 98.344 92.397 100.231V257.648C92.397 259.535 93.9249 261.065 95.8098 261.065H362.726C364.61 261.065 366.138 259.535 366.138 257.648V100.231C366.138 98.344 364.61 96.8145 362.726 96.8145Z" fill="#F1F1F1"/>
<path d="M385.782 284.037L72.7585 284.037C70.9509 284.037 69.2173 283.318 67.9392 282.039C66.661 280.759 65.943 279.024 65.943 277.214V270.118L392.598 270.118V277.214C392.598 279.024 391.88 280.759 390.601 282.039C389.323 283.318 387.59 284.037 385.782 284.037Z" fill="#BABABA"/>
<path d="M264.084 141.289H193.982C189.822 141.289 186.451 144.664 186.451 148.828V287.928C186.451 292.092 189.822 295.467 193.982 295.467H264.084C268.243 295.467 271.615 292.092 271.615 287.928V148.828C271.615 144.664 268.243 141.289 264.084 141.289Z" fill="url(#paint1_linear_4339_590449)"/>
<path d="M266.465 285.599V151.527C266.465 149.517 264.835 147.887 262.824 147.887H194.798C192.787 147.887 191.157 149.517 191.157 151.527V285.599C191.157 287.609 192.787 289.239 194.798 289.239H262.824C264.835 289.239 266.465 287.609 266.465 285.599Z" fill="#F1F1F1"/>
<g filter="url(#filter0_ii_4339_590449)">
<path d="M366.099 143C391.504 143 412.099 122.405 412.099 97C412.099 71.5949 391.504 51 366.099 51C340.694 51 320.099 71.5949 320.099 97C320.099 122.405 340.694 143 366.099 143Z" fill="url(#paint2_linear_4339_590449)"/>
</g>
<g filter="url(#filter1_dd_4339_590449)">
<path d="M354.588 97.4391C354.978 96.6602 355.107 95.8813 354.718 95.1024C354.199 93.5447 352.511 92.7658 350.953 93.285L349.266 93.9341C350.564 88.2223 354.848 83.4192 360.56 81.472C367.829 78.8757 376.007 81.472 380.421 87.7031L381.07 88.4819L386.782 86.5347L385.743 84.977C379.772 76.1496 368.738 72.385 358.612 75.89C351.343 78.4863 346.02 84.3279 343.943 91.3378L343.424 89.6503C343.165 88.8714 342.645 88.3521 341.996 87.9627C341.347 87.5732 340.568 87.5732 339.789 87.8329C339.01 88.0925 338.491 88.6118 338.102 89.2608C337.712 89.9099 337.712 90.6888 337.972 91.4676L341.866 102.632L353.03 98.7372C353.679 98.6074 354.328 98.218 354.588 97.4391Z" fill="white"/>
</g>
<g filter="url(#filter2_dd_4339_590449)">
<path d="M393.143 103.019L389.249 91.8555L378.085 95.7499C376.527 96.2691 375.748 97.9567 376.268 99.3847C376.787 100.942 378.475 101.721 380.032 101.202L381.98 100.553C380.681 106.395 376.527 111.328 370.686 113.405C363.416 116.001 355.238 113.405 350.824 107.173L350.175 106.395L344.463 108.342L345.502 109.9C349.916 116.52 357.315 120.285 364.974 120.285C367.57 120.285 370.166 119.895 372.633 118.987C379.902 116.52 385.225 110.678 387.302 103.669L387.562 104.837C387.821 105.616 388.34 106.135 388.989 106.524C389.379 106.784 389.898 106.784 390.288 106.784C390.547 106.784 390.937 106.784 391.196 106.654C392.754 106.135 393.663 104.577 393.143 103.019Z" fill="white"/>
</g>
</g>
</g>
</g>
<defs>
<filter id="filter0_ii_4339_590449" x="320.099" y="45.2297" width="92" height="101.617" filterUnits="userSpaceOnUse" color-interpolation-filters="sRGB">
<feFlood flood-opacity="0" result="BackgroundImageFix"/>
<feBlend mode="normal" in="SourceGraphic" in2="BackgroundImageFix" result="shape"/>
<feColorMatrix in="SourceAlpha" type="matrix" values="0 0 0 0 0 0 0 0 0 0 0 0 0 0 0 0 0 0 127 0" result="hardAlpha"/>
<feOffset dy="-5.77027"/>
<feGaussianBlur stdDeviation="3.20571"/>
<feComposite in2="hardAlpha" operator="arithmetic" k2="-1" k3="1"/>
<feColorMatrix type="matrix" values="0 0 0 0 0 0 0 0 0 0 0 0 0 0 0 0 0 0 0.15 0"/>
<feBlend mode="normal" in2="shape" result="effect1_innerShadow_4339_590449"/>
<feColorMatrix in="SourceAlpha" type="matrix" values="0 0 0 0 0 0 0 0 0 0 0 0 0 0 0 0 0 0 127 0" result="hardAlpha"/>
<feOffset dy="3.84685"/>
<feGaussianBlur stdDeviation="2.56457"/>
<feComposite in2="hardAlpha" operator="arithmetic" k2="-1" k3="1"/>
<feColorMatrix type="matrix" values="0 0 0 0 1 0 0 0 0 1 0 0 0 0 1 0 0 0 0.25 0"/>
<feBlend mode="normal" in2="effect1_innerShadow_4339_590449" result="effect2_innerShadow_4339_590449"/>
</filter>
<filter id="filter1_dd_4339_590449" x="324.446" y="67.1759" width="75.6808" height="54.7311" filterUnits="userSpaceOnUse" color-interpolation-filters="sRGB">
<feFlood flood-opacity="0" result="BackgroundImageFix"/>
<feColorMatrix in="SourceAlpha" type="matrix" values="0 0 0 0 0 0 0 0 0 0 0 0 0 0 0 0 0 0 127 0" result="hardAlpha"/>
<feOffset dy="1.11209"/>
<feGaussianBlur stdDeviation="1.66813"/>
<feColorMatrix type="matrix" values="0 0 0 0 0 0 0 0 0 0 0 0 0 0 0 0 0 0 0.18 0"/>
<feBlend mode="normal" in2="BackgroundImageFix" result="effect1_dropShadow_4339_590449"/>
<feColorMatrix in="SourceAlpha" type="matrix" values="0 0 0 0 0 0 0 0 0 0 0 0 0 0 0 0 0 0 127 0" result="hardAlpha"/>
<feOffset dy="5.93114"/>
<feGaussianBlur stdDeviation="6.67253"/>
<feColorMatrix type="matrix" values="0 0 0 0 0 0 0 0 0 0 0 0 0 0 0 0 0 0 0.22 0"/>
<feBlend mode="normal" in2="effect1_dropShadow_4339_590449" result="effect2_dropShadow_4339_590449"/>
<feBlend mode="normal" in="SourceGraphic" in2="effect2_dropShadow_4339_590449" result="shape"/>
</filter>
<filter id="filter2_dd_4339_590449" x="331.118" y="84.4415" width="75.5168" height="55.1198" filterUnits="userSpaceOnUse" color-interpolation-filters="sRGB">
<feFlood flood-opacity="0" result="BackgroundImageFix"/>
<feColorMatrix in="SourceAlpha" type="matrix" values="0 0 0 0 0 0 0 0 0 0 0 0 0 0 0 0 0 0 127 0" result="hardAlpha"/>
<feOffset dy="1.11209"/>
<feGaussianBlur stdDeviation="1.66813"/>
<feColorMatrix type="matrix" values="0 0 0 0 0 0 0 0 0 0 0 0 0 0 0 0 0 0 0.18 0"/>
<feBlend mode="normal" in2="BackgroundImageFix" result="effect1_dropShadow_4339_590449"/>
<feColorMatrix in="SourceAlpha" type="matrix" values="0 0 0 0 0 0 0 0 0 0 0 0 0 0 0 0 0 0 127 0" result="hardAlpha"/>
<feOffset dy="5.93114"/>
<feGaussianBlur stdDeviation="6.67253"/>
<feColorMatrix type="matrix" values="0 0 0 0 0 0 0 0 0 0 0 0 0 0 0 0 0 0 0.22 0"/>
<feBlend mode="normal" in2="effect1_dropShadow_4339_590449" result="effect2_dropShadow_4339_590449"/>
<feBlend mode="normal" in="SourceGraphic" in2="effect2_dropShadow_4339_590449" result="shape"/>
</filter>
<linearGradient id="paint0_linear_4339_590449" x1="262.699" y1="416.266" x2="192.452" y2="-90.497" gradientUnits="userSpaceOnUse">
<stop stop-color="#737373"/>
<stop offset="0.25" stop-color="#969695"/>
<stop offset="0.58" stop-color="#BFBDBC"/>
<stop offset="0.84" stop-color="#D8D6D4"/>
<stop offset="1" stop-color="#E1DFDD"/>
</linearGradient>
<linearGradient id="paint1_linear_4339_590449" x1="266.466" y1="141.289" x2="191.029" y2="295.771" gradientUnits="userSpaceOnUse">
<stop stop-color="#C0C0C0"/>
<stop offset="1" stop-color="#B6B6B6"/>
</linearGradient>
<linearGradient id="paint2_linear_4339_590449" x1="480.313" y1="87.8221" x2="354.485" y2="-33.9905" gradientUnits="userSpaceOnUse">
<stop stop-color="#55E0CD"/>
<stop offset="1" stop-color="#2EBAA6"/>
</linearGradient>
<clipPath id="clip0_4339_590449">
<rect width="456" height="362" fill="white"/>
</clipPath>
<clipPath id="clip1_4339_590449">
<rect width="429.257" height="341.13" fill="white" transform="translate(14.0986 11.2441)"/>
</clipPath>
<clipPath id="clip2_4339_590449">
<rect width="429.257" height="341.13" fill="white" transform="translate(14.0986 11.2441)"/>
</clipPath>
</defs>
</svg>
