<svg width="" height="" viewBox="0 0 457 362" fill="none" xmlns="http://www.w3.org/2000/svg">
<path d="M82.3647 79H374.635C376.589 79 378.462 79.7544 379.843 81.0973C381.224 82.4401 382 84.2614 382 86.1605V288H75V86.1605C75 84.2614 75.7759 82.4401 77.1571 81.0973C78.5382 79.7544 80.4115 79 82.3647 79Z" fill="url(#paint0_linear_5275_370904)"/>
<path d="M370.347 90.8037H86.8022C84.7999 90.8037 83.1768 92.4269 83.1768 94.4291V261.477C83.1768 263.48 84.7999 265.103 86.8022 265.103H370.347C372.349 265.103 373.973 263.48 373.973 261.477V94.4291C373.973 92.4269 372.349 90.8037 370.347 90.8037Z" fill="#F1F1F1"/>
<path d="M394.84 289.481L62.3144 289.481C60.3942 289.481 58.5527 288.719 57.1949 287.361C55.8371 286.003 55.0744 284.162 55.0744 282.241V274.711L402.08 274.711V282.241C402.08 284.162 401.317 286.003 399.959 287.361C398.602 288.719 396.76 289.481 394.84 289.481Z" fill="#BABABA"/>
<g style="mix-blend-mode:multiply" filter="url(#filter0_dd_5275_370904)">
<rect x="131" y="152" width="193.333" height="58" rx="8" fill="white"/>
</g>
<g filter="url(#filter1_ii_5275_370904)">
<rect x="131" y="152" width="193.333" height="58" rx="8" fill="white"/>
</g>
<g filter="url(#filter2_ddii_5275_370904)">
<path d="M169.668 190.666C175.006 190.666 179.334 186.338 179.334 181C179.334 175.661 175.006 171.333 169.668 171.333C164.329 171.333 160.001 175.661 160.001 181C160.001 186.338 164.329 190.666 169.668 190.666Z" fill="url(#paint1_linear_5275_370904)"/>
<path d="M208.336 190.666C213.674 190.666 218.002 186.338 218.002 181C218.002 175.661 213.674 171.333 208.336 171.333C202.997 171.333 198.669 175.661 198.669 181C198.669 186.338 202.997 190.666 208.336 190.666Z" fill="url(#paint2_linear_5275_370904)"/>
<path d="M247 190.666C252.338 190.666 256.666 186.338 256.666 181C256.666 175.661 252.338 171.333 247 171.333C241.661 171.333 237.333 175.661 237.333 181C237.333 186.338 241.661 190.666 247 190.666Z" fill="url(#paint3_linear_5275_370904)"/>
<path d="M285.668 190.666C291.006 190.666 295.334 186.338 295.334 181C295.334 175.661 291.006 171.333 285.668 171.333C280.329 171.333 276.001 175.661 276.001 181C276.001 186.338 280.329 190.666 285.668 190.666Z" fill="url(#paint4_linear_5275_370904)"/>
</g>
<defs>
<filter id="filter0_dd_5275_370904" x="107.8" y="139.111" width="239.733" height="104.4" filterUnits="userSpaceOnUse" color-interpolation-filters="sRGB">
<feFlood flood-opacity="0" result="BackgroundImageFix"/>
<feColorMatrix in="SourceAlpha" type="matrix" values="0 0 0 0 0 0 0 0 0 0 0 0 0 0 0 0 0 0 127 0" result="hardAlpha"/>
<feOffset dy="1.93333"/>
<feGaussianBlur stdDeviation="2.9"/>
<feColorMatrix type="matrix" values="0 0 0 0 0 0 0 0 0 0 0 0 0 0 0 0 0 0 0.04 0"/>
<feBlend mode="normal" in2="BackgroundImageFix" result="effect1_dropShadow_5275_370904"/>
<feColorMatrix in="SourceAlpha" type="matrix" values="0 0 0 0 0 0 0 0 0 0 0 0 0 0 0 0 0 0 127 0" result="hardAlpha"/>
<feOffset dy="10.3111"/>
<feGaussianBlur stdDeviation="11.6"/>
<feColorMatrix type="matrix" values="0 0 0 0 0 0 0 0 0 0 0 0 0 0 0 0 0 0 0.08 0"/>
<feBlend mode="normal" in2="effect1_dropShadow_5275_370904" result="effect2_dropShadow_5275_370904"/>
<feBlend mode="normal" in="SourceGraphic" in2="effect2_dropShadow_5275_370904" result="shape"/>
</filter>
<filter id="filter1_ii_5275_370904" x="131" y="150.389" width="193.333" height="62.8333" filterUnits="userSpaceOnUse" color-interpolation-filters="sRGB">
<feFlood flood-opacity="0" result="BackgroundImageFix"/>
<feBlend mode="normal" in="SourceGraphic" in2="BackgroundImageFix" result="shape"/>
<feColorMatrix in="SourceAlpha" type="matrix" values="0 0 0 0 0 0 0 0 0 0 0 0 0 0 0 0 0 0 127 0" result="hardAlpha"/>
<feOffset dy="3.22222"/>
<feGaussianBlur stdDeviation="1.61111"/>
<feComposite in2="hardAlpha" operator="arithmetic" k2="-1" k3="1"/>
<feColorMatrix type="matrix" values="0 0 0 0 1 0 0 0 0 1 0 0 0 0 1 0 0 0 1 0"/>
<feBlend mode="normal" in2="shape" result="effect1_innerShadow_5275_370904"/>
<feColorMatrix in="SourceAlpha" type="matrix" values="0 0 0 0 0 0 0 0 0 0 0 0 0 0 0 0 0 0 127 0" result="hardAlpha"/>
<feOffset dy="-1.61111"/>
<feGaussianBlur stdDeviation="0.805556"/>
<feComposite in2="hardAlpha" operator="arithmetic" k2="-1" k3="1"/>
<feColorMatrix type="matrix" values="0 0 0 0 0 0 0 0 0 0 0 0 0 0 0 0 0 0 0.08 0"/>
<feBlend mode="normal" in2="effect1_innerShadow_5275_370904" result="effect2_innerShadow_5275_370904"/>
</filter>
<filter id="filter2_ddii_5275_370904" x="157.811" y="165.219" width="145.147" height="33.9783" filterUnits="userSpaceOnUse" color-interpolation-filters="sRGB">
<feFlood flood-opacity="0" result="BackgroundImageFix"/>
<feColorMatrix in="SourceAlpha" type="matrix" values="0 0 0 0 0 0 0 0 0 0 0 0 0 0 0 0 0 0 127 0" result="hardAlpha"/>
<feOffset dy="0.828363"/>
<feGaussianBlur stdDeviation="0.527619"/>
<feComposite in2="hardAlpha" operator="out"/>
<feColorMatrix type="matrix" values="0 0 0 0 0 0 0 0 0 0 0 0 0 0 0 0 0 0 0.25 0"/>
<feBlend mode="normal" in2="BackgroundImageFix" result="effect1_dropShadow_5275_370904"/>
<feColorMatrix in="SourceAlpha" type="matrix" values="0 0 0 0 0 0 0 0 0 0 0 0 0 0 0 0 0 0 127 0" result="hardAlpha"/>
<feOffset dx="2.71718" dy="3.62475"/>
<feGaussianBlur stdDeviation="2.45343"/>
<feComposite in2="hardAlpha" operator="out"/>
<feColorMatrix type="matrix" values="0 0 0 0 0 0 0 0 0 0 0 0 0 0 0 0 0 0 0.1 0"/>
<feBlend mode="normal" in2="effect1_dropShadow_5275_370904" result="effect2_dropShadow_5275_370904"/>
<feBlend mode="normal" in="SourceGraphic" in2="effect2_dropShadow_5275_370904" result="shape"/>
<feColorMatrix in="SourceAlpha" type="matrix" values="0 0 0 0 0 0 0 0 0 0 0 0 0 0 0 0 0 0 127 0" result="hardAlpha"/>
<feOffset dy="-6.11364"/>
<feGaussianBlur stdDeviation="3.39647"/>
<feComposite in2="hardAlpha" operator="arithmetic" k2="-1" k3="1"/>
<feColorMatrix type="matrix" values="0 0 0 0 0 0 0 0 0 0 0 0 0 0 0 0 0 0 0.15 0"/>
<feBlend mode="normal" in2="shape" result="effect3_innerShadow_5275_370904"/>
<feColorMatrix in="SourceAlpha" type="matrix" values="0 0 0 0 0 0 0 0 0 0 0 0 0 0 0 0 0 0 127 0" result="hardAlpha"/>
<feOffset dy="4.07576"/>
<feGaussianBlur stdDeviation="2.71718"/>
<feComposite in2="hardAlpha" operator="arithmetic" k2="-1" k3="1"/>
<feColorMatrix type="matrix" values="0 0 0 0 1 0 0 0 0 1 0 0 0 0 1 0 0 0 0.25 0"/>
<feBlend mode="normal" in2="effect3_innerShadow_5275_370904" result="effect4_innerShadow_5275_370904"/>
</filter>
<linearGradient id="paint0_linear_5275_370904" x1="264.089" y1="429.8" x2="189.62" y2="-107.987" gradientUnits="userSpaceOnUse">
<stop stop-color="#737373"/>
<stop offset="0.25" stop-color="#969695"/>
<stop offset="0.58" stop-color="#BFBDBC"/>
<stop offset="0.84" stop-color="#D8D6D4"/>
<stop offset="1" stop-color="#E1DFDD"/>
</linearGradient>
<linearGradient id="paint1_linear_5275_370904" x1="193.669" y1="179.071" x2="167.227" y2="153.473" gradientUnits="userSpaceOnUse">
<stop stop-color="#278FF1"/>
<stop offset="1" stop-color="#005FB8"/>
</linearGradient>
<linearGradient id="paint2_linear_5275_370904" x1="232.337" y1="179.071" x2="205.895" y2="153.473" gradientUnits="userSpaceOnUse">
<stop stop-color="#278FF1"/>
<stop offset="1" stop-color="#005FB8"/>
</linearGradient>
<linearGradient id="paint3_linear_5275_370904" x1="271.001" y1="179.071" x2="244.559" y2="153.473" gradientUnits="userSpaceOnUse">
<stop stop-color="#278FF1"/>
<stop offset="1" stop-color="#005FB8"/>
</linearGradient>
<linearGradient id="paint4_linear_5275_370904" x1="309.669" y1="179.071" x2="283.227" y2="153.473" gradientUnits="userSpaceOnUse">
<stop stop-color="#278FF1"/>
<stop offset="1" stop-color="#005FB8"/>
</linearGradient>
</defs>
</svg>
