<svg width="28" height="28" viewBox="0 0 28 28" fill="none" xmlns="http://www.w3.org/2000/svg">
<path d="M10.5004 11.9001L8.40039 16.1001L10.5004 15.4001L12.6004 14.0001L15.4004 13.3001H18.2004V16.8001L23.8004 11.2001L18.2004 5.6001L17.5004 8.4001L13.3004 9.1001L10.5004 11.9001Z" fill="url(#paint0_linear)"/>
<path d="M7.87109 4.66602H11.9127C12.3959 4.66602 12.7877 5.05777 12.7877 5.54102C12.7877 5.98399 12.4585 6.35009 12.0314 6.40803L11.9127 6.41602H7.87109C6.48175 6.41602 5.34451 7.49537 5.25215 8.86129L5.24609 9.04102V20.1243C5.24609 21.5137 6.32545 22.6509 7.69137 22.7433L7.87109 22.7493H18.9553C20.3446 22.7493 21.4819 21.67 21.5742 20.3041L21.5803 20.1243V19.5436C21.5803 19.0604 21.972 18.6686 22.4553 18.6686C22.8983 18.6686 23.2644 18.9978 23.3223 19.4249L23.3303 19.5436V20.1243C23.3303 22.4627 21.4959 24.3725 19.1876 24.4933L18.9553 24.4993H7.87109C5.53279 24.4993 3.62294 22.6649 3.50216 20.3567L3.49609 20.1243V9.04102C3.49609 6.70271 5.33052 4.79286 7.63874 4.67208L7.87109 4.66602Z" fill="#666666"/>
<path fill-rule="evenodd" clip-rule="evenodd" d="M16.9181 7.46859V4.23709C16.9181 3.50913 17.7426 3.11703 18.3029 3.5252L18.3988 3.60563L25.3925 10.314C25.7189 10.627 25.7486 11.1299 25.4816 11.4775L25.3926 11.5768L18.3989 18.2873C17.8735 18.7913 17.0197 18.4677 16.9264 17.7808L16.9181 17.6559V14.4764L16.5173 14.5115C13.7177 14.8036 11.0343 16.0646 8.45035 18.3157C7.84472 18.8433 6.90773 18.3444 7.00734 17.5474C7.78293 11.3413 11.0284 7.92061 16.5688 7.49151L16.9181 7.46859ZM18.6681 8.32043V6.28885L23.5228 10.9455L18.6681 15.6037V13.5704L18.6601 13.4517C18.6021 13.0246 18.236 12.6954 17.7931 12.6954C14.9321 12.6954 12.1911 13.5555 9.5819 15.2609L9.17102 15.5371L9.26325 15.2121C10.4734 11.1509 13.2741 9.19543 17.7931 9.19543C18.2763 9.19543 18.6681 8.80368 18.6681 8.32043Z" fill="#1E87DF"/>
<defs>
<linearGradient id="paint0_linear" x1="21.0004" y1="7.0001" x2="9.80039" y2="17.5001" gradientUnits="userSpaceOnUse">
<stop stop-color="#0085FF" stop-opacity="0.4"/>
<stop offset="1" stop-color="#4FAEE7" stop-opacity="0"/>
</linearGradient>
</defs>
</svg>
