<?xml version="1.0" encoding="utf-8"?>
<svg width="Auto" height="Auto" viewBox="0 0 1000 278.19772" version="1.1" xmlns:xlink="http://www.w3.org/1999/xlink" xmlns="http://www.w3.org/2000/svg">
  <defs>
    <linearGradient gradientUnits="userSpaceOnUse" x1="-6.996096" y1="294.6333" x2="103.23944" y2="-2.9451723" id="gradient_1">
      <stop offset="26%" stop-color="#9059FF" />
      <stop offset="96%" stop-color="#00B3F4" />
    </linearGradient>
    <linearGradient gradientUnits="userSpaceOnUse" x1="-8.473312" y1="255.16756" x2="125.03832" y2="-2.5506706" id="gradient_2">
      <stop offset="26%" stop-color="#9059FF" />
      <stop offset="96%" stop-color="#00B3F4" />
    </linearGradient>
    <linearGradient gradientUnits="userSpaceOnUse" x1="-4.2773123" y1="253.2881" x2="63.11911" y2="-2.5318832" id="gradient_3">
      <stop offset="26%" stop-color="#9059FF" />
      <stop offset="96%" stop-color="#00B3F4" />
    </linearGradient>
    <linearGradient gradientUnits="userSpaceOnUse" x1="-9.314829" y1="261.9552" x2="137.45634" y2="-2.61852" id="gradient_4">
      <stop offset="26%" stop-color="#9059FF" />
      <stop offset="96%" stop-color="#00B3F4" />
    </linearGradient>
    <linearGradient gradientUnits="userSpaceOnUse" x1="-8.3857565" y1="252.7664" x2="123.746284" y2="-2.5266683" id="gradient_5">
      <stop offset="26%" stop-color="#9059FF" />
      <stop offset="96%" stop-color="#00B3F4" />
    </linearGradient>
    <linearGradient gradientUnits="userSpaceOnUse" x1="-9.888656" y1="260.92966" x2="145.92415" y2="-2.6082687" id="gradient_6">
      <stop offset="26%" stop-color="#9059FF" />
      <stop offset="96%" stop-color="#00B3F4" />
    </linearGradient>
    <linearGradient gradientUnits="userSpaceOnUse" x1="-9.625695" y1="257.67426" x2="142.0437" y2="-2.5757277" id="gradient_7">
      <stop offset="26%" stop-color="#9059FF" />
      <stop offset="96%" stop-color="#00B3F4" />
    </linearGradient>
    <linearGradient gradientUnits="userSpaceOnUse" x1="-7.590277" y1="307.47617" x2="112.007614" y2="-3.0735507" id="gradient_8">
      <stop offset="26%" stop-color="#9059FF" />
      <stop offset="96%" stop-color="#00B3F4" />
    </linearGradient>
    <path d="M0 0L1000 0L1000 278.198L0 278.198L0 0Z" id="path_1" />
    <clipPath id="mask_1">
      <use xlink:href="#path_1" />
    </clipPath>
  </defs>
  <g id="FortniteLogo">
    <path d="M0 0L1000 0L1000 278.198L0 278.198L0 0Z" id="Background" fill="#FFFFFF" fill-opacity="0" fill-rule="evenodd" stroke="none" />
    <g clip-path="url(#mask_1)">
      <g id="logo" transform="translate(1.5258789E-05 -6.1035156E-05)">
        <path d="M966.748 71.7952C972.227 71.7952 977.422 71.701 982.335 71.4163C988.096 71.4163 993.955 71.3221 1000 71.0395C999.622 61.9722 999.339 61.4049 999.339 53.8466L999.339 34.5763L999.339 3.78128C979.879 4.06491 900.812 13.4159 894.861 13.4159C895.332 48.5573 895.616 85.5867 895.995 114.681C896.277 143.872 896.56 169.188 896.75 190.725C896.94 215.758 894.294 243.058 894.482 263.181C907.991 263.369 989.231 270.17 998.676 270.359L998.676 235.408C998.676 228.228 998.772 222.183 998.961 217.364C998.961 211.602 999.055 206.69 999.244 202.817C992.443 202.629 986.209 202.25 980.635 201.966C975.061 201.59 970.338 201.305 966.559 201.115C961.836 200.927 957.774 200.645 954.374 200.456C953.713 191.197 953.427 176.083 953.427 170.603L953.427 162.291C958.813 162.291 963.818 162.385 968.541 162.48C973.266 162.575 977.421 162.669 981.011 162.669L992.252 162.669C992.064 154.073 991.968 153.978 991.968 146.894L991.968 128.38L991.968 111.753C979.121 112.226 969.581 112.414 963.44 112.32C957.204 112.226 953.522 112.131 952.198 112.131L952.198 102.779C952.198 99.7562 952.104 88.7024 952.01 84.8301C951.916 81.052 951.916 76.802 952.198 72.173C956.357 71.8894 961.27 71.7952 966.748 71.7952L966.748 71.7952Z" id="_x38_" fill="url(#gradient_1)" stroke="none" />
        <path d="M759.399 61.5923C759.494 69.2437 759.588 75.3849 759.588 80.0128C759.588 85.5867 759.494 89.9331 759.305 93.2382L793.973 92.8614C794.162 121.105 794.35 146.421 794.445 168.904C794.539 191.387 794.633 194.315 794.633 210.28C794.633 228.984 794.539 245.609 794.35 259.968C804.08 259.684 812.582 259.591 819.857 259.402C827.129 259.307 833.175 259.213 838.183 259.213C843.85 259.213 848.668 259.307 852.824 259.59C852.635 237.39 852.351 217.27 852.162 199.226C851.973 181.185 851.785 180.994 851.691 166.07C851.597 151.144 851.502 131.967 851.502 119.878L851.502 87.2875C856.886 87.2875 861.703 87.3817 865.955 87.4759C870.206 87.5701 873.795 87.6643 876.819 87.6643L885.886 87.6643C885.697 77.9344 885.602 75.1003 885.697 67.5431C885.791 59.988 885.98 53.5642 886.168 48.2738C886.358 42.2278 886.641 33.915 886.83 29.0977C865.67 29.5697 759.02 33.3488 759.02 33.3488C759.115 44.4947 759.212 54.0351 759.399 61.5923L759.399 61.5923Z" id="_x37_" fill="url(#gradient_2)" stroke="none" />
        <path d="M753.826 86.0598C753.542 59.7032 753.449 47.5181 753.449 24.5639C743.058 24.8465 733.988 24.9406 726.243 24.9406L706.595 24.9406L690.629 24.9406C691.102 58.9476 691.386 78.1237 691.669 107.22C691.953 136.409 692.046 161.819 692.046 183.641L692.046 253.733L739.561 253.733L755.148 253.733C754.677 222.276 754.393 192.048 754.297 163.142C754.203 134.236 754.014 108.542 753.826 86.0598L753.826 86.0598Z" id="_x36_" fill="url(#gradient_3)" stroke="none" />
        <path d="M677.876 13.2265C669.375 13.5101 627.339 13.4149 623.088 13.1323C625.544 42.9834 627.433 58.9465 628.755 80.2022C630.076 101.457 631.116 119.121 631.777 133.006C625.259 114.775 619.59 98.5285 614.584 84.1697C609.672 69.8109 605.517 57.6248 602.115 47.6112C598.054 35.9923 593.613 24.7512 590.781 15.8712C582.467 16.3432 542.413 24.4676 537.502 24.657C537.974 59.2312 537.313 85.0206 537.502 112.32C537.69 139.525 537.88 162.857 537.88 182.129C537.88 204.706 537.783 224.353 537.502 241.265C546.003 241.265 553.844 241.359 560.834 241.453C567.919 241.547 573.871 241.737 578.782 241.926C584.639 242.114 589.74 242.303 594.275 242.303C592.668 217.932 591.63 197.243 590.875 180.145C590.213 163.048 589.646 148.595 589.175 136.786C595.409 154.073 601.172 169.848 606.273 184.114C611.468 198.377 615.908 206.879 619.687 217.364C623.938 229.645 627.716 240.602 631.117 250.144C640.563 249.483 674.381 245.799 677.97 245.326C677.025 206.972 678.065 31.8365 677.876 13.2265L677.876 13.2265Z" id="_x35_" fill="url(#gradient_4)" stroke="none" />
        <path d="M533.063 27.0191C509.353 23.6188 406.574 16.5337 406.574 16.5337C406.765 27.8689 406.953 37.3152 407.142 44.9677C407.237 52.6191 407.331 58.7592 407.331 63.3882C407.331 68.9622 407.237 73.3064 406.954 76.6136L439.259 76.2347C439.544 104.48 439.638 129.796 439.826 152.28C439.921 174.761 440.015 179.579 440.015 195.543C440.015 214.342 439.921 230.873 439.638 245.231C450.029 244.949 459.098 244.854 466.843 244.666C474.589 244.57 481.108 244.476 486.491 244.476C492.539 244.476 497.734 244.57 502.079 244.853C501.888 222.655 501.607 202.534 501.418 184.491C501.229 166.447 501.041 164.369 500.944 149.444C500.85 134.519 500.756 131.59 500.756 119.498L500.756 86.9096C506.517 86.9096 511.715 87.0038 516.248 87.098C520.783 87.1922 519.839 87.2864 523.05 87.2864L532.779 87.2864C532.59 77.5565 532.495 58.3804 532.59 50.9174C532.59 43.1718 532.872 31.8365 533.063 27.0192L533.063 27.0191Z" id="_x34_" fill="url(#gradient_5)" stroke="none" />
        <path d="M378.898 155.585C387.588 149.349 394.39 141.414 399.396 131.59C404.402 121.862 405.915 109.58 405.915 95.033C405.915 67.2604 392.878 48.0843 378.519 34.0091C364.254 19.9339 349.896 18.0449 319.1 18.0449C311.355 18.0449 275.458 17.0067 265.445 18.8016C265.445 54.1292 264.312 83.6977 264.216 111.66C264.121 139.621 263.933 163.615 263.745 183.548C263.556 206.88 263.272 227.38 263.083 245.138C271.962 244.95 280.182 244.761 287.739 244.761L307.387 244.761L324.674 244.761L323.353 173.157L326.659 173.157C327.32 173.157 327.792 173.062 327.982 172.78C331.476 185.626 334.689 197.245 337.333 207.542C339.978 217.84 342.244 223.791 343.946 231.157L349.614 253.83C359.628 253.357 368.508 252.885 376.253 252.317C383.999 251.752 390.612 251.279 395.9 250.807C402.136 250.334 407.519 250.051 412.242 249.768C402.041 221.618 394.296 202.347 388.91 186.194C383.619 170.322 380.314 160.025 378.898 155.585L378.898 155.585ZM338.467 125.734C334.783 130.364 329.776 132.724 323.353 132.912C323.353 126.491 323.258 119.783 323.07 112.791C322.88 106.746 322.691 100.039 322.597 92.4814C322.503 85.0206 322.409 77.2739 322.409 69.2436C329.966 68.6774 335.444 71.4152 338.845 77.4622C342.244 83.6024 344.04 91.9153 344.04 102.495C343.945 113.453 342.15 121.105 338.467 125.734L338.467 125.734Z" id="_x33_" fill="url(#gradient_6)" fill-rule="evenodd" stroke="none" />
        <path d="M242.111 48.4621C236.634 38.2602 229.171 30.4204 219.723 24.9406C210.277 19.4619 198.092 16.8162 183.448 16.8162C168.995 16.8162 157.094 19.7455 147.835 25.6021C138.578 31.4586 131.21 39.6772 125.731 50.2559C120.253 60.8366 116.474 73.3995 114.396 87.9488C112.223 102.59 111.183 118.744 111.183 136.409C111.183 154.923 112.507 171.267 115.152 185.341C117.796 199.416 122.048 211.224 127.81 220.86C133.572 230.495 141.034 237.674 150.198 242.584C159.36 247.497 170.602 249.954 183.827 249.954C196.203 249.954 206.877 247.876 215.945 243.908C225.015 239.846 232.477 233.329 238.334 224.352C244.191 215.379 248.63 203.666 251.559 189.213C254.581 174.76 256.188 157 256.376 136.124C256.376 117.325 255.337 100.605 253.353 85.8682C251.276 71.2268 247.591 58.7581 242.111 48.462L242.111 48.4621ZM192.897 172.588C192.613 182.224 192.046 189.402 191.291 194.314C190.536 199.226 189.591 202.439 188.363 203.948C187.229 205.462 185.907 206.217 184.395 206.217C182.505 206.217 180.9 205.462 179.577 203.948C178.35 202.438 177.31 199.225 176.555 194.314C175.8 189.401 175.233 182.318 174.76 173.06C174.289 163.801 174.1 151.333 174.1 135.84C174.1 120.537 174.194 107.974 174.382 98.4333C174.57 88.7986 175.043 81.3356 175.704 76.0442C176.365 70.7549 177.31 67.1641 178.538 65.3703C179.862 63.5755 181.563 62.6304 183.64 62.6304C185.338 62.6304 186.852 63.386 188.078 64.9925C189.402 66.5969 190.347 69.8098 191.101 74.7224C191.856 79.6339 192.424 86.8123 192.707 96.1643C192.99 105.517 193.18 117.986 193.18 133.574C193.369 150.011 193.18 163.048 192.897 172.588L192.897 172.588Z" id="_x32_" fill="url(#gradient_7)" fill-rule="evenodd" stroke="none" />
        <path d="M62.6303 75.9511L62.6303 63.1045C71.4152 62.9151 79.0676 62.7256 85.5856 62.5362C92.1046 62.442 97.3929 62.3478 101.549 62.3478C106.366 62.3478 110.43 62.442 113.735 62.7246L113.735 35.6134C113.735 27.9631 113.829 21.5382 114.112 16.1537C114.112 10.1077 114.208 4.91257 114.491 0.567261C97.1093 1.03928 81.5229 0.472015 67.636 0.661438C53.7503 0.944 41.7525 0 31.5517 0C19.7423 0.28363 9.25681 0.28363 0 0C0.66037 35.1414 1.22762 69.3367 1.60437 98.6216C1.98323 127.904 2.26579 153.126 2.45523 174.477C2.64571 199.225 2.83409 278.198 2.83409 278.198L65.275 265.069C64.802 252.126 64.5194 216.23 64.4242 204.611C64.33 192.992 64.1395 174.949 63.8569 164.557C71.9814 164.368 76.0431 164.18 81.8054 164.18L90.2135 164.18C94.5578 164.18 98.3369 164.274 101.359 164.557C101.077 155.772 100.983 163.992 100.983 156.528C100.983 148.971 101.928 133.29 101.928 128L101.928 105.612C88.5139 106.083 85.8682 106.274 77.9342 106.274L62.8187 106.274C62.6304 98.6227 62.5362 97.2046 62.6304 91.1586C62.6304 85.2089 62.6304 80.1069 62.6304 75.9511L62.6303 75.9511Z" id="_x31_" fill="url(#gradient_8)" stroke="none" />
      </g>
    </g>
  </g>
</svg>
