<svg width="" height="" viewBox="0 0 178 90" fill="none" xmlns="http://www.w3.org/2000/svg">
    <g clip-path="url(#clip0_5108_383365)">
        <g clip-path="url(#clip1_5108_383365)">
            <g clip-path="url(#clip2_5108_383365)">
                <path d="M40.3032 11.1878H137.188C137.836 11.1878 138.457 11.4379 138.915 11.8831C139.373 12.3282 139.63 12.9319 139.63 13.5615V80.4696H37.8618V13.5615C37.8618 12.9319 38.119 12.3282 38.5769 11.8831C39.0347 11.4379 39.6557 11.1878 40.3032 11.1878V11.1878Z" fill="url(#paint0_linear_5108_383365)"/>
                <path d="M135.767 15.1008H41.7741C41.1103 15.1008 40.5723 15.6388 40.5723 16.3026V71.6776C40.5723 72.3414 41.1103 72.8794 41.7741 72.8794H135.767C136.431 72.8794 136.969 72.3414 136.969 71.6776V16.3026C136.969 15.6388 136.431 15.1008 135.767 15.1008Z" fill="#F1F1F1"/>
                <path d="M143.886 80.9606L33.6566 80.9606C33.0201 80.9606 32.4097 80.7077 31.9596 80.2576C31.5095 79.8075 31.2566 79.1971 31.2566 78.5606V76.0643L146.286 76.0643V78.5606C146.286 79.1971 146.033 79.8075 145.583 80.2576C145.133 80.7077 144.523 80.9606 143.886 80.9606V80.9606Z" fill="#BABABA"/>
                <g filter="url(#filter0_dd_5108_383365)">
                    <path d="M130.348 27.0995C136.939 27.0995 142.282 21.7566 142.282 15.1658C142.282 8.57496 136.939 3.23206 130.348 3.23206C123.757 3.23206 118.415 8.57496 118.415 15.1658C118.415 21.7566 123.757 27.0995 130.348 27.0995Z" fill="url(#paint1_linear_5108_383365)"/>
                </g>
                <path d="M135.112 11.7256C134.987 11.6029 134.821 11.5299 134.646 11.5204C134.47 11.5109 134.298 11.5657 134.16 11.6743L134.101 11.7256L128.327 17.4406L126.261 15.397C126.127 15.2652 125.946 15.1912 125.757 15.1912C125.568 15.1912 125.387 15.2652 125.253 15.397C125.129 15.5202 125.055 15.6842 125.045 15.8578C125.036 16.0314 125.091 16.2025 125.201 16.3383L125.253 16.3966L127.823 18.9374C127.947 19.0601 128.113 19.1331 128.288 19.1426C128.464 19.1521 128.637 19.0973 128.774 18.9887L128.831 18.9374L135.112 12.7253C135.245 12.5926 135.321 12.4128 135.321 12.2254C135.321 12.038 135.245 11.8583 135.112 11.7256V11.7256Z" fill="white"/>
                <path d="M147.41 30.7458H122.724C121.259 30.7458 120.072 31.9332 120.072 33.3978V82.3293C120.072 83.7939 121.259 84.9812 122.724 84.9812H147.41C148.875 84.9812 150.062 83.7939 150.062 82.3293V33.3978C150.062 31.9332 148.875 30.7458 147.41 30.7458Z" fill="url(#paint2_linear_5108_383365)"/>
                <path d="M148.249 81.5094V34.3469C148.249 33.6396 147.674 33.0663 146.966 33.0663H123.011C122.303 33.0663 121.729 33.6396 121.729 34.3469V81.5094C121.729 82.2167 122.303 82.79 123.011 82.79H146.966C147.674 82.79 148.249 82.2167 148.249 81.5094Z" fill="#F1F1F1"/>
            </g>
            <g filter="url(#filter1_ddii_5108_383365)">
                <path d="M124.581 35.3867C124.104 35.3867 123.718 35.7729 123.718 36.2493V43.0634C123.718 43.5398 124.104 43.926 124.581 43.926H126.812L126.812 45.4883C126.812 45.7757 127.153 45.927 127.366 45.7341L129.364 43.926H136.836C137.313 43.926 137.699 43.5398 137.699 43.0634V36.2493C137.699 35.7729 137.313 35.3867 136.836 35.3867H124.581Z" fill="#F4F3F3"/>
            </g>
            <g filter="url(#filter2_i_5108_383365)">
                <path fill-rule="evenodd" clip-rule="evenodd" d="M126.392 38.696C126.392 38.499 126.552 38.3394 126.749 38.3394H134.587C134.784 38.3394 134.943 38.499 134.943 38.696C134.943 38.8929 134.784 39.0526 134.587 39.0526H126.749C126.552 39.0526 126.392 38.8929 126.392 38.696ZM126.392 40.7319C126.392 40.535 126.552 40.3753 126.749 40.3753H130.786C130.983 40.3753 131.143 40.535 131.143 40.7319C131.143 40.9289 130.983 41.0885 130.786 41.0885H126.749C126.552 41.0885 126.392 40.9289 126.392 40.7319Z" fill="url(#paint3_linear_5108_383365)"/>
            </g>
            <g filter="url(#filter3_f_5108_383365)">
                <path fill-rule="evenodd" clip-rule="evenodd" d="M135.058 45.663C133.555 45.663 132.337 46.881 132.337 48.3836V49.0675C132.337 50.5701 133.555 51.7882 135.058 51.7882H142.879C142.812 52.1094 142.899 52.4646 143.189 52.7263L143.341 52.8644C143.984 53.4463 145.012 52.9901 145.012 52.123V51.9846C145.012 51.8793 144.996 51.7779 144.966 51.6825C146.102 51.3558 146.933 50.3088 146.933 49.0675V48.3836C146.933 46.881 145.715 45.663 144.213 45.663H135.058Z" fill="url(#paint4_linear_5108_383365)" fill-opacity="0.1"/>
            </g>
            <g filter="url(#filter4_ddii_5108_383365)">
                <path d="M133.239 45.3315C132.741 45.3315 132.337 45.7353 132.337 46.2334V50.5548C132.337 51.0529 132.741 51.4567 133.239 51.4567H142.152L144.458 53.5441C144.671 53.737 145.012 53.5858 145.012 53.2984L145.012 51.4567H146.031C146.529 51.4567 146.933 51.0529 146.933 50.5548V46.2334C146.933 45.7353 146.529 45.3315 146.031 45.3315H133.239Z" fill="url(#paint5_linear_5108_383365)"/>
            </g>
            <g filter="url(#filter5_ii_5108_383365)">
                <path d="M135.595 48.3941C135.595 48.2141 135.749 48.0683 135.938 48.0683H143.463C143.652 48.0683 143.806 48.2141 143.806 48.3941C143.806 48.574 143.652 48.7199 143.463 48.7199H135.938C135.749 48.7199 135.595 48.574 135.595 48.3941Z" fill="white"/>
            </g>
            <g filter="url(#filter6_ddii_5108_383365)">
                <path d="M77.2828 19.1436C76.0158 19.1436 74.9888 20.1707 74.9888 21.4377V32.4297C74.9888 33.6967 76.0158 34.7238 77.2828 34.7238H99.9551L105.568 39.8045C106.207 40.3832 107.23 39.9296 107.23 39.0672L107.23 34.7238H109.822C111.089 34.7238 112.116 33.6967 112.116 32.4297V21.4377C112.116 20.1707 111.089 19.1436 109.822 19.1436H77.2828Z" fill="url(#paint6_linear_5108_383365)"/>
            </g>
            <g filter="url(#filter7_ii_5108_383365)">
                <path d="M83.2759 26.9337C83.2759 26.476 83.6658 26.105 84.1468 26.105H103.289C103.77 26.105 104.16 26.476 104.16 26.9337C104.16 27.3914 103.77 27.7624 103.289 27.7624H84.1468C83.6658 27.7624 83.2759 27.3914 83.2759 26.9337Z" fill="white"/>
            </g>
            <g filter="url(#filter8_ii_5108_383365)">
                <path d="M36.8409 3.56354C35.5739 3.56354 34.5469 4.5906 34.5469 5.85755V23.9802C34.5469 25.2472 35.5739 26.2743 36.8409 26.2743H42.776L42.776 30.175C42.776 31.0374 43.7986 31.491 44.4379 30.9123L49.5617 26.2743H69.435C70.702 26.2743 71.729 25.2472 71.729 23.9803V5.85755C71.729 4.5906 70.702 3.56354 69.435 3.56354H36.8409Z" fill="#F4F3F3"/>
            </g>
            <g filter="url(#filter9_i_5108_383365)">
                <path fill-rule="evenodd" clip-rule="evenodd" d="M41.6577 12.3646C41.6577 11.8408 42.0823 11.4161 42.6061 11.4161H63.4517C63.9755 11.4161 64.4002 11.8408 64.4002 12.3646C64.4002 12.8884 63.9755 13.313 63.4517 13.313H42.6061C42.0823 13.313 41.6577 12.8884 41.6577 12.3646ZM41.6577 17.7792C41.6577 17.2554 42.0823 16.8308 42.6061 16.8308H53.344C53.8678 16.8308 54.2924 17.2554 54.2924 17.7792C54.2924 18.3031 53.8678 18.7277 53.344 18.7277H42.6061C42.0823 18.7277 41.6577 18.3031 41.6577 17.7792Z" fill="url(#paint7_linear_5108_383365)"/>
            </g>
        </g>
    </g>
    <defs>
        <filter id="filter0_dd_5108_383365" x="114.815" y="1.23206" width="31.0672" height="31.0674" filterUnits="userSpaceOnUse" color-interpolation-filters="sRGB">
            <feFlood flood-opacity="0" result="BackgroundImageFix"/>
            <feColorMatrix in="SourceAlpha" type="matrix" values="0 0 0 0 0 0 0 0 0 0 0 0 0 0 0 0 0 0 127 0" result="hardAlpha"/>
            <feOffset dy="0.3"/>
            <feGaussianBlur stdDeviation="0.45"/>
            <feColorMatrix type="matrix" values="0 0 0 0 0 0 0 0 0 0 0 0 0 0 0 0 0 0 0.11 0"/>
            <feBlend mode="normal" in2="BackgroundImageFix" result="effect1_dropShadow_5108_383365"/>
            <feColorMatrix in="SourceAlpha" type="matrix" values="0 0 0 0 0 0 0 0 0 0 0 0 0 0 0 0 0 0 127 0" result="hardAlpha"/>
            <feOffset dy="1.6"/>
            <feGaussianBlur stdDeviation="1.8"/>
            <feColorMatrix type="matrix" values="0 0 0 0 0 0 0 0 0 0 0 0 0 0 0 0 0 0 0.13 0"/>
            <feBlend mode="normal" in2="effect1_dropShadow_5108_383365" result="effect2_dropShadow_5108_383365"/>
            <feBlend mode="normal" in="SourceGraphic" in2="effect2_dropShadow_5108_383365" result="shape"/>
        </filter>
        <filter id="filter1_ddii_5108_383365" x="118.718" y="29.3867" width="23.9805" height="20.4337" filterUnits="userSpaceOnUse" color-interpolation-filters="sRGB">
            <feFlood flood-opacity="0" result="BackgroundImageFix"/>
            <feColorMatrix in="SourceAlpha" type="matrix" values="0 0 0 0 0 0 0 0 0 0 0 0 0 0 0 0 0 0 127 0" result="hardAlpha"/>
            <feOffset dy="-1"/>
            <feGaussianBlur stdDeviation="2.5"/>
            <feComposite in2="hardAlpha" operator="out"/>
            <feColorMatrix type="matrix" values="0 0 0 0 0 0 0 0 0 0 0 0 0 0 0 0 0 0 0.05 0"/>
            <feBlend mode="normal" in2="BackgroundImageFix" result="effect1_dropShadow_5108_383365"/>
            <feColorMatrix in="SourceAlpha" type="matrix" values="0 0 0 0 0 0 0 0 0 0 0 0 0 0 0 0 0 0 127 0" result="hardAlpha"/>
            <feOffset dx="0.413012" dy="1.03253"/>
            <feGaussianBlur stdDeviation="0.413012"/>
            <feComposite in2="hardAlpha" operator="out"/>
            <feColorMatrix type="matrix" values="0 0 0 0 0 0 0 0 0 0 0 0 0 0 0 0 0 0 0.1 0"/>
            <feBlend mode="normal" in2="effect1_dropShadow_5108_383365" result="effect2_dropShadow_5108_383365"/>
            <feBlend mode="normal" in="SourceGraphic" in2="effect2_dropShadow_5108_383365" result="shape"/>
            <feColorMatrix in="SourceAlpha" type="matrix" values="0 0 0 0 0 0 0 0 0 0 0 0 0 0 0 0 0 0 127 0" result="hardAlpha"/>
            <feOffset dy="-0.929276"/>
            <feGaussianBlur stdDeviation="0.516265"/>
            <feComposite in2="hardAlpha" operator="arithmetic" k2="-1" k3="1"/>
            <feColorMatrix type="matrix" values="0 0 0 0 0 0 0 0 0 0 0 0 0 0 0 0 0 0 0.15 0"/>
            <feBlend mode="normal" in2="shape" result="effect3_innerShadow_5108_383365"/>
            <feColorMatrix in="SourceAlpha" type="matrix" values="0 0 0 0 0 0 0 0 0 0 0 0 0 0 0 0 0 0 127 0" result="hardAlpha"/>
            <feOffset dy="0.62"/>
            <feGaussianBlur stdDeviation="0.5"/>
            <feComposite in2="hardAlpha" operator="arithmetic" k2="-1" k3="1"/>
            <feColorMatrix type="matrix" values="0 0 0 0 1 0 0 0 0 1 0 0 0 0 1 0 0 0 0.5 0"/>
            <feBlend mode="normal" in2="effect3_innerShadow_5108_383365" result="effect4_innerShadow_5108_383365"/>
        </filter>
        <filter id="filter2_i_5108_383365" x="126.392" y="37.5205" width="8.55127" height="3.56807" filterUnits="userSpaceOnUse" color-interpolation-filters="sRGB">
            <feFlood flood-opacity="0" result="BackgroundImageFix"/>
            <feBlend mode="normal" in="SourceGraphic" in2="BackgroundImageFix" result="shape"/>
            <feColorMatrix in="SourceAlpha" type="matrix" values="0 0 0 0 0 0 0 0 0 0 0 0 0 0 0 0 0 0 127 0" result="hardAlpha"/>
            <feOffset dy="-1.22838"/>
            <feGaussianBlur stdDeviation="0.40946"/>
            <feComposite in2="hardAlpha" operator="arithmetic" k2="-1" k3="1"/>
            <feColorMatrix type="matrix" values="0 0 0 0 0.227257 0 0 0 0 0.334163 0 0 0 0 0.708333 0 0 0 0.23 0"/>
            <feBlend mode="normal" in2="shape" result="effect1_innerShadow_5108_383365"/>
        </filter>
        <filter id="filter3_f_5108_383365" x="128.337" y="41.663" width="22.5962" height="15.462" filterUnits="userSpaceOnUse" color-interpolation-filters="sRGB">
            <feFlood flood-opacity="0" result="BackgroundImageFix"/>
            <feBlend mode="normal" in="SourceGraphic" in2="BackgroundImageFix" result="shape"/>
            <feGaussianBlur stdDeviation="2" result="effect1_foregroundBlur_5108_383365"/>
        </filter>
        <filter id="filter4_ddii_5108_383365" x="131.772" y="43.7552" width="17.1264" height="12.0749" filterUnits="userSpaceOnUse" color-interpolation-filters="sRGB">
            <feFlood flood-opacity="0" result="BackgroundImageFix"/>
            <feColorMatrix in="SourceAlpha" type="matrix" values="0 0 0 0 0 0 0 0 0 0 0 0 0 0 0 0 0 0 127 0" result="hardAlpha"/>
            <feOffset dy="0.213572"/>
            <feGaussianBlur stdDeviation="0.136033"/>
            <feComposite in2="hardAlpha" operator="out"/>
            <feColorMatrix type="matrix" values="0 0 0 0 0 0 0 0 0 0 0 0 0 0 0 0 0 0 0.25 0"/>
            <feBlend mode="normal" in2="BackgroundImageFix" result="effect1_dropShadow_5108_383365"/>
            <feColorMatrix in="SourceAlpha" type="matrix" values="0 0 0 0 0 0 0 0 0 0 0 0 0 0 0 0 0 0 127 0" result="hardAlpha"/>
            <feOffset dx="0.700552" dy="0.934546"/>
            <feGaussianBlur stdDeviation="0.632553"/>
            <feComposite in2="hardAlpha" operator="out"/>
            <feColorMatrix type="matrix" values="0 0 0 0 0 0 0 0 0 0 0 0 0 0 0 0 0 0 0.1 0"/>
            <feBlend mode="normal" in2="effect1_dropShadow_5108_383365" result="effect2_dropShadow_5108_383365"/>
            <feBlend mode="normal" in="SourceGraphic" in2="effect2_dropShadow_5108_383365" result="shape"/>
            <feColorMatrix in="SourceAlpha" type="matrix" values="0 0 0 0 0 0 0 0 0 0 0 0 0 0 0 0 0 0 127 0" result="hardAlpha"/>
            <feOffset dy="-1.57624"/>
            <feGaussianBlur stdDeviation="0.87569"/>
            <feComposite in2="hardAlpha" operator="arithmetic" k2="-1" k3="1"/>
            <feColorMatrix type="matrix" values="0 0 0 0 0 0 0 0 0 0 0 0 0 0 0 0 0 0 0.15 0"/>
            <feBlend mode="normal" in2="shape" result="effect3_innerShadow_5108_383365"/>
            <feColorMatrix in="SourceAlpha" type="matrix" values="0 0 0 0 0 0 0 0 0 0 0 0 0 0 0 0 0 0 127 0" result="hardAlpha"/>
            <feOffset dy="1.05083"/>
            <feGaussianBlur stdDeviation="0.700552"/>
            <feComposite in2="hardAlpha" operator="arithmetic" k2="-1" k3="1"/>
            <feColorMatrix type="matrix" values="0 0 0 0 1 0 0 0 0 1 0 0 0 0 1 0 0 0 0.25 0"/>
            <feBlend mode="normal" in2="effect3_innerShadow_5108_383365" result="effect4_innerShadow_5108_383365"/>
        </filter>
        <filter id="filter5_ii_5108_383365" x="135.226" y="47.6445" width="8.57966" height="1.3579" filterUnits="userSpaceOnUse" color-interpolation-filters="sRGB">
            <feFlood flood-opacity="0" result="BackgroundImageFix"/>
            <feBlend mode="normal" in="SourceGraphic" in2="BackgroundImageFix" result="shape"/>
            <feColorMatrix in="SourceAlpha" type="matrix" values="0 0 0 0 0 0 0 0 0 0 0 0 0 0 0 0 0 0 127 0" result="hardAlpha"/>
            <feOffset dx="-0.369207" dy="-0.423776"/>
            <feGaussianBlur stdDeviation="0.23537"/>
            <feComposite in2="hardAlpha" operator="arithmetic" k2="-1" k3="1"/>
            <feColorMatrix type="matrix" values="0 0 0 0 0 0 0 0 0 0 0 0 0 0 0 0 0 0 0.17 0"/>
            <feBlend mode="normal" in2="shape" result="effect1_innerShadow_5108_383365"/>
            <feColorMatrix in="SourceAlpha" type="matrix" values="0 0 0 0 0 0 0 0 0 0 0 0 0 0 0 0 0 0 127 0" result="hardAlpha"/>
            <feOffset dy="0.282517"/>
            <feGaussianBlur stdDeviation="0.188345"/>
            <feComposite in2="hardAlpha" operator="arithmetic" k2="-1" k3="1"/>
            <feColorMatrix type="matrix" values="0 0 0 0 1 0 0 0 0 1 0 0 0 0 1 0 0 0 0.87 0"/>
            <feBlend mode="normal" in2="effect1_innerShadow_5108_383365" result="effect2_innerShadow_5108_383365"/>
        </filter>
        <filter id="filter6_ddii_5108_383365" x="73.5528" y="15.1343" width="43.5628" height="30.5244" filterUnits="userSpaceOnUse" color-interpolation-filters="sRGB">
            <feFlood flood-opacity="0" result="BackgroundImageFix"/>
            <feColorMatrix in="SourceAlpha" type="matrix" values="0 0 0 0 0 0 0 0 0 0 0 0 0 0 0 0 0 0 127 0" result="hardAlpha"/>
            <feOffset dy="0.543241"/>
            <feGaussianBlur stdDeviation="0.346014"/>
            <feComposite in2="hardAlpha" operator="out"/>
            <feColorMatrix type="matrix" values="0 0 0 0 0 0 0 0 0 0 0 0 0 0 0 0 0 0 0.25 0"/>
            <feBlend mode="normal" in2="BackgroundImageFix" result="effect1_dropShadow_5108_383365"/>
            <feColorMatrix in="SourceAlpha" type="matrix" values="0 0 0 0 0 0 0 0 0 0 0 0 0 0 0 0 0 0 127 0" result="hardAlpha"/>
            <feOffset dx="1.78193" dy="2.37711"/>
            <feGaussianBlur stdDeviation="1.60896"/>
            <feComposite in2="hardAlpha" operator="out"/>
            <feColorMatrix type="matrix" values="0 0 0 0 0 0 0 0 0 0 0 0 0 0 0 0 0 0 0.1 0"/>
            <feBlend mode="normal" in2="effect1_dropShadow_5108_383365" result="effect2_dropShadow_5108_383365"/>
            <feBlend mode="normal" in="SourceGraphic" in2="effect2_dropShadow_5108_383365" result="shape"/>
            <feColorMatrix in="SourceAlpha" type="matrix" values="0 0 0 0 0 0 0 0 0 0 0 0 0 0 0 0 0 0 127 0" result="hardAlpha"/>
            <feOffset dy="-4.00934"/>
            <feGaussianBlur stdDeviation="2.22741"/>
            <feComposite in2="hardAlpha" operator="arithmetic" k2="-1" k3="1"/>
            <feColorMatrix type="matrix" values="0 0 0 0 0 0 0 0 0 0 0 0 0 0 0 0 0 0 0.15 0"/>
            <feBlend mode="normal" in2="shape" result="effect3_innerShadow_5108_383365"/>
            <feColorMatrix in="SourceAlpha" type="matrix" values="0 0 0 0 0 0 0 0 0 0 0 0 0 0 0 0 0 0 127 0" result="hardAlpha"/>
            <feOffset dy="2.67289"/>
            <feGaussianBlur stdDeviation="1.78193"/>
            <feComposite in2="hardAlpha" operator="arithmetic" k2="-1" k3="1"/>
            <feColorMatrix type="matrix" values="0 0 0 0 1 0 0 0 0 1 0 0 0 0 1 0 0 0 0.25 0"/>
            <feBlend mode="normal" in2="effect3_innerShadow_5108_383365" result="effect4_innerShadow_5108_383365"/>
        </filter>
        <filter id="filter7_ii_5108_383365" x="82.3368" y="25.0271" width="21.8229" height="3.454" filterUnits="userSpaceOnUse" color-interpolation-filters="sRGB">
            <feFlood flood-opacity="0" result="BackgroundImageFix"/>
            <feBlend mode="normal" in="SourceGraphic" in2="BackgroundImageFix" result="shape"/>
            <feColorMatrix in="SourceAlpha" type="matrix" values="0 0 0 0 0 0 0 0 0 0 0 0 0 0 0 0 0 0 127 0" result="hardAlpha"/>
            <feOffset dx="-0.939117" dy="-1.07792"/>
            <feGaussianBlur stdDeviation="0.598687"/>
            <feComposite in2="hardAlpha" operator="arithmetic" k2="-1" k3="1"/>
            <feColorMatrix type="matrix" values="0 0 0 0 0 0 0 0 0 0 0 0 0 0 0 0 0 0 0.17 0"/>
            <feBlend mode="normal" in2="shape" result="effect1_innerShadow_5108_383365"/>
            <feColorMatrix in="SourceAlpha" type="matrix" values="0 0 0 0 0 0 0 0 0 0 0 0 0 0 0 0 0 0 127 0" result="hardAlpha"/>
            <feOffset dy="0.718611"/>
            <feGaussianBlur stdDeviation="0.479074"/>
            <feComposite in2="hardAlpha" operator="arithmetic" k2="-1" k3="1"/>
            <feColorMatrix type="matrix" values="0 0 0 0 1 0 0 0 0 1 0 0 0 0 1 0 0 0 0.87 0"/>
            <feBlend mode="normal" in2="effect1_innerShadow_5108_383365" result="effect2_innerShadow_5108_383365"/>
        </filter>
        <filter id="filter8_ii_5108_383365" x="34.5469" y="1.09206" width="37.1821" height="31.7271" filterUnits="userSpaceOnUse" color-interpolation-filters="sRGB">
            <feFlood flood-opacity="0" result="BackgroundImageFix"/>
            <feBlend mode="normal" in="SourceGraphic" in2="BackgroundImageFix" result="shape"/>
            <feColorMatrix in="SourceAlpha" type="matrix" values="0 0 0 0 0 0 0 0 0 0 0 0 0 0 0 0 0 0 127 0" result="hardAlpha"/>
            <feOffset dy="-2.47148"/>
            <feGaussianBlur stdDeviation="1.37304"/>
            <feComposite in2="hardAlpha" operator="arithmetic" k2="-1" k3="1"/>
            <feColorMatrix type="matrix" values="0 0 0 0 0 0 0 0 0 0 0 0 0 0 0 0 0 0 0.15 0"/>
            <feBlend mode="normal" in2="shape" result="effect1_innerShadow_5108_383365"/>
            <feColorMatrix in="SourceAlpha" type="matrix" values="0 0 0 0 0 0 0 0 0 0 0 0 0 0 0 0 0 0 127 0" result="hardAlpha"/>
            <feOffset dy="1.64765"/>
            <feGaussianBlur stdDeviation="1.09844"/>
            <feComposite in2="hardAlpha" operator="arithmetic" k2="-1" k3="1"/>
            <feColorMatrix type="matrix" values="0 0 0 0 1 0 0 0 0 1 0 0 0 0 1 0 0 0 0.8 0"/>
            <feBlend mode="normal" in2="effect1_innerShadow_5108_383365" result="effect2_innerShadow_5108_383365"/>
        </filter>
        <filter id="filter9_i_5108_383365" x="41.6577" y="9.23816" width="22.7427" height="9.48954" filterUnits="userSpaceOnUse" color-interpolation-filters="sRGB">
            <feFlood flood-opacity="0" result="BackgroundImageFix"/>
            <feBlend mode="normal" in="SourceGraphic" in2="BackgroundImageFix" result="shape"/>
            <feColorMatrix in="SourceAlpha" type="matrix" values="0 0 0 0 0 0 0 0 0 0 0 0 0 0 0 0 0 0 127 0" result="hardAlpha"/>
            <feOffset dy="-3.26697"/>
            <feGaussianBlur stdDeviation="1.08899"/>
            <feComposite in2="hardAlpha" operator="arithmetic" k2="-1" k3="1"/>
            <feColorMatrix type="matrix" values="0 0 0 0 0.227257 0 0 0 0 0.334163 0 0 0 0 0.708333 0 0 0 0.23 0"/>
            <feBlend mode="normal" in2="shape" result="effect1_innerShadow_5108_383365"/>
        </filter>
        <linearGradient id="paint0_linear_5108_383365" x1="100.543" y1="127.475" x2="75.8573" y2="-50.7967" gradientUnits="userSpaceOnUse">
            <stop stop-color="#737373"/>
            <stop offset="0.25" stop-color="#969695"/>
            <stop offset="0.58" stop-color="#BFBDBC"/>
            <stop offset="0.84" stop-color="#D8D6D4"/>
            <stop offset="1" stop-color="#E1DFDD"/>
        </linearGradient>
        <linearGradient id="paint1_linear_5108_383365" x1="136.313" y1="25.5121" x2="124.372" y2="4.83072" gradientUnits="userSpaceOnUse">
            <stop stop-color="#00C0A5"/>
            <stop offset="0.513157" stop-color="#3CD6C1"/>
            <stop offset="1" stop-color="#74EBDB"/>
        </linearGradient>
        <linearGradient id="paint2_linear_5108_383365" x1="148.249" y1="30.7459" x2="121.729" y2="85.1105" gradientUnits="userSpaceOnUse">
            <stop stop-color="#C0C0C0"/>
            <stop offset="1" stop-color="#B6B6B6"/>
        </linearGradient>
        <linearGradient id="paint3_linear_5108_383365" x1="141.284" y1="39.4397" x2="139.033" y2="32.6631" gradientUnits="userSpaceOnUse">
            <stop stop-color="#278FF1"/>
            <stop offset="1" stop-color="#005FB8"/>
        </linearGradient>
        <linearGradient id="paint4_linear_5108_383365" x1="157.756" y1="48.6496" x2="149.323" y2="32.6805" gradientUnits="userSpaceOnUse">
            <stop stop-color="#102B44"/>
            <stop offset="1" stop-color="#002445"/>
        </linearGradient>
        <linearGradient id="paint5_linear_5108_383365" x1="157.756" y1="48.6531" x2="147.837" y2="31.7653" gradientUnits="userSpaceOnUse">
            <stop stop-color="#278FF1"/>
            <stop offset="1" stop-color="#005FB8"/>
        </linearGradient>
        <linearGradient id="paint6_linear_5108_383365" x1="139.644" y1="27.5167" x2="114.752" y2="-15.2497" gradientUnits="userSpaceOnUse">
            <stop stop-color="#278FF1"/>
            <stop offset="1" stop-color="#005FB8"/>
        </linearGradient>
        <linearGradient id="paint7_linear_5108_383365" x1="81.2628" y1="14.3425" x2="75.2776" y2="-3.68035" gradientUnits="userSpaceOnUse">
            <stop stop-color="#278FF1"/>
            <stop offset="1" stop-color="#005FB8"/>
        </linearGradient>
        <clipPath id="clip0_5108_383365">
            <rect width="178" height="90" fill="white"/>
        </clipPath>
        <clipPath id="clip1_5108_383365">
            <rect width="151.16" height="120" fill="white" transform="translate(13 -15)"/>
        </clipPath>
        <clipPath id="clip2_5108_383365">
            <rect width="151.16" height="120" fill="white" transform="translate(13 -15)"/>
        </clipPath>
    </defs>
</svg>
