<?xml version="1.0" encoding="utf-8"?>
<svg width="auto" height="auto" viewBox="0 0 512 512" version="1.1"
  xmlns:xlink="http://www.w3.org/1999/xlink"
  xmlns="http://www.w3.org/2000/svg">
  <g id="glide-app-adobe-pdf">
    <path d="M0 0L512 0L512 512L0 512L0 0Z" id="Background" fill="none" fill-rule="evenodd" stroke="none" />
    <g id="Logo" transform="translate(16 22)">
      <g id="Background">
        <path d="M85 0L395 0C442 0 480 38 480 85L480 383C480 430 442 468 395 468L85 468C38 468 0 430 0 383L0 85C0 38 38 0 85 0L85 0Z" id="XMLID_1_" fill="#B30B00" fill-rule="evenodd" stroke="none" />
      </g>
      <g id="Icon" transform="translate(94.55615 89.79999)">
        <path d="M291.444 181.2C281.844 171 263.644 165.8 237.244 165.8C222.644 166 207.844 167.2 193.444 169.6C184.244 160.6 175.644 150.8 168.244 140.2C162.444 132.4 157.244 124.2 152.444 115.6C161.844 86.2 166.444 62.6 166.444 44.8C166.444 23.2 157.844 0 133.844 0C125.444 0.199997 117.844 4.8 113.644 11.8C103.444 29.4 107.444 65.8 123.844 102.6C118.044 119.6 111.844 136 104.244 154.4C97.6439 170 90.4439 185.4 82.2439 200.2C57.6439 210 5.44386 234 0.443855 260.6C-1.15614 268.4 1.64385 276.4 7.64385 281.8C13.4439 287 21.0439 289.6 28.8438 289.4C60.2438 289.4 91.6439 245.8 112.844 208.4C124.844 204.4 137.044 200.6 149.244 197.4C162.644 193.8 175.444 191 187.644 188.8C220.844 217.8 250.444 222.2 265.444 222.2C285.844 222.2 293.444 213.4 296.244 206C299.244 197.6 297.444 188 291.444 181.2L291.444 181.2ZM269.644 196.4C268.444 202.2 262.644 206 254.444 206C252.044 206 249.844 205.8 247.644 205.2C232.644 201.6 218.244 194.4 204.044 183.2C214.644 181.6 225.444 180.8 236.444 180.8C243.644 180.6 250.844 181.2 258.044 182.4C264.244 183.4 271.444 187 269.644 196.4L269.644 196.4ZM126.444 19.4C127.844 16.8 130.444 15 133.444 15C141.044 15 142.644 24.2 142.644 31.8C142.644 44 139.044 63.6 132.644 85.2C120.044 51.2 121.844 27.6 126.444 19.4L126.444 19.4ZM144.644 180C138.044 181.8 131.444 183.6 124.844 185.6C128.444 178.4 131.644 171.4 134.444 164.6C138.044 155.6 141.644 146.8 144.844 138C147.644 142.4 150.444 146.6 153.444 150.8C159.244 158.8 165.244 166.4 171.844 173.6C171.844 173.4 153.644 177.6 144.644 180L144.644 180ZM74.4439 220C54.2439 252.4 34.4439 272.8 22.8439 272.8C21.0439 272.8 19.0439 272.2 17.6439 271C15.4439 269.2 14.4439 266.4 15.0439 263.6C17.4439 252 40.2439 235.2 74.4439 220L74.4439 220Z" id="_256" fill="#FFFFFF" fill-rule="evenodd" stroke="none" />
      </g>
    </g>
  </g>
</svg>