<svg viewBox="0 0 328 260" fill="none" xmlns="http://www.w3.org/2000/svg">
<path d="M59.0857 52.4309H269.748C271.156 52.4309 272.506 52.9894 273.502 53.9834C274.497 54.9774 275.056 56.3256 275.056 57.7314V207.142H53.7773V57.7314C53.7773 56.3256 54.3366 54.9774 55.3321 53.9834C56.3276 52.9894 57.6778 52.4309 59.0857 52.4309Z" fill="url(#paint0_linear_3572_89252)"/>
<path d="M266.39 65.2184H62.4368C60.9966 65.2184 59.8291 66.3842 59.8291 67.8223V187.802C59.8291 189.24 60.9966 190.405 62.4368 190.405H266.39C267.831 190.405 268.998 189.24 268.998 187.802V67.8223C268.998 66.3842 267.831 65.2184 266.39 65.2184Z" fill="#F1F1F1"/>
<path d="M284.008 207.915L44.823 207.915C43.4418 207.915 42.1172 207.367 41.1405 206.391C40.1639 205.416 39.6152 204.094 39.6152 202.715V197.306L289.216 197.306V202.715C289.216 204.094 288.667 205.416 287.69 206.391C286.714 207.367 285.389 207.915 284.008 207.915Z" fill="#BABABA"/>
<path d="M191.016 99.116H137.45C134.272 99.116 131.696 101.689 131.696 104.862V210.88C131.696 214.053 134.272 216.626 137.45 216.626H191.016C194.194 216.626 196.771 214.053 196.771 210.88V104.862C196.771 101.689 194.194 99.116 191.016 99.116Z" fill="url(#paint1_linear_3572_89252)"/>
<path d="M192.836 209.104V106.918C192.836 105.386 191.591 104.144 190.054 104.144H138.075C136.538 104.144 135.293 105.386 135.293 106.918V209.104C135.293 210.636 136.538 211.878 138.075 211.878H190.054C191.591 211.878 192.836 210.636 192.836 209.104Z" fill="#F1F1F1"/>
<g filter="url(#filter0_dd_3572_89252)">
<path d="M158 131C159.105 131 160 130.105 160 129C160 127.895 159.105 127 158 127V131ZM142 127C140.895 127 140 127.895 140 129C140 130.105 140.895 131 142 131V127ZM158 127H142V131H158V127Z" fill="#B8BABC"/>
</g>
<g filter="url(#filter1_dd_3572_89252)">
<path d="M177 118C178.105 118 179 117.105 179 116C179 114.895 178.105 114 177 114V118ZM142 114C140.895 114 140 114.895 140 116C140 117.105 140.895 118 142 118V114ZM177 114H142V118H177V114Z" fill="#B8BABC"/>
</g>
<g filter="url(#filter2_dd_3572_89252)">
<rect x="165" y="124" width="24.2105" height="10" rx="5" fill="url(#paint2_radial_3572_89252)"/>
</g>
<g filter="url(#filter3_dd_3572_89252)">
<path d="M184.211 131.895C185.809 131.895 187.105 130.599 187.105 129C187.105 127.401 185.809 126.105 184.211 126.105C182.612 126.105 181.316 127.401 181.316 129C181.316 130.599 182.612 131.895 184.211 131.895Z" fill="url(#paint3_linear_3572_89252)"/>
</g>
<g filter="url(#filter4_ddii_3572_89252)">
<path fill-rule="evenodd" clip-rule="evenodd" d="M263.915 16C286.606 16 305 34.3945 305 57.0853C305 79.776 286.606 98.1705 263.915 98.1705C260.267 98.1705 256.73 97.6951 253.363 96.8029L241.035 103.109C238.985 104.157 236.593 102.505 236.846 100.218L238.054 89.3096C238.064 89.22 238.077 89.1319 238.095 89.0455C228.783 81.5135 222.829 69.9947 222.829 57.0853C222.829 34.3945 241.224 16 263.915 16Z" fill="url(#paint4_linear_3572_89252)"/>
</g>
<path d="M265.877 31.0861C262.603 30.8139 259.355 31.8549 256.847 33.9801C254.339 36.1053 252.777 39.1407 252.504 42.4188C252.231 45.6975 253.27 48.9501 255.393 51.461C257.515 53.972 260.547 55.5355 263.822 55.8078C267.096 56.08 270.345 55.0387 272.853 52.9128C275.361 50.787 276.923 47.7507 277.196 44.472C277.468 41.1938 276.428 37.9419 274.305 35.4317C272.183 32.9215 269.151 31.3584 265.877 31.0861Z" fill="white"/>
<path d="M248.904 59.5498C248.215 59.4921 247.522 59.5709 246.864 59.7817C246.205 59.9925 245.594 60.3311 245.066 60.7782C244.539 61.2254 244.104 61.7722 243.787 62.3876C243.47 63.0029 243.278 63.6747 243.221 64.3646L243.143 65.2978C242.757 69.9423 244.866 73.6164 248.355 76.1649C251.788 78.6681 256.561 80.108 261.755 80.5399C266.95 80.9719 271.904 80.3407 275.694 78.4382C279.556 76.5009 282.243 73.2256 282.63 68.5811L282.707 67.6479C282.765 66.958 282.686 66.2637 282.475 65.6044C282.264 64.9452 281.926 64.3341 281.479 63.8059C281.032 63.2778 280.486 62.8429 279.871 62.5263C279.256 62.2096 278.586 62.0174 277.897 61.9605L248.904 59.5498Z" fill="white"/>
<defs>
<filter id="filter0_dd_3572_89252" x="137.098" y="125.388" width="25.8048" height="9.80483" filterUnits="userSpaceOnUse" color-interpolation-filters="sRGB">
<feFlood flood-opacity="0" result="BackgroundImageFix"/>
<feColorMatrix in="SourceAlpha" type="matrix" values="0 0 0 0 0 0 0 0 0 0 0 0 0 0 0 0 0 0 127 0" result="hardAlpha"/>
<feOffset dy="0.241868"/>
<feGaussianBlur stdDeviation="0.362802"/>
<feColorMatrix type="matrix" values="0 0 0 0 0 0 0 0 0 0 0 0 0 0 0 0 0 0 0.04 0"/>
<feBlend mode="normal" in2="BackgroundImageFix" result="effect1_dropShadow_3572_89252"/>
<feColorMatrix in="SourceAlpha" type="matrix" values="0 0 0 0 0 0 0 0 0 0 0 0 0 0 0 0 0 0 127 0" result="hardAlpha"/>
<feOffset dy="1.28996"/>
<feGaussianBlur stdDeviation="1.45121"/>
<feColorMatrix type="matrix" values="0 0 0 0 0 0 0 0 0 0 0 0 0 0 0 0 0 0 0.08 0"/>
<feBlend mode="normal" in2="effect1_dropShadow_3572_89252" result="effect2_dropShadow_3572_89252"/>
<feBlend mode="normal" in="SourceGraphic" in2="effect2_dropShadow_3572_89252" result="shape"/>
</filter>
<filter id="filter1_dd_3572_89252" x="137.098" y="112.388" width="44.8048" height="9.80483" filterUnits="userSpaceOnUse" color-interpolation-filters="sRGB">
<feFlood flood-opacity="0" result="BackgroundImageFix"/>
<feColorMatrix in="SourceAlpha" type="matrix" values="0 0 0 0 0 0 0 0 0 0 0 0 0 0 0 0 0 0 127 0" result="hardAlpha"/>
<feOffset dy="0.241868"/>
<feGaussianBlur stdDeviation="0.362802"/>
<feColorMatrix type="matrix" values="0 0 0 0 0 0 0 0 0 0 0 0 0 0 0 0 0 0 0.04 0"/>
<feBlend mode="normal" in2="BackgroundImageFix" result="effect1_dropShadow_3572_89252"/>
<feColorMatrix in="SourceAlpha" type="matrix" values="0 0 0 0 0 0 0 0 0 0 0 0 0 0 0 0 0 0 127 0" result="hardAlpha"/>
<feOffset dy="1.28996"/>
<feGaussianBlur stdDeviation="1.45121"/>
<feColorMatrix type="matrix" values="0 0 0 0 0 0 0 0 0 0 0 0 0 0 0 0 0 0 0.08 0"/>
<feBlend mode="normal" in2="effect1_dropShadow_3572_89252" result="effect2_dropShadow_3572_89252"/>
<feBlend mode="normal" in="SourceGraphic" in2="effect2_dropShadow_3572_89252" result="shape"/>
</filter>
<filter id="filter2_dd_3572_89252" x="163.484" y="123.158" width="27.242" height="13.0316" filterUnits="userSpaceOnUse" color-interpolation-filters="sRGB">
<feFlood flood-opacity="0" result="BackgroundImageFix"/>
<feColorMatrix in="SourceAlpha" type="matrix" values="0 0 0 0 0 0 0 0 0 0 0 0 0 0 0 0 0 0 127 0" result="hardAlpha"/>
<feOffset dy="0.126316"/>
<feGaussianBlur stdDeviation="0.189474"/>
<feColorMatrix type="matrix" values="0 0 0 0 0 0 0 0 0 0 0 0 0 0 0 0 0 0 0.18 0"/>
<feBlend mode="normal" in2="BackgroundImageFix" result="effect1_dropShadow_3572_89252"/>
<feColorMatrix in="SourceAlpha" type="matrix" values="0 0 0 0 0 0 0 0 0 0 0 0 0 0 0 0 0 0 127 0" result="hardAlpha"/>
<feOffset dy="0.673684"/>
<feGaussianBlur stdDeviation="0.757895"/>
<feColorMatrix type="matrix" values="0 0 0 0 0 0 0 0 0 0 0 0 0 0 0 0 0 0 0.22 0"/>
<feBlend mode="normal" in2="effect1_dropShadow_3572_89252" result="effect2_dropShadow_3572_89252"/>
<feBlend mode="normal" in="SourceGraphic" in2="effect2_dropShadow_3572_89252" result="shape"/>
</filter>
<filter id="filter3_dd_3572_89252" x="176.544" y="123.454" width="15.3334" height="15.3333" filterUnits="userSpaceOnUse" color-interpolation-filters="sRGB">
<feFlood flood-opacity="0" result="BackgroundImageFix"/>
<feColorMatrix in="SourceAlpha" type="matrix" values="0 0 0 0 0 0 0 0 0 0 0 0 0 0 0 0 0 0 127 0" result="hardAlpha"/>
<feOffset dy="0.397661"/>
<feGaussianBlur stdDeviation="0.596491"/>
<feColorMatrix type="matrix" values="0 0 0 0 0 0 0 0 0 0 0 0 0 0 0 0 0 0 0.11 0"/>
<feBlend mode="normal" in2="BackgroundImageFix" result="effect1_dropShadow_3572_89252"/>
<feColorMatrix in="SourceAlpha" type="matrix" values="0 0 0 0 0 0 0 0 0 0 0 0 0 0 0 0 0 0 127 0" result="hardAlpha"/>
<feOffset dy="2.12086"/>
<feGaussianBlur stdDeviation="2.38596"/>
<feColorMatrix type="matrix" values="0 0 0 0 0 0 0 0 0 0 0 0 0 0 0 0 0 0 0.13 0"/>
<feBlend mode="normal" in2="effect1_dropShadow_3572_89252" result="effect2_dropShadow_3572_89252"/>
<feBlend mode="normal" in="SourceGraphic" in2="effect2_dropShadow_3572_89252" result="shape"/>
</filter>
<filter id="filter4_ddii_3572_89252" x="221.52" y="12.344" width="88.0391" height="96.1888" filterUnits="userSpaceOnUse" color-interpolation-filters="sRGB">
<feFlood flood-opacity="0" result="BackgroundImageFix"/>
<feColorMatrix in="SourceAlpha" type="matrix" values="0 0 0 0 0 0 0 0 0 0 0 0 0 0 0 0 0 0 127 0" result="hardAlpha"/>
<feOffset dy="0.495368"/>
<feGaussianBlur stdDeviation="0.315521"/>
<feComposite in2="hardAlpha" operator="out"/>
<feColorMatrix type="matrix" values="0 0 0 0 0 0 0 0 0 0 0 0 0 0 0 0 0 0 0.25 0"/>
<feBlend mode="normal" in2="BackgroundImageFix" result="effect1_dropShadow_3572_89252"/>
<feColorMatrix in="SourceAlpha" type="matrix" values="0 0 0 0 0 0 0 0 0 0 0 0 0 0 0 0 0 0 127 0" result="hardAlpha"/>
<feOffset dx="1.62489" dy="2.16763"/>
<feGaussianBlur stdDeviation="1.46717"/>
<feComposite in2="hardAlpha" operator="out"/>
<feColorMatrix type="matrix" values="0 0 0 0 0 0 0 0 0 0 0 0 0 0 0 0 0 0 0.1 0"/>
<feBlend mode="normal" in2="effect1_dropShadow_3572_89252" result="effect2_dropShadow_3572_89252"/>
<feBlend mode="normal" in="SourceGraphic" in2="effect2_dropShadow_3572_89252" result="shape"/>
<feColorMatrix in="SourceAlpha" type="matrix" values="0 0 0 0 0 0 0 0 0 0 0 0 0 0 0 0 0 0 127 0" result="hardAlpha"/>
<feOffset dy="-3.65601"/>
<feGaussianBlur stdDeviation="2.03112"/>
<feComposite in2="hardAlpha" operator="arithmetic" k2="-1" k3="1"/>
<feColorMatrix type="matrix" values="0 0 0 0 0 0 0 0 0 0 0 0 0 0 0 0 0 0 0.15 0"/>
<feBlend mode="normal" in2="shape" result="effect3_innerShadow_3572_89252"/>
<feColorMatrix in="SourceAlpha" type="matrix" values="0 0 0 0 0 0 0 0 0 0 0 0 0 0 0 0 0 0 127 0" result="hardAlpha"/>
<feOffset dy="2.43734"/>
<feGaussianBlur stdDeviation="1.62489"/>
<feComposite in2="hardAlpha" operator="arithmetic" k2="-1" k3="1"/>
<feColorMatrix type="matrix" values="0 0 0 0 1 0 0 0 0 1 0 0 0 0 1 0 0 0 0.25 0"/>
<feBlend mode="normal" in2="effect3_innerShadow_3572_89252" result="effect4_innerShadow_3572_89252"/>
</filter>
<linearGradient id="paint0_linear_3572_89252" x1="190.069" y1="312.108" x2="133.513" y2="-85.5749" gradientUnits="userSpaceOnUse">
<stop stop-color="#737373"/>
<stop offset="0.25" stop-color="#969695"/>
<stop offset="0.58" stop-color="#BFBDBC"/>
<stop offset="0.84" stop-color="#D8D6D4"/>
<stop offset="1" stop-color="#E1DFDD"/>
</linearGradient>
<linearGradient id="paint1_linear_3572_89252" x1="192.836" y1="99.116" x2="135.43" y2="216.973" gradientUnits="userSpaceOnUse">
<stop stop-color="#C0C0C0"/>
<stop offset="1" stop-color="#B6B6B6"/>
</linearGradient>
<radialGradient id="paint2_radial_3572_89252" cx="0" cy="0" r="1" gradientUnits="userSpaceOnUse" gradientTransform="translate(165 124) rotate(22.4428) scale(26.1945 25.5586)">
<stop stop-color="#15A6E4"/>
<stop offset="0.484375" stop-color="#3575D5"/>
<stop offset="1" stop-color="#3148C4"/>
</radialGradient>
<linearGradient id="paint3_linear_3572_89252" x1="185.657" y1="131.51" x2="182.761" y2="126.493" gradientUnits="userSpaceOnUse">
<stop stop-color="white"/>
<stop offset="0.513157" stop-color="white"/>
<stop offset="1" stop-color="white"/>
</linearGradient>
<linearGradient id="paint4_linear_3572_89252" x1="161.903" y1="50.9933" x2="281.013" y2="-57.3777" gradientUnits="userSpaceOnUse">
<stop stop-color="#278FF1"/>
<stop offset="1" stop-color="#005FB8"/>
</linearGradient>
</defs>
</svg>
