<svg width="88" height="61" viewBox="0 0 88 61" fill="none" xmlns="http://www.w3.org/2000/svg">
<g clip-path="url(#clip0_7338_570552)">
<g clip-path="url(#clip1_7338_570552)">
<rect y="0.5" width="88" height="60" rx="4" fill="#E5E5E5"/>
<path d="M6 10.5C6 8.29086 7.79086 6.5 10 6.5H88V60.5H6V10.5Z" fill="#F5F5F5"/>
<rect x="26" y="18.5" width="18" height="40" rx="2" fill="white"/>
<rect x="26" y="1.5" width="18" height="4" rx="2" fill="white"/>
<rect x="8" y="10.5" width="78" height="6" rx="2" fill="white"/>
</g>
</g>
<g clip-path="url(#clip2_7338_570552)">
<g clip-path="url(#clip3_7338_570552)">
<rect y="0.5" width="88" height="60" rx="4" fill="#2E2E2E"/>
<path d="M6 10.5C6 8.29086 7.79086 6.5 10 6.5H88V60.5H6V10.5Z" fill="#141414"/>
<rect x="46" y="18.5" width="40" height="40" rx="2" fill="#1F1F1F"/>
<rect x="70" y="1.5" width="4" height="4" rx="2" fill="#1F1F1F"/>
<rect x="76" y="1.5" width="4" height="4" rx="2" fill="#1F1F1F"/>
<rect x="82" y="1.5" width="4" height="4" rx="2" fill="#1F1F1F"/>
<rect x="8" y="10.5" width="78" height="6" rx="2" fill="#1F1F1F"/>
</g>
</g>
<defs>
<clipPath id="clip0_7338_570552">
<rect width="44" height="60" fill="white" transform="translate(0 0.5)"/>
</clipPath>
<clipPath id="clip1_7338_570552">
<rect y="0.5" width="88" height="60" rx="4" fill="white"/>
</clipPath>
<clipPath id="clip2_7338_570552">
<rect width="44" height="60" fill="white" transform="translate(44 0.5)"/>
</clipPath>
<clipPath id="clip3_7338_570552">
<rect y="0.5" width="88" height="60" rx="4" fill="white"/>
</clipPath>
</defs>
</svg>
