<svg xmlns="http://www.w3.org/2000/svg" fill="none" viewBox="0 0 16 16">
  <path fill="#FAFAFA" d="M13 1.5H5A1.5 1.5 0 0 0 3.5 3v8A1.5 1.5 0 0 0 5 12.5h8a1.5 1.5 0 0 0 1.5-1.5V3A1.5 1.5 0 0 0 13 1.5Z"/>
  <path fill="#555" fill-rule="evenodd" d="M5 1a2 2 0 0 0-2 2 2 2 0 0 0-2 2v7a3 3 0 0 0 3 3h7a2 2 0 0 0 2-2 2 2 0 0 0 2-2V3a2 2 0 0 0-2-2H5Zm7 12H5a2 2 0 0 1-2-2V4a1 1 0 0 0-1 1v7a2 2 0 0 0 2 2h7a1 1 0 0 0 1-1ZM4 3a1 1 0 0 1 1-1h8a1 1 0 0 1 1 1v8a1 1 0 0 1-1 1H5a1 1 0 0 1-1-1V3Z"/>
  <path fill="#0078D4" fill-rule="evenodd" d="M7 4.5a.5.5 0 0 1 .5-.5h4a.5.5 0 0 1 .5.5v4a.5.5 0 0 1-1 0V5.707L6.854 9.854a.5.5 0 0 1-.708-.708L10.293 5H7.5a.5.5 0 0 1-.5-.5Z"/>
</svg>
