<?xml version="1.0" encoding="utf-8"?>
<svg width="auto" height="auto" viewBox="0 0 512 512" version="1.1"
  xmlns:xlink="http://www.w3.org/1999/xlink"
  xmlns="http://www.w3.org/2000/svg">
  <defs>
    <radialGradient gradientUnits="objectBoundingBox" cx="96%" cy="14.999999%" fx="96%" fy="14.999999%" r="90.1771%" gradientTransform="translate(0.96,0.14999999),scale(0.9980359,1),scale(1,0.99803597),translate(-0.96,-0.14999999)" id="gradient_1">
      <stop offset="0%" stop-color="#FFF36E" />
      <stop offset="50%" stop-color="#FC4055" />
      <stop offset="100%" stop-color="#E31587" />
    </radialGradient>
    <radialGradient gradientUnits="objectBoundingBox" cx="9.999999%" cy="18%" fx="9.999999%" fy="18%" r="70.13776%" gradientTransform="translate(0.099999994,0.17999999),scale(0.9980359,1),scale(1,0.998036),translate(-0.099999994,-0.17999999)" id="gradient_2">
      <stop offset="0%" stop-color="#C60084" />
      <stop offset="100%" stop-color="#FC4055" stop-opacity="0" />
    </radialGradient>
    <radialGradient gradientUnits="objectBoundingBox" cx="110%" cy="8%" fx="110%" fy="8%" r="133.26172%" gradientTransform="translate(1.1,0.08),scale(0.9980359,1),scale(1,0.998036),translate(-1.1,-0.08)" id="gradient_3">
      <stop offset="0%" stop-color="#FFDE67" stop-opacity="0.6" />
      <stop offset="66%" stop-color="#FC4055" stop-opacity="0" />
    </radialGradient>
    <radialGradient gradientUnits="objectBoundingBox" cx="44%" cy="51%" fx="44%" fy="51%" r="175.34438%" gradientTransform="translate(0.44,0.51),scale(0.9980359,1),scale(1,0.9980359),translate(-0.44,-0.51)" id="gradient_4">
      <stop offset="15.000001%" stop-color="#810220" />
      <stop offset="27.000002%" stop-color="#FC4055" stop-opacity="0" />
    </radialGradient>
    <radialGradient gradientUnits="objectBoundingBox" cx="52.999996%" cy="55%" fx="52.999996%" fy="55%" r="160.31485%" gradientTransform="translate(0.53,0.55),scale(0.9980359,1),scale(1,0.99803585),translate(-0.53,-0.55)" id="gradient_5">
      <stop offset="12%" stop-color="#810220" />
      <stop offset="30.000002%" stop-color="#FC4055" stop-opacity="0" />
    </radialGradient>
    <radialGradient gradientUnits="objectBoundingBox" cx="90%" cy="11%" fx="90%" fy="11%" r="111%" gradientTransform="translate(0.9,0.11),scale(1,0.9976046),scale(1,1.0024011),translate(-0.9,-0.11)" id="gradient_6">
      <stop offset="0%" stop-color="#FF9640" />
      <stop offset="79.99999%" stop-color="#FC4055" />
    </radialGradient>
    <radialGradient gradientUnits="objectBoundingBox" cx="91%" cy="18%" fx="91%" fy="18%" r="113%" gradientTransform="translate(0.90999997,0.17999999),scale(1,0.9976046),scale(1,1.0024011),translate(-0.90999997,-0.17999999)" id="gradient_7">
      <stop offset="9%" stop-color="#FFDE67" />
      <stop offset="82%" stop-color="#FF9640" stop-opacity="0" />
    </radialGradient>
    <radialGradient gradientUnits="objectBoundingBox" cx="63%" cy="48.999996%" fx="63%" fy="48.999996%" r="53.999996%" gradientTransform="translate(0.63,0.48999998),scale(1,0.9976046),scale(1,1.0024011),translate(-0.63,-0.48999998)" id="gradient_8">
      <stop offset="36%" stop-color="#FC4055" />
      <stop offset="58.999996%" stop-color="#FF9640" stop-opacity="0" />
    </radialGradient>
    <radialGradient gradientUnits="objectBoundingBox" cx="52.999996%" cy="52%" fx="52.999996%" fy="52%" r="53.999996%" gradientTransform="translate(0.53,0.52),scale(1,0.9976046),scale(1,1.0024011),translate(-0.53,-0.52)" id="gradient_9">
      <stop offset="22%" stop-color="#FC4055" stop-opacity="0.8" />
      <stop offset="47%" stop-color="#FF9640" stop-opacity="0" />
    </radialGradient>
    <radialGradient gradientUnits="objectBoundingBox" cx="109%" cy="2%" fx="109%" fy="2%" r="169.99998%" gradientTransform="translate(1.09,0.02),scale(1,0.9801669),scale(1,1.0202343),translate(-1.09,-0.02)" id="gradient_10">
      <stop offset="4.9999995%" stop-color="#FFF36E" />
      <stop offset="55%" stop-color="#FF9640" />
      <stop offset="70%" stop-color="#FF9640" />
    </radialGradient>
    <linearGradient x1="0.5" y1="-0.03" x2="0.78999996" y2="0.78999996" id="gradient_11">
      <stop offset="0%" stop-color="#B833E1" />
      <stop offset="37%" stop-color="#9059FF" />
      <stop offset="100%" stop-color="#0090ED" />
    </linearGradient>
    <linearGradient x1="0.84999996" y1="0.51" x2="0.32" y2="-0.099999994" id="gradient_12">
      <stop offset="0%" stop-color="#592ACB" stop-opacity="0.5019608" />
      <stop offset="24%" stop-color="#722291" stop-opacity="0" />
    </linearGradient>
    <linearGradient x1="0.75" y1="0.089999996" x2="0.21" y2="0.98999995" id="gradient_13">
      <stop offset="0%" stop-color="#FFF36E" stop-opacity="0.8" />
      <stop offset="9%" stop-color="#FFF36E" stop-opacity="0.69803923" />
      <stop offset="75%" stop-color="#FFF36E" stop-opacity="0" />
    </linearGradient>
  </defs>
  <g id="logo-firefox">
    <path d="M0 0L512 0L512 512L0 512L0 0Z" id="Background" fill="none" fill-rule="evenodd" stroke="none" />
    <g id="Icon" transform="translate(11.999939 12.47467)">
      <path d="M438.872 95.76C394.882 37.4157 326.773 2.21021 253.736 0.0629874C197.089 -1.07141 157.959 15.9505 135.82 29.6363C165.443 12.4558 208.311 2.70987 245.844 3.19168C342.388 4.41145 446.081 70.1631 461.48 188.676C479.167 324.717 384.409 438.259 251.113 438.607C104.466 438.979 15.2706 309.134 38.5865 192.506C39.0201 186.787 39.8618 181.107 41.1053 175.509C43.9823 145.617 52.6691 116.576 66.6779 90.0147C49.7901 98.7545 28.2856 126.394 17.6736 151.997C2.22589 191.061 -3.22053 233.364 1.8288 275.066C2.19471 278.225 2.52404 281.378 2.93877 284.513C20.2578 384.239 97.2726 462.96 196.594 482.461C295.916 501.962 396.979 458.203 450.718 372.43C504.458 286.656 499.747 176.628 438.873 95.7609L438.872 95.76Z" id="Shape" fill="url(#gradient_1)" stroke="none" />
      <path d="M438.872 95.76C394.882 37.4157 326.773 2.21021 253.736 0.0629874C197.089 -1.07141 157.959 15.9505 135.82 29.6363C165.443 12.4558 208.311 2.70987 245.844 3.19168C342.388 4.41145 446.081 70.1631 461.48 188.676C479.167 324.717 384.409 438.259 251.113 438.607C104.466 438.979 15.2706 309.134 38.5865 192.506C39.0201 186.787 39.8618 181.107 41.1053 175.509C43.9823 145.617 52.6691 116.576 66.6779 90.0147C49.7901 98.7545 28.2856 126.394 17.6736 151.997C2.22589 191.061 -3.22053 233.364 1.8288 275.066C2.19471 278.225 2.52404 281.378 2.93877 284.513C20.2578 384.239 97.2726 462.96 196.594 482.461C295.916 501.962 396.979 458.203 450.718 372.43C504.458 286.656 499.747 176.628 438.873 95.7609L438.872 95.76Z" id="Shape" fill="url(#gradient_2)" fill-opacity="0.67" stroke="none" />
      <path d="M438.872 95.76C394.882 37.4157 326.773 2.21021 253.736 0.0629874C197.089 -1.07141 157.959 15.9505 135.82 29.6363C165.443 12.4558 208.311 2.70987 245.844 3.19168C342.388 4.41145 446.081 70.1631 461.48 188.676C479.167 324.717 384.409 438.259 251.113 438.607C104.466 438.979 15.2706 309.134 38.5865 192.506C39.0201 186.787 39.8618 181.107 41.1053 175.509C43.9823 145.617 52.6691 116.576 66.6779 90.0147C49.7901 98.7545 28.2856 126.394 17.6736 151.997C2.22589 191.061 -3.22053 233.364 1.8288 275.066C2.19471 278.225 2.52404 281.378 2.93877 284.513C20.2578 384.239 97.2726 462.96 196.594 482.461C295.916 501.962 396.979 458.203 450.718 372.43C504.458 286.656 499.747 176.628 438.873 95.7609L438.872 95.76Z" id="Shape" fill="url(#gradient_3)" stroke="none" />
      <path d="M438.872 95.76C394.882 37.4157 326.773 2.21021 253.736 0.0629874C197.089 -1.07141 157.959 15.9505 135.82 29.6363C165.443 12.4558 208.311 2.70987 245.844 3.19168C342.388 4.41145 446.081 70.1631 461.48 188.676C479.167 324.717 384.409 438.259 251.113 438.607C104.466 438.979 15.2706 309.134 38.5865 192.506C39.0201 186.787 39.8618 181.107 41.1053 175.509C43.9823 145.617 52.6691 116.576 66.6779 90.0147C49.7901 98.7545 28.2856 126.394 17.6736 151.997C2.22589 191.061 -3.22053 233.364 1.8288 275.066C2.19471 278.225 2.52404 281.378 2.93877 284.513C20.2578 384.239 97.2726 462.96 196.594 482.461C295.916 501.962 396.979 458.203 450.718 372.43C504.458 286.656 499.747 176.628 438.873 95.7609L438.872 95.76Z" id="Shape" fill="url(#gradient_4)" stroke="none" />
      <path d="M438.872 95.76C394.882 37.4157 326.773 2.21021 253.736 0.0629874C197.089 -1.07141 157.959 15.9505 135.82 29.6363C165.443 12.4558 208.311 2.70987 245.844 3.19168C342.388 4.41145 446.081 70.1631 461.48 188.676C479.167 324.717 384.409 438.259 251.113 438.607C104.466 438.979 15.2706 309.134 38.5865 192.506C39.0201 186.787 39.8618 181.107 41.1053 175.509C43.9823 145.617 52.6691 116.576 66.6779 90.0147C49.7901 98.7545 28.2856 126.394 17.6736 151.997C2.22589 191.061 -3.22053 233.364 1.8288 275.066C2.19471 278.225 2.52404 281.378 2.93877 284.513C20.2578 384.239 97.2726 462.96 196.594 482.461C295.916 501.962 396.979 458.203 450.718 372.43C504.458 286.656 499.747 176.628 438.873 95.7609L438.872 95.76Z" id="Shape" fill="url(#gradient_5)" stroke="none" />
      <path d="M467.421 181.912C453.692 58.0569 343.236 2.38663 245.844 3.19168C208.305 3.49662 165.443 12.4558 135.82 29.6363C127.982 34.2841 120.698 39.8086 114.109 46.1032C114.895 45.4506 117.243 43.5172 121.134 40.846L121.519 40.5837L121.86 40.3519C136.235 30.6331 152.073 23.2784 168.773 18.5669C194.934 11.3357 222.05 8.16188 249.174 9.15635C353.483 15.3854 435.986 99.8497 439.763 204.277C442.001 284.824 376.078 349.045 300.087 352.765C244.819 355.473 192.747 328.73 167.315 275.231C161.365 263.046 157.325 250.019 155.337 236.607C143.285 155.187 197.962 85.7517 248.1 68.5591C221.052 44.9322 153.275 46.5362 102.832 83.6476C66.5071 110.373 42.9411 151.034 35.1346 199.526C29.5183 236.733 34.4631 274.77 49.4059 309.305C81.0562 383.985 151.993 434.539 232.914 440.082C238.968 440.546 245.034 440.776 251.113 440.772C412.501 440.772 482.515 318.264 467.421 181.912L467.421 181.912Z" id="Shape" fill="url(#gradient_6)" stroke="none" />
      <path d="M467.421 181.912C453.692 58.0569 343.236 2.38663 245.844 3.19168C208.305 3.49662 165.443 12.4558 135.82 29.6363C127.982 34.2841 120.698 39.8086 114.109 46.1032C114.895 45.4506 117.243 43.5172 121.134 40.846L121.519 40.5837L121.86 40.3519C136.235 30.6331 152.073 23.2784 168.773 18.5669C194.934 11.3357 222.05 8.16188 249.174 9.15635C353.483 15.3854 435.986 99.8497 439.763 204.277C442.001 284.824 376.078 349.045 300.087 352.765C244.819 355.473 192.747 328.73 167.315 275.231C161.365 263.046 157.325 250.019 155.337 236.607C143.285 155.187 197.962 85.7517 248.1 68.5591C221.052 44.9322 153.275 46.5362 102.832 83.6476C66.5071 110.373 42.9411 151.034 35.1346 199.526C29.5183 236.733 34.4631 274.77 49.4059 309.305C81.0562 383.985 151.993 434.539 232.914 440.082C238.968 440.546 245.034 440.776 251.113 440.772C412.501 440.772 482.515 318.264 467.421 181.912L467.421 181.912Z" id="Shape" fill="url(#gradient_7)" stroke="none" />
      <path d="M467.421 181.912C453.692 58.0569 343.236 2.38663 245.844 3.19168C208.305 3.49662 165.443 12.4558 135.82 29.6363C127.982 34.2841 120.698 39.8086 114.109 46.1032C114.895 45.4506 117.243 43.5172 121.134 40.846L121.519 40.5837L121.86 40.3519C136.235 30.6331 152.073 23.2784 168.773 18.5669C194.934 11.3357 222.05 8.16188 249.174 9.15635C353.483 15.3854 435.986 99.8497 439.763 204.277C442.001 284.824 376.078 349.045 300.087 352.765C244.819 355.473 192.747 328.73 167.315 275.231C161.365 263.046 157.325 250.019 155.337 236.607C143.285 155.187 197.962 85.7517 248.1 68.5591C221.052 44.9322 153.275 46.5362 102.832 83.6476C66.5071 110.373 42.9411 151.034 35.1346 199.526C29.5183 236.733 34.4631 274.77 49.4059 309.305C81.0562 383.985 151.993 434.539 232.914 440.082C238.968 440.546 245.034 440.776 251.113 440.772C412.501 440.772 482.515 318.264 467.421 181.912L467.421 181.912Z" id="Shape" fill="url(#gradient_8)" fill-opacity="0.53" stroke="none" />
      <path d="M467.421 181.912C453.692 58.0569 343.236 2.38663 245.844 3.19168C208.305 3.49662 165.443 12.4558 135.82 29.6363C127.982 34.2841 120.698 39.8086 114.109 46.1032C114.895 45.4506 117.243 43.5172 121.134 40.846L121.519 40.5837L121.86 40.3519C136.235 30.6331 152.073 23.2784 168.773 18.5669C194.934 11.3357 222.05 8.16188 249.174 9.15635C353.483 15.3854 435.986 99.8497 439.763 204.277C442.001 284.824 376.078 349.045 300.087 352.765C244.819 355.473 192.747 328.73 167.315 275.231C161.365 263.046 157.325 250.019 155.337 236.607C143.285 155.187 197.962 85.7517 248.1 68.5591C221.052 44.9322 153.275 46.5362 102.832 83.6476C66.5071 110.373 42.9411 151.034 35.1346 199.526C29.5183 236.733 34.4631 274.77 49.4059 309.305C81.0562 383.985 151.993 434.539 232.914 440.082C238.968 440.546 245.034 440.776 251.113 440.772C412.501 440.772 482.515 318.264 467.421 181.912L467.421 181.912Z" id="Shape" fill="url(#gradient_9)" fill-opacity="0.53" stroke="none" />
      <path d="M300.087 352.765C404.377 346.423 449.021 260.063 451.82 198.8C456.187 103.079 399.4 -0.113897 249.174 9.15635C222.049 8.16783 194.933 11.3478 168.773 18.5851C152.147 23.4966 136.339 30.8376 121.86 40.3702L121.519 40.602L121.134 40.8643C118.801 42.4906 116.518 44.2024 114.285 45.9995C153.17 24.256 198.099 15.8259 242.221 21.9944C328.471 33.3139 407.329 100.407 407.329 188.938C407.329 257.056 354.69 309.085 293.049 305.347C201.475 299.858 178.39 205.936 226.029 165.354C213.184 162.591 189.045 168.007 172.237 193.134C157.154 215.7 158.008 250.524 167.315 275.231C191.07 326.237 243.99 357.141 300.087 352.765L300.087 352.765Z" id="Shape" fill="url(#gradient_10)" stroke="none" />
      <path d="M439.311 114.215C433.04 95.7259 422.888 78.7911 409.537 64.5461C393.671 48.0137 374.862 34.5843 354.074 24.9463C336.719 16.3915 318.419 9.90461 299.55 5.61904C266.289 -1.66157 231.869 -1.86935 198.523 5.00914C163.863 12.3278 133.387 27.3248 114.109 46.0727C129.48 37.3884 145.956 30.8235 163.088 26.5564C230.739 9.55626 302.39 28.1741 353.208 75.957C363.343 85.5687 372.215 96.4305 379.61 108.281C409.464 156.822 406.64 217.847 383.36 253.836C366.07 280.573 329.038 305.676 294.488 305.383C347.471 309.382 398.356 283.902 426.894 239.083C451.222 201.124 452.052 152.815 439.311 114.215L439.311 114.215Z" id="Shape" fill="url(#gradient_11)" stroke="none" />
      <path d="M439.311 114.215C433.04 95.7259 422.888 78.7911 409.537 64.5461C393.671 48.0137 374.862 34.5843 354.074 24.9463C336.719 16.3915 318.419 9.90461 299.55 5.61904C266.289 -1.66157 231.869 -1.86935 198.523 5.00914C163.863 12.3278 133.387 27.3248 114.109 46.0727C129.48 37.3884 145.956 30.8235 163.088 26.5564C230.739 9.55626 302.39 28.1741 353.208 75.957C363.343 85.5687 372.215 96.4305 379.61 108.281C409.464 156.822 406.64 217.847 383.36 253.836C366.07 280.573 329.038 305.676 294.488 305.383C347.471 309.382 398.356 283.902 426.894 239.083C451.222 201.124 452.052 152.815 439.311 114.215L439.311 114.215Z" id="Shape" fill="url(#gradient_12)" stroke="none" />
      <path d="M438.872 95.76C432.337 87.2045 425.243 79.0914 417.636 71.4741C411.595 65.0874 405.121 59.125 398.26 53.6293C402.208 57.0673 405.972 60.7112 409.537 64.546C422.887 78.792 433.038 95.7265 439.311 114.215C452.052 152.815 451.222 201.124 426.894 239.065C399.402 282.335 350.922 307.661 299.702 305.512C297.501 305.511 295.281 305.511 293.049 305.347C201.474 299.858 178.39 205.936 226.034 165.354C213.184 162.591 189.045 168.007 172.237 193.134C157.154 215.7 158.008 250.524 167.315 275.231C161.367 263.046 157.329 250.019 155.343 236.607C143.285 155.187 197.962 85.7518 248.1 68.5591C221.052 44.9322 153.275 46.5362 102.832 83.6477C73.1632 105.825 51.5593 137.095 41.3127 172.691C44.5783 143.806 53.179 115.778 66.6777 90.0333C49.7901 98.7728 28.2855 126.413 17.6735 152.016C2.22886 191.074 -3.21749 233.37 1.82877 275.066C2.1947 278.225 2.52404 281.378 2.93876 284.513C20.2578 384.239 97.2726 462.96 196.594 482.461C295.916 501.962 396.979 458.204 450.718 372.43C504.458 286.656 499.747 176.628 438.873 95.7609L438.872 95.76Z" id="Shape" fill="url(#gradient_13)" stroke="none" />
    </g>
  </g>
</svg>
