<svg width="1440" height="511" viewBox="0 0 1440 511" fill="none" xmlns="http://www.w3.org/2000/svg">
<g clip-path="url(#clip0_1588_71003)">
<g filter="url(#filter0_f_1588_71003)">
<path d="M675 182.712C679.982 183.276 685.026 182.542 689.641 180.581L795.611 135.867L745.175 22.8965L675 182.712Z" fill="url(#paint0_linear_1588_71003)"/>
</g>
<g filter="url(#filter1_f_1588_71003)">
<rect x="-27.1953" y="-41.1035" width="1494" height="691" fill="url(#paint1_linear_1588_71003)"/>
</g>
<circle cx="720" cy="1332.9" r="1212" fill="#1A1B21" stroke="#414758" stroke-width="2"/>
<circle cx="475.805" cy="261.896" r="2" fill="#C6387D"/>
<circle cx="140.805" cy="354.896" r="2" fill="#64CDA5"/>
<circle cx="309.805" cy="305.896" r="2" fill="#C6387D"/>
<circle cx="375.805" cy="233.896" r="2" fill="#58BCC4"/>
<circle cx="590" cy="182.896" r="2" fill="#58BCC4"/>
<circle cx="786" cy="317.896" r="2" fill="#58BCC4"/>
<circle cx="664.805" cy="214.896" r="2" fill="#C6387D"/>
<circle cx="842.805" cy="229.896" r="2" fill="#64CDA5"/>
<circle cx="1013.8" cy="259.896" r="2" fill="#58BCC4"/>
<circle cx="1185.8" cy="296.896" r="2" fill="#64CDA5"/>
<circle cx="1405.8" cy="400.896" r="2" fill="#58BCC4"/>
<circle cx="1362.8" cy="253.896" r="2" fill="#58BCC4"/>
<circle cx="960" cy="321.896" r="2" fill="#C6387D"/>
<circle cx="1086" cy="216.896" r="2" fill="#64CDA5"/>
<circle cx="1325" cy="333.896" r="2" fill="#58BCC4"/>
<circle cx="61.0002" cy="358.896" r="2" fill="#C6387D"/>
<circle cx="270" cy="244.896" r="2" fill="#64CDA5"/>
<g filter="url(#filter2_f_1588_71003)">
<path d="M73.5693 62.1364C62.4361 63.6796 52.3716 69.5813 45.5888 78.5437C38.806 87.506 35.8603 98.7953 37.3995 109.929L62.4758 288.97L167.964 48.9697L73.5693 62.1364Z" fill="url(#paint2_linear_1588_71003)"/>
</g>
<g filter="url(#filter3_f_1588_71003)">
<path d="M1327.33 183.713L1321.6 103.739C1321.12 97.2353 1318.08 91.187 1313.15 86.9173C1308.22 82.6477 1301.8 80.5042 1295.3 80.9557C1294.74 80.9768 1294.2 81.0367 1293.65 81.1351L1270 84.4027L1321.96 200.896C1325.86 196.053 1327.78 189.913 1327.33 183.713Z" fill="url(#paint3_linear_1588_71003)"/>
</g>
</g>
<defs>
<filter id="filter0_f_1588_71003" x="635" y="-17.1035" width="200.611" height="240" filterUnits="userSpaceOnUse" color-interpolation-filters="sRGB">
<feFlood flood-opacity="0" result="BackgroundImageFix"/>
<feBlend mode="normal" in="SourceGraphic" in2="BackgroundImageFix" result="shape"/>
<feGaussianBlur stdDeviation="20" result="effect1_foregroundBlur_1588_71003"/>
</filter>
<filter id="filter1_f_1588_71003" x="-47.1953" y="-61.1035" width="1534" height="731" filterUnits="userSpaceOnUse" color-interpolation-filters="sRGB">
<feFlood flood-opacity="0" result="BackgroundImageFix"/>
<feBlend mode="normal" in="SourceGraphic" in2="BackgroundImageFix" result="shape"/>
<feGaussianBlur stdDeviation="10" result="effect1_foregroundBlur_1588_71003"/>
</filter>
<filter id="filter2_f_1588_71003" x="-43" y="-31.0303" width="290.964" height="400" filterUnits="userSpaceOnUse" color-interpolation-filters="sRGB">
<feFlood flood-opacity="0" result="BackgroundImageFix"/>
<feBlend mode="normal" in="SourceGraphic" in2="BackgroundImageFix" result="shape"/>
<feGaussianBlur stdDeviation="40" result="effect1_foregroundBlur_1588_71003"/>
</filter>
<filter id="filter3_f_1588_71003" x="1190" y="0.896484" width="217.394" height="280" filterUnits="userSpaceOnUse" color-interpolation-filters="sRGB">
<feFlood flood-opacity="0" result="BackgroundImageFix"/>
<feBlend mode="normal" in="SourceGraphic" in2="BackgroundImageFix" result="shape"/>
<feGaussianBlur stdDeviation="40" result="effect1_foregroundBlur_1588_71003"/>
</filter>
<linearGradient id="paint0_linear_1588_71003" x1="735.305" y1="22.8965" x2="735.305" y2="182.896" gradientUnits="userSpaceOnUse">
<stop stop-color="#F5B315"/>
<stop offset="1" stop-color="#FF2CC4"/>
</linearGradient>
<linearGradient id="paint1_linear_1588_71003" x1="719.805" y1="-41.1035" x2="719.805" y2="649.896" gradientUnits="userSpaceOnUse">
<stop stop-color="white"/>
<stop offset="1" stop-color="white" stop-opacity="0"/>
</linearGradient>
<linearGradient id="paint2_linear_1588_71003" x1="102.482" y1="48.9697" x2="102.482" y2="288.97" gradientUnits="userSpaceOnUse">
<stop stop-color="#00FF85"/>
<stop offset="1" stop-color="#00FF47" stop-opacity="0"/>
</linearGradient>
<linearGradient id="paint3_linear_1588_71003" x1="1275.93" y1="89.1657" x2="1355.06" y2="139.658" gradientUnits="userSpaceOnUse">
<stop stop-color="#00FFF0"/>
<stop offset="1" stop-color="#1672EB"/>
</linearGradient>
<clipPath id="clip0_1588_71003">
<rect width="1440" height="510" fill="white" transform="translate(0 0.896484)"/>
</clipPath>
</defs>
</svg>
