<?xml version="1.0" encoding="UTF-8"?> <svg xmlns="http://www.w3.org/2000/svg" width="518" height="376" viewBox="0 0 518 376" fill="none"><mask id="mask0_10906_74575" style="mask-type:alpha" maskUnits="userSpaceOnUse" x="24" y="0" width="877" height="365"><rect width="877" height="365" transform="matrix(-1 0 0 1 901 0)" fill="url(#paint0_linear_10906_74575)"></rect></mask><g mask="url(#mask0_10906_74575)"><path d="M682.308 767.507C541.936 767.507 428.143 653.544 428.143 512.964C428.143 372.383 541.936 258.42 682.308 258.42C822.679 258.42 936.473 372.383 936.473 512.964C936.473 653.544 822.679 767.507 682.308 767.507Z" fill="url(#paint1_linear_10906_74575)" fill-opacity="0.6"></path><path d="M470.183 -0.0543213C460.604 -0.0543213 450.625 1.14486 440.647 3.54323C429.072 6.34133 323.302 33.5229 217.531 120.664C118.147 203.008 0.00280762 354.905 0.00280762 613.129C0.00280762 683.082 56.6799 739.843 126.528 739.843C196.377 739.843 253.054 683.082 253.054 613.129C253.054 485.216 295.362 385.284 378.781 316.531C438.252 267.364 498.522 250.975 498.921 250.576C567.173 234.187 609.082 165.833 592.717 97.8792C579.546 39.1191 527.658 -0.0543213 470.183 -0.0543213Z" fill="url(#paint2_linear_10906_74575)"></path><path d="M449.723 443.832C357.429 443.832 282.61 368.902 282.61 276.471C282.61 184.039 357.429 109.109 449.723 109.109C542.017 109.109 616.836 184.039 616.836 276.471C616.836 368.902 542.017 443.832 449.723 443.832Z" fill="url(#paint3_linear_10906_74575)" fill-opacity="0.8"></path><rect width="329.509" height="576.877" rx="15" transform="matrix(-1 0 0 1 676.523 126.707)" fill="url(#paint4_linear_10906_74575)" fill-opacity="0.4"></rect></g><defs><linearGradient id="paint0_linear_10906_74575" x1="438.099" y1="182" x2="438.099" y2="365" gradientUnits="userSpaceOnUse"><stop stop-color="#D9D9D9"></stop><stop offset="1" stop-color="#D9D9D9" stop-opacity="0"></stop></linearGradient><linearGradient id="paint1_linear_10906_74575" x1="625.472" y1="343.583" x2="769.279" y2="830.659" gradientUnits="userSpaceOnUse"><stop stop-color="#85DFF8"></stop><stop offset="1" stop-color="#B7EFFF" stop-opacity="0.4"></stop></linearGradient><linearGradient id="paint2_linear_10906_74575" x1="358.642" y1="233.737" x2="108.81" y2="666.622" gradientUnits="userSpaceOnUse"><stop stop-color="#553890" stop-opacity="0.8"></stop><stop offset="1" stop-color="#BCE3FE" stop-opacity="0.8"></stop></linearGradient><linearGradient id="paint3_linear_10906_74575" x1="421.51" y1="220.366" x2="569.659" y2="381.467" gradientUnits="userSpaceOnUse"><stop stop-color="#AF94DE"></stop><stop offset="1" stop-color="#66B7ED"></stop></linearGradient><linearGradient id="paint4_linear_10906_74575" x1="136.711" y1="90.7953" x2="240.534" y2="466.86" gradientUnits="userSpaceOnUse"><stop stop-color="#BCA8F8"></stop><stop offset="1" stop-color="#28AFEA" stop-opacity="0.6"></stop></linearGradient></defs></svg> 