<svg width="260" height="153" viewBox="0 0 260 153" fill="none"
    xmlns="http://www.w3.org/2000/svg">
    <rect width="260" height="153" fill="#F2F2F2"/>
    <path d="M194.175 68.2879L194.162 72.9342C194.147 78.152 190.703 83.362 183.822 87.343C169.978 95.3523 147.447 95.3524 133.505 87.339C126.489 83.306 122.985 78.0118 123 72.7263L123.013 68.0801C122.998 73.3655 126.502 78.6596 133.519 82.6927C147.46 90.7061 169.991 90.706 183.835 82.6967C190.716 78.7157 194.161 73.5058 194.175 68.2879Z" fill="#C8C8C8"/>
    <path d="M183.669 54.7514C197.614 62.811 197.687 75.879 183.834 83.9388C169.987 91.9944 147.452 91.9945 133.508 83.9348C119.564 75.8752 119.49 62.8071 133.336 54.7517C147.19 46.6918 169.725 46.6917 183.669 54.7514Z" fill="white"/>
    <path d="M140.938 60.3401L174.012 69.2021L170.074 83.8997L137 75.0378L140.938 60.3401Z" fill="url(#paint0_radial_3173_167096)"/>
    <path d="M178.427 61.4674C176.361 60.4275 175.328 61.4515 175.328 64.5395V71.4195C175.328 76.0975 173.302 77.2977 169.251 75.0201V72.1309C170.403 72.7654 171.221 72.8554 171.704 72.4008C172.187 71.9462 172.429 70.8779 172.429 69.1959V62.5683C172.429 59.3422 173.415 57.9546 175.388 58.4057V58.314C174.386 57.3228 173.604 56.1313 173.095 54.8173C172.585 53.5034 172.358 52.0966 172.429 50.689V43.9696C172.429 41.0036 171.37 38.8781 169.251 37.5934V34.6581C171.161 35.7002 172.742 37.255 173.815 39.1473C174.889 41.0396 175.413 43.1941 175.328 45.3682V52.065C175.328 55.2141 176.361 57.4615 178.427 58.8072V61.4674Z" fill="#0078D4"/>
    <path d="M145.18 61.4784C143.275 60.4502 141.694 58.9103 140.617 57.0322C139.539 55.154 139.008 53.0123 139.082 50.8484V43.9684C139.082 40.8799 138.05 38.6632 135.985 37.3186V34.658C138.05 35.6977 139.082 34.6426 139.082 31.4925V24.796C139.082 20.0564 141.115 18.8297 145.18 21.1159V24.0512C143.075 22.8968 142.022 23.8026 142.022 26.7684V33.4883C142.022 36.6988 141.029 38.0977 139.043 37.6849V37.7767C140.054 38.7548 140.843 39.9387 141.357 41.2483C141.871 42.5579 142.098 43.9627 142.021 45.3676V51.9952C141.963 53.3774 142.203 54.7559 142.726 56.0367C143.271 57.1134 144.126 58.0023 145.18 58.5888V61.4784Z" fill="#0078D4"/>
    <path d="M168.714 54.6982C169.637 57.9035 169.526 60.7195 168.414 62.2291C166.263 65.1505 164.132 64.8937 162.72 64.7194C162.439 64.7199 162.163 64.6485 161.918 64.5121C161.329 64.1323 160.898 63.5511 160.706 62.877C160.43 61.9429 160.752 61.2461 161.422 61.3174C161.531 61.328 161.644 61.3415 161.761 61.3568C162.966 61.5029 164.47 61.6867 166.159 59.386C166.854 58.4436 166.897 56.5795 166.277 54.4102C165.661 52.2124 164.51 50.2017 162.926 48.5585C162.566 50.7272 161.807 53.115 160.427 54.6381C159.689 55.4196 158.825 56.071 157.871 56.5647C158.009 57.1034 158.176 57.6343 158.371 58.155C158.911 59.4644 158.285 60.4168 157.252 59.8201C156.748 59.4976 156.359 59.0232 156.141 58.4654C156.01 58.1521 155.868 57.741 155.715 57.2503C154.187 57.3749 152.66 56.9923 151.371 56.1619C149.383 54.9992 147.874 53.165 147.117 50.9893C146.617 49.4756 145.949 45.3544 148.803 43.0161C150.098 41.9369 151.713 41.3143 153.397 41.2444C153.522 39.6684 153.752 38.1026 154.088 36.5577C151.718 35.1642 150.007 33.9614 149.852 33.8519C149.486 33.5826 149.19 33.2294 148.989 32.822C148.788 32.4146 148.688 31.9649 148.696 31.5106C148.779 30.7496 149.418 30.5058 150.155 31.0241C151.451 31.9206 153.108 32.9725 154.731 33.9043C155.291 31.8511 155.818 30.4198 155.864 30.2908C156.053 29.776 156.563 29.68 157.106 29.9963C158.007 30.5164 158.641 31.9135 158.339 32.7181C158.332 32.744 157.945 33.7971 157.488 35.3821C159.461 36.4382 161.584 37.1851 163.783 37.5967C164.527 37.6939 165.246 38.608 165.477 39.4403C165.738 40.3703 165.401 41.05 164.723 40.9617C162.283 40.6348 159.386 39.4079 156.791 38.0614C156.539 39.167 156.31 40.3632 156.156 41.5642C157.761 42.0101 159.279 42.7227 160.647 43.6722C160.659 43.5102 160.659 43.4195 160.659 43.4107C160.673 42.5979 161.258 42.2745 161.992 42.708C162.379 42.956 162.699 43.295 162.925 43.6954C163.151 44.0958 163.276 44.5455 163.287 45.0051C163.287 45.0552 163.276 45.3055 163.252 45.7031C163.297 45.7461 163.339 45.7826 163.383 45.8209C165.966 48.2146 167.815 51.2934 168.714 54.6982ZM151.491 53.1439C151.97 53.4721 152.51 53.7001 153.079 53.8142C153.648 53.9283 154.235 53.926 154.803 53.8077C154.112 50.8391 153.645 47.8225 153.408 44.7836C152.46 45.0238 151.578 45.4748 150.828 46.103C149.49 47.1985 149.135 48.8713 149.743 50.7119C150.044 51.692 150.658 52.5463 151.491 53.1439ZM158.483 51.8198C159.417 50.6082 160.046 48.3647 160.345 46.5035C159.034 45.5875 157.54 44.9647 155.966 44.6776C156.087 47.5137 156.441 50.335 157.026 53.1126C157.565 52.7459 158.055 52.3114 158.483 51.8198Z" fill="#0078D4"/>
    <rect x="83.5508" y="107.84" width="47.7112" height="24.6428" transform="rotate(15 83.5508 107.84)" fill="url(#paint1_radial_3173_167096)"/>
    <path d="M130.92 50.691C133.27 52.051 135.17 55.341 135.16 58.041L135 113.471C135 116.181 133.08 117.261 130.73 115.901L93.8401 94.601C91.4901 93.241 89.5901 89.961 89.6001 87.251L89.7601 31.821C89.7601 29.121 91.6801 28.021 94.0301 29.381L130.92 50.681V50.691Z" fill="url(#paint2_linear_3173_167096)"/>
    <path fill-rule="evenodd" clip-rule="evenodd" d="M125.19 68.601L99.6502 53.861C98.8702 53.401 98.2402 52.311 98.2402 51.411C98.2402 50.511 98.8702 50.151 99.6602 50.601L125.2 65.341C125.98 65.801 126.61 66.891 126.61 67.791C126.61 68.681 125.98 69.051 125.19 68.601ZM125.16 78.3809L99.6202 63.6409C98.8302 63.1909 98.2002 63.5609 98.2002 64.4609C98.2002 65.3609 98.8302 66.4509 99.6102 66.9109L125.15 81.6509C125.94 82.1009 126.57 81.7309 126.57 80.8409C126.57 79.9409 125.94 78.8409 125.16 78.3909V78.3809ZM125.12 91.431L99.5802 76.691C98.7902 76.241 98.1602 76.611 98.1602 77.501C98.1602 78.401 98.7902 79.501 99.5702 79.951L125.11 94.691C125.9 95.141 126.53 94.771 126.53 93.871C126.53 92.971 125.9 91.881 125.12 91.421V91.431Z" fill="#FFF2C3"/>
    <path d="M139.32 54.641C139.31 54.541 139.29 54.451 139.27 54.351C139.23 54.121 139.17 53.891 139.11 53.651C139.08 53.551 139.06 53.451 139.03 53.351C138.94 53.061 138.84 52.781 138.72 52.501C138.71 52.471 138.69 52.431 138.68 52.391V52.371C138.54 52.071 138.39 51.781 138.22 51.491C138.18 51.411 138.13 51.341 138.09 51.271C137.93 51.011 137.77 50.751 137.59 50.511C137.57 50.481 137.55 50.441 137.52 50.411C137.36 50.191 137.19 49.981 137.02 49.781C136.97 49.731 136.92 49.681 136.88 49.631C136.84 49.591 136.8 49.541 136.76 49.501C136.54 49.271 136.3 49.051 136.06 48.851C136.02 48.821 135.99 48.801 135.95 48.771C135.69 48.571 135.43 48.381 135.16 48.221L98.2703 26.921C97.0903 26.241 96.0203 26.181 95.2503 26.621L91.0203 29.081C91.7903 28.631 92.8603 28.691 94.0403 29.381L130.93 50.681C131.2 50.841 131.46 51.021 131.72 51.231C131.75 51.261 131.79 51.281 131.82 51.311C132.06 51.511 132.29 51.731 132.52 51.961C132.56 52.001 132.6 52.051 132.64 52.091C132.87 52.341 133.09 52.601 133.29 52.871C133.31 52.901 133.33 52.931 133.36 52.971C133.54 53.221 133.7 53.471 133.86 53.741C133.9 53.811 133.95 53.891 133.99 53.961C134.16 54.261 134.31 54.561 134.45 54.861C134.46 54.891 134.48 54.931 134.49 54.961C134.61 55.241 134.71 55.531 134.8 55.811C134.83 55.911 134.86 56.011 134.88 56.101C134.95 56.331 135 56.571 135.04 56.801C135.06 56.901 135.08 56.991 135.09 57.091C135.14 57.411 135.17 57.721 135.17 58.031L135.01 113.461C135.01 114.801 134.53 115.751 133.77 116.191L138 113.731C138.76 113.291 139.24 112.341 139.24 111.001L139.4 55.571C139.4 55.261 139.37 54.951 139.32 54.631V54.641Z" fill="url(#paint3_linear_3173_167096)"/>
    <path d="M119.12 57.691C121.47 59.051 123.37 62.341 123.36 65.041L123.2 120.471C123.2 123.181 121.28 124.261 118.93 122.901L82.0401 101.601C79.6901 100.241 77.7901 96.961 77.8001 94.251L77.9601 38.821C77.9601 36.121 79.8801 35.021 82.2301 36.381L119.12 57.681V57.691Z" fill="url(#paint4_linear_3173_167096)"/>
    <path fill-rule="evenodd" clip-rule="evenodd" d="M113.39 75.601L87.8502 60.861C87.0702 60.401 86.4402 59.311 86.4402 58.411C86.4402 57.511 87.0702 57.151 87.8602 57.601L113.4 72.341C114.18 72.801 114.81 73.891 114.81 74.791C114.81 75.681 114.18 76.051 113.39 75.601ZM113.36 85.3809L87.8201 70.6409C87.0301 70.1909 86.4001 70.5609 86.4001 71.4609C86.4001 72.3609 87.0301 73.4509 87.8101 73.9109L113.35 88.6509C114.14 89.1009 114.77 88.7309 114.77 87.8409C114.77 86.9409 114.14 85.8409 113.36 85.3909V85.3809ZM113.32 98.431L87.7801 83.691C86.9901 83.241 86.3601 83.611 86.3601 84.501C86.3601 85.401 86.9901 86.501 87.7701 86.951L113.31 101.691C114.1 102.141 114.73 101.771 114.73 100.871C114.73 99.971 114.1 98.881 113.32 98.421V98.431Z" fill="#F5EDFD"/>
    <path d="M127.52 61.641C127.51 61.541 127.49 61.451 127.47 61.351C127.43 61.121 127.37 60.891 127.31 60.651C127.28 60.551 127.26 60.451 127.23 60.351C127.14 60.061 127.04 59.781 126.92 59.501C126.91 59.471 126.89 59.431 126.88 59.391V59.371C126.74 59.071 126.59 58.781 126.42 58.491C126.38 58.411 126.33 58.341 126.29 58.271C126.13 58.011 125.97 57.751 125.79 57.511C125.77 57.481 125.75 57.441 125.72 57.411C125.56 57.191 125.39 56.981 125.22 56.781C125.17 56.731 125.12 56.681 125.08 56.631C125.04 56.591 125 56.541 124.96 56.501C124.74 56.271 124.5 56.051 124.26 55.851C124.22 55.821 124.19 55.801 124.15 55.771C123.89 55.571 123.63 55.381 123.36 55.221L86.4702 33.921C85.2902 33.241 84.2202 33.181 83.4502 33.621L79.2202 36.081C79.9902 35.631 81.0602 35.691 82.2402 36.381L119.13 57.681C119.4 57.841 119.66 58.021 119.92 58.231C119.95 58.261 119.99 58.281 120.02 58.311C120.26 58.511 120.49 58.731 120.72 58.961C120.76 59.001 120.8 59.051 120.84 59.091C121.07 59.341 121.29 59.601 121.49 59.871C121.51 59.901 121.53 59.931 121.56 59.971C121.74 60.221 121.9 60.471 122.06 60.741C122.1 60.811 122.15 60.891 122.19 60.961C122.36 61.261 122.51 61.561 122.65 61.861C122.66 61.891 122.68 61.931 122.69 61.961C122.81 62.241 122.91 62.531 123 62.811C123.03 62.911 123.06 63.011 123.08 63.101C123.15 63.331 123.2 63.571 123.24 63.801C123.26 63.901 123.28 63.991 123.29 64.091C123.34 64.411 123.37 64.721 123.37 65.031L123.21 120.461C123.21 121.801 122.73 122.751 121.97 123.191L126.2 120.731C126.96 120.291 127.44 119.341 127.44 118.001L127.6 62.571C127.6 62.261 127.57 61.951 127.52 61.631V61.641Z" fill="url(#paint5_linear_3173_167096)"/>
    <path d="M107.32 64.691C109.67 66.051 111.57 69.341 111.56 72.041L111.4 127.471C111.4 130.181 109.48 131.261 107.13 129.901L70.24 108.601C67.89 107.241 65.99 103.961 66 101.251L66.16 45.821C66.16 43.121 68.08 42.021 70.43 43.381L107.32 64.681V64.691Z" fill="url(#paint6_linear_3173_167096)"/>
    <path fill-rule="evenodd" clip-rule="evenodd" d="M101.59 82.601L76.0501 67.861C75.2701 67.401 74.6401 66.311 74.6401 65.411C74.6401 64.511 75.2701 64.151 76.0601 64.601L101.6 79.341C102.38 79.801 103.01 80.891 103.01 81.791C103.01 82.681 102.38 83.051 101.59 82.601ZM101.56 92.3809L76.0201 77.6409C75.2301 77.1909 74.6001 77.5609 74.6001 78.4609C74.6001 79.3609 75.2301 80.4509 76.0101 80.9109L101.55 95.6509C102.34 96.1009 102.97 95.7309 102.97 94.8409C102.97 93.9409 102.34 92.8409 101.56 92.3909V92.3809ZM101.52 105.431L75.9801 90.691C75.1901 90.241 74.5601 90.611 74.5601 91.501C74.5601 92.401 75.1901 93.501 75.9701 93.951L101.51 108.691C102.3 109.141 102.93 108.771 102.93 107.871C102.93 106.971 102.3 105.881 101.52 105.421V105.431Z" fill="#C9F0FF"/>
    <path d="M115.72 68.641C115.71 68.541 115.69 68.451 115.67 68.351C115.63 68.121 115.57 67.891 115.51 67.651C115.48 67.551 115.46 67.451 115.43 67.351C115.34 67.061 115.24 66.781 115.12 66.501C115.11 66.471 115.09 66.431 115.08 66.391V66.371C114.94 66.071 114.79 65.781 114.62 65.491C114.58 65.411 114.53 65.341 114.49 65.271C114.33 65.011 114.17 64.751 113.99 64.511C113.97 64.481 113.95 64.441 113.92 64.411C113.76 64.191 113.59 63.981 113.42 63.781C113.37 63.731 113.32 63.681 113.28 63.631C113.24 63.591 113.2 63.541 113.16 63.501C112.94 63.271 112.7 63.051 112.46 62.851C112.42 62.821 112.39 62.801 112.35 62.771C112.09 62.571 111.83 62.381 111.56 62.221L74.6702 40.921C73.4902 40.241 72.4202 40.181 71.6502 40.621L67.4202 43.081C68.1902 42.631 69.2602 42.691 70.4402 43.381L107.33 64.681C107.6 64.841 107.86 65.021 108.12 65.231C108.15 65.261 108.19 65.281 108.22 65.311C108.46 65.511 108.69 65.731 108.92 65.961C108.96 66.001 109 66.051 109.04 66.091C109.27 66.341 109.49 66.601 109.69 66.871C109.71 66.901 109.73 66.931 109.76 66.971C109.94 67.221 110.1 67.471 110.26 67.741C110.3 67.811 110.35 67.891 110.39 67.961C110.56 68.261 110.71 68.561 110.85 68.861C110.86 68.891 110.88 68.931 110.89 68.961C111.01 69.241 111.11 69.531 111.2 69.811C111.23 69.911 111.26 70.011 111.28 70.101C111.35 70.331 111.4 70.571 111.44 70.801C111.46 70.901 111.48 70.991 111.49 71.091C111.54 71.411 111.57 71.721 111.57 72.031L111.41 127.461C111.41 128.801 110.93 129.751 110.17 130.191L114.4 127.731C115.16 127.291 115.64 126.341 115.64 125.001L115.8 69.571C115.8 69.261 115.77 68.951 115.72 68.631V68.641Z" fill="url(#paint7_linear_3173_167096)"/>
    <defs>
        <radialGradient id="paint0_radial_3173_167096" cx="0" cy="0" r="1" gradientUnits="userSpaceOnUse" gradientTransform="translate(155.506 72.1199) rotate(105) scale(7.60808 17.12)">
            <stop stop-opacity="0.15"/>
            <stop offset="1" stop-opacity="0"/>
        </radialGradient>
        <radialGradient id="paint1_radial_3173_167096" cx="0" cy="0" r="1" gradientUnits="userSpaceOnUse" gradientTransform="translate(107.406 120.162) rotate(90) scale(12.3214 23.8556)">
            <stop stop-opacity="0.15"/>
            <stop offset="1" stop-opacity="0"/>
        </radialGradient>
        <linearGradient id="paint2_linear_3173_167096" x1="87.7921" y1="32.7872" x2="126.495" y2="114.746" gradientUnits="userSpaceOnUse">
            <stop stop-color="#E7D190"/>
            <stop offset="1" stop-color="#F99D1C"/>
        </linearGradient>
        <linearGradient id="paint3_linear_3173_167096" x1="131.345" y1="38.6813" x2="139.054" y2="112.009" gradientUnits="userSpaceOnUse">
            <stop stop-color="#FFF2C3"/>
            <stop offset="0.645833" stop-color="#FFC83E"/>
            <stop offset="1" stop-color="#EC952E"/>
        </linearGradient>
        <linearGradient id="paint4_linear_3173_167096" x1="77.3531" y1="40.6886" x2="114.013" y2="121.277" gradientUnits="userSpaceOnUse">
            <stop stop-color="#D1ABE6"/>
            <stop offset="0.8" stop-color="#A864CD"/>
            <stop offset="1" stop-color="#A864CD"/>
        </linearGradient>
        <linearGradient id="paint5_linear_3173_167096" x1="102.203" y1="47.5049" x2="109.911" y2="120.833" gradientUnits="userSpaceOnUse">
            <stop stop-color="#E6D1F2"/>
            <stop offset="0.65" stop-color="#A864CD"/>
            <stop offset="1" stop-color="#862EB5"/>
        </linearGradient>
        <linearGradient id="paint6_linear_3173_167096" x1="68.5686" y1="47.4481" x2="127.21" y2="106.461" gradientUnits="userSpaceOnUse">
            <stop stop-color="#68D6F7"/>
            <stop offset="0.958333" stop-color="#32B0E7"/>
        </linearGradient>
        <linearGradient id="paint7_linear_3173_167096" x1="91.5703" y1="130.191" x2="91.5703" y2="40.3401" gradientUnits="userSpaceOnUse">
            <stop stop-color="#2081D4"/>
            <stop offset="0.479167" stop-color="#45CAF2"/>
            <stop offset="1" stop-color="#8CEFFF"/>
        </linearGradient>
    </defs>
</svg>
