<svg width="32" height="33" viewBox="0 0 32 33" fill="none" xmlns="http://www.w3.org/2000/svg">
<g clip-path="url(#clip0_4534_190261)">
<rect y="0.317383" width="32" height="32" rx="16" fill="#E0E0E0"/>
<path d="M15 8.31738C12.7909 8.31738 11 10.1082 11 12.3174C11 14.5265 12.7909 16.3174 15 16.3174C17.2091 16.3174 19 14.5265 19 12.3174C19 10.1082 17.2091 8.31738 15 8.31738ZM12 12.3174C12 10.6605 13.3431 9.31738 15 9.31738C16.6569 9.31738 18 10.6605 18 12.3174C18 13.9742 16.6569 15.3174 15 15.3174C13.3431 15.3174 12 13.9742 12 12.3174ZM10.0087 17.3174C8.90315 17.3174 8 18.2043 8 19.3174C8 21.0086 8.83281 22.2837 10.135 23.114C11.417 23.9314 13.1453 24.3174 15 24.3174C15.4109 24.3174 15.8155 24.2984 16.2105 24.2601C15.973 23.9645 15.7654 23.6439 15.5923 23.3029C15.398 23.3125 15.2004 23.3174 15 23.3174C13.2649 23.3174 11.7432 22.9534 10.6726 22.2708C9.62226 21.6011 9 20.6262 9 19.3174C9 18.7641 9.44786 18.3174 10.0087 18.3174L15.5997 18.3174C15.7826 17.9596 16.0035 17.6245 16.2572 17.3174L10.0087 17.3174ZM20.5 25.3174C22.9853 25.3174 25 23.3027 25 20.8174C25 18.3321 22.9853 16.3174 20.5 16.3174C18.0147 16.3174 16 18.3321 16 20.8174C16 23.3027 18.0147 25.3174 20.5 25.3174ZM20.5 18.3174C20.7761 18.3174 21 18.5412 21 18.8174V20.3174H22.5C22.7761 20.3174 23 20.5412 23 20.8174C23 21.0935 22.7761 21.3174 22.5 21.3174H21V22.8174C21 23.0935 20.7761 23.3174 20.5 23.3174C20.2239 23.3174 20 23.0935 20 22.8174V21.3174H18.5C18.2239 21.3174 18 21.0935 18 20.8174C18 20.5412 18.2239 20.3174 18.5 20.3174H20V18.8174C20 18.5412 20.2239 18.3174 20.5 18.3174Z" fill="#424242"/>
</g>
<defs>
<clipPath id="clip0_4534_190261">
<rect width="32" height="32" fill="white" transform="translate(0 0.317383)"/>
</clipPath>
</defs>
</svg>
