<svg xmlns="http://www.w3.org/2000/svg" viewBox="-5439 -435 337.6 72">
  <defs>
  </defs>
  <g id="group-355" transform="translate(-5971 -3295)">
    <g id="group-354" transform="translate(532 2860)">
      <path id="path" style="fill: #FFFFFF;" d="M140.4,14.4V57.6h-7.5V23.7h-.1L119.4,57.6h-5L100.7,23.7h-.1V57.6H93.7V14.4h10.8l12.4,32h.2l13.1-32h10.2Zm6.2,3.3a3.8,3.8,0,0,1,1.3-3,4.471,4.471,0,0,1,3.1-1.2,4.08,4.08,0,0,1,3.2,1.3,4.157,4.157,0,0,1,1.3,3,3.8,3.8,0,0,1-1.3,3A4.542,4.542,0,0,1,151,22a4.143,4.143,0,0,1-3.1-1.2A4.986,4.986,0,0,1,146.6,17.7Zm8.1,8.9v31h-7.3v-31h7.3Zm22.1,25.7a10.239,10.239,0,0,0,3.6-.8,15.8,15.8,0,0,0,3.6-2v6.8a12.759,12.759,0,0,1-4,1.5,24.608,24.608,0,0,1-4.9.5c-4.6,0-8.3-1.4-11.1-4.3a14.922,14.922,0,0,1-4.3-11,17.646,17.646,0,0,1,4.4-12.3c2.9-3.2,7-4.8,12.4-4.8a19.151,19.151,0,0,1,4.1.5,19.793,19.793,0,0,1,3.3,1.2v7a14.527,14.527,0,0,0-3.4-1.9,9.223,9.223,0,0,0-3.6-.7,9.12,9.12,0,0,0-7,2.8,10.542,10.542,0,0,0-2.7,7.6c0,3.1.8,5.6,2.5,7.3A10.174,10.174,0,0,0,176.8,52.3Zm27.9-26.2a8.083,8.083,0,0,1,1.6.1,10.378,10.378,0,0,1,1.2.3v7.4a6.8,6.8,0,0,0-1.7-.8,6.99,6.99,0,0,0-2.7-.4,5.591,5.591,0,0,0-4.5,2.3c-1.2,1.5-1.9,3.8-1.9,7V57.6h-7.3v-31h7.3v4.9h.1a9.42,9.42,0,0,1,3-4A8.811,8.811,0,0,1,204.7,26.1Zm3.2,16.5c0-5.1,1.4-9.2,4.3-12.2s6.9-4.5,12.1-4.5c4.8,0,8.6,1.4,11.3,4.3s4.1,6.8,4.1,11.7c0,5-1.4,9-4.3,12s-6.8,4.5-11.8,4.5q-7.2,0-11.4-4.2C209.3,51.3,207.9,47.4,207.9,42.6Zm7.6-.3c0,3.2.7,5.7,2.2,7.4a7.993,7.993,0,0,0,6.3,2.6,7.434,7.434,0,0,0,6.1-2.6c1.4-1.7,2.1-4.2,2.1-7.6,0-3.3-.7-5.8-2.2-7.5a7.3,7.3,0,0,0-6-2.5,7.546,7.546,0,0,0-6.2,2.7C216.2,36.5,215.5,39,215.5,42.3Zm35-7.5a3.174,3.174,0,0,0,1,2.5,17.1,17.1,0,0,0,4.4,2.2c2.9,1.2,5,2.5,6.1,3.9a8.1,8.1,0,0,1,1.8,5.3,8.27,8.27,0,0,1-3.4,7c-2.2,1.8-5.3,2.7-9.1,2.7a23.692,23.692,0,0,1-4.3-.5,17.305,17.305,0,0,1-4-1.2V49.5a17.474,17.474,0,0,0,4.3,2.2,13.48,13.48,0,0,0,4.2.8,6.721,6.721,0,0,0,3.6-.7,2.454,2.454,0,0,0,1.2-2.3,3.034,3.034,0,0,0-1.2-2.5,18.467,18.467,0,0,0-4.6-2.4,13.753,13.753,0,0,1-5.7-3.8,8.5,8.5,0,0,1-1.7-5.4,8.524,8.524,0,0,1,3.3-6.9,13.209,13.209,0,0,1,8.6-2.7,15.857,15.857,0,0,1,3.6.4,20.633,20.633,0,0,1,3.4.9V34a21.542,21.542,0,0,0-3.4-1.7,10.583,10.583,0,0,0-3.8-.7,5.576,5.576,0,0,0-3.2.8A3.194,3.194,0,0,0,250.5,34.8Zm16.4,7.8c0-5.1,1.4-9.2,4.3-12.2s6.9-4.5,12.1-4.5c4.8,0,8.6,1.4,11.3,4.3s4.1,6.8,4.1,11.7c0,5-1.4,9-4.3,12s-6.8,4.5-11.8,4.5q-7.2,0-11.4-4.2A16.108,16.108,0,0,1,266.9,42.6Zm7.6-.3c0,3.2.7,5.7,2.2,7.4a7.993,7.993,0,0,0,6.3,2.6,7.434,7.434,0,0,0,6.1-2.6c1.4-1.7,2.1-4.2,2.1-7.6,0-3.3-.7-5.8-2.2-7.5a7.3,7.3,0,0,0-6-2.5,7.546,7.546,0,0,0-6.2,2.7C275.3,36.5,274.5,39,274.5,42.3Zm48.4-9.7H312v25h-7.4v-25h-5.2v-6h5.2V22.3a10.772,10.772,0,0,1,3.2-8,10.928,10.928,0,0,1,8.1-3.1,17.723,17.723,0,0,1,2.4.1,8.024,8.024,0,0,1,1.8.4V18a12.256,12.256,0,0,0-1.3-.5,6.648,6.648,0,0,0-2.1-.3,4.513,4.513,0,0,0-3.5,1.4,6.562,6.562,0,0,0-1.2,4.2v3.7h10.9v-7l7.3-2.2v9.2h7.4v6h-7.4V47c0,1.9.3,3.3,1,4a4.163,4.163,0,0,0,3.3,1.2,4.936,4.936,0,0,0,1.5-.3,7.741,7.741,0,0,0,1.6-.7v6a6.974,6.974,0,0,1-2.3.7,17.329,17.329,0,0,1-3.2.3c-3.1,0-5.4-.8-6.9-2.5-1.5-1.6-2.3-4.1-2.3-7.4Z"/>
      <g id="group">
        <rect id="rectangle" style="fill: #f25022;" width="34.2" height="34.2"/>
        <rect id="rectangle-2" data-name="rectangle" style="fill: #7fba00;"  width="34.2" height="34.2" transform="translate(37.8)"/>
        <rect id="rectangle-3" data-name="rectangle" style="fill: #00a4ef;"  width="34.2" height="34.2" transform="translate(0 37.8)"/>
        <rect id="rectangle-4" data-name="rectangle" style="fill: #ffb900;"  width="34.2" height="34.2" transform="translate(37.8 37.8)"/>
      </g>
    </g>
  </g>
</svg>
