<!-- Exported by Character Map UWP -->
<svg height="100%" viewBox="-1536 126 4080 753" width="100%" xmlns="http://www.w3.org/2000/svg" xmlns:xlink="http://www.w3.org/1999/xlink">
  <path d="M-1195.5,466.5L-1536,466.5L-1536,126L-1195.5,126ZM-783.5,466.5L-1124,466.5L-1124,126L-783.5,126ZM722.5,732.5C681.833,732.5 649,718.5 624,690.5C600.333,663.5 588.5,624.833 588.5,574.5C588.5,520.5 601.833,477.667 628.5,446C655.5,413.667 691.5,397.5 736.5,397.5C756.833,397.5 774.833,400.667 790.5,407C805.167,414.667 817.333,424.5 827,436.5L828.5,436.5L828.5,250L905,250L905,728L828.5,728L828.5,685L827,685C815.333,701.333 801,713.167 784,720.5C768,728.5 747.5,732.5 722.5,732.5ZM132,354C119,354 108.167,349.833 99.5,341.5C90.5,331.5 86,321.333 86,311C86,299 90.5,288.167 99.5,278.5C110.167,270.5 121,266.5 132,266.5C145.333,266.5 156.667,270.833 166,279.5C174.333,287.833 178.5,298.333 178.5,311C178.5,323.333 174.333,333.833 166,342.5C160.667,346.5 155.417,349.417 150.25,351.25C145.083,353.083 139,354 132,354ZM2241.5,358.5C2227.83,368.5 2213.67,376.333 2199,382C2183.33,389.333 2165.67,395.167 2146,399.5L2146,334.5C2167.67,328.167 2192.67,318.167 2221,304.5C2239.33,294.833 2259.83,282.167 2282.5,266.5L2317,266.5L2317,728L2241.5,728ZM2468.5,358.5C2455.83,368.5 2441.67,376.333 2426,382C2410.67,389.667 2393.17,395.5 2373.5,399.5L2373.5,334.5C2394.83,328.167 2419.67,318.167 2448,304.5C2466.33,295.167 2487.17,282.5 2510.5,266.5L2544,266.5L2544,728L2468.5,728ZM-337,728L-431,728L-557.5,276.5L-472.5,276.5L-383.5,633L-381,633L-283,276.5L-199.5,276.5L-108,633L-105.5,633L-21.5,276.5L61,276.5L-62.5,728L-154,728L-245.5,386.5L-247.5,386.5ZM1121.5,736C1071.83,736 1031.83,721.167 1001.5,691.5C971.833,661.167 957,620.667 957,570C957,517.333 972.167,475.333 1002.5,444C1032.5,412.333 1074.67,396.5 1129,396.5C1179.67,396.5 1219,411.5 1247,441.5C1275.67,471.5 1290,512.333 1290,564C1290,616.667 1274.83,658.333 1244.5,689C1214.5,720.333 1173.5,736 1121.5,736ZM1892.5,736C1875.83,736 1860.67,734.5 1847,731.5C1842,730.167 1838.67,729.333 1837,729C1834.67,728.333 1830.08,727 1823.25,725C1816.42,723 1810.5,720.833 1805.5,718.5L1805.5,643.5C1815.83,649.833 1824.17,654.667 1830.5,658C1836.83,661.333 1843.67,664.167 1851,666.5C1868,672.5 1882.17,675.5 1893.5,675.5C1908.83,675.5 1921.83,672.833 1932.5,667.5C1940.17,662.5 1944,654.5 1944,643.5C1944,633.5 1939.83,624.667 1931.5,617C1927.83,613.333 1922.75,609.917 1916.25,606.75C1909.75,603.583 1898.83,598.667 1883.5,592C1854.17,579.333 1834,566 1823,552C1811.33,538.333 1805.5,519.5 1805.5,495.5C1805.5,466.833 1817.17,443.167 1840.5,424.5C1862.17,405.833 1892,396.5 1930,396.5C1942,396.5 1955,397.5 1969,399.5C1975.67,400.833 1982.17,402.333 1988.5,404C1994.83,405.667 1999.83,407.5 2003.5,409.5L2003.5,481.5C1996.5,476.833 1985,471.167 1969,464.5C1955.67,460.167 1942.33,458 1929,458C1913.67,458 1902.17,460.5 1894.5,465.5C1886.5,472.5 1882.5,480.5 1882.5,489.5C1882.5,494.5 1883.5,499.167 1885.5,503.5C1887.5,507.833 1890.17,511.333 1893.5,514C1900.17,521.333 1915.5,529.333 1939.5,538C1968.17,549.667 1989.5,563.333 2003.5,579C2015.83,594.333 2022,612.667 2022,634C2022,664.333 2010.17,688.833 1986.5,707.5C1962.83,726.5 1931.5,736 1892.5,736ZM244.5,728L244.5,404L320,404L320,447L322.5,447C334.5,430 349.333,417.5 367,409.5C384,401.5 404.167,397.5 427.5,397.5C461.5,397.5 487.667,408.333 506,430C525,453 534.5,486.5 534.5,530.5L534.5,728L457.5,728L457.5,546.5C457.5,517.167 452.833,495.167 443.5,480.5C432.167,466.167 416,459 395,459C374,459 356.333,467 342,483C327.333,500.667 320,521.167 320,544.5L320,728ZM170,728L94,728L94,404L170,404ZM1479.5,728L1398,728L1304,404L1383,404L1443.5,652.5L1445.5,652.5L1516,404L1589.5,404L1653,652.5L1654.5,652.5L1714,404L1786,404L1691,728L1611.5,728L1547.5,493.5L1545,493.5ZM747.5,674C771.5,674 791,665 806,647C821,628.333 828.5,604.167 828.5,574.5L828.5,540C828.5,518.333 821.167,499.333 806.5,483C791.833,467 773.5,459 751.5,459C724.833,459 704,469.167 689,489.5C674.667,508.167 667.5,535.833 667.5,572.5C667.5,605.5 674.667,630.333 689,647C702.667,665 722.167,674 747.5,674ZM1126,672C1139.33,672 1151.33,669.75 1162,665.25C1172.67,660.75 1181.5,654.333 1188.5,646C1195.83,636.667 1201.25,625.583 1204.75,612.75C1208.25,599.917 1210,584.333 1210,566C1210,530.667 1202.5,504.333 1187.5,487C1180.5,478.667 1171.67,472.25 1161,467.75C1150.33,463.25 1138.33,461 1125,461C1096.33,461 1074.67,470.5 1060,489.5C1044.67,507.167 1037,533.333 1037,568C1037,601.667 1044.67,627.667 1060,646C1075.33,663.333 1097.33,672 1126,672ZM-1195.5,878.5L-1536,878.5L-1536,538L-1195.5,538ZM-783.5,878.5L-1124,878.5L-1124,538L-783.5,538Z" fill="#FFFFFF" fill-opacity="1">
  </path>
</svg>