<svg width="" height="" viewBox="0 0 264 132" fill="none" xmlns="http://www.w3.org/2000/svg">
<g filter="url(#filter0_ddii_9399_324834)">
<path d="M126.92 55C123.098 55 120 58.0983 120 61.9203V95.0797C120 98.9017 123.098 102 126.92 102H195.315L212.247 117.327C214.176 119.073 217.261 117.704 217.261 115.103L217.261 102H225.08C228.902 102 232 98.9017 232 95.0797V61.9203C232 58.0983 228.902 55 225.08 55H126.92Z" fill="url(#paint0_linear_9399_324834)"/>
</g>
<g filter="url(#filter1_ii_9399_324834)">
<path d="M54.9203 20C51.0983 20 48 23.0983 48 26.9203V81.5904C48 85.4124 51.0983 88.5107 54.9203 88.5107H72.8246L72.8246 100.278C72.8246 102.879 75.9093 104.248 77.8379 102.502L93.2948 88.5107H153.246C157.068 88.5107 160.166 85.4124 160.166 81.5904V26.9203C160.166 23.0983 157.068 20 153.246 20H54.9203Z" fill="#F4F3F3"/>
</g>
<g filter="url(#filter2_i_9399_324834)">
<path fill-rule="evenodd" clip-rule="evenodd" d="M69.4516 46.5498C69.4516 44.9697 70.7326 43.6887 72.3127 43.6887H135.197C136.777 43.6887 138.058 44.9697 138.058 46.5498C138.058 48.1299 136.777 49.4109 135.197 49.4109H72.3127C70.7326 49.4109 69.4516 48.1299 69.4516 46.5498ZM69.4516 62.8841C69.4516 61.3039 70.7326 60.023 72.3127 60.023H104.705C106.285 60.023 107.566 61.3039 107.566 62.8841C107.566 64.4642 106.285 65.7452 104.705 65.7452H72.3127C70.7326 65.7452 69.4516 64.4642 69.4516 62.8841Z" fill="url(#paint1_linear_9399_324834)"/>
</g>
<defs>
<filter id="filter0_ddii_9399_324834" x="118.564" y="50.9907" width="118.436" height="72.7131" filterUnits="userSpaceOnUse" color-interpolation-filters="sRGB">
<feFlood flood-opacity="0" result="BackgroundImageFix"/>
<feColorMatrix in="SourceAlpha" type="matrix" values="0 0 0 0 0 0 0 0 0 0 0 0 0 0 0 0 0 0 127 0" result="hardAlpha"/>
<feOffset dy="0.543241"/>
<feGaussianBlur stdDeviation="0.346014"/>
<feComposite in2="hardAlpha" operator="out"/>
<feColorMatrix type="matrix" values="0 0 0 0 0 0 0 0 0 0 0 0 0 0 0 0 0 0 0.25 0"/>
<feBlend mode="normal" in2="BackgroundImageFix" result="effect1_dropShadow_9399_324834"/>
<feColorMatrix in="SourceAlpha" type="matrix" values="0 0 0 0 0 0 0 0 0 0 0 0 0 0 0 0 0 0 127 0" result="hardAlpha"/>
<feOffset dx="1.78193" dy="2.37711"/>
<feGaussianBlur stdDeviation="1.60896"/>
<feComposite in2="hardAlpha" operator="out"/>
<feColorMatrix type="matrix" values="0 0 0 0 0 0 0 0 0 0 0 0 0 0 0 0 0 0 0.1 0"/>
<feBlend mode="normal" in2="effect1_dropShadow_9399_324834" result="effect2_dropShadow_9399_324834"/>
<feBlend mode="normal" in="SourceGraphic" in2="effect2_dropShadow_9399_324834" result="shape"/>
<feColorMatrix in="SourceAlpha" type="matrix" values="0 0 0 0 0 0 0 0 0 0 0 0 0 0 0 0 0 0 127 0" result="hardAlpha"/>
<feOffset dy="-4.00934"/>
<feGaussianBlur stdDeviation="2.22741"/>
<feComposite in2="hardAlpha" operator="arithmetic" k2="-1" k3="1"/>
<feColorMatrix type="matrix" values="0 0 0 0 0 0 0 0 0 0 0 0 0 0 0 0 0 0 0.15 0"/>
<feBlend mode="normal" in2="shape" result="effect3_innerShadow_9399_324834"/>
<feColorMatrix in="SourceAlpha" type="matrix" values="0 0 0 0 0 0 0 0 0 0 0 0 0 0 0 0 0 0 127 0" result="hardAlpha"/>
<feOffset dy="2.67289"/>
<feGaussianBlur stdDeviation="1.78193"/>
<feComposite in2="hardAlpha" operator="arithmetic" k2="-1" k3="1"/>
<feColorMatrix type="matrix" values="0 0 0 0 1 0 0 0 0 1 0 0 0 0 1 0 0 0 0.25 0"/>
<feBlend mode="normal" in2="effect3_innerShadow_9399_324834" result="effect4_innerShadow_9399_324834"/>
</filter>
<filter id="filter1_ii_9399_324834" x="48" y="17.5285" width="112.166" height="87.4031" filterUnits="userSpaceOnUse" color-interpolation-filters="sRGB">
<feFlood flood-opacity="0" result="BackgroundImageFix"/>
<feBlend mode="normal" in="SourceGraphic" in2="BackgroundImageFix" result="shape"/>
<feColorMatrix in="SourceAlpha" type="matrix" values="0 0 0 0 0 0 0 0 0 0 0 0 0 0 0 0 0 0 127 0" result="hardAlpha"/>
<feOffset dy="-2.47148"/>
<feGaussianBlur stdDeviation="1.37304"/>
<feComposite in2="hardAlpha" operator="arithmetic" k2="-1" k3="1"/>
<feColorMatrix type="matrix" values="0 0 0 0 0 0 0 0 0 0 0 0 0 0 0 0 0 0 0.15 0"/>
<feBlend mode="normal" in2="shape" result="effect1_innerShadow_9399_324834"/>
<feColorMatrix in="SourceAlpha" type="matrix" values="0 0 0 0 0 0 0 0 0 0 0 0 0 0 0 0 0 0 127 0" result="hardAlpha"/>
<feOffset dy="1.64765"/>
<feGaussianBlur stdDeviation="1.09844"/>
<feComposite in2="hardAlpha" operator="arithmetic" k2="-1" k3="1"/>
<feColorMatrix type="matrix" values="0 0 0 0 1 0 0 0 0 1 0 0 0 0 1 0 0 0 0.8 0"/>
<feBlend mode="normal" in2="effect1_innerShadow_9399_324834" result="effect2_innerShadow_9399_324834"/>
</filter>
<filter id="filter2_i_9399_324834" x="69.4516" y="41.5107" width="68.6064" height="24.2345" filterUnits="userSpaceOnUse" color-interpolation-filters="sRGB">
<feFlood flood-opacity="0" result="BackgroundImageFix"/>
<feBlend mode="normal" in="SourceGraphic" in2="BackgroundImageFix" result="shape"/>
<feColorMatrix in="SourceAlpha" type="matrix" values="0 0 0 0 0 0 0 0 0 0 0 0 0 0 0 0 0 0 127 0" result="hardAlpha"/>
<feOffset dy="-3.26697"/>
<feGaussianBlur stdDeviation="1.08899"/>
<feComposite in2="hardAlpha" operator="arithmetic" k2="-1" k3="1"/>
<feColorMatrix type="matrix" values="0 0 0 0 0.227257 0 0 0 0 0.334163 0 0 0 0 0.708333 0 0 0 0.23 0"/>
<feBlend mode="normal" in2="shape" result="effect1_innerShadow_9399_324834"/>
</filter>
<linearGradient id="paint0_linear_9399_324834" x1="315.044" y1="80.2587" x2="239.953" y2="-48.7533" gradientUnits="userSpaceOnUse">
<stop stop-color="#278FF1"/>
<stop offset="1" stop-color="#005FB8"/>
</linearGradient>
<linearGradient id="paint1_linear_9399_324834" x1="188.927" y1="52.5166" x2="170.872" y2="-1.85238" gradientUnits="userSpaceOnUse">
<stop stop-color="#278FF1"/>
<stop offset="1" stop-color="#005FB8"/>
</linearGradient>
</defs>
</svg>
