<svg width="310" height="210" viewBox="0 0 310 210" fill="none" xmlns="http://www.w3.org/2000/svg">
<g filter="url(#filter0_b)">
<g opacity="0.8" filter="url(#filter1_d)">
<rect x="5" y="3" width="300" height="200" rx="8" fill="#2C2C2C"/>
<rect x="4.5" y="2.5" width="301" height="201" rx="8.5" stroke="black" stroke-opacity="0.1"/>
</g>
<circle opacity="0.06" cx="29" cy="24" r="8" fill="white"/>
<rect opacity="0.06" x="46" y="20" width="80" height="8" rx="4" fill="white"/>
<rect opacity="0.06" x="29" y="61" width="86.1072" height="8" rx="4" fill="white"/>
<rect opacity="0.06" x="29" y="78" width="62.7352" height="8" rx="4" fill="white"/>
<rect opacity="0.06" x="150.839" y="65.5" width="49.1341" height="16" rx="6" fill="white"/>
<rect opacity="0.06" x="207.973" y="65.5" width="49.1341" height="16" rx="6" fill="white"/>
<g opacity="0.06">
<rect x="265.107" y="65.5" width="16" height="16" rx="8" fill="white"/>
</g>
<rect opacity="0.06" x="29" y="104" width="86.1072" height="8" rx="4" fill="white"/>
<rect opacity="0.06" x="29" y="121" width="62.7352" height="8" rx="4" fill="white"/>
<rect opacity="0.06" x="150.839" y="108.5" width="49.1341" height="16" rx="6" fill="white"/>
<rect opacity="0.06" x="207.973" y="108.5" width="49.1341" height="16" rx="6" fill="white"/>
<g opacity="0.06">
<rect x="265.107" y="108.5" width="16" height="16" rx="8" fill="white"/>
</g>
<rect opacity="0.06" x="29" y="147" width="86.1072" height="8" rx="4" fill="white"/>
<rect opacity="0.06" x="29" y="164" width="62.7352" height="8" rx="4" fill="white"/>
<rect opacity="0.06" x="150.839" y="151.5" width="49.1341" height="16" rx="6" fill="white"/>
<rect opacity="0.06" x="207.973" y="151.5" width="49.1341" height="16" rx="6" fill="white"/>
<g opacity="0.06">
<rect x="265.107" y="151.5" width="16" height="16" rx="8" fill="white"/>
</g>
</g>
<defs>
<filter id="filter0_b" x="-116" y="-118" width="542" height="442" filterUnits="userSpaceOnUse" color-interpolation-filters="sRGB">
<feFlood flood-opacity="0" result="BackgroundImageFix"/>
<feGaussianBlur in="BackgroundImage" stdDeviation="60"/>
<feComposite in2="SourceAlpha" operator="in" result="effect1_backgroundBlur"/>
<feBlend mode="normal" in="SourceGraphic" in2="effect1_backgroundBlur" result="shape"/>
</filter>
<filter id="filter1_d" x="0" y="0" width="310" height="210" filterUnits="userSpaceOnUse" color-interpolation-filters="sRGB">
<feFlood flood-opacity="0" result="BackgroundImageFix"/>
<feColorMatrix in="SourceAlpha" type="matrix" values="0 0 0 0 0 0 0 0 0 0 0 0 0 0 0 0 0 0 127 0" result="hardAlpha"/>
<feOffset dy="2"/>
<feGaussianBlur stdDeviation="2"/>
<feColorMatrix type="matrix" values="0 0 0 0 0 0 0 0 0 0 0 0 0 0 0 0 0 0 0.08 0"/>
<feBlend mode="normal" in2="BackgroundImageFix" result="effect1_dropShadow"/>
<feBlend mode="normal" in="SourceGraphic" in2="effect1_dropShadow" result="shape"/>
</filter>
</defs>
</svg>
