<svg xmlns="http://www.w3.org/2000/svg" xml:space="preserve" id="Layer_2" x="0" y="0" version="1.1" viewBox="0 0 59.47 56.2"><style>.st1,.st2{fill:#0c1a24;fill-opacity:.9;stroke-width:1.9583}.st1{opacity:.65;stroke:url(#SVGID_00000156555495743985056390000005828641179799617715_)}.st2{stroke:url(#SVGID_00000097467906358637195210000002341325267622294189_)}.st3,.st4{fill:none;stroke:url(#SVGID_00000118364097607527838370000005511955813447583637_);stroke-width:1.9687;stroke-linecap:round;stroke-linejoin:round}.st4{stroke:url(#SVGID_00000150060931962369363580000007543239446876261044_)}</style><linearGradient id="SVGID_1_" x1="-195.2664" x2="-211.3669" y1="-250.1177" y2="-282.5611" gradientTransform="matrix(.866 -.5 -1 -.5774 -58.8925 -218.1933)" gradientUnits="userSpaceOnUse"><stop offset="0" stop-color="#1ff2ff"/><stop offset="1" stop-color="#0e72be"/></linearGradient><path fill="#0c1a24" fill-opacity=".9" stroke="url(#SVGID_1_)" stroke-width="1.9583" d="M4.65 32.21 25.5 20.17c2.26-1.3 5.91-1.31 8.15-.02l20.7 11.95c2.24 1.29 2.23 3.4-.03 4.71L33.47 48.85c-2.26 1.3-5.91 1.31-8.15.02L4.62 36.91c-2.24-1.29-2.23-3.4.03-4.7z" opacity=".28"/><linearGradient id="SVGID_00000033356232418949178980000007867731030433941936_" x1="-186.8925" x2="-202.993" y1="-242.8657" y2="-275.3091" gradientTransform="matrix(.866 -.5 -1 -.5774 -58.8925 -218.1933)" gradientUnits="userSpaceOnUse"><stop offset="0" stop-color="#1ff2ff"/><stop offset="1" stop-color="#0e72be"/></linearGradient><path fill="#0c1a24" fill-opacity=".9" stroke="url(#SVGID_00000033356232418949178980000007867731030433941936_)" stroke-width="1.9583" d="M4.65 23.84 25.5 11.8c2.26-1.3 5.91-1.31 8.15-.02l20.7 11.95c2.24 1.29 2.23 3.4-.03 4.71L33.47 40.48c-2.26 1.3-5.91 1.31-8.15.02L4.62 28.54c-2.24-1.29-2.23-3.4.03-4.7z" opacity=".65"/><linearGradient id="SVGID_00000158739212589789433430000008016075003463286435_" x1="-178.2721" x2="-194.3726" y1="-235.4003" y2="-267.8436" gradientTransform="matrix(.866 -.5 -1 -.5774 -58.8925 -218.1933)" gradientUnits="userSpaceOnUse"><stop offset="0" stop-color="#1ff2ff"/><stop offset="1" stop-color="#0e72be"/></linearGradient><path fill="#0c1a24" fill-opacity=".9" stroke="url(#SVGID_00000158739212589789433430000008016075003463286435_)" stroke-width="1.9583" d="M4.65 15.21 25.5 3.18c2.26-1.3 5.91-1.31 8.15-.02l20.7 11.95c2.24 1.29 2.23 3.4-.03 4.71L33.47 31.86c-2.26 1.3-5.91 1.31-8.15.02L4.62 19.92c-2.24-1.29-2.23-3.4.03-4.71z"/><linearGradient id="SVGID_00000042733077697108277150000000216202699958120587_" x1="-196.3584" x2="-190.2049" y1="283.9308" y2="289.2599" gradientTransform="matrix(.866 -.5 1 .5774 -102.8948 -243.5954)" gradientUnits="userSpaceOnUse"><stop offset=".0502" stop-color="#fff"/><stop offset="1" stop-color="#fff" stop-opacity=".7"/></linearGradient><path fill="none" stroke="url(#SVGID_00000042733077697108277150000000216202699958120587_)" stroke-linecap="round" stroke-linejoin="round" stroke-width="1.9687" d="m10.37 17.22 8.72-1.44-1.75 5.46"/><linearGradient id="SVGID_00000061458513807003238960000008196498292410381703_" x1="-185.4769" x2="-179.2023" y1="290.4521" y2="295.886" gradientTransform="matrix(.866 -.5 1 .5774 -102.8948 -243.5954)" gradientUnits="userSpaceOnUse"><stop offset=".0502" stop-color="#fff"/><stop offset="1" stop-color="#fff" stop-opacity=".7"/></linearGradient><path fill="none" stroke="url(#SVGID_00000061458513807003238960000008196498292410381703_)" stroke-linecap="round" stroke-linejoin="round" stroke-width="1.9687" d="m27.19 19.19 8.14-4.71"/></svg>