<svg xmlns="http://www.w3.org/2000/svg" xml:space="preserve" id="Layer_2" x="0" y="0" version="1.1" viewBox="0 0 47.28 56.2"><linearGradient id="SVGID_1_" x1="33.8295" x2="20.8583" y1="3.166" y2="38.8041" gradientUnits="userSpaceOnUse"><stop offset="0" stop-color="#1ff2ff"/><stop offset="1" stop-color="#0e72be"/></linearGradient><path fill="#0c1a24" fill-opacity=".9" stroke="url(#SVGID_1_)" stroke-width="1.7408" d="M45.69 23.24v-3.73c0-.4-.24-.77-.61-.93l-3.52-1.51c-.28-.12-.49-.36-.57-.65l-.54-1.91c-.07-.23-.05-.48.06-.7l1.51-3.25c.18-.38.1-.84-.2-1.14l-2.66-2.66c-.31-.31-.78-.38-1.16-.19l-3.24 1.62c-.29.15-.64.14-.93-.02L31.7 7.01c-.21-.11-.37-.3-.46-.52l-1.33-3.45c-.15-.39-.52-.65-.94-.65H25.44c-.42 0-.79.26-.94.65l-1.33 3.45c-.09.22-.25.41-.46.52l-2.12 1.15c-.29.16-.64.16-.93.02l-3.24-1.62c-.39-.19-.86-.12-1.16.19L12.6 9.41c-.3.3-.38.75-.2 1.14l1.51 3.25c.1.22.12.47.06.7l-.54 1.91c-.08.29-.29.53-.57.65l-3.52 1.51c-.37.16-.61.52-.61.93v3.73c0 .44.28.82.7.96l3.37 1.09c.27.09.49.29.61.54l.82 1.82c.12.27.12.58-.01.85l-1.51 3.15c-.18.37-.11.82.17 1.12l2.53 2.71c.3.32.78.41 1.18.22l3.27-1.61c.26-.13.57-.14.84-.02l1.71.72c.25.11.45.31.54.56l1.35 3.41c.15.39.52.64.94.64H29.21c.41 0 .79-.25.94-.64l1.35-3.41c.1-.25.3-.45.54-.56l1.71-.72c.27-.11.57-.11.84.02l3.27 1.61c.4.2.88.11 1.18-.22l2.53-2.71c.28-.3.35-.75.17-1.12l-1.51-3.15c-.13-.27-.13-.58-.01-.85l.82-1.82c.12-.26.34-.46.61-.54l3.37-1.09c.39-.13.67-.52.67-.95z" opacity=".5"/><linearGradient id="SVGID_00000023278560982813905050000006332346287334292358_" x1="26.2672" x2="13.2959" y1="10.7284" y2="46.3665" gradientUnits="userSpaceOnUse"><stop offset="0" stop-color="#1ff2ff"/><stop offset="1" stop-color="#0e72be"/></linearGradient><path fill="#0c1a24" fill-opacity=".9" stroke="url(#SVGID_00000023278560982813905050000006332346287334292358_)" stroke-width="1.7408" d="M38.13 30.8v-3.73c0-.4-.24-.77-.61-.93L34 24.63c-.28-.12-.49-.36-.57-.65l-.54-1.91c-.07-.23-.05-.48.06-.7l1.51-3.25c.18-.38.1-.84-.2-1.14l-2.66-2.66c-.31-.31-.78-.38-1.16-.19l-3.24 1.62c-.29.15-.64.14-.93-.02l-2.12-1.15c-.21-.11-.37-.3-.46-.52l-1.33-3.45c-.15-.39-.52-.65-.94-.65H17.89c-.42 0-.79.26-.94.65l-1.33 3.45c-.09.22-.25.41-.46.52l-2.12 1.15c-.29.16-.64.16-.93.02l-3.24-1.62c-.4-.2-.87-.13-1.18.18l-2.66 2.66c-.3.3-.38.75-.2 1.14l1.51 3.25c.1.22.12.47.06.7l-.54 1.91c-.08.29-.29.53-.57.65l-3.52 1.51c-.37.16-.61.52-.61.93v3.73c0 .44.28.82.7.96l3.37 1.09c.27.09.49.29.61.54l.82 1.82c.12.27.12.58-.01.85L5.13 39.2c-.18.37-.11.82.17 1.12l2.53 2.71c.3.32.78.41 1.18.22l3.27-1.61c.26-.13.57-.14.84-.02l1.71.72c.25.11.45.31.54.56l1.35 3.41c.15.39.52.64.94.64H21.63c.41 0 .79-.25.94-.64l1.35-3.41c.1-.25.3-.45.54-.56l1.71-.72c.27-.11.57-.11.84.02l3.27 1.61c.4.2.88.11 1.18-.22l2.53-2.71c.28-.3.35-.75.17-1.12l-1.51-3.15c-.13-.27-.13-.58-.01-.85l.82-1.82c.12-.26.34-.46.61-.54l3.37-1.09c.4-.13.69-.51.69-.95z"/><linearGradient id="SVGID_00000073714453107497456960000015753222318611010974_" x1="20.8107" x2="18.4707" y1="21.8208" y2="35.0915" gradientUnits="userSpaceOnUse"><stop offset="0" stop-color="#fff"/><stop offset="1" stop-color="#fff" stop-opacity=".7"/></linearGradient><circle cx="19.64" cy="28.46" r="5.92" fill="none" stroke="url(#SVGID_00000073714453107497456960000015753222318611010974_)" stroke-width="1.6385"/></svg>