<svg xmlns="http://www.w3.org/2000/svg" fill="none" viewBox="0 0 40 40"><path fill="url(#a)" d="m1.94182 39.2188-.00019.0001c-.50767.1323-1.026461-.1721-1.158689-.6797l-.00003-.0001c-.040846-.1567-.04089-.3215-.000002-.4786l1.451831-5.5763c.55308-2.1243.20999-4.3099-.45956-6.2738C1.10125 24.2336.75 22.1409.75 19.997.75 9.36729 9.36841.75 20 .75c10.6315 0 19.25 8.61729 19.25 19.247 0 10.6297-8.6185 19.247-19.25 19.247-2.1412 0-4.2314-.3502-6.2062-1.0222-1.9618-.6676-4.14469-1.0092-6.26635-.457l-5.58563 1.454Z"/><path stroke="url(#b)" stroke-width="1.5" d="m1.94182 39.2188-.00019.0001c-.50767.1323-1.026461-.1721-1.158689-.6797l-.00003-.0001c-.040846-.1567-.04089-.3215-.000002-.4786l1.451831-5.5763c.55308-2.1243.20999-4.3099-.45956-6.2738C1.10125 24.2336.75 22.1409.75 19.997.75 9.36729 9.36841.75 20 .75c10.6315 0 19.25 8.61729 19.25 19.247 0 10.6297-8.6185 19.247-19.25 19.247-2.1412 0-4.2314-.3502-6.2062-1.0222-1.9618-.6676-4.14469-1.0092-6.26635-.457l-5.58563 1.454Z"/><path stroke="url(#c)" stroke-opacity=".6" stroke-width="1.5" d="m1.94182 39.2188-.00019.0001c-.50767.1323-1.026461-.1721-1.158689-.6797l-.00003-.0001c-.040846-.1567-.04089-.3215-.000002-.4786l1.451831-5.5763c.55308-2.1243.20999-4.3099-.45956-6.2738C1.10125 24.2336.75 22.1409.75 19.997.75 9.36729 9.36841.75 20 .75c10.6315 0 19.25 8.61729 19.25 19.247 0 10.6297-8.6185 19.247-19.25 19.247-2.1412 0-4.2314-.3502-6.2062-1.0222-1.9618-.6676-4.14469-1.0092-6.26635-.457l-5.58563 1.454Z"/><path stroke="url(#d)" stroke-opacity=".8" stroke-width="1.5" d="m1.94182 39.2188-.00019.0001c-.50767.1323-1.026461-.1721-1.158689-.6797l-.00003-.0001c-.040846-.1567-.04089-.3215-.000002-.4786l1.451831-5.5763c.55308-2.1243.20999-4.3099-.45956-6.2738C1.10125 24.2336.75 22.1409.75 19.997.75 9.36729 9.36841.75 20 .75c10.6315 0 19.25 8.61729 19.25 19.247 0 10.6297-8.6185 19.247-19.25 19.247-2.1412 0-4.2314-.3502-6.2062-1.0222-1.9618-.6676-4.14469-1.0092-6.26635-.457l-5.58563 1.454Z"/><path fill="url(#e)" d="M28.9427 23.41c0 .2381-.0126.4749-.0377.7083-.1496 1.4234-.7479 2.7106-1.6487 3.7061.1135-.1298.2158-.2692.3055-.4184.0691-.1134.1307-.2317.1826-.355.0189-.0405.0361-.0828.0503-.1247.0172-.0405.0315-.0828.0441-.1247.0142-.0388.0268-.0794.0377-.1199.0109-.0423.0221-.0842.0314-.1264.0017-.0048.0033-.0099.0046-.0147.0096-.0422.0173-.0841.0252-.1264.0079-.0436.0159-.0875.0222-.1311V26.28c.0063-.0405.0109-.0811.0142-.1233.0096-.0958.0142-.1912.0142-.2886 0-.5479-.1466-1.062-.403-1.4994-.0583-.1022-.1228-.1993-.1936-.2917-.0834-.1103-.1731-.2139-.2707-.3097-.2426-.2415-.5258-.4395-.8392-.5788-.1354-.0617-.277-.1118-.4219-.1492-.0017 0-.0047-.0017-.0063-.0017l-.0503-.0177-.7337-.2593v-.0017l-1.9193-.6794c-.0063-.0017-.0142-.0017-.0188-.003l-.1198-.0454c-.3859-.1557-.7055-.4473-.9054-.8187l-.7006-1.8401-.8031-2.1075-.1542-.4068-.0394-.0828c-.044-.1104-.0678-.2303-.0678-.355 0-.0324 0-.0648.0033-.0941.0457-.4636.4282-.8268.8912-.8268.1227 0 .2409.0259.3481.0729l3.5765 1.8881.7055.3714c.3733.2286.7211.4978 1.0391.801 1.1526 1.0895 1.9084 2.6165 2.0219 4.3238.0096.1506.0159.3012.0159.4535Z"/><path fill="url(#f)" d="M27.9874 25.8684c0 .1881-.0172.3697-.049.5465-.0096.047-.0188.094-.0297.141-.0206.0842-.0424.1653-.0692.2464-.0142.0422-.0285.0841-.044.1247-.0159.0422-.0331.0827-.0503.1247-.052.1233-.1135.2415-.1827.355-.0897.1492-.1922.2885-.3054.4183-.5212.5935-2.2913 1.6517-2.9435 2.0817l-1.4481.911c-1.0609.6733-2.0643 1.1496-3.3287 1.1819-.0599.0017-.1181.0034-.1764.0034-.0817 0-.1621-.0017-.2425-.0047-2.1414-.0842-4.0091-1.2678-5.0859-3.0169-.4927-.7993-.8187-1.7168-.9289-2.7025.2314 1.3472 1.3717 2.3686 2.7463 2.3686.4818 0 .9339-.1247 1.329-.3455.003-.0017.0063-.0034.0096-.0048l.1416-.0875.5765-.3503.7336-.4473v-.0211l.0946-.0583 6.5648-4.0042.5053-.308.0503.0177c.0016 0 .0046.0017.0063.0017.1449.0372.2865.0876.4219.1493.3133.1393.5966.3372.8392.5788.0976.0957.1873.1993.2707.3097.0708.0923.1353.1898.1935.2916.2545.4371.4011.9513.4011 1.4991Z"/><path fill="url(#g)" d="m18.6408 12.5049-.0023 14.9063-.7336.4477-.5768.3498-.142.0886c-.0023 0-.0066.0024-.0086.0045-.3958.2194-.8478.3458-1.3299.3458-1.375 0-2.5134-1.0214-2.746-2.3686-.0109-.062-.0192-.1264-.0258-.1884-.0086-.1175-.0149-.2327-.0172-.3502V8.96438c0-.52944.4176-.96145.9338-.96145.1936 0 .3743.06201.5229.16388l2.8555 1.92089c.0152.0133.0321.0245.0496.0354.7383.5185 1.2204 1.3914 1.2204 2.3818Z"/><path fill="url(#h)" d="M27.9874 25.8684c0 .1881-.0172.3697-.049.5465-.0096.047-.0188.094-.0297.141-.0206.0842-.0424.1653-.0692.2464-.0142.0422-.0285.0841-.044.1247-.0159.0422-.0331.0827-.0503.1247-.052.1233-.1135.2415-.1827.355-.0897.1492-.1919.2885-.3054.4183-.5212.5935-2.2913 1.6517-2.9435 2.0817l-1.4481.911c-1.0609.6733-2.0643 1.1496-3.3287 1.1819-.0599.0017-.1181.0034-.1764.0034-.0817 0-.1621-.0017-.2425-.0047-2.1414-.0842-4.0091-1.2678-5.0859-3.0169-.4927-.7993-.8187-1.7168-.9289-2.7025.2314 1.3472 1.3717 2.3686 2.7463 2.3686.4818 0 .9339-.1247 1.329-.3455.003-.0017.0063-.0034.0096-.0048l.1416-.0875.5765-.3503.7336-.4473v-.0211l.0946-.0583 6.5648-4.0042.5053-.308.0503.0177c.0016 0 .0046.0017.0063.0017.1449.0372.2865.0876.4219.1493.3133.1393.5966.3372.8392.5788.0976.0957.1873.1993.2707.3097.0708.0923.1353.1898.1935.2916.2545.4371.4011.9513.4011 1.4991Z" opacity=".15"/><path fill="url(#i)" d="m18.6408 12.5049-.0023 14.9063-.7336.4477-.5768.3498-.142.0886c-.0023 0-.0066.0024-.0086.0045-.3958.2194-.8478.3458-1.3299.3458-1.375 0-2.5134-1.0214-2.746-2.3686-.0109-.062-.0192-.1264-.0258-.1884-.0086-.1175-.0149-.2327-.0172-.3502V8.96438c0-.52944.4176-.96145.9338-.96145.1936 0 .3743.06201.5229.16388l2.8555 1.92089c.0152.0133.0321.0245.0496.0354.7383.5185 1.2204 1.3914 1.2204 2.3818Z" opacity=".1"/><defs><linearGradient id="a" x1="20" x2="20" y1="0" y2="40" gradientUnits="userSpaceOnUse"><stop stop-color="#F9F9F9"/><stop offset="1" stop-color="#EDF0F9"/></linearGradient><linearGradient id="b" x1=".152672" x2="45.0715" y1="47.5" y2="40.8802" gradientUnits="userSpaceOnUse"><stop offset=".107946" stop-color="#1D6CF2"/><stop offset=".870845" stop-color="#1B4AEF"/></linearGradient><linearGradient id="e" x1="19.0958" x2="29.4701" y1="18.3906" y2="24.2082" gradientUnits="userSpaceOnUse"><stop stop-color="#37BDFF"/><stop offset=".1832" stop-color="#33BFFD"/><stop offset=".3576" stop-color="#28C5F5"/><stop offset=".528" stop-color="#15D0E9"/><stop offset=".5468" stop-color="#12D1E7"/><stop offset=".5903" stop-color="#1CD2E5"/><stop offset=".7679" stop-color="#42D8DC"/><stop offset=".9107" stop-color="#59DBD6"/><stop offset="1" stop-color="#62DCD4"/></linearGradient><linearGradient id="f" x1="13.1025" x2="27.9873" y1="27.5115" y2="27.5115" gradientUnits="userSpaceOnUse"><stop stop-color="#39D2FF"/><stop offset=".1501" stop-color="#38CEFE"/><stop offset=".2931" stop-color="#35C3FA"/><stop offset=".4327" stop-color="#2FB0F3"/><stop offset=".5468" stop-color="#299AEB"/><stop offset=".5827" stop-color="#2692EC"/><stop offset=".7635" stop-color="#1A6CF1"/><stop offset=".909" stop-color="#1355F4"/><stop offset="1" stop-color="#104CF5"/></linearGradient><linearGradient id="g" x1="15.8497" x2="15.8497" y1="28.8583" y2="8.36649" gradientUnits="userSpaceOnUse"><stop stop-color="#1B48EF"/><stop offset=".1221" stop-color="#1C51F0"/><stop offset=".3212" stop-color="#1E69F5"/><stop offset=".5676" stop-color="#2190FB"/><stop offset="1" stop-color="#26B8F4"/></linearGradient><linearGradient id="h" x1="16.0611" x2="25.5143" y1="31.2936" y2="22.1118" gradientUnits="userSpaceOnUse"><stop stop-color="#fff"/><stop offset=".3726" stop-color="#FDFDFD"/><stop offset=".5069" stop-color="#F6F6F6"/><stop offset=".6026" stop-color="#EBEBEB"/><stop offset=".68" stop-color="#DADADA"/><stop offset=".7463" stop-color="#C4C4C4"/><stop offset=".805" stop-color="#A8A8A8"/><stop offset=".8581" stop-color="#888"/><stop offset=".9069" stop-color="#626262"/><stop offset=".9523" stop-color="#373737"/><stop offset=".9926" stop-color="#090909"/><stop offset="1"/></linearGradient><linearGradient id="i" x1="15.8497" x2="15.8497" y1="8.00293" y2="28.6474" gradientUnits="userSpaceOnUse"><stop stop-color="#F5F5F5"/><stop offset=".3726" stop-color="#FDFDFD"/><stop offset=".5069" stop-color="#F6F6F6"/><stop offset=".6026" stop-color="#EBEBEB"/><stop offset=".68" stop-color="#DADADA"/><stop offset=".7463" stop-color="#C4C4C4"/><stop offset=".805" stop-color="#A8A8A8"/><stop offset=".8581" stop-color="#888"/><stop offset=".9069" stop-color="#626262"/><stop offset=".9523" stop-color="#373737"/><stop offset=".9926" stop-color="#090909"/><stop offset="1"/></linearGradient><radialGradient id="c" cx="0" cy="0" r="1" gradientTransform="rotate(14.0362 -139.87741936 59.92319022) scale(35.3409)" gradientUnits="userSpaceOnUse"><stop stop-color="#0B31A3"/><stop offset="1" stop-color="#39A0ED"/></radialGradient><radialGradient id="d" cx="0" cy="0" r="1" gradientTransform="rotate(-140.774 9.33098078 4.72483593) scale(22.5905)" gradientUnits="userSpaceOnUse"><stop stop-color="#00FFF3" stop-opacity=".77"/><stop offset=".423394" stop-color="#00FFF3" stop-opacity=".72"/><stop offset="1" stop-color="#5BDCD6" stop-opacity="0"/></radialGradient></defs></svg>