<svg xmlns="http://www.w3.org/2000/svg" viewBox="0 0 98.319588 94.577316"><defs><linearGradient id="a" x1="13.25" x2="8.6199999" y1="13.02" y2="4.25" gradientUnits="userSpaceOnUse"><stop offset="0" stop-color="#1988d9"/><stop offset=".9" stop-color="#54aef0"/></linearGradient><linearGradient id="b" x1="11.26" x2="14.46" y1="10.47" y2="15.99" gradientUnits="userSpaceOnUse"><stop offset=".1" stop-color="#54aef0"/><stop offset=".29" stop-color="#4fabee"/><stop offset=".51" stop-color="#41a2e9"/><stop offset=".74" stop-color="#2a93e0"/><stop offset=".88" stop-color="#1988d9"/></linearGradient></defs><path fill="#50e6ff" d="m82.52685642 49.29925312 4.90594047 6.14514511-44.05631688 30.41326059L.0001945 55.44439823l4.90594047-6.04099011L43.37648 76.17124363z"/><path fill="#fff" d="M7.82055504 45.96629305 43.37648.55471218l36.28453 45.46365837-36.28453 24.58058048z"/><path fill="#50e6ff" d="M7.82055504 45.96629305 43.37648.55471218v70.04423885z"/><path fill="url(#a)" d="M16.4 9.54 8.93.81v13.45z" transform="matrix(4.8573668 0 0 5.2077501 .00019449 -3.6635654)"/><path fill="#53b1e0" d="M43.37648001 70.59895103V36.74857538l36.28453 9.26979517z"/><path fill="#9cebff" d="M43.37648001 36.74857538v33.85037565L7.82055504 45.96629305z"/><path fill="url(#b)" d="M8.93 17.19 18 11.35l-1.01-1.18-8.06 5.16z" transform="matrix(4.8573668 0 0 5.2077501 .00019449 -3.6635654)"/></svg>