<svg xmlns="http://www.w3.org/2000/svg" fill="none" viewBox="0 0 91 53"><rect width="89" height="51" x="1" y="1" fill="#EDF3F6" rx="8"/><rect width="20" height="44" x="5" y="4" fill="#DFE6EA" rx="3"/><rect width="59" height="7" fill="#fff" rx="3" transform="matrix(-1 0 0 1 86 4)"/><rect width="20" height="2" fill="#8230FF" rx="1" transform="matrix(-1 0 0 1 51 6)"/><rect width="14" height="3" fill="#8230FF" rx="1.5" transform="matrix(-1 0 0 1 22 6)"/><rect width="59" height="14" fill="#fff" opacity=".5" rx="3" transform="matrix(-1 0 0 1 86 13)"/><rect width="59" height="18" fill="#fff" rx="3" transform="matrix(-1 0 0 1 86 29)"/><rect width="20" height="2" fill="#F1F1F1" rx="1" transform="matrix(-1 0 0 1 51 32)"/><rect width="13" height="2" fill="#F1F1F1" rx="1" transform="matrix(-1 0 0 1 44 36)"/><rect width="25" height="2" fill="#F1F1F1" rx="1" transform="matrix(-1 0 0 1 56 40)"/></svg>