<svg xmlns="http://www.w3.org/2000/svg" xml:space="preserve" id="Layer_2" x="0" y="0" version="1.1" viewBox="0 0 53.79 60.63"><style>.st2{fill:none;stroke:#fff;stroke-width:2;stroke-linecap:round;stroke-linejoin:round}</style><g id="Layer_3" opacity=".5"><linearGradient id="SVGID_1_" x1="40.8511" x2="20.161" y1="39.5479" y2="-2.1437" gradientTransform="matrix(1 0 0 -1 0 44)" gradientUnits="userSpaceOnUse"><stop offset="0" stop-color="#1fc0ff"/><stop offset="1" stop-color="#0d80d8"/></linearGradient><path fill="#0c1a24" stroke="url(#SVGID_1_)" stroke-width="2.4524" d="M18.63 1.59h27.96c3.03 0 5.48 2.46 5.48 5.48v27.96c0 3.03-2.46 5.48-5.48 5.48H18.63c-3.03 0-5.48-2.46-5.48-5.48V7.07c0-3.02 2.45-5.48 5.48-5.48z"/><path d="M19.18 33.86s4.33-14.6 9.97-7.6c6.95 8.63 8.74-1.74 9.38-8 .32-3.18 1.61-6.45 7.51-8.92" class="st2"/><linearGradient id="SVGID_00000165944550808999706740000011027312389219757996_" x1="32.8645" x2="36.2671" y1="10.7337" y2="42.3102" gradientUnits="userSpaceOnUse"><stop offset="0" stop-color="#fff" stop-opacity=".6"/><stop offset="1" stop-color="#fff" stop-opacity="0"/></linearGradient><path fill="url(#SVGID_00000165944550808999706740000011027312389219757996_)" d="M17.54 39.04s5.34-19.77 11.2-12.51c7.22 8.95 9.29-1.76 9.78-8.27.31-4.06 5.08-8.92 12.3-11.34l-.04 28.57c0 1.09-.79 1.86-1.69 3.03l-1.39.56-30.16-.04z"/></g><linearGradient id="SVGID_00000060710945239382976340000002585163409669364408_" x1="29.3158" x2="8.6257" y1="28.0126" y2="-13.679" gradientTransform="matrix(1 0 0 -1 0 44)" gradientUnits="userSpaceOnUse"><stop offset="0" stop-color="#1ff2ff"/><stop offset="1" stop-color="#0e72be"/></linearGradient><path fill="#0c1a24" fill-opacity=".9" stroke="url(#SVGID_00000060710945239382976340000002585163409669364408_)" stroke-width="2.4524" d="M7.1 13.13h27.96c3.03 0 5.48 2.46 5.48 5.48v27.96c0 3.03-2.46 5.48-5.48 5.48H7.1c-3.03 0-5.48-2.46-5.48-5.48V18.61c-.01-3.03 2.45-5.48 5.48-5.48z"/><path d="M7.74 45.58s4.33-14.6 9.97-7.6c6.95 8.63 8.74-1.74 9.38-8 .32-3.18 1.61-6.45 7.51-8.92" class="st2"/><linearGradient id="SVGID_00000064324043905612875940000018431191810166927235_" x1="21.4319" x2="24.8345" y1="22.4548" y2="54.0312" gradientUnits="userSpaceOnUse"><stop offset="0" stop-color="#fff" stop-opacity=".6"/><stop offset="1" stop-color="#fff" stop-opacity="0"/></linearGradient><path fill="url(#SVGID_00000064324043905612875940000018431191810166927235_)" d="M6.11 50.76s5.34-19.77 11.2-12.51c7.22 8.95 9.29-1.76 9.78-8.27.31-4.06 5.08-8.92 12.3-11.34l-.04 28.57c0 1.09-.79 1.86-1.69 3.03l-1.39.56-30.16-.04z"/></svg>