<svg xmlns="http://www.w3.org/2000/svg" viewBox="0 0 48 48">
  <path fill="#184f85" d="M36 40H12v3c0 1.105.895 2 2 2h20c1.105 0 2-.895 2-2v-3z"/>
  <path fill="#0078d4" d="M12 33h24v7H12z"/>
  <path fill="#1b9de2" d="M12 23h24v10H12z"/>
  <path fill="#35c1f1" d="M12 9h24v14H12z"/>
  <path fill="#50e6ff" d="M36 9H12V6c0-1.105.895-2 2-2h20c1.105 0 2 .895 2 2v3z"/>
  <circle cx="20" cy="6.5" r=".75" fill="#0c63ad"/>
  <path fill="#0c63ad" d="M27.5 5.75h-5c-.414 0-.75.336-.75.75s.336.75.75.75h5c.414 0 .75-.336.75-.75s-.336-.75-.75-.75z"/>
</svg>
