<svg xmlns="http://www.w3.org/2000/svg" viewBox="0 0 48 48">
  <linearGradient id="a" x1="8.361" x2="30.308" y1="27.305" y2="43.482" gradientUnits="userSpaceOnUse">
    <stop offset="0" stop-color="#44d6f9"/>
    <stop offset="1" stop-color="#0680d7"/>
  </linearGradient>
  <path fill="url(#a)" d="M31.776 38.16c0-5.606-18.238-5.605-22.169-14.546C9.221 25.109 9 26.583 9 28c0 8.284 6.716 15 15 15 1.466 0 2.878-.22 4.217-.612 2.136-.963 3.559-2.343 3.559-4.228z"/>
  <linearGradient id="b" x1="11.576" x2="36.266" y1="18.633" y2="38.026" gradientUnits="userSpaceOnUse">
    <stop offset="0" stop-color="#a579dc"/>
    <stop offset="1" stop-color="#624695"/>
  </linearGradient>
  <path fill="url(#b)" d="M31.776 38.16c0 1.884-1.423 3.265-3.559 4.228 3.562-1.042 6.571-3.371 8.499-6.445.567-1.357.909-2.726.909-3.983 0-9.091-22.3-7.132-22.3-17.127 0-1.257.3-2.537.588-3.479-2.802 3.737-5.226 8.076-6.306 12.259 3.93 8.943 22.169 8.942 22.169 14.547z"/>
  <linearGradient id="c" x1="22.456" x2="32.673" y1="4.15" y2="18.529" gradientUnits="userSpaceOnUse">
    <stop offset="0" stop-color="#fad402"/>
    <stop offset=".357" stop-color="#f8c503"/>
    <stop offset="1" stop-color="#f4a107"/>
  </linearGradient>
  <path fill="url(#c)" d="M26.975 3.23c-.005-.009-.011-.014-.017-.023.015-.069.042-.133.042-.207 0-.552-.448-1-1-1-.235 0-.404.079-.464.113-1.213.67-2.603 1.729-4.046 3.046-.448.785-.841 1.807-.841 3.044 0 5.414 9.676 5.485 15.12 10.763-4.09-5.351-10.42-8.632-8.794-15.736z"/>
  <linearGradient id="d" x1="18.066" x2="38.121" y1="8.856" y2="33.262" gradientUnits="userSpaceOnUse">
    <stop offset="0" stop-color="#ec81a3"/>
    <stop offset="1" stop-color="#dd386d"/>
  </linearGradient>
  <path fill="url(#d)" d="M15.912 11.355c-.287.941-.588 2.222-.588 3.479 0 9.995 22.3 8.036 22.3 17.127 0 1.257-.342 2.626-.909 3.983C38.16 33.64 39 30.92 39 28c0-3.791-1.389-6.622-3.231-9.033-5.444-5.278-15.12-5.349-15.12-10.763 0-1.237.393-2.26.841-3.044-1.85 1.687-3.789 3.809-5.578 6.195z"/>
</svg>
