<svg xmlns="http://www.w3.org/2000/svg" viewBox="0 0 48 48">
  <radialGradient id="a" cx="48.477" cy="36.475" r="22.942" gradientUnits="userSpaceOnUse">
    <stop offset="0" stop-color="#bd8af5"/>
    <stop offset=".137" stop-color="#b88bf5"/>
    <stop offset=".309" stop-color="#a88ff3"/>
    <stop offset=".499" stop-color="#8f96f2"/>
    <stop offset=".702" stop-color="#6b9eef"/>
    <stop offset=".913" stop-color="#3eaaec"/>
    <stop offset="1" stop-color="#29afea"/>
  </radialGradient>
  <path fill="url(#a)" d="M40 6H8c-1.105 0-2 .895-2 2v32c0 1.105.895 2 2 2h32c1.105 0 2-.895 2-2V8c0-1.105-.895-2-2-2z"/>
  <path fill="#436dcd" d="M32.065 23.065c-1.149-1.149-3.005-1.174-4.185-.057L18 32.368V42h22c1.105 0 2-.895 2-2v-7l-9.935-9.935z"/>
  <circle cx="30.5" cy="14.5" r="3.5" fill="#fff"/>
  <linearGradient id="b" x1="23.91" x2="23.91" y1="18.133" y2="42.415" gradientUnits="userSpaceOnUse">
    <stop offset="0" stop-color="#124787"/>
    <stop offset=".923" stop-color="#173b75"/>
    <stop offset="1" stop-color="#173a73"/>
  </linearGradient>
  <path fill="url(#b)" d="M8 42h32c.811 0 1.507-.485 1.82-1.18L20.065 19.065c-1.149-1.149-3.005-1.174-4.185-.057L6 28.368V40c0 1.105.895 2 2 2z"/>
</svg>
