<svg xmlns="http://www.w3.org/2000/svg" fill="none" viewBox="0 0 16 16"><path fill="url(#a)" d="M16 8c0 4.4183-3.5817 8-8 8-4.41828 0-8-3.5817-8-8 0-4.41828 3.58172-8 8-8 4.4183 0 8 3.58172 8 8Z"/><path fill="#000" fill-rule="evenodd" d="M4.46231 7.53801c.56826-1.38466 1.92958-2.35832 3.51713-2.35832 1.45019 0 2.71156.81252 3.35216 2.0084H9.88725c-.27614 0-.5.22385-.5.5 0 .27614.22386.5.5.5h2.39995c.2762 0 .5-.22386.5-.5v-2.4c0-.27615-.2238-.5-.5-.5-.2761 0-.5.22385-.5.5v.76895C10.91 4.91577 9.53105 4.17969 7.97944 4.17969c-2.00711 0-3.72534 1.23175-4.44225 2.97866-.10484.25546.01726.54755.27273.65239.25546.10484.54755-.01726.65239-.27273Zm8.00479 3.14819c.0982-.2581-.0315-.5469-.2895-.6451-.2581-.09818-.547.0314-.6452.2895-.545 1.4325-1.93089 2.4491-3.55296 2.4491-1.43375 0-2.68298-.7942-3.33015-1.968H6.1125c.27614 0 .5-.2238.5-.5 0-.2761-.22386-.49998-.5-.49998h-2.4c-.13261 0-.25979.05268-.35355.14645-.09377.09373-.14645.22093-.14645.35353v2.4c0 .2762.22386.5.5.5s.5-.2238.5-.5v-.7569c.87882 1.1112 2.23919 1.8249 3.76694 1.8249 2.05076 0 3.79986-1.2858 4.48766-3.0935Z" clip-rule="evenodd" opacity=".08"/><path fill="#000" fill-rule="evenodd" d="M4.46231 7.03801c.56826-1.38466 1.92958-2.35832 3.51713-2.35832 1.45019 0 2.71156.81252 3.35216 2.0084H9.88725c-.27614 0-.5.22385-.5.5 0 .27614.22386.5.5.5h2.39995c.2762 0 .5-.22386.5-.5v-2.4c0-.27615-.2238-.5-.5-.5-.2761 0-.5.22385-.5.5v.76895C10.91 4.41577 9.53105 3.67969 7.97944 3.67969c-2.00711 0-3.72534 1.23175-4.44225 2.97866-.10484.25546.01726.54755.27273.65239.25546.10484.54755-.01726.65239-.27273Zm8.00479 3.14819c.0982-.25805-.0315-.54688-.2895-.64508-.2581-.0982-.547.03143-.6452.28952-.545 1.43246-1.93089 2.44906-3.55296 2.44906-1.43375 0-2.68298-.7942-3.33015-1.968H6.1125c.27614 0 .5-.2238.5-.49998 0-.27614-.22386-.5-.5-.5h-2.4c-.13261 0-.25979.05268-.35355.14645-.09377.09376-.14645.22094-.14645.35355v2.39998c0 .2762.22386.5.5.5s.5-.2238.5-.5v-.7569c.87882 1.1112 2.23919 1.8249 3.76694 1.8249 2.05076 0 3.79986-1.2858 4.48766-3.0935Z" clip-rule="evenodd" opacity=".08"/><path fill="url(#b)" fill-rule="evenodd" d="M4.46231 6.53801c.56826-1.38466 1.92958-2.35832 3.51713-2.35832 1.45019 0 2.71156.81252 3.35216 2.0084H9.88725c-.27614 0-.5.22385-.5.5 0 .27614.22386.5.5.5h2.39995c.2762 0 .5-.22386.5-.5v-2.4c0-.27615-.2238-.5-.5-.5-.2761 0-.5.22385-.5.5v.76895C10.91 3.91577 9.53105 3.17969 7.97944 3.17969c-2.00711 0-3.72534 1.23175-4.44225 2.97866-.10484.25546.01726.54755.27273.65239.25546.10484.54755-.01726.65239-.27273Zm8.00479 3.14823c.0982-.25809-.0315-.54692-.2895-.64512-.2581-.0982-.547.03143-.6452.28952-.545 1.43246-1.93089 2.44906-3.55296 2.44906-1.43375 0-2.68298-.7942-3.33015-1.96798H6.1125c.27614 0 .5-.22386.5-.5s-.22386-.5-.5-.5h-2.4c-.13261 0-.25979.05268-.35355.14645-.09377.09376-.14645.22094-.14645.35355v2.39998c0 .2762.22386.5.5.5s.5-.2238.5-.5v-.7569c.87882 1.1112 2.23919 1.8249 3.76694 1.8249 2.05076 0 3.79986-1.2858 4.48766-3.09346Z" clip-rule="evenodd"/><defs><linearGradient id="a" x1="12.0007" x2="3.99933" y1="14.9293" y2="1.07067" gradientUnits="userSpaceOnUse"><stop stop-color="#0078D4"/><stop offset="1" stop-color="#1B9DE2"/></linearGradient><linearGradient id="b" x1="5.54934" x2="10.3001" y1="12.1373" y2="3.73725" gradientUnits="userSpaceOnUse"><stop stop-color="#E7EFF4"/><stop offset="1" stop-color="#fff"/></linearGradient></defs></svg>