<svg xmlns="http://www.w3.org/2000/svg" viewBox="0 0 96.00958 96.00577"><path fill="none" d="M0 0h96.0038v96H0V0Z"/><path fill="#FFF" d="M49.5789 85.4016c20.1772 0 36.5338-16.3544 36.5338-36.5285 0-20.1734-16.3566-36.5277-36.5338-36.5277S13.0444 28.6997 13.0444 48.8731c0 20.1741 16.3574 36.5285 36.5345 36.5285Z"/><path fill="#00B294" fill-rule="evenodd" d="M48.0044.0000116c4.4074 0 8.6575.5783494 12.7511 1.7350484 4.0943 1.12477 7.9075 2.73443 11.4388 4.82817 3.5632 2.09376 6.7973 4.60927 9.7039 7.54737 2.9385 2.9062 5.4546 6.1407 7.5488 9.7035 2.0936 3.5317 3.703 7.3445 4.8285 11.4385 1.1558 4.0941 1.7341 8.3446 1.7341 12.7503 0 4.4064-.5783 8.657-1.7341 12.7502-1.1254 4.0941-2.7349 7.9229-4.8285 11.4857-2.0942 3.5316-4.6103 6.7661-7.5488 9.7035-2.9066 2.9061-6.1407 5.4073-9.7039 7.501-3.5313 2.0938-7.3445 3.7186-11.4388 4.8745-4.0936 1.1256-8.3437 1.688-12.7511 1.688-4.4059 0-8.6568-.5624-12.7504-1.688-4.0943-1.1559-7.9234-2.7807-11.4858-4.8745-3.5321-2.0938-6.767-4.5949-9.704-7.501-2.9066-2.9374-5.40741-6.1719-7.5017-9.7035-2.09353-3.5628-3.71896-7.3916-4.87477-11.4857C.562319 56.6599 0 52.4093 0 48.0029c0-4.4057.56233-8.6562 1.68773-12.7503 1.15581-4.094 2.78124-7.9069 4.87477-11.4385 2.09429-3.5628 4.5951-6.7973 7.5017-9.7035 2.937-2.9381 6.172-5.45362 9.704-7.54738 3.5624-2.09376 7.3915-3.7034 11.4858-4.82817C39.3476.578349 43.5985 0 48.0044 0v.0000116ZM76.273 32.1101l-6.3771-6.3755L39.003 56.6271 26.1113 43.7363l-6.3756 6.3747L39.003 69.3774l37.27-37.2673Z"/></svg>