<svg xmlns="http://www.w3.org/2000/svg" fill="none" viewBox="0 0 487 288"><g filter="url(#a)"><path fill="url(#b)" d="M228.022 23.8965c6.242.5902 12.401 1.8579 18.368 3.7807 5.948 1.971 11.603 4.7371 16.808 8.2232 5.336 3.5817 11.029 6.5988 16.988 9.0022 5.756 2.3068 11.702 4.1142 17.768 5.402 6.098 1.2882 12.274 2.1704 18.489 2.6408 6.282.4802 12.666.7203 19.148.7203v61.4593c0 2.56-.1 5.121-.3 7.681-.2 2.561-.461 5.122-.781 7.682H228.019l.003-106.5915ZM105.083 53.6657c6.483 0 12.866-.2401 19.149-.7203 6.234-.4733 12.43-1.3555 18.549-2.6408 6.088-1.2821 12.053-3.0894 17.828-5.402 5.977-2.4143 11.673-5.4732 16.988-9.1225 5.148-3.4969 10.768-6.2453 16.689-8.163 5.975-1.8835 12.132-3.1307 18.368-3.7206V130.49H106.163c-.32-2.561-.58-5.122-.781-7.682-.2-2.561-.3-5.121-.3-7.682l.001-61.4603ZM212.654 263.968c-11.533-6.727-22.677-14.101-33.376-22.088-10.893-8.098-21.057-17.133-30.374-27.003-9.239-9.788-17.408-20.531-24.367-32.051-6.953-11.495-12.173-23.953-15.492-36.971h103.609v118.113Zm15.368-118.113h103.609c-3.318 13.018-8.539 25.476-15.492 36.971-6.958 11.52-15.127 22.263-24.367 32.051-9.316 9.871-19.48 18.909-30.374 27.008-10.699 7.985-21.843 15.357-33.376 22.083V145.855Z"/><path fill="#fff" d="M319.753 247.435c26.554 0 48.08-21.523 48.08-48.073 0-26.549-21.526-48.072-48.08-48.072s-48.081 21.523-48.081 48.072c0 26.55 21.527 48.073 48.081 48.073Z"/><path fill="#00B294" d="M317.677 135.043c5.8 0 11.393.761 16.78 2.283 5.388 1.48 10.406 3.598 15.053 6.353 4.689 2.755 8.945 6.065 12.77 9.931 3.867 3.824 7.178 8.08 9.934 12.768 2.755 4.647 4.873 9.664 6.354 15.051 1.521 5.387 2.282 10.98 2.282 16.777 0 5.798-.761 11.391-2.282 16.777-1.481 5.387-3.599 10.425-6.354 15.113-2.756 4.647-6.067 8.903-9.934 12.768-3.825 3.824-8.081 7.115-12.77 9.87-4.647 2.755-9.665 4.893-15.053 6.414-5.387 1.481-10.98 2.221-16.78 2.221-5.798 0-11.392-.74-16.779-2.221-5.388-1.521-10.427-3.659-15.115-6.414-4.648-2.755-8.905-6.046-12.77-9.87-3.825-3.865-7.116-8.121-9.872-12.768-2.755-4.688-4.894-9.726-6.415-15.113-1.481-5.386-2.221-10.979-2.221-16.777 0-5.797.74-11.39 2.221-16.777 1.521-5.387 3.66-10.404 6.415-15.051 2.756-4.688 6.047-8.944 9.872-12.768 3.865-3.866 8.122-7.176 12.77-9.931 4.688-2.755 9.727-4.873 15.115-6.353 5.387-1.522 10.981-2.283 16.779-2.283Zm37.202 42.253-8.392-8.389-40.654 40.649-16.965-16.962-8.39 8.388 25.355 25.351 49.046-49.037Z"/></g><defs><linearGradient id="b" x1="144.268" x2="335.664" y1="23.8965" y2="267.53" gradientUnits="userSpaceOnUse"><stop stop-color="#3DA9FF"/><stop offset="1" stop-color="#005BB7"/></linearGradient><filter id="a" width="450.4" height="272.4" x="17.8" y="11" color-interpolation-filters="sRGB" filterUnits="userSpaceOnUse"><feFlood flood-opacity="0" result="BackgroundImageFix"/><feColorMatrix in="SourceAlpha" values="0 0 0 0 0 0 0 0 0 0 0 0 0 0 0 0 0 0 127 0"/><feOffset dy="3.2"/><feGaussianBlur stdDeviation="3.6"/><feColorMatrix values="0 0 0 0 0 0 0 0 0 0 0 0 0 0 0 0 0 0 0.13 0"/><feBlend in2="BackgroundImageFix" result="effect1_dropShadow"/><feColorMatrix in="SourceAlpha" values="0 0 0 0 0 0 0 0 0 0 0 0 0 0 0 0 0 0 127 0"/><feOffset dy=".6"/><feGaussianBlur stdDeviation=".9"/><feColorMatrix values="0 0 0 0 0 0 0 0 0 0 0 0 0 0 0 0 0 0 0.1 0"/><feBlend in2="effect1_dropShadow" result="effect2_dropShadow"/><feBlend in="SourceGraphic" in2="effect2_dropShadow" result="shape"/></filter></defs></svg>