<svg xmlns="http://www.w3.org/2000/svg" xml:space="preserve" viewBox="0 0 128 128"><linearGradient id="a" x1="95.1235" x2="26.855" y1="91.8049" y2="30.8249" gradientUnits="userSpaceOnUse"><stop offset="0" stop-color="#5391fe"/><stop offset="1" stop-color="#3e6dbf"/></linearGradient><path fill="url(#a)" fill-rule="evenodd" d="M9.491 109c-1.62 0-3.021-.638-3.944-1.798-.944-1.185-1.268-2.814-.889-4.47l17.834-77.911C23.239 21.557 26.376 19 29.634 19H118.5c1.62 0 3.021.638 3.945 1.798.944 1.184 1.268 2.814.889 4.47L105.5 103.179c-.747 3.264-3.884 5.822-7.143 5.822H9.491z" clip-rule="evenodd"/><linearGradient id="b" x1="26.1775" x2="93.7485" y1="30.0146" y2="90.7381" gradientUnits="userSpaceOnUse"><stop offset="0" stop-color="#5391fe"/><stop offset="1" stop-color="#3e6dbf"/></linearGradient><path fill="url(#b)" fill-rule="evenodd" d="M29.634 20H118.5c2.769 0 4.496 2.259 3.858 5.045l-17.834 77.911c-.638 2.786-3.399 5.045-6.168 5.045H9.491c-2.769 0-4.496-2.258-3.858-5.045l17.834-77.911C24.104 22.259 26.866 20 29.634 20z" clip-rule="evenodd"/><path fill="#2C5591" fill-rule="evenodd" d="M64.165 87.558h21.613c2.513 0 4.55 2.125 4.55 4.746 0 2.621-2.037 4.747-4.55 4.747H64.165c-2.513 0-4.55-2.125-4.55-4.747 0-2.621 2.037-4.746 4.55-4.746zM78.184 66.455c-.372.749-1.144 1.575-2.509 2.534L35.562 97.798c-2.19 1.591-5.334 1.001-7.021-1.319-1.687-2.32-1.28-5.49.91-7.082l36.173-26.194v-.538L42.896 38.487c-1.854-1.972-1.661-5.161.431-7.124 2.092-1.962 5.29-1.954 7.144.018l27.271 29.012c1.548 1.647 1.663 4.141.442 6.062z" clip-rule="evenodd"/><path fill="#FFF" fill-rule="evenodd" d="M77.184 65.455c-.372.749-1.144 1.575-2.509 2.534L34.562 96.798c-2.19 1.591-5.334 1.001-7.021-1.319-1.687-2.32-1.28-5.49.91-7.082l36.173-26.194v-.538L41.896 37.487c-1.854-1.972-1.661-5.161.431-7.124 2.092-1.962 5.29-1.954 7.144.018l27.271 29.012c1.548 1.647 1.663 4.141.442 6.062zM63.55 87h21.613c2.513 0 4.55 2.015 4.55 4.5s-2.037 4.5-4.55 4.5H63.55C61.037 96 59 93.985 59 91.5s2.037-4.5 4.55-4.5z" clip-rule="evenodd"/></svg>