<svg xmlns="http://www.w3.org/2000/svg" viewBox="0 0 48 48"><linearGradient id="a" x1="-1254.397" x2="-1261.911" y1="877.268" y2="899.466" gradientTransform="translate(1981.75 -1362.063) scale(1.5625)" gradientUnits="userSpaceOnUse"><stop offset="0" stop-color="#114a8b"/><stop offset="1" stop-color="#0669bc"/></linearGradient><path fill="url(#a)" d="M17.634 6h11.305L17.203 40.773c-.247.733-.934 1.226-1.708 1.226H6.697c-.994 0-1.8-.806-1.8-1.8 0-.196.032-.39.094-.576L15.926 7.227C16.173 6.494 16.86 6 17.634 6z"/><path fill="#0078d4" d="M34.062 29.324H16.135c-.458-.001-.83.371-.831.829 0 .231.095.451.264.608l11.52 10.752c.335.313.777.487 1.236.487h10.151l-4.413-12.676z"/><linearGradient id="b" x1="-1252.05" x2="-1253.788" y1="887.612" y2="888.2" gradientTransform="translate(1981.75 -1362.063) scale(1.5625)" gradientUnits="userSpaceOnUse"><stop offset="0" stop-opacity=".3"/><stop offset=".071" stop-opacity=".2"/><stop offset=".321" stop-opacity=".1"/><stop offset=".623" stop-opacity=".05"/><stop offset="1" stop-opacity="0"/></linearGradient><path fill="url(#b)" d="M17.634 6c-.783-.003-1.476.504-1.712 1.25L5.005 39.595c-.335.934.151 1.964 1.085 2.299.196.07.403.106.612.106h9.026c.684-.122 1.25-.603 1.481-1.259l2.177-6.416 7.776 7.253c.326.27.735.419 1.158.422h10.114l-4.436-12.676-12.931.003L28.98 6H17.634z"/><linearGradient id="c" x1="-1252.952" x2="-1244.704" y1="876.6" y2="898.575" gradientTransform="translate(1981.75 -1362.063) scale(1.5625)" gradientUnits="userSpaceOnUse"><stop offset="0" stop-color="#3ccbf4"/><stop offset="1" stop-color="#2892df"/></linearGradient><path fill="url(#c)" d="M32.074 7.225C31.827 6.493 31.141 6 30.368 6h-12.6c.772 0 1.459.493 1.705 1.224l10.935 32.399c.318.942-.188 1.963-1.13 2.281-.185.064-.379.096-.575.096h12.6c.994 0 1.8-.806 1.8-1.801 0-.196-.032-.39-.095-.575L32.074 7.225z"/></svg>