<svg xmlns="http://www.w3.org/2000/svg" xmlns:xlink="http://www.w3.org/1999/xlink" fill="none" viewBox="0 0 89 51"><defs><clipPath id="d"><use xlink:href="#a"/></clipPath><clipPath id="e"><use xlink:href="#b"/></clipPath><clipPath id="f"><use xlink:href="#c"/></clipPath><rect id="a" width="30" height="7" x="55" y="4" rx="3"/><rect id="b" width="30" height="14" x="55" y="13" rx="3"/><rect id="c" width="30" height="18" x="55" y="29" rx="3"/></defs><rect width="38" height="51" fill="#EDF3F6" rx="8"/><rect width="38" height="51" x="51" fill="#000" rx="8"/><rect width="20" height="44" x="4" y="4" fill="#DFE6EA" rx="3"/><rect width="12" height="7" x="26" y="4" fill="#fff" rx="3"/><use xlink:href="#a" fill="#171717" stroke="#929292" clip-path="url(#d)"/><rect width="14" height="3" x="7" y="6" fill="#8230FF" rx="1.5"/><rect width="12" height="14" x="26" y="13" fill="#fff" opacity=".5" rx="3"/><use xlink:href="#b" fill="#171717" stroke="#929292" clip-path="url(#e)"/><rect width="12" height="18" x="26" y="29" fill="#fff" rx="3"/><use xlink:href="#c" fill="#171717" stroke="#929292" clip-path="url(#f)"/><path fill="#201F1F" d="M29.66 0h29.66v51H29.66z"/><path fill="#313030" d="M29.66 4h29.66v7H29.66z"/><path fill="#656565" d="M29.66 13h29.66v14H29.66z" opacity=".5"/><path fill="#313030" d="M29.66 29h29.66v18H29.66z"/><rect width="20" height="2" x="30" y="32" fill="#1B1A1A" rx="1"/><rect width="13" height="2" x="30" y="36" fill="#1B1A1A" rx="1"/><rect width="25" height="2" x="30" y="40" fill="#1B1A1A" rx="1"/></svg>