<svg xmlns="http://www.w3.org/2000/svg" fill="none" viewBox="0 0 89 51"><rect width="89" height="51" fill="#201F1F" rx="8"/><rect width="20" height="44" x="4" y="4" fill="#000" rx="3"/><rect width="59" height="7" fill="#313030" rx="3" transform="matrix(-1 0 0 1 85 4)"/><rect width="20" height="2" fill="#AD85FF" opacity=".9" rx="1" transform="matrix(-1 0 0 1 50 6)"/><rect width="14" height="3" fill="#201F1F" rx="1.5" transform="matrix(-1 0 0 1 21 6)"/><rect width="59" height="14" fill="#656565" opacity=".5" rx="3" transform="matrix(-1 0 0 1 85 13)"/><rect width="59" height="18" fill="#313030" rx="3" transform="matrix(-1 0 0 1 85 29)"/><rect width="20" height="2" fill="#1B1A1A" rx="1" transform="matrix(-1 0 0 1 50 32)"/><rect width="13" height="2" fill="#1B1A1A" rx="1" transform="matrix(-1 0 0 1 43 36)"/><rect width="25" height="2" fill="#1B1A1A" rx="1" transform="matrix(-1 0 0 1 55 40)"/></svg>