<svg xmlns="http://www.w3.org/2000/svg" xmlns:xlink="http://www.w3.org/1999/xlink" xml:space="preserve" viewBox="0 0 42 56.2"><g id="Layer_1"><defs><path id="SVGID_1_" d="M0 0h42v42H0z"/></defs><clipPath id="SVGID_00000060023963615183289000000004559901778507798160_"><use xlink:href="#SVGID_1_" overflow="visible"/></clipPath><g clip-path="url(#SVGID_00000060023963615183289000000004559901778507798160_)"><g opacity=".5"><linearGradient id="SVGID_00000029752620044359291340000012225166825124127636_" x1="31.6802" x2="15.3892" y1="569.6698" y2="602.497" gradientTransform="translate(0 -566)" gradientUnits="userSpaceOnUse"><stop offset="0" stop-color="#1fc0ff"/><stop offset="1" stop-color="#0d80d8"/></linearGradient><path fill="#0c1a24" stroke="url(#SVGID_00000029752620044359291340000012225166825124127636_)" stroke-width="1.931" d="M14.19 1.42H36.2c2.39 0 4.32 1.93 4.32 4.32v22.01c0 2.39-1.93 4.32-4.32 4.32H14.19c-2.39 0-4.32-1.93-4.32-4.32V5.74c0-2.39 1.93-4.32 4.32-4.32z"/><path fill="#fff" d="M21.96 23.97 16.2 18.2c-.34-.34-.34-.91 0-1.25l1.25-1.25c.34-.34.91-.34 1.25 0l3.87 3.87 8.31-8.31c.34-.34.91-.34 1.25 0l1.25 1.25c.34.34.34.91 0 1.25l-10.2 10.19c-.32.36-.88.36-1.22.02z"/></g><linearGradient id="SVGID_00000118363272192435359730000001270957735088085679_" x1="22.9909" x2="6.6999" y1="578.3596" y2="611.1868" gradientTransform="translate(0 -566)" gradientUnits="userSpaceOnUse"><stop offset="0" stop-color="#1ff2ff"/><stop offset="1" stop-color="#0e72be"/></linearGradient><path fill="#0c1a24" fill-opacity=".9" stroke="url(#SVGID_00000118363272192435359730000001270957735088085679_)" stroke-width="1.931" d="M5.5 10.11h22.01c2.39 0 4.32 1.93 4.32 4.32v22.01c0 2.39-1.93 4.32-4.32 4.32H5.5c-2.39 0-4.32-1.93-4.32-4.32V14.42c0-2.38 1.93-4.31 4.32-4.31z"/><linearGradient id="SVGID_00000132088884044997707180000015718663626349446558_" x1="27.927" x2="2.8237" y1="577.7808" y2="603.8495" gradientTransform="translate(0 -566)" gradientUnits="userSpaceOnUse"><stop offset=".4932" stop-color="#fff"/><stop offset="1" stop-color="#fff" stop-opacity="0"/></linearGradient><linearGradient id="SVGID_00000060734705702091740710000005856807453356630972_" x1="10.3387" x2="15.1662" y1="593.9202" y2="592.9547" gradientTransform="translate(0 -566)" gradientUnits="userSpaceOnUse"><stop offset="0" stop-color="#fff"/><stop offset="1" stop-color="#fff" stop-opacity="0"/></linearGradient><path fill="url(#SVGID_00000132088884044997707180000015718663626349446558_)" stroke="url(#SVGID_00000060734705702091740710000005856807453356630972_)" stroke-width=".2897" d="M7.4 25.54c-.4.41-.4 1.05 0 1.46l5.76 5.76c.41.41 1.05.41 1.46 0l10.19-10.18-.1-.1.1.1c.41-.41.41-1.05 0-1.46l-1.25-1.25-.1.1.1-.1c-.41-.41-1.05-.41-1.46 0l-8.2 8.2-3.78-3.78c-.41-.41-1.05-.41-1.46 0L7.4 25.54z"/></g></g></svg>