<svg xmlns="http://www.w3.org/2000/svg" viewBox="-6 -6 32 32"><circle cx="10" cy="10" r="16" fill="#E1DFDD"/><path fill="#605e5c" d="M10 2C7.79086 2 6 3.79086 6 6s1.79086 4 4 4c2.2091 0 4-1.79086 4-4s-1.7909-4-4-4ZM7 6c0-1.65685 1.34315-3 3-3 1.6569 0 3 1.34315 3 3s-1.3431 3-3 3C8.34315 9 7 7.65685 7 6Zm-1.99127 5C3.90315 11 3 11.8869 3 13c0 1.6912.83281 2.9663 2.13499 3.7966C6.41697 17.614 8.14526 18 10 18c1.8547 0 3.583-.386 4.865-1.2034C16.1672 15.9663 17 14.6912 17 13c0-1.1044-.8955-2-2-2H5.00873ZM4 13c0-.5533.44786-1 1.00873-1H15c.5522 0 1 .4478 1 1 0 1.3088-.6223 2.2837-1.6726 2.9534C13.2568 16.636 11.7351 17 10 17c-1.73511 0-3.25682-.364-4.32738-1.0466C4.62226 15.2837 4 14.3088 4 13Z"/></svg>