<svg viewBox="0 0 32 32" fill="none" xmlns="http://www.w3.org/2000/svg"><path d="M29.647 1H9.353C8.606 1 8 1.606 8 2.353v20.294C8 23.394 8.606 24 9.353 24h20.294c.747 0 1.353-.606 1.353-1.353V2.353C31 1.606 30.394 1 29.647 1z" fill="url(#paint0_linear)"/><g opacity=".4" fill="#000" fill-opacity=".03"><path d="M8 4h18.25c.966 0 1.75.784 1.75 1.75V24H8V4z"/><path d="M8 4.38h18.25c.756 0 1.37.614 1.37 1.37V24H8V4.38z"/><path d="M8 4.469h18.162c.756 0 1.369.613 1.369 1.369V24H8V4.469z"/><path d="M8 4.558h18.124c.727 0 1.317.59 1.317 1.317V24H8V4.558z"/><path d="M8 4.647h18.089c.698 0 1.264.566 1.264 1.264V24H8V4.647z"/><path d="M8 4.736h18.003c.696 0 1.26.564 1.26 1.26V24H8V4.736z"/><path d="M8 4.838h17.954c.666 0 1.207.54 1.207 1.207V24H8V4.839z"/><path d="M8 4.943h17.904c.637 0 1.153.516 1.153 1.153V24H8V4.943z"/></g><path d="M25.647 5H5.353C4.606 5 4 5.606 4 6.353v20.294C4 27.394 4.606 28 5.353 28h20.294c.747 0 1.353-.606 1.353-1.353V6.353C27 5.606 26.394 5 25.647 5z" fill="url(#paint1_linear)"/><g opacity=".4" fill="#000" fill-opacity=".03"><path d="M4 8h18.25c.966 0 1.75.784 1.75 1.75V28H4V8z"/><path d="M4 8.38h18.25c.756 0 1.37.614 1.37 1.37V28H4V8.38z"/><path d="M4 8.469h18.162c.756 0 1.369.613 1.369 1.369V28H4V8.469z"/><path d="M4 8.558h18.124c.727 0 1.317.59 1.317 1.317V28H4V8.558z"/><path d="M4 8.647h18.089c.698 0 1.264.566 1.264 1.264V28H4V8.647z"/><path d="M4 8.736h18.003c.696 0 1.26.564 1.26 1.26V28H4V8.736z"/><path d="M4 8.838h17.954c.666 0 1.207.54 1.207 1.207V28H4V8.839z"/><path d="M4 8.943h17.904c.637 0 1.153.516 1.153 1.153V28H4V8.943z"/></g><path d="M21.647 9H1.353C.606 9 0 9.606 0 10.353v20.294C0 31.394.606 32 1.353 32h20.294c.747 0 1.353-.606 1.353-1.353V10.353C23 9.606 22.394 9 21.647 9z" fill="url(#paint2_linear)"/><g opacity=".4" fill="#000"><rect opacity=".05" x="5.156" y="14.287" width="6.564" height="6.558" rx=".5"/><rect opacity=".05" x="5.33" y="14.461" width="6.216" height="6.21" rx=".5"/><rect opacity=".05" x="5.437" y="14.568" width="6.002" height="5.996" rx=".5"/><rect opacity=".05" x="5.536" y="14.666" width="5.805" height="5.799" rx=".5"/><rect opacity=".05" x="5.655" y="14.785" width="5.567" height="5.562" rx=".5"/><rect opacity=".05" x="5.156" y="20.417" width="6.564" height="6.558" rx=".5"/><rect opacity=".05" x="5.33" y="20.591" width="6.216" height="6.21" rx=".5"/><rect opacity=".05" x="5.437" y="20.698" width="6.002" height="5.996" rx=".5"/><rect opacity=".05" x="5.536" y="20.796" width="5.805" height="5.799" rx=".5"/><rect opacity=".05" x="5.655" y="20.915" width="5.567" height="5.562" rx=".5"/><rect opacity=".05" x="11.283" y="14.289" width="6.561" height="6.554" rx=".5"/><rect opacity=".05" x="11.457" y="14.463" width="6.213" height="6.206" rx=".5"/><rect opacity=".05" x="11.564" y="14.569" width="5.999" height="5.993" rx=".5"/><rect opacity=".05" x="11.662" y="14.668" width="5.802" height="5.796" rx=".5"/><rect opacity=".05" x="11.781" y="14.786" width="5.565" height="5.559" rx=".5"/><rect opacity=".05" x="11.283" y="20.419" width="6.561" height="6.554" rx=".5"/><rect opacity=".05" x="11.457" y="20.592" width="6.213" height="6.206" rx=".5"/><rect opacity=".05" x="11.564" y="20.699" width="5.999" height="5.993" rx=".5"/><rect opacity=".05" x="11.662" y="20.798" width="5.802" height="5.796" rx=".5"/><rect opacity=".05" x="11.781" y="20.916" width="5.565" height="5.559" rx=".5"/></g><path d="M6 15h5v5H6v-5zM6 21v5h5v-5H6zM12 21v5h5v-5h-5zM17 20v-5h-5v5h5z" fill="#fff"/><defs><linearGradient id="paint0_linear" x1="25.279" y1="22.51" x2="13.373" y2="1.887" gradientUnits="userSpaceOnUse"><stop stop-color="#0C59A4"/><stop offset="1" stop-color="#0078D4"/></linearGradient><linearGradient id="paint1_linear" x1="21.279" y1="26.51" x2="9.373" y2="5.887" gradientUnits="userSpaceOnUse"><stop stop-color="#0078D4"/><stop offset="1" stop-color="#28AFEA"/></linearGradient><linearGradient id="paint2_linear" x1="17.279" y1="30.51" x2="5.373" y2="9.887" gradientUnits="userSpaceOnUse"><stop stop-color="#1493DF"/><stop offset="1" stop-color="#50E6FF"/></linearGradient></defs></svg>