<svg xmlns="http://www.w3.org/2000/svg" xmlns:xlink="http://www.w3.org/1999/xlink" viewBox="0 0 64 64">
  <defs>
    <linearGradient id="b" x1="48.003" x2="15.997" y1="59.717" y2="4.2826" gradientUnits="userSpaceOnUse">
      <stop offset="0" stop-color="#c2c8cc"/>
      <stop offset="1" stop-color="#f5f5f5"/>
    </linearGradient>
    <linearGradient id="c" x1="45.336" x2="18.664" y1="55.098" y2="8.9021" gradientUnits="userSpaceOnUse">
      <stop offset="0" stop-color="#bf3207"/>
      <stop offset="1" stop-color="#e25113"/>
    </linearGradient>
    <linearGradient id="a" x1="-3159.5" x2="-3181" y1="1700.9" y2="1695.1" gradientTransform="rotate(45 430.97675785 4722.01641817)" gradientUnits="userSpaceOnUse">
      <stop offset="0" stop-color="#c2c8cc"/>
      <stop offset="1" stop-color="#fff"/>
    </linearGradient>
    <linearGradient xlink:href="#a" id="d" x1="-3153.9" x2="-3175.5" y1="1680.5" y2="1674.8"/>
  </defs>
  <circle cx="32" cy="32" r="32" fill="url(#b)"/>
  <circle cx="32" cy="32" r="26.667" fill="url(#c)"/>
  <path fill="none" d="M0 0h64v64H0z"/>
  <path fill="none" d="M0 0h64v64H0z"/>
  <path fill="none" d="M0 0h64v64H0z"/>
  <path fill="url(#a)" d="m20.557 25.724-2.8328 2.8328a1.3354 1.3354 0 0 0 0 1.8885l7.5542 7.5542-7.5542 7.5542a1.3354 1.3354 0 0 0 0 1.8885l2.8328 2.8328a1.3354 1.3354 0 0 0 1.8885 0l11.331-11.331a1.3354 1.3354 0 0 0 0-1.8885l-11.331-11.331a1.3354 1.3354 0 0 0-1.8885 0z"/>
  <path fill="url(#d)" d="m38.721 26 7.5542-7.5542a1.3354 1.3354 0 0 0 0-1.8885l-2.8328-2.8328a1.3354 1.3354 0 0 0-1.8885 0l-11.331 11.331a1.3354 1.3354 0 0 0 0 1.8885l11.331 11.331a1.3354 1.3354 0 0 0 1.8885 0l2.8328-2.8328a1.3354 1.3354 0 0 0 0-1.8885z"/>
</svg>
