<svg xmlns="http://www.w3.org/2000/svg" fill="none" viewBox="0 0 16 16">
  <path fill="#FAFAFA" fill-rule="evenodd" d="M10 4.5A5.5 5.5 0 01.5 8.275V11A1.5 1.5 0 002 12.5h12a1.5 1.5 0 001.5-1.5V3A1.5 1.5 0 0014 1.5H9.11c.563.863.89 1.893.89 3z" clip-rule="evenodd"/>
  <path fill="#555" fill-rule="evenodd" d="M9.4 2H14a1 1 0 011 1v8a1 1 0 01-1 1H2a1 1 0 01-1-1V8.743a5.532 5.532 0 01-1-1.08V11a2 2 0 002 2h12a2 2 0 002-2V3a2 2 0 00-2-2H8.743c.253.307.474.642.657 1z" clip-rule="evenodd"/>
  <path fill="#555" fill-rule="evenodd" d="M5.5 12a.5.5 0 01.5.5V15h4v-2.5a.5.5 0 011 0V15h1.5a.5.5 0 010 1h-9a.5.5 0 010-1H5v-2.5a.5.5 0 01.5-.5z" clip-rule="evenodd"/>
  <path fill="#0078D4" fill-rule="evenodd" d="M.862 3.07l-.357-.35c.13-.311.292-.604.482-.874l.396.119A2 2 0 003.903.51l.115-.484a4.251 4.251 0 01.964 0l.115.484a2 2 0 002.52 1.454l.396-.119c.19.27.353.563.483.874l-.358.35a2 2 0 000 2.86l.358.35c-.13.311-.293.604-.483.874l-.396-.119a2 2 0 00-2.52 1.454l-.115.484a4.25 4.25 0 01-.964 0l-.114-.484a2 2 0 00-2.521-1.454l-.396.119a4.537 4.537 0 01-.482-.874l.357-.35a2 2 0 000-2.86zM5.5 4.5a1 1 0 11-2 0 1 1 0 012 0z" clip-rule="evenodd"/>
</svg>
