<svg xmlns="http://www.w3.org/2000/svg" fill="none" viewBox="0 0 16 16">
  <g clip-path="url(#clip0)">
    <path fill="#FAFAFA" fill-rule="evenodd" d="M3.5 1.5h9a2 2 0 012 2v2.963a3.513 3.513 0 01-1.494-1.032 1.389 1.389 0 00-2.01-.001A3.529 3.529 0 018.4 6.667 1.41 1.41 0 007 8.083l.005 2.6c.133 1.324.355 2.662 1.125 3.817H3.5a2 2 0 01-2-2v-9a2 2 0 012-2z" clip-rule="evenodd"/>
    <path fill="#555" fill-rule="evenodd" d="M3.5 1A2.5 2.5 0 001 3.5v9A2.5 2.5 0 003.5 15h5.01a5.212 5.212 0 01-.675-1H3.5A1.5 1.5 0 012 12.5v-9A1.5 1.5 0 013.5 2h9A1.5 1.5 0 0114 3.5v2.739a3.485 3.485 0 001 .362V3.5A2.5 2.5 0 0012.5 1h-9z" clip-rule="evenodd"/>
    <path fill="#555" fill-rule="evenodd" d="M14.5 5h-13V4h13v1z" clip-rule="evenodd"/>
    <path fill="#0078D4" d="M15.6 7.667a.405.405 0 01.392.333L16 10.585a5.29 5.29 0 01-3.873 5.394.385.385 0 01-.253 0C8.815 14.917 8.248 13.056 8 10.585V8.082a.409.409 0 01.4-.416 4.497 4.497 0 003.318-1.545.388.388 0 01.566 0A4.502 4.502 0 0015.6 7.667z"/>
  </g>
  <defs>
    <clipPath id="clip0">
      <path fill="#fff" d="M0 0h16v16H0z"/>
    </clipPath>
  </defs>
</svg>
