<svg xmlns="http://www.w3.org/2000/svg" fill="none" viewBox="0 0 16 16">
  <path fill="#FAFAFA" fill-rule="evenodd" d="M6.574 9.596a5 5 0 102.642-7.93 5.502 5.502 0 01-2.642 7.93z" clip-rule="evenodd"/>
  <path fill="#555" fill-rule="evenodd" d="M6.078 9.77c.062.085.128.168.195.25l-4.127 4.126a.5.5 0 00.708.708l4.126-4.127A5.5 5.5 0 108.922 1.23c.206.278.387.576.538.89a4.5 4.5 0 11-2.419 7.258c-.305.16-.628.292-.963.392z" clip-rule="evenodd"/>
  <path fill="#0078D4" fill-rule="evenodd" d="M.862 3.07l-.358-.35c.13-.311.292-.604.483-.874l.396.119A2 2 0 003.903.51l.115-.484a4.251 4.251 0 01.963 0l.115.484a2 2 0 002.52 1.454l.396-.119c.191.27.354.563.483.874l-.358.35a2 2 0 000 2.86l.358.35c-.13.311-.292.604-.483.874l-.395-.119a2 2 0 00-2.52 1.454l-.116.484a4.25 4.25 0 01-.963 0l-.115-.484a2 2 0 00-2.52-1.454l-.396.119a4.537 4.537 0 01-.483-.874l.358-.35a2 2 0 000-2.86zM5.5 4.5a1 1 0 11-2 0 1 1 0 012 0z" clip-rule="evenodd"/>
</svg>
