<svg xmlns="http://www.w3.org/2000/svg" fill="none" viewBox="0 0 16 16">
  <path fill="#FAFAFA" d="M2 2.5h7.5v11H2A1.5 1.5 0 01.5 12V4A1.5 1.5 0 012 2.5z"/>
  <path fill="#555" fill-rule="evenodd" d="M10 2.5a.5.5 0 00-.5-.5H2a2 2 0 00-2 2v8a2 2 0 002 2h7.5a.5.5 0 00.5-.5v-11zM9 3v10H2a1 1 0 01-1-1V4a1 1 0 011-1h7z" clip-rule="evenodd"/>
  <path fill="#FAFAFA" d="M9.5 2.5H14A1.5 1.5 0 0115.5 4v8a1.5 1.5 0 01-1.5 1.5H9.5v-11z"/>
  <path fill="#0078D4" fill-rule="evenodd" d="M16 4a2 2 0 00-2-2H9.5a.5.5 0 00-.5.5v11a.5.5 0 00.5.5H14a2 2 0 002-2V4zm-2-1a1 1 0 011 1v8a1 1 0 01-1 1h-4V3h4z" clip-rule="evenodd"/>
</svg>
