<svg xmlns="http://www.w3.org/2000/svg" fill="none" viewBox="0 0 16 16">
  <path fill="#FAFAFA" d="M14 2.5H5.5v11H14a1.5 1.5 0 001.5-1.5V4A1.5 1.5 0 0014 2.5z"/>
  <path fill="#555" fill-rule="evenodd" d="M5 2.5a.5.5 0 01.5-.5H14a2 2 0 012 2v8a2 2 0 01-2 2H5.5a.5.5 0 01-.5-.5v-11zM6 3v10h8a1 1 0 001-1V4a1 1 0 00-1-1H6z" clip-rule="evenodd"/>
  <path fill="#FAFAFA" d="M5.5 2.5H2A1.5 1.5 0 00.5 4v8A1.5 1.5 0 002 13.5h3.5v-11z"/>
  <path fill="#0078D4" fill-rule="evenodd" d="M0 4a2 2 0 012-2h3.5a.5.5 0 01.5.5v11a.5.5 0 01-.5.5H2a2 2 0 01-2-2V4zm2-1a1 1 0 00-1 1v8a1 1 0 001 1h3V3H2z" clip-rule="evenodd"/>
</svg>
