<svg xmlns="http://www.w3.org/2000/svg" fill="none" viewBox="0 0 16 16">
  <path fill="#FAFAFA" d="M12 .5H6A1.5 1.5 0 004.5 2v10A1.5 1.5 0 006 13.5h6a1.5 1.5 0 001.5-1.5V2A1.5 1.5 0 0012 .5z"/>
  <path fill="#0078D4" fill-rule="evenodd" d="M6 1a1 1 0 00-1 1v10a1 1 0 001 1h6a1 1 0 001-1V2a1 1 0 00-1-1H6zM4 2a2 2 0 012-2h6a2 2 0 012 2v10a2 2 0 01-2 2H6a2 2 0 01-2-2V2z" clip-rule="evenodd"/>
  <path fill="#555" d="M5.5 15A2.502 2.502 0 013 12.5V2.278A1.994 1.994 0 002 4v8.5A3.504 3.504 0 005.5 16H10a1.994 1.994 0 001.722-1H5.5z"/>
</svg>
