<svg xmlns="http://www.w3.org/2000/svg" fill="none" viewBox="0 0 16 16">
  <path fill="#FAFAFA" d="M12 2.5h2A1.5 1.5 0 0115.5 4v8a1.5 1.5 0 01-1.5 1.5h-2"/>
  <path fill="#555" fill-rule="evenodd" d="M14 3h-2V2h2a2 2 0 012 2v8a2 2 0 01-2 2h-2v-1h2a1 1 0 001-1V4a1 1 0 00-1-1z" clip-rule="evenodd"/>
  <path fill="#FAFAFA" d="M9 13.5H2A1.5 1.5 0 01.5 12V4A1.5 1.5 0 012 2.5h7"/>
  <path fill="#555" fill-rule="evenodd" d="M2 3a1 1 0 00-1 1v8a1 1 0 001 1h7v1H2a2 2 0 01-2-2V4a2 2 0 012-2h7v1H2z" clip-rule="evenodd"/>
  <path fill="#0078D4" fill-rule="evenodd" d="M8 .5a.5.5 0 01.5-.5h4a.5.5 0 010 1H11v14h1.5a.5.5 0 010 1h-4a.5.5 0 010-1H10V1H8.5A.5.5 0 018 .5z" clip-rule="evenodd"/>
  <path fill="#0078D4" d="M2 8a1 1 0 011-1h6v2H3a1 1 0 01-1-1z"/>
</svg>
