<svg xmlns="http://www.w3.org/2000/svg" fill="none" viewBox="0 0 16 16">
  <g clip-path="url(#clip0)">
    <path fill="#FAFAFA" fill-rule="evenodd" d="M2.5 2.5H2A1.5 1.5 0 00.5 4v2A1.5 1.5 0 002 7.5h5.5l-5-5zm7.121 5H13A1.5 1.5 0 0014.5 6V4A1.5 1.5 0 0013 2.5H4.621l5 5zM4.5 12a.5.5 0 01.5-.5h1.5V11a.5.5 0 01.5-.5h1a.5.5 0 01.5.5v.5H10a.5.5 0 01.5.5v1a.5.5 0 01-.5.5H5a.5.5 0 01-.5-.5v-1z" clip-rule="evenodd"/>
    <path fill="#555" fill-rule="evenodd" d="M0 4a2 2 0 012-2l1 1H2a1 1 0 00-1 1v2a1 1 0 001 1h5l1 1v2a1 1 0 011 1h1a1 1 0 011 1h1l1 1h-2a1 1 0 01-1 1H5a1 1 0 01-1-1H.5a.5.5 0 010-1H4a1 1 0 011-1h1a1 1 0 011-1V8H2a2 2 0 01-2-2V4zm13 3H9.121l1 1H13a2 2 0 002-2V4a2 2 0 00-2-2H4.121l1 1H13a1 1 0 011 1v2a1 1 0 01-1 1zm-8 6v-1h1.5a.5.5 0 00.5-.5V11h1v.5a.5.5 0 00.5.5H10v1H5zm6.25-7.5a.75.75 0 100-1.5.75.75 0 000 1.5z" clip-rule="evenodd"/>
    <path stroke="#0078D4" stroke-linecap="round" d="M.5.5l15 15"/>
  </g>
  <defs>
    <clipPath id="clip0">
      <path fill="#fff" d="M0 0h16v16H0z"/>
    </clipPath>
  </defs>
</svg>
