<!-- Exported by Character Map UWP -->
<svg height="100%" viewBox="0 128 1024 768" width="100%" xmlns="http://www.w3.org/2000/svg" xmlns:xlink="http://www.w3.org/1999/xlink">
  <path d="M1024,864C1024,872.667 1020.83,880.167 1014.5,886.5C1008.17,892.833 1000.67,896 992,896L32,896C23.3333,896 15.8333,892.833 9.5,886.5C3.16667,880.167 0,872.667 0,864L0,160C0,151.333 3.16667,143.833 9.5,137.5C15.8333,131.167 23.3333,128 32,128C40.6667,128 48.1667,131.167 54.5,137.5C60.8333,143.833 64,151.333 64,160L64,371.5C67.6667,370.167 73.8333,368 82.5,365C91.1667,362 101,358.583 112,354.75C123,350.917 134.5,347 146.5,343C158.5,339 169.833,335.25 180.5,331.75C191.167,328.25 200.417,325.417 208.25,323.25C216.083,321.083 221.167,320 223.5,320C230.167,320 236.333,321.833 242,325.5L412,439L649.5,201.5C655.833,195.167 663.333,192 672,192C680.667,192 688.167,195.167 694.5,201.5L950.5,457.5C956.833,463.833 960,471.333 960,480L960,832L977,832C982.667,832 988.25,832.333 993.75,833C999.25,833.667 1004.25,835.083 1008.75,837.25C1013.25,839.417 1016.92,842.583 1019.75,846.75C1022.58,850.917 1024,856.667 1024,864ZM219.5,387.5L64,439L64,627.5L214,577.5C217.333,576.5 220.833,576 224.5,576C226.833,576 229.333,576.333 232,577L470,636.5L585.5,521.5C591.833,515.167 599.5,512 608.5,512C611.167,512 613.167,512.167 614.5,512.5L896,569L896,493L672,269L438.5,502.5C432.167,508.833 424.667,512 416,512C409.667,512 403.833,510.167 398.5,506.5ZM64,695L64,832L896,832L896,634.5L618.5,578.5L502.5,694.5C496.167,700.833 488.667,704 480,704C477.667,704 475.167,703.667 472.5,703L225.5,641.5Z" fill="#FFFFFF" fill-opacity="1">
  </path>
</svg>