<svg width="367" height="284" viewBox="0 0 367 284" fill="none" xmlns="http://www.w3.org/2000/svg">
<g clip-path="url(#clip0)">
<rect x="151.854" y="32" width="180.147" height="164.63" rx="8" fill="white" fill-opacity="0.9"/>
<rect x="151.354" y="31.5" width="181.147" height="165.63" rx="8.5" stroke="black" stroke-opacity="0.0578"/>
<rect x="151.854" y="32" width="180.147" height="164.63" rx="8" fill="url(#paint0_linear)"/>
<rect x="310.382" y="61.5293" width="9.55882" height="9.59727" rx="4.77941" transform="rotate(-180 310.382 61.5293)" fill="#0078D4" fill-opacity="0.3"/>
<rect x="293.471" y="61.5293" width="9.55882" height="9.59727" rx="4.77941" transform="rotate(-180 293.471 61.5293)" fill="#0078D4"/>
<rect x="276.559" y="61.5293" width="9.55882" height="9.59727" rx="4.77941" transform="rotate(-180 276.559 61.5293)" fill="#0078D4" fill-opacity="0.3"/>
<g filter="url(#filter0_dd)">
<rect x="106.265" y="170.055" width="122.794" height="81.9459" rx="8" fill="white"/>
</g>
<rect x="106.265" y="170.055" width="122.794" height="81.9459" rx="8" fill="url(#paint1_linear)"/>
<rect x="126.854" y="184.816" width="75.7352" height="8.12076" rx="1.66667" fill="#BABAF8"/>
<g filter="url(#filter1_d)">
<rect x="126.854" y="201.059" width="33.0882" height="33.2213" rx="3" fill="white"/>
</g>
<g filter="url(#filter2_d)">
<rect x="165.824" y="201.059" width="33.0882" height="33.2213" rx="3" fill="white"/>
</g>
<g filter="url(#filter3_d)">
<rect x="204.06" y="201.059" width="33.0882" height="33.2213" rx="3" fill="white"/>
</g>
<g filter="url(#filter4_dd)">
<rect x="32" y="63.0059" width="136.029" height="91.5431" rx="8" fill="white"/>
</g>
<path d="M32 71.0059C32 66.5876 35.5817 63.0059 40 63.0059H160.029C164.448 63.0059 168.029 66.5876 168.029 71.0059V146.549C168.029 150.967 164.448 154.549 160.029 154.549H40C35.5817 154.549 32 150.967 32 146.549V71.0059Z" fill="url(#paint2_linear)"/>
<g filter="url(#filter5_d)">
<ellipse cx="87.5" cy="104.108" rx="32.5" ry="33.0491" fill="url(#paint3_linear)"/>
</g>
<path d="M84.5 103.182V88.9305C84.5 88.1585 84.7969 87.4904 85.3906 86.9263C85.9844 86.3621 86.6875 86.0801 87.5 86.0801C88.3125 86.0801 89.0156 86.3621 89.6094 86.9263C90.2031 87.4904 90.5 88.1585 90.5 88.9305V103.182C90.5 103.954 90.2031 104.622 89.6094 105.187C89.0156 105.751 88.3125 106.033 87.5 106.033C86.6875 106.033 85.9844 105.751 85.3906 105.187C84.7969 104.622 84.5 103.954 84.5 103.182ZM83 118.86C83 117.672 83.4375 116.662 84.3125 115.831C85.1875 115 86.25 114.584 87.5 114.584C88.75 114.584 89.8125 115 90.6875 115.831C91.5625 116.662 92 117.672 92 118.86C92 120.047 91.5625 121.057 90.6875 121.888C89.8125 122.719 88.75 123.135 87.5 123.135C86.25 123.135 85.1875 122.719 84.3125 121.888C83.4375 121.057 83 120.047 83 118.86Z" fill="white"/>
<g filter="url(#filter6_dd)">
<path fill-rule="evenodd" clip-rule="evenodd" d="M105.872 119.111C100.676 118.803 96.5547 114.402 96.5547 109.019C96.5547 103.436 100.987 98.9097 106.455 98.9097C107.517 98.9097 108.54 99.0805 109.499 99.3966C110.483 91.8797 116.827 86.0801 124.507 86.0801C131.591 86.0801 137.538 91.0141 139.191 97.6787C140.021 97.4676 140.89 97.3555 141.784 97.3555C147.68 97.3555 152.46 102.23 152.46 108.242C152.46 114.255 147.68 119.129 141.784 119.129C141.719 119.129 141.654 119.128 141.589 119.127V119.128H105.872V119.111Z" fill="url(#paint4_linear)"/>
</g>
<g filter="url(#filter7_d)">
<rect x="182.992" y="72.6055" width="126.949" height="25.7186" rx="2" fill="white"/>
</g>
<rect x="188.512" y="77.1953" width="2.75977" height="17.4519" rx="1.37989" fill="#0078D4"/>
<g filter="url(#filter8_d)">
<rect x="182.992" y="102.918" width="126.949" height="26.6371" rx="2" fill="white"/>
</g>
<rect x="188.512" y="107.51" width="2.75977" height="17.4519" rx="1.37989" fill="#0078D4"/>
<g filter="url(#filter9_d)">
<rect x="182.992" y="134.146" width="126.949" height="25.7186" rx="2" fill="white"/>
</g>
<rect x="188.512" y="137.82" width="2.75977" height="18.3704" rx="1.37989" fill="#0078D4"/>
</g>
<defs>
<filter id="filter0_dd" x="42.2646" y="91.0547" width="250.794" height="209.946" filterUnits="userSpaceOnUse" color-interpolation-filters="sRGB">
<feFlood flood-opacity="0" result="BackgroundImageFix"/>
<feColorMatrix in="SourceAlpha" type="matrix" values="0 0 0 0 0 0 0 0 0 0 0 0 0 0 0 0 0 0 127 0" result="hardAlpha"/>
<feOffset/>
<feGaussianBlur stdDeviation="4"/>
<feColorMatrix type="matrix" values="0 0 0 0 0 0 0 0 0 0 0 0 0 0 0 0 0 0 0.2 0"/>
<feBlend mode="normal" in2="BackgroundImageFix" result="effect1_dropShadow"/>
<feColorMatrix in="SourceAlpha" type="matrix" values="0 0 0 0 0 0 0 0 0 0 0 0 0 0 0 0 0 0 127 0" result="hardAlpha"/>
<feOffset dy="-15"/>
<feGaussianBlur stdDeviation="32"/>
<feColorMatrix type="matrix" values="0 0 0 0 0.65 0 0 0 0 0.65 0 0 0 0 1 0 0 0 0.5 0"/>
<feBlend mode="normal" in2="effect1_dropShadow" result="effect2_dropShadow"/>
<feBlend mode="normal" in="SourceGraphic" in2="effect2_dropShadow" result="shape"/>
</filter>
<filter id="filter1_d" x="117.854" y="196.059" width="51.0882" height="51.2213" filterUnits="userSpaceOnUse" color-interpolation-filters="sRGB">
<feFlood flood-opacity="0" result="BackgroundImageFix"/>
<feColorMatrix in="SourceAlpha" type="matrix" values="0 0 0 0 0 0 0 0 0 0 0 0 0 0 0 0 0 0 127 0" result="hardAlpha"/>
<feOffset dy="4"/>
<feGaussianBlur stdDeviation="4.5"/>
<feColorMatrix type="matrix" values="0 0 0 0 0 0 0 0 0 0 0 0 0 0 0 0 0 0 0.22 0"/>
<feBlend mode="normal" in2="BackgroundImageFix" result="effect1_dropShadow"/>
<feBlend mode="normal" in="SourceGraphic" in2="effect1_dropShadow" result="shape"/>
</filter>
<filter id="filter2_d" x="156.824" y="196.059" width="51.0882" height="51.2213" filterUnits="userSpaceOnUse" color-interpolation-filters="sRGB">
<feFlood flood-opacity="0" result="BackgroundImageFix"/>
<feColorMatrix in="SourceAlpha" type="matrix" values="0 0 0 0 0 0 0 0 0 0 0 0 0 0 0 0 0 0 127 0" result="hardAlpha"/>
<feOffset dy="4"/>
<feGaussianBlur stdDeviation="4.5"/>
<feColorMatrix type="matrix" values="0 0 0 0 0 0 0 0 0 0 0 0 0 0 0 0 0 0 0.22 0"/>
<feBlend mode="normal" in2="BackgroundImageFix" result="effect1_dropShadow"/>
<feBlend mode="normal" in="SourceGraphic" in2="effect1_dropShadow" result="shape"/>
</filter>
<filter id="filter3_d" x="195.06" y="196.059" width="51.0882" height="51.2213" filterUnits="userSpaceOnUse" color-interpolation-filters="sRGB">
<feFlood flood-opacity="0" result="BackgroundImageFix"/>
<feColorMatrix in="SourceAlpha" type="matrix" values="0 0 0 0 0 0 0 0 0 0 0 0 0 0 0 0 0 0 127 0" result="hardAlpha"/>
<feOffset dy="4"/>
<feGaussianBlur stdDeviation="4.5"/>
<feColorMatrix type="matrix" values="0 0 0 0 0 0 0 0 0 0 0 0 0 0 0 0 0 0 0.22 0"/>
<feBlend mode="normal" in2="BackgroundImageFix" result="effect1_dropShadow"/>
<feBlend mode="normal" in="SourceGraphic" in2="effect1_dropShadow" result="shape"/>
</filter>
<filter id="filter4_dd" x="-12" y="14.0059" width="264.029" height="219.543" filterUnits="userSpaceOnUse" color-interpolation-filters="sRGB">
<feFlood flood-opacity="0" result="BackgroundImageFix"/>
<feColorMatrix in="SourceAlpha" type="matrix" values="0 0 0 0 0 0 0 0 0 0 0 0 0 0 0 0 0 0 127 0" result="hardAlpha"/>
<feOffset/>
<feGaussianBlur stdDeviation="4"/>
<feColorMatrix type="matrix" values="0 0 0 0 0 0 0 0 0 0 0 0 0 0 0 0 0 0 0.2 0"/>
<feBlend mode="normal" in2="BackgroundImageFix" result="effect1_dropShadow"/>
<feColorMatrix in="SourceAlpha" type="matrix" values="0 0 0 0 0 0 0 0 0 0 0 0 0 0 0 0 0 0 127 0" result="hardAlpha"/>
<feOffset dx="20" dy="15"/>
<feGaussianBlur stdDeviation="32"/>
<feColorMatrix type="matrix" values="0 0 0 0 1 0 0 0 0 0.6 0 0 0 0 0 0 0 0 0.15 0"/>
<feBlend mode="normal" in2="effect1_dropShadow" result="effect2_dropShadow"/>
<feBlend mode="normal" in="SourceGraphic" in2="effect2_dropShadow" result="shape"/>
</filter>
<filter id="filter5_d" x="51" y="69.0586" width="73" height="74.0982" filterUnits="userSpaceOnUse" color-interpolation-filters="sRGB">
<feFlood flood-opacity="0" result="BackgroundImageFix"/>
<feColorMatrix in="SourceAlpha" type="matrix" values="0 0 0 0 0 0 0 0 0 0 0 0 0 0 0 0 0 0 127 0" result="hardAlpha"/>
<feOffset dy="2"/>
<feGaussianBlur stdDeviation="2"/>
<feColorMatrix type="matrix" values="0 0 0 0 0 0 0 0 0 0 0 0 0 0 0 0 0 0 0.04 0"/>
<feBlend mode="normal" in2="BackgroundImageFix" result="effect1_dropShadow"/>
<feBlend mode="normal" in="SourceGraphic" in2="effect1_dropShadow" result="shape"/>
</filter>
<filter id="filter6_dd" x="32.5547" y="54.0801" width="183.906" height="161.049" filterUnits="userSpaceOnUse" color-interpolation-filters="sRGB">
<feFlood flood-opacity="0" result="BackgroundImageFix"/>
<feColorMatrix in="SourceAlpha" type="matrix" values="0 0 0 0 0 0 0 0 0 0 0 0 0 0 0 0 0 0 127 0" result="hardAlpha"/>
<feOffset dy="2"/>
<feGaussianBlur stdDeviation="10.5"/>
<feColorMatrix type="matrix" values="0 0 0 0 0 0 0 0 0 0 0 0 0 0 0 0 0 0 0.15 0"/>
<feBlend mode="normal" in2="BackgroundImageFix" result="effect1_dropShadow"/>
<feColorMatrix in="SourceAlpha" type="matrix" values="0 0 0 0 0 0 0 0 0 0 0 0 0 0 0 0 0 0 127 0" result="hardAlpha"/>
<feOffset dy="32"/>
<feGaussianBlur stdDeviation="32"/>
<feColorMatrix type="matrix" values="0 0 0 0 0 0 0 0 0 0 0 0 0 0 0 0 0 0 0.19 0"/>
<feBlend mode="normal" in2="effect1_dropShadow" result="effect2_dropShadow"/>
<feBlend mode="normal" in="SourceGraphic" in2="effect2_dropShadow" result="shape"/>
</filter>
<filter id="filter7_d" x="166.992" y="64.6055" width="158.949" height="57.7186" filterUnits="userSpaceOnUse" color-interpolation-filters="sRGB">
<feFlood flood-opacity="0" result="BackgroundImageFix"/>
<feColorMatrix in="SourceAlpha" type="matrix" values="0 0 0 0 0 0 0 0 0 0 0 0 0 0 0 0 0 0 127 0" result="hardAlpha"/>
<feOffset dy="8"/>
<feGaussianBlur stdDeviation="8"/>
<feColorMatrix type="matrix" values="0 0 0 0 0 0 0 0 0 0 0 0 0 0 0 0 0 0 0.14 0"/>
<feBlend mode="normal" in2="BackgroundImageFix" result="effect1_dropShadow"/>
<feBlend mode="normal" in="SourceGraphic" in2="effect1_dropShadow" result="shape"/>
</filter>
<filter id="filter8_d" x="166.992" y="94.918" width="158.949" height="58.6371" filterUnits="userSpaceOnUse" color-interpolation-filters="sRGB">
<feFlood flood-opacity="0" result="BackgroundImageFix"/>
<feColorMatrix in="SourceAlpha" type="matrix" values="0 0 0 0 0 0 0 0 0 0 0 0 0 0 0 0 0 0 127 0" result="hardAlpha"/>
<feOffset dy="8"/>
<feGaussianBlur stdDeviation="8"/>
<feColorMatrix type="matrix" values="0 0 0 0 0 0 0 0 0 0 0 0 0 0 0 0 0 0 0.14 0"/>
<feBlend mode="normal" in2="BackgroundImageFix" result="effect1_dropShadow"/>
<feBlend mode="normal" in="SourceGraphic" in2="effect1_dropShadow" result="shape"/>
</filter>
<filter id="filter9_d" x="166.992" y="126.146" width="158.949" height="57.7186" filterUnits="userSpaceOnUse" color-interpolation-filters="sRGB">
<feFlood flood-opacity="0" result="BackgroundImageFix"/>
<feColorMatrix in="SourceAlpha" type="matrix" values="0 0 0 0 0 0 0 0 0 0 0 0 0 0 0 0 0 0 127 0" result="hardAlpha"/>
<feOffset dy="8"/>
<feGaussianBlur stdDeviation="8"/>
<feColorMatrix type="matrix" values="0 0 0 0 0 0 0 0 0 0 0 0 0 0 0 0 0 0 0.14 0"/>
<feBlend mode="normal" in2="BackgroundImageFix" result="effect1_dropShadow"/>
<feBlend mode="normal" in="SourceGraphic" in2="effect1_dropShadow" result="shape"/>
</filter>
<linearGradient id="paint0_linear" x1="142.246" y1="-36.3215" x2="368.875" y2="133.038" gradientUnits="userSpaceOnUse">
<stop stop-color="white" stop-opacity="0.03"/>
<stop offset="1" stop-color="#CCEFFF"/>
</linearGradient>
<linearGradient id="paint1_linear" x1="106" y1="146.671" x2="230.033" y2="260.451" gradientUnits="userSpaceOnUse">
<stop stop-color="#AA9DFF" stop-opacity="0.03"/>
<stop offset="1" stop-color="#E3F6FE"/>
</linearGradient>
<linearGradient id="paint2_linear" x1="139.69" y1="154.549" x2="31.1609" y2="64.0117" gradientUnits="userSpaceOnUse">
<stop stop-color="#FFF0A3"/>
<stop offset="0.807844" stop-color="#FFF5BF" stop-opacity="0"/>
</linearGradient>
<linearGradient id="paint3_linear" x1="64.1406" y1="80.3536" x2="120.834" y2="130.63" gradientUnits="userSpaceOnUse">
<stop offset="0.0653907" stop-color="#FFE975"/>
<stop offset="0.420045" stop-color="#FFB729"/>
<stop offset="0.595906" stop-color="#FF9900"/>
</linearGradient>
<linearGradient id="paint4_linear" x1="152.46" y1="127.842" x2="115.747" y2="91.6414" gradientUnits="userSpaceOnUse">
<stop stop-color="#EDEDED"/>
<stop offset="1" stop-color="white"/>
</linearGradient>
<clipPath id="clip0">
<rect width="366.582" height="284" fill="white"/>
</clipPath>
</defs>
</svg>
