<svg width="91" height="53" viewBox="0 0 91 53" fill="none" xmlns="http://www.w3.org/2000/svg" xmlns:xlink="http://www.w3.org/1999/xlink">
<rect x="1" y="1" width="89" height="51" rx="8" fill="#EDF3F6"/>
<rect x="5" y="4" width="20" height="44" rx="3" fill="#DFE6EA"/>
<rect width="59" height="7" rx="3" transform="matrix(-1 0 0 1 86 4)" fill="white"/>
<rect width="20" height="2" rx="1" transform="matrix(-1 0 0 1 51 6)" fill="#8230FF"/>
<rect width="14" height="3" rx="1.5" transform="matrix(-1 0 0 1 22 6)" fill="#8230FF"/>
<rect opacity="0.5" width="59" height="14" rx="3" transform="matrix(-1 0 0 1 86 13)" fill="white"/>
<rect width="59" height="18" rx="3" transform="matrix(-1 0 0 1 86 29)" fill="white"/>
<rect width="20" height="2" rx="1" transform="matrix(-1 0 0 1 51 32)" fill="#F1F1F1"/>
<rect width="13" height="2" rx="1" transform="matrix(-1 0 0 1 44 36)" fill="#F1F1F1"/>
<rect width="25" height="2" rx="1" transform="matrix(-1 0 0 1 56 40)" fill="#F1F1F1"/>
</svg>
