<!-- Exported by Character Map UWP -->
<svg height="100%" viewBox="0 0 1024 1024" width="100%" xmlns="http://www.w3.org/2000/svg" xmlns:xlink="http://www.w3.org/1999/xlink">
  <path d="M192,261L192,251C192,216.333 198.917,183.75 212.75,153.25C226.583,122.75 245.25,96.1667 268.75,73.5C292.25,50.8334 319.417,32.9167 350.25,19.75C381.083,6.58337 413.667,0 448,0C482.333,0 514.917,6.58337 545.75,19.75C576.583,32.9167 603.75,50.8334 627.25,73.5C650.75,96.1667 669.417,122.75 683.25,153.25C697.083,183.75 704,216.333 704,251C704,273 701.833,294 697.5,314C693.167,334 685.833,353.667 675.5,373C630.167,380.667 588,396 549,419C578.333,400.333 600.833,376.5 616.5,347.5C632.167,318.5 640,286.667 640,252C640,226 634.833,201.583 624.5,178.75C614.167,155.917 600.25,136 582.75,119C565.25,102 544.833,88.5834 521.5,78.75C498.167,68.9167 473.667,64.0001 448,64C421.333,64.0001 396.333,69.0001 373,79C349.667,89.0001 329.333,102.667 312,120C294.667,137.333 281,157.667 271,181C261,204.333 256,229.333 256,256C256,281.667 260.917,306.167 270.75,329.5C280.583,352.833 294,373.25 311,390.75C328,408.25 347.917,422.167 370.75,432.5C393.583,442.833 418,448 444,448C462,448 479.25,445.917 495.75,441.75C512.25,437.583 528.5,431 544.5,422C505.5,445.667 472.167,475.667 444.5,512L443.5,512C410.167,512 378.333,505.25 348,491.75C317.667,478.25 290.917,460 267.75,437C244.583,414 226.167,387.333 212.5,357C198.833,326.667 192,294.667 192,261ZM448,736C448,696.333 455.583,659 470.75,624C485.917,589 506.5,558.5 532.5,532.5C558.5,506.5 589,485.917 624,470.75C659,455.583 696.333,448 736,448C762.333,448 787.75,451.417 812.25,458.25C836.75,465.083 859.667,474.75 881,487.25C902.333,499.75 921.833,514.833 939.5,532.5C957.167,550.167 972.25,569.667 984.75,591C997.25,612.333 1006.92,635.25 1013.75,659.75C1020.58,684.25 1024,709.667 1024,736C1024,775.667 1016.42,813 1001.25,848C986.083,883 965.5,913.5 939.5,939.5C913.5,965.5 883,986.083 848,1001.25C813,1016.42 775.667,1024 736,1024C696,1024 658.5,1016.5 623.5,1001.5C588.5,986.5 558,966 532,940C506,914 485.5,883.5 470.5,848.5C455.5,813.5 448,776 448,736ZM0,701.5C0,684.833 3.41667,668.917 10.25,653.75C17.0833,638.583 26.25,625.25 37.75,613.75C49.25,602.25 62.5833,593.083 77.75,586.25C92.9167,579.417 108.833,576 125.5,576L404.5,576C399.833,586.333 395.417,596.833 391.25,607.5C387.083,618.167 383.5,629 380.5,640L128,640C119,640 110.667,641.667 103,645C95.3333,648.333 88.5833,652.917 82.75,658.75C76.9167,664.583 72.3333,671.333 69,679C65.6667,686.667 64,695 64,704C64,737.667 69.5833,767.333 80.75,793C91.9167,818.667 107.083,841 126.25,860C145.417,879 167.583,894.917 192.75,907.75C217.917,920.583 244.583,930.833 272.75,938.5C300.917,946.167 329.667,951.667 359,955C388.333,958.333 416.667,960 444,960C453,971.667 462.5,982.667 472.5,993C482.5,1003.33 493.333,1013 505,1022C495.333,1022.67 485.833,1023.17 476.5,1023.5C467.167,1023.83 457.667,1024 448,1024C404.333,1024 360.583,1020.92 316.75,1014.75C272.917,1008.58 231,996.5 191,978.5C161.667,965.167 135.25,949.417 111.75,931.25C88.25,913.083 68.25,892.5 51.75,869.5C35.25,846.5 22.5,821 13.5,793C4.5,765 0,734.5 0,701.5ZM768,864L768,768L864,768C872.667,768 880.167,764.833 886.5,758.5C892.833,752.167 896,744.667 896,736C896,727.333 892.833,719.833 886.5,713.5C880.167,707.167 872.667,704 864,704L768,704L768,608C768,599.333 764.833,591.833 758.5,585.5C752.167,579.167 744.667,576 736,576C727.333,576 719.833,579.167 713.5,585.5C707.167,591.833 704,599.333 704,608L704,704L608,704C599.333,704 591.833,707.167 585.5,713.5C579.167,719.833 576,727.333 576,736C576,744.667 579.167,752.167 585.5,758.5C591.833,764.833 599.333,768 608,768L704,768L704,864C704,872.667 707.167,880.167 713.5,886.5C719.833,892.833 727.333,896 736,896C744.667,896 752.167,892.833 758.5,886.5C764.833,880.167 768,872.667 768,864Z" fill="#FFFFFF" fill-opacity="1">
  </path>
</svg>