<svg width="" height="" viewBox="0 0 328 196" fill="none" xmlns="http://www.w3.org/2000/svg">
<g clip-path="url(#clip0_9350_326090)">
<path d="M85.91 43.1992H242.966C244.016 43.1992 245.023 43.6052 245.765 44.3279C246.507 45.0506 246.924 46.0307 246.924 47.0527V155.676H81.9524V47.0527C81.9524 46.0307 82.3694 45.0506 83.1115 44.3279C83.8537 43.6052 84.8604 43.1992 85.91 43.1992Z" fill="url(#paint0_linear_9350_326090)"/>
<path d="M240.662 49.5518H88.2944C87.2184 49.5518 86.3462 50.4253 86.3462 51.5028V141.402C86.3462 142.48 87.2184 143.353 88.2944 143.353H240.662C241.738 143.353 242.61 142.48 242.61 141.402V51.5028C242.61 50.4253 241.738 49.5518 240.662 49.5518Z" fill="#F1F1F1"/>
<path d="M253.824 156.473L75.1355 156.473C74.1037 156.473 73.1141 156.062 72.3845 155.331C71.6549 154.601 71.245 153.61 71.245 152.576V148.524L257.714 148.524V152.576C257.714 153.61 257.304 154.601 256.575 155.331C255.845 156.062 254.856 156.473 253.824 156.473Z" fill="#BABABA"/>
<g filter="url(#filter0_di_9350_326090)">
<path d="M231.878 69.031C242.562 69.031 251.223 60.357 251.223 49.6571C251.223 38.9572 242.562 30.2832 231.878 30.2832C221.194 30.2832 212.533 38.9572 212.533 49.6571C212.533 60.357 221.194 69.031 231.878 69.031Z" fill="url(#paint1_linear_9350_326090)"/>
</g>
<path d="M232.117 61.2834C232.508 61.2834 232.896 61.2062 233.258 61.0561C233.619 60.9061 233.948 60.6862 234.225 60.4089C234.502 60.1317 234.721 59.8025 234.871 59.4403C235.021 59.0781 235.098 58.6898 235.098 58.2977C235.098 57.5056 234.784 56.7458 234.225 56.1853C233.666 55.6248 232.908 55.3095 232.117 55.3086C231.325 55.3095 230.567 55.6247 230.007 56.1851C229.448 56.7455 229.133 57.5052 229.132 58.2977C229.138 59.0882 229.455 59.8445 230.013 60.4031C230.572 60.9618 231.327 61.278 232.117 61.2834Z" fill="#F9F9F8"/>
<path d="M232.117 53.8025C232.631 53.7988 233.126 53.6097 233.512 53.2698C233.898 52.9299 234.148 52.462 234.217 51.952L235.552 41.2557C235.592 40.958 235.567 40.6552 235.48 40.368C235.392 40.0808 235.243 39.8159 235.044 39.5917C234.844 39.3675 234.598 39.1891 234.324 39.0688C234.049 38.9485 233.751 38.8892 233.451 38.8949H230.772C230.473 38.8944 230.178 38.9572 229.906 39.0791C229.633 39.2011 229.389 39.3794 229.191 39.6024C228.992 39.8254 228.842 40.088 228.752 40.3729C228.662 40.6579 228.633 40.9587 228.667 41.2557L230.002 51.952C230.067 52.4662 230.319 52.9385 230.708 53.2795C231.098 53.6205 231.599 53.8066 232.117 53.8025Z" fill="#F9F9F8"/>
</g>
<g filter="url(#filter1_ii_9350_326090)">
<path d="M164 115.5C173.389 115.5 181 107.889 181 98.5C181 89.1112 173.389 81.5 164 81.5C154.611 81.5 147 89.1112 147 98.5C147 107.889 154.611 115.5 164 115.5Z" fill="url(#paint2_linear_9350_326090)"/>
</g>
<g filter="url(#filter2_ddii_9350_326090)">
<g filter="url(#filter3_i_9350_326090)">
<path d="M181 98.5C181 89.1112 173.389 81.5 164 81.5C154.611 81.5 147 89.1112 147 98.5C147 107.889 154.611 115.5 164 115.5C173.389 115.5 181 107.889 181 98.5Z" fill="url(#paint3_linear_9350_326090)"/>
</g>
<path d="M171.108 96.6818C170.895 96.4688 170.682 96.4155 170.415 96.4155C170.149 96.4155 169.883 96.5221 169.723 96.7351L164.983 101.528V88.0011C164.983 87.4686 164.557 86.9893 163.971 86.9893C163.386 86.9893 162.96 87.4153 162.96 88.0011V101.475L158.06 96.6818C157.847 96.4688 157.634 96.3623 157.368 96.4155C157.101 96.4155 156.835 96.5221 156.675 96.7351C156.303 97.1079 156.303 97.7469 156.675 98.173L163.279 104.67C163.332 104.723 163.386 104.723 163.386 104.777C163.545 104.883 163.758 104.936 163.971 104.936C164.025 104.936 164.078 104.936 164.184 104.936C164.238 104.936 164.291 104.936 164.344 104.883H164.397C164.451 104.83 164.504 104.83 164.557 104.777L171.108 98.173C171.321 97.96 171.374 97.7469 171.374 97.4807C171.427 97.1079 171.321 96.8416 171.108 96.6818Z" fill="white"/>
<path d="M169.457 105.362H158.326C157.794 105.362 157.314 105.788 157.314 106.374C157.314 106.96 157.741 107.386 158.326 107.386H169.457C169.989 107.386 170.469 106.96 170.469 106.374C170.469 105.788 169.989 105.362 169.457 105.362Z" fill="white"/>
</g>
<defs>
<filter id="filter0_di_9350_326090" x="211.791" y="25.9865" width="40.1736" height="44.3686" filterUnits="userSpaceOnUse" color-interpolation-filters="sRGB">
<feFlood flood-opacity="0" result="BackgroundImageFix"/>
<feColorMatrix in="SourceAlpha" type="matrix" values="0 0 0 0 0 0 0 0 0 0 0 0 0 0 0 0 0 0 127 0" result="hardAlpha"/>
<feOffset dy="0.582181"/>
<feGaussianBlur stdDeviation="0.370816"/>
<feComposite in2="hardAlpha" operator="out"/>
<feColorMatrix type="matrix" values="0 0 0 0 0 0 0 0 0 0 0 0 0 0 0 0 0 0 0.25 0"/>
<feBlend mode="normal" in2="BackgroundImageFix" result="effect1_dropShadow_9350_326090"/>
<feBlend mode="normal" in="SourceGraphic" in2="effect1_dropShadow_9350_326090" result="shape"/>
<feColorMatrix in="SourceAlpha" type="matrix" values="0 0 0 0 0 0 0 0 0 0 0 0 0 0 0 0 0 0 127 0" result="hardAlpha"/>
<feOffset dy="-4.29673"/>
<feGaussianBlur stdDeviation="2.38707"/>
<feComposite in2="hardAlpha" operator="arithmetic" k2="-1" k3="1"/>
<feColorMatrix type="matrix" values="0 0 0 0 0 0 0 0 0 0 0 0 0 0 0 0 0 0 0.15 0"/>
<feBlend mode="normal" in2="shape" result="effect2_innerShadow_9350_326090"/>
</filter>
<filter id="filter1_ii_9350_326090" x="147" y="79.7951" width="34" height="36.8414" filterUnits="userSpaceOnUse" color-interpolation-filters="sRGB">
<feFlood flood-opacity="0" result="BackgroundImageFix"/>
<feBlend mode="normal" in="SourceGraphic" in2="BackgroundImageFix" result="shape"/>
<feColorMatrix in="SourceAlpha" type="matrix" values="0 0 0 0 0 0 0 0 0 0 0 0 0 0 0 0 0 0 127 0" result="hardAlpha"/>
<feOffset dy="-1.70485"/>
<feGaussianBlur stdDeviation="0.947141"/>
<feComposite in2="hardAlpha" operator="arithmetic" k2="-1" k3="1"/>
<feColorMatrix type="matrix" values="0 0 0 0 0 0 0 0 0 0 0 0 0 0 0 0 0 0 0.15 0"/>
<feBlend mode="normal" in2="shape" result="effect1_innerShadow_9350_326090"/>
<feColorMatrix in="SourceAlpha" type="matrix" values="0 0 0 0 0 0 0 0 0 0 0 0 0 0 0 0 0 0 127 0" result="hardAlpha"/>
<feOffset dy="1.13657"/>
<feGaussianBlur stdDeviation="0.757713"/>
<feComposite in2="hardAlpha" operator="arithmetic" k2="-1" k3="1"/>
<feColorMatrix type="matrix" values="0 0 0 0 1 0 0 0 0 1 0 0 0 0 1 0 0 0 0.25 0"/>
<feBlend mode="normal" in2="effect1_innerShadow_9350_326090" result="effect2_innerShadow_9350_326090"/>
</filter>
<filter id="filter2_ddii_9350_326090" x="146.276" y="79.479" width="37.2442" height="38.8413" filterUnits="userSpaceOnUse" color-interpolation-filters="sRGB">
<feFlood flood-opacity="0" result="BackgroundImageFix"/>
<feColorMatrix in="SourceAlpha" type="matrix" values="0 0 0 0 0 0 0 0 0 0 0 0 0 0 0 0 0 0 127 0" result="hardAlpha"/>
<feOffset dy="0.273835"/>
<feGaussianBlur stdDeviation="0.174417"/>
<feComposite in2="hardAlpha" operator="out"/>
<feColorMatrix type="matrix" values="0 0 0 0 0 0 0 0 0 0 0 0 0 0 0 0 0 0 0.25 0"/>
<feBlend mode="normal" in2="BackgroundImageFix" result="effect1_dropShadow_9350_326090"/>
<feColorMatrix in="SourceAlpha" type="matrix" values="0 0 0 0 0 0 0 0 0 0 0 0 0 0 0 0 0 0 127 0" result="hardAlpha"/>
<feOffset dx="0.898227" dy="1.19825"/>
<feGaussianBlur stdDeviation="0.81104"/>
<feComposite in2="hardAlpha" operator="out"/>
<feColorMatrix type="matrix" values="0 0 0 0 0 0 0 0 0 0 0 0 0 0 0 0 0 0 0.1 0"/>
<feBlend mode="normal" in2="effect1_dropShadow_9350_326090" result="effect2_dropShadow_9350_326090"/>
<feBlend mode="normal" in="SourceGraphic" in2="effect2_dropShadow_9350_326090" result="shape"/>
<feColorMatrix in="SourceAlpha" type="matrix" values="0 0 0 0 0 0 0 0 0 0 0 0 0 0 0 0 0 0 127 0" result="hardAlpha"/>
<feOffset dy="-2.02101"/>
<feGaussianBlur stdDeviation="1.12278"/>
<feComposite in2="hardAlpha" operator="arithmetic" k2="-1" k3="1"/>
<feColorMatrix type="matrix" values="0 0 0 0 0 0 0 0 0 0 0 0 0 0 0 0 0 0 0.15 0"/>
<feBlend mode="normal" in2="shape" result="effect3_innerShadow_9350_326090"/>
<feColorMatrix in="SourceAlpha" type="matrix" values="0 0 0 0 0 0 0 0 0 0 0 0 0 0 0 0 0 0 127 0" result="hardAlpha"/>
<feOffset dy="1.34734"/>
<feGaussianBlur stdDeviation="0.898227"/>
<feComposite in2="hardAlpha" operator="arithmetic" k2="-1" k3="1"/>
<feColorMatrix type="matrix" values="0 0 0 0 1 0 0 0 0 1 0 0 0 0 1 0 0 0 0.25 0"/>
<feBlend mode="normal" in2="effect3_innerShadow_9350_326090" result="effect4_innerShadow_9350_326090"/>
</filter>
<filter id="filter3_i_9350_326090" x="147" y="81.5" width="34" height="34.9747" filterUnits="userSpaceOnUse" color-interpolation-filters="sRGB">
<feFlood flood-opacity="0" result="BackgroundImageFix"/>
<feBlend mode="normal" in="SourceGraphic" in2="BackgroundImageFix" result="shape"/>
<feColorMatrix in="SourceAlpha" type="matrix" values="0 0 0 0 0 0 0 0 0 0 0 0 0 0 0 0 0 0 127 0" result="hardAlpha"/>
<feOffset dy="0.974697"/>
<feGaussianBlur stdDeviation="0.649798"/>
<feComposite in2="hardAlpha" operator="arithmetic" k2="-1" k3="1"/>
<feColorMatrix type="matrix" values="0 0 0 0 1 0 0 0 0 1 0 0 0 0 1 0 0 0 0.25 0"/>
<feBlend mode="normal" in2="shape" result="effect1_innerShadow_9350_326090"/>
</filter>
<linearGradient id="paint0_linear_9350_326090" x1="183.563" y1="231.987" x2="143.429" y2="-57.4141" gradientUnits="userSpaceOnUse">
<stop stop-color="#737373"/>
<stop offset="0.25" stop-color="#969695"/>
<stop offset="0.58" stop-color="#BFBDBC"/>
<stop offset="0.84" stop-color="#D8D6D4"/>
<stop offset="1" stop-color="#E1DFDD"/>
</linearGradient>
<linearGradient id="paint1_linear_9350_326090" x1="246.341" y1="30.2832" x2="200.397" y2="34.5937" gradientUnits="userSpaceOnUse">
<stop stop-color="#F31D34"/>
<stop offset="1" stop-color="#EE6CA3"/>
</linearGradient>
<linearGradient id="paint2_linear_9350_326090" x1="206.21" y1="95.1082" x2="159.708" y2="50.0905" gradientUnits="userSpaceOnUse">
<stop stop-color="#278FF1"/>
<stop offset="1" stop-color="#005FB8"/>
</linearGradient>
<linearGradient id="paint3_linear_9350_326090" x1="140.903" y1="91.5484" x2="185.474" y2="89.9058" gradientUnits="userSpaceOnUse">
<stop stop-color="#CECECE"/>
<stop offset="1" stop-color="#DCDCDC"/>
</linearGradient>
<clipPath id="clip0_9350_326090">
<rect width="245.403" height="194.816" fill="white" transform="translate(41.6499 0.68457)"/>
</clipPath>
</defs>
</svg>
