<svg width="" height="" viewBox="0 0 329 196" fill="none" xmlns="http://www.w3.org/2000/svg">
<g clip-path="url(#clip0_5510_362272)">
<path d="M86.41 43.1992H243.466C244.516 43.1992 245.523 43.6052 246.265 44.3279C247.007 45.0506 247.424 46.0307 247.424 47.0527V155.676H82.4524V47.0527C82.4524 46.0307 82.8694 45.0506 83.6115 44.3279C84.3537 43.6052 85.3604 43.1992 86.41 43.1992Z" fill="url(#paint0_linear_5510_362272)"/>
<path d="M241.162 49.5518H88.7944C87.7184 49.5518 86.8462 50.4253 86.8462 51.5028V141.402C86.8462 142.48 87.7184 143.353 88.7944 143.353H241.162C242.238 143.353 243.11 142.48 243.11 141.402V51.5028C243.11 50.4253 242.238 49.5518 241.162 49.5518Z" fill="#F1F1F1"/>
<path d="M254.324 156.473L75.6355 156.473C74.6037 156.473 73.6141 156.062 72.8845 155.331C72.1549 154.601 71.745 153.61 71.745 152.576V148.524L258.214 148.524V152.576C258.214 153.61 257.804 154.601 257.075 155.331C256.345 156.062 255.356 156.473 254.324 156.473Z" fill="#BABABA"/>
</g>
<g filter="url(#filter0_ii_5510_362272)">
<path d="M164.5 115.5C173.889 115.5 181.5 107.889 181.5 98.5C181.5 89.1112 173.889 81.5 164.5 81.5C155.111 81.5 147.5 89.1112 147.5 98.5C147.5 107.889 155.111 115.5 164.5 115.5Z" fill="url(#paint1_linear_5510_362272)"/>
</g>
<g filter="url(#filter1_dd_5510_362272)">
<path d="M171.608 96.6818C171.395 96.4688 171.182 96.4155 170.915 96.4155C170.649 96.4155 170.383 96.5221 170.223 96.7351L165.483 101.528V88.0011C165.483 87.4686 165.057 86.9893 164.471 86.9893C163.886 86.9893 163.46 87.4153 163.46 88.0011V101.475L158.56 96.6818C158.347 96.4688 158.134 96.3623 157.868 96.4155C157.601 96.4155 157.335 96.5221 157.175 96.7351C156.803 97.1079 156.803 97.7469 157.175 98.173L163.779 104.67C163.832 104.723 163.886 104.723 163.886 104.777C164.045 104.883 164.258 104.936 164.471 104.936C164.525 104.936 164.578 104.936 164.684 104.936C164.738 104.936 164.791 104.936 164.844 104.883H164.897C164.951 104.83 165.004 104.83 165.057 104.777L171.608 98.173C171.821 97.96 171.874 97.7469 171.874 97.4807C171.927 97.1079 171.821 96.8416 171.608 96.6818Z" fill="white"/>
</g>
<g filter="url(#filter2_dd_5510_362272)">
<path d="M169.957 105.362H158.826C158.294 105.362 157.814 105.788 157.814 106.374C157.814 106.96 158.241 107.386 158.826 107.386H169.957C170.489 107.386 170.969 106.96 170.969 106.374C170.969 105.788 170.489 105.362 169.957 105.362Z" fill="white"/>
</g>
<defs>
<filter id="filter0_ii_5510_362272" x="147.5" y="79.7951" width="34" height="36.8414" filterUnits="userSpaceOnUse" color-interpolation-filters="sRGB">
<feFlood flood-opacity="0" result="BackgroundImageFix"/>
<feBlend mode="normal" in="SourceGraphic" in2="BackgroundImageFix" result="shape"/>
<feColorMatrix in="SourceAlpha" type="matrix" values="0 0 0 0 0 0 0 0 0 0 0 0 0 0 0 0 0 0 127 0" result="hardAlpha"/>
<feOffset dy="-1.70485"/>
<feGaussianBlur stdDeviation="0.947141"/>
<feComposite in2="hardAlpha" operator="arithmetic" k2="-1" k3="1"/>
<feColorMatrix type="matrix" values="0 0 0 0 0 0 0 0 0 0 0 0 0 0 0 0 0 0 0.15 0"/>
<feBlend mode="normal" in2="shape" result="effect1_innerShadow_5510_362272"/>
<feColorMatrix in="SourceAlpha" type="matrix" values="0 0 0 0 0 0 0 0 0 0 0 0 0 0 0 0 0 0 127 0" result="hardAlpha"/>
<feOffset dy="1.13657"/>
<feGaussianBlur stdDeviation="0.757713"/>
<feComposite in2="hardAlpha" operator="arithmetic" k2="-1" k3="1"/>
<feColorMatrix type="matrix" values="0 0 0 0 1 0 0 0 0 1 0 0 0 0 1 0 0 0 0.25 0"/>
<feBlend mode="normal" in2="effect1_innerShadow_5510_362272" result="effect2_innerShadow_5510_362272"/>
</filter>
<filter id="filter1_dd_5510_362272" x="152.953" y="84.7988" width="22.8775" height="25.833" filterUnits="userSpaceOnUse" color-interpolation-filters="sRGB">
<feFlood flood-opacity="0" result="BackgroundImageFix"/>
<feColorMatrix in="SourceAlpha" type="matrix" values="0 0 0 0 0 0 0 0 0 0 0 0 0 0 0 0 0 0 127 0" result="hardAlpha"/>
<feOffset dy="0.328571"/>
<feGaussianBlur stdDeviation="0.492857"/>
<feColorMatrix type="matrix" values="0 0 0 0 0 0 0 0 0 0 0 0 0 0 0 0 0 0 0.18 0"/>
<feBlend mode="normal" in2="BackgroundImageFix" result="effect1_dropShadow_5510_362272"/>
<feColorMatrix in="SourceAlpha" type="matrix" values="0 0 0 0 0 0 0 0 0 0 0 0 0 0 0 0 0 0 127 0" result="hardAlpha"/>
<feOffset dy="1.75238"/>
<feGaussianBlur stdDeviation="1.97143"/>
<feColorMatrix type="matrix" values="0 0 0 0 0 0 0 0 0 0 0 0 0 0 0 0 0 0 0.22 0"/>
<feBlend mode="normal" in2="effect1_dropShadow_5510_362272" result="effect2_dropShadow_5510_362272"/>
<feBlend mode="normal" in="SourceGraphic" in2="effect2_dropShadow_5510_362272" result="shape"/>
</filter>
<filter id="filter2_dd_5510_362272" x="153.872" y="103.172" width="21.0399" height="9.90915" filterUnits="userSpaceOnUse" color-interpolation-filters="sRGB">
<feFlood flood-opacity="0" result="BackgroundImageFix"/>
<feColorMatrix in="SourceAlpha" type="matrix" values="0 0 0 0 0 0 0 0 0 0 0 0 0 0 0 0 0 0 127 0" result="hardAlpha"/>
<feOffset dy="0.328571"/>
<feGaussianBlur stdDeviation="0.492857"/>
<feColorMatrix type="matrix" values="0 0 0 0 0 0 0 0 0 0 0 0 0 0 0 0 0 0 0.18 0"/>
<feBlend mode="normal" in2="BackgroundImageFix" result="effect1_dropShadow_5510_362272"/>
<feColorMatrix in="SourceAlpha" type="matrix" values="0 0 0 0 0 0 0 0 0 0 0 0 0 0 0 0 0 0 127 0" result="hardAlpha"/>
<feOffset dy="1.75238"/>
<feGaussianBlur stdDeviation="1.97143"/>
<feColorMatrix type="matrix" values="0 0 0 0 0 0 0 0 0 0 0 0 0 0 0 0 0 0 0.22 0"/>
<feBlend mode="normal" in2="effect1_dropShadow_5510_362272" result="effect2_dropShadow_5510_362272"/>
<feBlend mode="normal" in="SourceGraphic" in2="effect2_dropShadow_5510_362272" result="shape"/>
</filter>
<linearGradient id="paint0_linear_5510_362272" x1="184.063" y1="231.987" x2="143.929" y2="-57.4141" gradientUnits="userSpaceOnUse">
<stop stop-color="#737373"/>
<stop offset="0.25" stop-color="#969695"/>
<stop offset="0.58" stop-color="#BFBDBC"/>
<stop offset="0.84" stop-color="#D8D6D4"/>
<stop offset="1" stop-color="#E1DFDD"/>
</linearGradient>
<linearGradient id="paint1_linear_5510_362272" x1="206.71" y1="95.1082" x2="160.208" y2="50.0905" gradientUnits="userSpaceOnUse">
<stop stop-color="#278FF1"/>
<stop offset="1" stop-color="#005FB8"/>
</linearGradient>
<clipPath id="clip0_5510_362272">
<rect width="245.403" height="194.816" fill="white" transform="translate(42.1499 0.68457)"/>
</clipPath>
</defs>
</svg>
