<svg viewBox="0 0 48 48" fill="none" xmlns="http://www.w3.org/2000/svg">
<circle cx="24" cy="24" r="24" fill="#E1DFDD"/>
<path d="M30.3437 26.0419C31.767 26.0419 32.9206 27.1955 32.9206 28.6187V29.2781C32.9206 30.3028 32.5544 31.2937 31.8881 32.0722C30.0898 34.1731 27.3545 35.2098 23.7505 35.2098C20.1458 35.2098 17.4118 34.1727 15.6171 32.0709C14.9528 31.293 14.5878 30.3036 14.5878 29.2806V28.6187C14.5878 27.1955 15.7415 26.0419 17.1647 26.0419H30.3437ZM30.3437 27.7606H17.1647C16.6908 27.7606 16.3066 28.1448 16.3066 28.6187V29.2806C16.3066 29.8944 16.5256 30.4881 16.9241 30.9548C18.3602 32.6365 20.6128 33.4911 23.7505 33.4911C26.8881 33.4911 29.1427 32.6365 30.5823 30.9545C30.9822 30.4874 31.2018 29.8928 31.2018 29.2781V28.6187C31.2018 28.1448 30.8176 27.7606 30.3437 27.7606ZM23.7505 12.2972C26.9146 12.2972 29.4796 14.8623 29.4796 18.0264C29.4796 21.1905 26.9146 23.7556 23.7505 23.7556C20.5863 23.7556 18.0213 21.1905 18.0213 18.0264C18.0213 14.8623 20.5863 12.2972 23.7505 12.2972ZM23.7505 14.016C21.5356 14.016 19.74 15.8115 19.74 18.0264C19.74 20.2413 21.5356 22.0368 23.7505 22.0368C25.9654 22.0368 27.7609 20.2413 27.7609 18.0264C27.7609 15.8115 25.9654 14.016 23.7505 14.016Z" fill="#919191"/>
</svg>
