<!-- Exported by Character Map UWP -->
<svg height="100%" viewBox="-224 288 1472 736" width="100%" xmlns="http://www.w3.org/2000/svg" xmlns:xlink="http://www.w3.org/1999/xlink">
  <path d="M947,581C945.667,577.667 944.333,572.333 943,565L941,549L939.5,549C938.5,560.667 936.333,571 933,580L894.5,699.5L985.5,699.5ZM1029,840L1003.5,761L878,761L853,840L766.5,840L895,486L989.5,486L1115.5,840ZM691,551L691,840L611,840L611,551L510.5,551L510.5,486L792,486L792,551ZM269,840L269,486L473.5,486L473.5,551L349,551L349,629.5L465,629.5L465,694L349,694L349,775L482,781L482,840ZM25,781L68,781C75.6667,781 83.1667,780 90.5,778C98.5,775.667 104.833,772.833 109.5,769.5C114.5,765.833 118.833,761 122.5,755C125.833,748.333 127.5,741 127.5,733C127.5,724.333 125.833,717.167 122.5,711.5C118.833,705.833 114.333,701.167 109,697.5C103.333,694.5 97.1667,692 90.5,690C82.8333,688.333 75.6667,687.5 69,687.5L25,687.5ZM25,628.5L60,628.5C74.6667,628.5 87.1667,625 97.5,618C107.833,610.667 113,599.333 113,584C113,575.667 111.167,568.833 107.5,563.5C103.5,557.833 99,553.833 94,551.5C89.3333,548.833 83.1667,547 75.5,546C68.5,545 61.6667,544.5 55,544.5L25,544.5ZM-55,486L74,486C86,486 100.167,487.167 116.5,489.5C130.833,491.5 143.833,495.667 155.5,502C168.167,508 178.167,516.5 185.5,527.5C193.167,537.5 197,551.333 197,569C197,579.333 195.167,588.667 191.5,597C188.167,605.333 183.167,613.167 176.5,620.5C170.5,627.167 163.167,633 154.5,638C147.167,642.667 138.5,646.333 128.5,649L128.5,650C139.5,651.333 150.167,654.167 160.5,658.5C171.167,662.833 180,668.667 187,676C194.667,683.667 200.5,692.167 204.5,701.5C208.833,711.167 211,722 211,734C211,753 207.333,769.167 200,782.5C193.333,796.167 183.667,807.167 171,815.5C159.333,823.833 145.667,830 130,834C114,838 97.8333,840 81.5,840L-55,840ZM-157,288C-166.667,288.333 -175.5,290.167 -183.5,293.5C-191.167,296.5 -198.167,301.167 -204.5,307.5C-210.5,313.5 -215.333,320.667 -219,329C-222.333,336.667 -224,345.333 -224,355L-224,957C-223.667,966.667 -221.833,975.5 -218.5,983.5C-215.5,991.167 -210.833,998.167 -204.5,1004.5C-198.5,1010.5 -191.333,1015.33 -183,1019C-175.333,1022.33 -166.667,1024 -157,1024L1181,1024C1190.67,1023.67 1199.5,1021.83 1207.5,1018.5C1215.17,1015.5 1222.17,1010.83 1228.5,1004.5C1234.5,998.5 1239.33,991.333 1243,983C1246.33,975.333 1248,966.667 1248,957L1248,355C1247.67,345.333 1245.83,336.5 1242.5,328.5C1239.5,320.833 1234.83,313.833 1228.5,307.5C1222.5,301.5 1215.33,296.667 1207,293C1199.33,289.667 1190.67,288 1181,288ZM947,581C945.667,577.667 944.333,572.333 943,565L941,549L939.5,549C938.5,560.667 936.333,571 933,580L894.5,699.5L985.5,699.5ZM1029,840L1003.5,761L878,761L853,840L766.5,840L895,486L989.5,486L1115.5,840ZM691,551L691,840L611,840L611,551L510.5,551L510.5,486L792,486L792,551ZM269,840L269,486L473.5,486L473.5,551L349,551L349,629.5L465,629.5L465,694L349,694L349,775L482,781L482,840ZM25,781L68,781C75.6667,781 83.1667,780 90.5,778C98.5,775.667 104.833,772.833 109.5,769.5C114.5,765.833 118.833,761 122.5,755C125.833,748.333 127.5,741 127.5,733C127.5,724.333 125.833,717.167 122.5,711.5C118.833,705.833 114.333,701.167 109,697.5C103.333,694.5 97.1667,692 90.5,690C82.8333,688.333 75.6667,687.5 69,687.5L25,687.5ZM25,628.5L60,628.5C74.6667,628.5 87.1667,625 97.5,618C107.833,610.667 113,599.333 113,584C113,575.667 111.167,568.833 107.5,563.5C103.5,557.833 99,553.833 94,551.5C89.3333,548.833 83.1667,547 75.5,546C68.5,545 61.6667,544.5 55,544.5L25,544.5ZM-55,486L74,486C86,486 100.167,487.167 116.5,489.5C130.833,491.5 143.833,495.667 155.5,502C168.167,508 178.167,516.5 185.5,527.5C193.167,537.5 197,551.333 197,569C197,579.333 195.167,588.667 191.5,597C188.167,605.333 183.167,613.167 176.5,620.5C170.5,627.167 163.167,633 154.5,638C147.167,642.667 138.5,646.333 128.5,649L128.5,650C139.5,651.333 150.167,654.167 160.5,658.5C171.167,662.833 180,668.667 187,676C194.667,683.667 200.5,692.167 204.5,701.5C208.833,711.167 211,722 211,734C211,753 207.333,769.167 200,782.5C193.333,796.167 183.667,807.167 171,815.5C159.333,823.833 145.667,830 130,834C114,838 97.8333,840 81.5,840L-55,840ZM-157,288C-166.667,288.333 -175.5,290.167 -183.5,293.5C-191.167,296.5 -198.167,301.167 -204.5,307.5C-210.5,313.5 -215.333,320.667 -219,329C-222.333,336.667 -224,345.333 -224,355L-224,957C-223.667,966.667 -221.833,975.5 -218.5,983.5C-215.5,991.167 -210.833,998.167 -204.5,1004.5C-198.5,1010.5 -191.333,1015.33 -183,1019C-175.333,1022.33 -166.667,1024 -157,1024L1181,1024C1190.67,1023.67 1199.5,1021.83 1207.5,1018.5C1215.17,1015.5 1222.17,1010.83 1228.5,1004.5C1234.5,998.5 1239.33,991.333 1243,983C1246.33,975.333 1248,966.667 1248,957L1248,355C1247.67,345.333 1245.83,336.5 1242.5,328.5C1239.5,320.833 1234.83,313.833 1228.5,307.5C1222.5,301.5 1215.33,296.667 1207,293C1199.33,289.667 1190.67,288 1181,288Z" fill="#FFFFFF" fill-opacity="1">
  </path>
</svg>