<svg xmlns="http://www.w3.org/2000/svg" fill="none" viewBox="0 0 16 16">
  <path fill="#FAFAFA" d="M12 .5H4A1.5 1.5 0 002.5 2v12A1.5 1.5 0 004 15.5h8a1.5 1.5 0 001.5-1.5V2A1.5 1.5 0 0012 .5z"/>
  <path fill="#555" fill-rule="evenodd" d="M2 2a2 2 0 012-2h8a2 2 0 012 2v12a2 2 0 01-2 2H4a2 2 0 01-2-2V2zm2-1a1 1 0 00-1 1v12a1 1 0 001 1h8a1 1 0 001-1V2a1 1 0 00-1-1H4z" clip-rule="evenodd"/>
  <path fill="#0078D4" fill-rule="evenodd" d="M4 5a1 1 0 011-1h1a1 1 0 011 1v1a1 1 0 01-1 1H5a1 1 0 01-1-1V5zm2 0H5v1h1V5zM4 10a1 1 0 011-1h1a1 1 0 011 1v1a1 1 0 01-1 1H5a1 1 0 01-1-1v-1zm2 0H5v1h1v-1zM8 5.5a.5.5 0 01.5-.5h3a.5.5 0 010 1h-3a.5.5 0 01-.5-.5zm0 5a.5.5 0 01.5-.5h3a.5.5 0 010 1h-3a.5.5 0 01-.5-.5z" clip-rule="evenodd"/>
</svg>
