<svg width="72" height="64" viewBox="0 0 72 64" fill="none" xmlns="http://www.w3.org/2000/svg">
<path d="M64.9844 10.4691C64.986 9.92318 64.7862 9.39842 64.4279 9.00684C64.0695 8.61526 63.5809 8.38802 63.0667 8.37377C54.0127 8.17187 50.8096 6.51301 46.3469 3.31536C43.305 1.09287 39.6846 -0.0653447 35.9921 0.00294487C32.2995 -0.0664422 28.6791 1.09188 25.6375 3.31536C21.1697 6.51301 17.9665 8.17733 8.91248 8.37377C8.39877 8.38804 7.91089 8.61537 7.55333 9.00711C7.19577 9.39884 6.99716 9.92368 7.00003 10.4691V24.3129C7.00295 26.4798 7.20089 28.6414 7.59124 30.7683C10.0283 44.2792 20.0077 54.5596 34.9794 63.716C35.2919 63.907 35.6471 64.0051 36.0077 63.9998C36.2208 63.9981 36.4323 63.9612 36.6348 63.8906C36.7672 63.8473 36.8949 63.7889 37.0154 63.716C51.9871 54.5596 61.9665 44.2792 64.4035 30.7683C64.4652 30.43 64.5165 30.097 64.568 29.7587C64.8492 27.955 64.9938 26.1302 65 24.302L64.9844 10.4691Z" fill="#F5F5F5"/>
<path d="M62.9855 11.8148C62.9869 11.303 62.801 10.811 62.4673 10.4439C62.1337 10.0768 61.6788 9.86377 61.2 9.85041C52.7705 9.66113 49.7883 8.10595 45.6333 5.10815C42.8012 3.02457 39.4305 1.93874 35.9927 2.00276C32.5547 1.93771 29.184 3.02363 26.3522 5.10815C22.1925 8.10595 19.2102 9.66625 10.7806 9.85041C10.3023 9.86379 9.84807 10.0769 9.51517 10.4442C9.18227 10.8114 8.99736 11.3035 9.00003 11.8148V24.7933C9.00275 26.8248 9.18703 28.8513 9.55046 30.8453C11.8194 43.5117 21.1106 53.1496 35.0498 61.7338C35.3407 61.9128 35.6714 62.0047 36.0071 61.9998C36.2056 61.9983 36.4025 61.9636 36.591 61.8974C36.7143 61.8569 36.8332 61.802 36.9453 61.7338C50.8845 53.1496 60.1757 43.5117 62.4447 30.8453C62.5021 30.5281 62.5499 30.216 62.5978 29.8988C62.8596 28.2078 62.9943 26.4971 63 24.7831L62.9855 11.8148Z" fill="url(#paint0_linear_2681_55942)"/>
<rect x="33" y="16" width="6" height="19" rx="3" fill="white"/>
<rect width="6" height="6" rx="3" transform="matrix(1 0 0 -1 33 45)" fill="white"/>
<defs>
<linearGradient id="paint0_linear_2681_55942" x1="-5.77658" y1="19.2714" x2="15.3886" y2="80.4002" gradientUnits="userSpaceOnUse">
<stop stop-color="#F4CF40"/>
<stop offset="1" stop-color="#FA8B3D"/>
</linearGradient>
</defs>
</svg>
