<svg width="20" height="20" viewBox="0 0 20 20" fill="none" xmlns="http://www.w3.org/2000/svg">
<path d="M16.0001 15.5C16.0001 17.433 13.3138 19 10.0001 19C6.68636 19 4.00007 17.433 4.00007 15.5C4.00007 13.567 4 13.5 4 13.5H16.0001C16.0001 13.5 16.0001 14.5963 16.0001 15.5Z" fill="url(#paint0_linear_56_1076)"/>
<ellipse cx="10" cy="13.5" rx="6" ry="3.5" fill="url(#paint1_linear_56_1076)"/>
<path d="M16.0001 11.5C16.0001 13.433 13.3138 15 10.0001 15C6.68636 15 4.00007 13.433 4.00007 11.5C4.00007 9.567 4 9.5 4 9.5H16.0001C16.0001 9.5 16.0001 10.5963 16.0001 11.5Z" fill="url(#paint2_linear_56_1076)"/>
<ellipse cx="10" cy="9.5" rx="6" ry="3.5" fill="url(#paint3_linear_56_1076)"/>
<path d="M16.0001 7.5C16.0001 9.433 13.3138 11 10.0001 11C6.68636 11 4.00007 9.433 4.00007 7.5C4.00007 5.567 4 5.5 4 5.5H16.0001C16.0001 5.5 16.0001 6.59628 16.0001 7.5Z" fill="url(#paint4_linear_56_1076)"/>
<ellipse cx="10" cy="5.5" rx="6" ry="3.5" fill="url(#paint5_linear_56_1076)"/>
<defs>
<linearGradient id="paint0_linear_56_1076" x1="7.18285" y1="14.8497" x2="9.22313" y2="19.3062" gradientUnits="userSpaceOnUse">
<stop stop-color="#FFA43D"/>
<stop offset="1" stop-color="#FB5937"/>
</linearGradient>
<linearGradient id="paint1_linear_56_1076" x1="16.0172" y1="16.9973" x2="9.60413" y2="8.00389" gradientUnits="userSpaceOnUse">
<stop stop-color="#FF8A69"/>
<stop offset="1" stop-color="#FFCD0F"/>
</linearGradient>
<linearGradient id="paint2_linear_56_1076" x1="7.18285" y1="10.8497" x2="9.22313" y2="15.3062" gradientUnits="userSpaceOnUse">
<stop stop-color="#FFA43D"/>
<stop offset="1" stop-color="#FB5937"/>
</linearGradient>
<linearGradient id="paint3_linear_56_1076" x1="16.0172" y1="12.9973" x2="9.60413" y2="4.00389" gradientUnits="userSpaceOnUse">
<stop stop-color="#FF8A69"/>
<stop offset="1" stop-color="#FFCD0F"/>
</linearGradient>
<linearGradient id="paint4_linear_56_1076" x1="7.18285" y1="6.84971" x2="9.22313" y2="11.3062" gradientUnits="userSpaceOnUse">
<stop stop-color="#FFA43D"/>
<stop offset="1" stop-color="#FB5937"/>
</linearGradient>
<linearGradient id="paint5_linear_56_1076" x1="16.0172" y1="8.99728" x2="9.60413" y2="0.00389416" gradientUnits="userSpaceOnUse">
<stop stop-color="#FF8A69"/>
<stop offset="1" stop-color="#FFCD0F"/>
</linearGradient>
</defs>
</svg>
