<svg xmlns="http://www.w3.org/2000/svg" viewBox="0 0 196 136">
  <defs>
    <linearGradient id="a" x1=".6159279" x2=".37264967" y1="1.6784601" y2="-.894525" gradientUnits="objectBoundingBox">
      <stop offset="0%" stop-color="#737373"/>
      <stop offset="25%" stop-color="#969695"/>
      <stop offset="58%" stop-color="#BFBDBC"/>
      <stop offset="84%" stop-color="#D8D6D4"/>
      <stop offset="100%" stop-color="#E1DFDD"/>
    </linearGradient>
    <linearGradient id="b" x1=".5002184" x2=".5002184" y1=".9777827" y2=".04513216" gradientUnits="objectBoundingBox">
      <stop offset="0%" stop-color="#FFFFFF"/>
      <stop offset="44.11%" stop-color="#EDF3FF"/>
      <stop offset="99.88839%" stop-color="#DEE8FF"/>
    </linearGradient>
    <linearGradient id="c" x1=".7499056" x2=".24959135" y1=".933491" y2=".06698078" gradientUnits="objectBoundingBox">
      <stop offset="0%" stop-color="#00C0A5"/>
      <stop offset="51.3157%" stop-color="#3CD6C1"/>
      <stop offset="100%" stop-color="#74EBDB"/>
    </linearGradient>
  </defs>
  <path fill="none" d="M0 0h196v136H0V0Z"/>
  <path fill="url(#a)" d="M14.665 0h157.056c1.05 0 2.057.406001 2.799 1.1287.742.7227 1.159 1.7028 1.159 2.7248V112.477H10.7074V3.8535c0-1.022.417-2.0021 1.1591-2.7248C12.6087.406001 13.6154 0 14.665 0Z" transform="translate(4.6958346 11.229168)"/>
  <path fill="url(#b)" d="M169.417 6.3526H17.0494c-1.076 0-1.9482.8735-1.9482 1.951v89.8992c0 1.078.8722 1.9512 1.9482 1.9512H169.417c1.076 0 1.948-.8732 1.948-1.9512V8.3036c0-1.0775-.872-1.951-1.948-1.951Z" transform="translate(4.6958346 11.229168)"/>
  <path fill="#BABABA" d="M187.2748346 124.503168h-178.6885c-1.0318 0-2.02141-.411-2.751-1.142-.729603-.73-1.13949988-1.721-1.13949988-2.755v-4.052H191.1648346v4.052c0 1.034-.41 2.025-1.139 2.755-.73.731-1.719 1.142-2.751 1.142Z"/>
  <path fill="url(#c)" d="M19.9992 40.0007C31.0454 40.0007 40 31.0463 40 20.0004 40 8.95445 31.0454 0 19.9992 0 8.95296 0 0 8.95445 0 20.0004c0 11.0459 8.95296 20.0003 19.9992 20.0003Z" transform="translate(77.9303346 47.865704)"/>
  <path fill="#FFFFFF" d="M105.9138346 62.100504c-.2095-.2057-.4877-.328-.781-.3439-.295-.016-.5832.0759-.8145.2579l-.0989.086-9.677 9.5781-3.4625-3.425c-.2246-.2209-.5279-.3449-.8447-.3449-.3167 0-.6201.124-.8446.3449-.2079.2065-.3319.4813-.3487.7723-.015.2909.0772.5777.2615.8053l.0872.0977 4.3071 4.2582c.2079.2057.4861.328.7794.3439.2949.016.5849-.0759.8145-.2579l.0955-.086 10.5267-10.4112c.2229-.2224.3503-.5237.3503-.8378 0-.3141-.1274-.6152-.3503-.8376Z"/>
</svg>
