<!-- Exported by Character Map UWP -->
<svg height="100%" viewBox="0 0 1024 1024" width="100%" xmlns="http://www.w3.org/2000/svg" xmlns:xlink="http://www.w3.org/1999/xlink">
  <path d="M391.5,607.5C388.833,614.5 385.167,625.333 380.5,640L128,640C118.333,640 110,641.667 103,645C95,648.667 88.3333,653.167 83,658.5C77,664.5 72.3333,671.333 69,679C65.6667,686.667 64,694.167 64,701.5C64,737.5 69.5,768 80.5,793C91.8333,819 107,841.333 126,860C146,879.667 168.167,895.5 192.5,907.5C218.5,920.5 245.167,930.833 272.5,938.5C301.167,946.5 330,952 359,955C386.667,957.667 415,959.333 444,960C453,971.333 462.5,982.333 472.5,993C481.5,1002.33 492.333,1012 505,1022L476.5,1023.5C470.167,1023.83 460.667,1024 448,1024C404.333,1024 360.667,1021 317,1015C273,1009 231,996.833 191,978.5C161.667,965.167 135.333,949.5 112,931.5C88.3333,913.167 68.3333,892.5 52,869.5C35.3333,845.5 22.5,820 13.5,793C4.5,765.333 0,734.833 0,701.5C0,685.167 3.33333,669.333 10,654C16.3333,639.333 25.5,626 37.5,614C49.5,602 62.8333,592.833 77.5,586.5C92.5,579.833 108.5,576.333 125.5,576L404.5,576C398.5,590 394.167,600.5 391.5,607.5ZM545.5,19.5C576.5,32.8334 603.667,50.8334 627,73.5C651,97.1667 669.667,123.667 683,153C696.667,183 703.667,215.667 704,251C704,273.667 701.833,294.667 697.5,314C692.833,334.667 685.5,354.333 675.5,373C630.5,380.333 588.333,395.667 549,419C578.333,400.667 600.833,376.833 616.5,347.5C632.167,318.167 640,286.333 640,252C640,225.333 634.833,201 624.5,179C613.833,156 600,136 583,119C566,102 545.5,88.6667 521.5,79C498.167,69.3334 473.667,64.3334 448,64C421.667,64.0001 396.667,69.0001 373,79C349.667,89.0001 329.333,102.667 312,120C294.667,137.333 281,157.667 271,181C261,204.333 256,229.333 256,256C256,281 260.833,305.5 270.5,329.5C279.833,352.5 293.333,372.833 311,390.5C328.667,408.167 348.5,422.167 370.5,432.5C392.833,442.833 416.167,448 440.5,448C459.833,448 478.167,446 495.5,442C511.833,438 528.167,431.333 544.5,422C505.167,445.667 471.833,475.667 444.5,512C410.5,512 378.5,505.333 348.5,492C318.167,478.333 291.333,460 268,437C244.333,413.333 225.833,386.667 212.5,357C198.833,326.667 192,294.667 192,261L192,251C192,217 198.833,184.5 212.5,153.5C225.5,123.833 244.167,97.1667 268.5,73.5C292.167,50.5 319.333,32.6667 350,20C381.333,7 414,0.333374 448,0C482.667,0 515.167,6.5 545.5,19.5ZM761.5,582.5C754.5,575.5 746,572 736,572C726,572 717.5,575.5 710.5,582.5C703.5,589.5 700,598 700,608C700,618 703.5,626.5 710.5,633.5L781,704L608,704C599.333,704 591.833,707.167 585.5,713.5C579.167,719.833 576,727.333 576,736C576,744.667 579.167,752.167 585.5,758.5C591.833,764.833 599.333,768 608,768L781,768L710.5,838.5C703.5,845.5 700,854 700,864C700,874 703.5,882.5 710.5,889.5C717.5,896.5 726,900 736,900C746,900 754.5,896.5 761.5,889.5L889.5,761.5C896.5,754.5 900,746 900,736C900,726 896.5,717.5 889.5,710.5ZM624,1001.5C588.667,986.5 558.167,965.833 532.5,939.5C506.5,912.833 486,882.333 471,848C456.333,814 448.667,776.667 448,736C448,710.333 451.333,685 458,660C464.333,636.667 474,613.667 487,591C499,570.333 514.167,550.833 532.5,532.5C550.167,514.833 569.667,499.833 591,487.5C614,474.167 636.833,464.5 659.5,458.5C684.167,451.833 709.667,448.333 736,448C775.667,448 813,455.5 848,470.5C883.333,485.5 913.833,506.167 939.5,532.5C965.5,558.833 986,589.333 1001,624C1015.67,658 1023.33,695.333 1024,736C1024,776 1016.5,813.5 1001.5,848.5C986.5,883.5 966,914 940,940C914,966 883.5,986.5 848.5,1001.5C813.5,1016.5 776,1024 736,1024C696.333,1024 659,1016.5 624,1001.5Z" fill="#FFFFFF" fill-opacity="1">
  </path>
</svg>