<?xml version="1.0" encoding="utf-8"?>
<svg width="840" height="840" viewBox="0 0 840 840" fill="none" xmlns="http://www.w3.org/2000/svg">
  <defs>
    <linearGradient id="gradient_1" gradientUnits="userSpaceOnUse" x1="417.047" y1="0" x2="417.047" y2="788.48">
      <stop offset="0" stop-color="#F9D213" />
      <stop offset="1" stop-color="#E7900F" />
    </linearGradient>
  </defs>
  <g id="Group">
    <rect id="Rectangle" width="840" height="840" />
    <path id="Shape" d="M444.354 17.067C439.803 5.689 430.7 0 417.047 0C403.394 0 394.291 5.689 389.74 17.067C389.74 17.067 273.687 245.76 273.687 245.76C273.687 245.76 48.4073 133.12 48.4073 133.12C34.7543 126.294 22.8073 126.863 12.5673 134.827C2.32728 142.791 -1.65492 153.6 0.620585 167.254C0.620585 167.254 85.9543 593.92 85.9543 593.92C88.2293 600.747 92.2113 606.436 97.9003 610.987C103.589 615.538 110.985 617.814 120.087 617.814C120.087 617.814 717.42 617.814 717.42 617.814C724.247 617.814 730.505 615.538 736.194 610.987C741.883 606.436 745.865 600.747 748.14 593.92C748.14 593.92 833.474 167.254 833.474 167.254C835.749 153.6 831.767 142.791 821.527 134.827C811.287 126.863 799.34 126.294 785.687 133.12C785.687 133.12 560.407 245.76 560.407 245.76C560.407 245.76 444.354 17.067 444.354 17.067ZM120.087 727.04C110.985 727.04 103.02 729.885 96.1943 735.574C89.3673 741.263 85.9543 748.658 85.9543 757.76C85.9543 766.863 89.3673 774.258 96.1943 779.947C103.02 785.636 110.985 788.48 120.087 788.48C120.087 788.48 717.42 788.48 717.42 788.48C724.247 788.48 731.074 785.636 737.9 779.947C744.727 774.258 748.14 766.863 748.14 757.76C748.14 748.658 744.727 741.263 737.9 735.574C731.074 729.885 724.247 727.04 717.42 727.04C717.42 727.04 120.087 727.04 120.087 727.04Z" fill="url(#gradient_1)" transform="translate(3 26)" />
  </g>
</svg>