<svg width="180" height="180" viewBox="0 0 180 180" fill="none" xmlns="http://www.w3.org/2000/svg">
  <path d="M15.3232 53.9911C15.3232 50.7697 17.9347 48.1582 21.1562 48.1582H139.221C142.442 48.1582 145.054 50.7697 145.054 53.9911V137.024H15.3232V53.9911Z" fill="url(#paint0_linear_3800_290992)" />
  <g filter="url(#filter0_f_3800_290992)">
    <path d="M2.35059 142.213L3.06965 141.564H157.308L158.027 142.213H2.35059Z" fill="black" fill-opacity="0.6" />
  </g>
  <g filter="url(#filter1_f_3800_290992)">
    <path d="M2.35059 142.213L3.06965 141.564H157.308L158.027 142.213H2.35059Z" fill="black" fill-opacity="0.5" />
  </g>
  <g filter="url(#filter2_ii_3800_290992)">
    <rect x="2.3501" y="137.023" width="155.676" height="4.54056" rx="0.808259" fill="url(#paint1_linear_3800_290992)" />
  </g>
  <rect x="18.7983" y="51.5176" width="122.779" height="81.9728" rx="4" fill="url(#paint2_linear_3800_290992)" />
  <rect x="17.3401" y="50.0593" width="125.696" height="84.8893" rx="5.45823" stroke="black" stroke-opacity="0.07" stroke-width="2.91647" />
  <rect x="17.3401" y="50.0593" width="125.696" height="84.8893" rx="5.45823" stroke="url(#paint3_linear_3800_290992)" stroke-opacity="0.83" stroke-width="2.91647" />
  <g filter="url(#filter3_f_3800_290992)">
    <path d="M57.4858 158.165L59.4318 155.57H100.946L102.891 158.165H57.4858Z" fill="black" fill-opacity="0.6" />
  </g>
  <rect x="56.8369" y="79.6787" width="46.7029" height="77.8382" rx="5.83294" fill="url(#paint4_linear_3800_290992)" />
  <rect x="55.3787" y="78.2205" width="49.6194" height="80.7547" rx="7.29117" stroke="black" stroke-opacity="0.07" stroke-width="2.91647" />
  <rect x="55.3787" y="78.2205" width="49.6194" height="80.7547" rx="7.29117" stroke="url(#paint5_linear_3800_290992)" stroke-opacity="0.83" stroke-width="2.91647" />
  <g filter="url(#filter4_dii_3800_290992)">
    <path d="M80.1889 89.6943C75.8197 89.6943 72.2779 93.2362 72.2779 97.6054C72.2779 101.974 75.8197 105.516 80.1889 105.516C84.558 105.516 88.0999 101.974 88.0999 97.6054C88.0999 93.2362 84.558 89.6943 80.1889 89.6943ZM70.8933 108.681C69.0369 108.681 67.5313 110.185 67.5313 112.042L67.5312 112.636C67.5312 115.607 69.0673 117.831 71.4236 119.266C73.7407 120.676 76.8552 121.338 80.1889 121.338C83.5225 121.338 86.6371 120.676 88.9541 119.266C91.3104 117.831 92.8465 115.607 92.8465 112.636L92.8465 112.042C92.8465 110.185 91.3408 108.681 89.4845 108.681H70.8933Z" fill="url(#paint6_linear_3800_290992)" />
  </g>
  <path d="M146.046 23.0962L175.494 40.1532C175.898 40.3959 176.236 40.7355 176.476 41.1415C176.716 41.5474 176.851 42.0067 176.869 42.4781L175.563 80.6572L112.617 80.76L111.18 42.5854C111.175 42.1116 111.296 41.645 111.532 41.234C111.768 40.8229 112.109 40.4823 112.521 40.2475L141.915 23.0978C142.526 22.6885 143.245 22.4698 143.98 22.4695C144.716 22.4692 145.435 22.6874 146.046 23.0962Z" fill="url(#paint7_linear_3800_290992)" />
  <path d="M168.708 75.1971L119.469 75.2866C118.744 75.2851 118.049 74.9965 117.536 74.4839C117.023 73.9713 116.734 73.2764 116.732 72.5513L116.684 45.1831C116.684 44.4582 116.971 43.7627 117.483 43.2492C117.995 42.7358 118.689 42.4463 119.414 42.4444L168.653 42.355C169.379 42.3546 170.075 42.6419 170.59 43.1539C171.104 43.6659 171.395 44.3609 171.397 45.0867L171.445 72.4548C171.442 73.1802 171.153 73.8752 170.64 74.3887C170.128 74.9022 169.434 75.1927 168.708 75.1971Z" fill="#F2F2F2" />
  <path d="M168.708 75.1971L119.469 75.2866C118.744 75.2851 118.049 74.9965 117.536 74.4839C117.023 73.9713 116.734 73.2764 116.732 72.5513L116.684 45.1831C116.684 44.4582 116.971 43.7627 117.483 43.2492C117.995 42.7358 118.689 42.4463 119.414 42.4444L168.653 42.355C169.379 42.3546 170.075 42.6419 170.59 43.1539C171.104 43.6659 171.395 44.3609 171.397 45.0867L171.445 72.4548C171.442 73.1802 171.153 73.8752 170.64 74.3887C170.128 74.9022 169.434 75.1927 168.708 75.1971Z" fill="#F2F2F2" />
  <path d="M168.708 75.1971L119.469 75.2866C118.744 75.2851 118.049 74.9965 117.536 74.4839C117.023 73.9713 116.734 73.2764 116.732 72.5513L116.684 45.1831C116.684 44.4582 116.971 43.7627 117.483 43.2492C117.995 42.7358 118.689 42.4463 119.414 42.4444L168.653 42.355C169.379 42.3546 170.075 42.6419 170.59 43.1539C171.104 43.6659 171.395 44.3609 171.397 45.0867L171.445 72.4548C171.442 73.1802 171.153 73.8752 170.64 74.3887C170.128 74.9022 169.434 75.1927 168.708 75.1971Z" fill="#F2F2F2" />
  <path d="M175.977 82.7128C176.262 82.4527 176.492 82.1385 176.655 81.7887C176.817 81.4388 176.908 81.0602 176.923 80.6748L176.866 42.489L144.055 62.9409L157.211 74.6831L175.977 82.7128Z" fill="url(#paint8_linear_3800_290992)" />
  <path d="M111.182 42.4526L111.251 80.7651C111.253 81.4902 111.542 82.1851 112.055 82.6977C112.568 83.2103 113.263 83.4989 113.988 83.5004L174.198 83.3984C174.851 83.3773 175.478 83.136 175.977 82.7136L111.182 42.4526Z" fill="url(#paint9_linear_3800_290992)" />
  <g filter="url(#filter5_i_3800_290992)">
    <path d="M168.665 72.953L119.425 73.0425C118.7 73.0409 118.005 72.7523 117.492 72.2397C116.979 71.7271 116.69 71.0323 116.688 70.3071L116.641 42.939C116.64 42.214 116.927 41.5185 117.439 41.0051C117.951 40.4916 118.646 40.2022 119.371 40.2003L168.61 40.1108C169.336 40.1105 170.032 40.3978 170.546 40.9098C171.061 41.4218 171.351 42.1168 171.354 42.8425L171.401 70.2106C171.398 70.9361 171.109 71.6311 170.597 72.1445C170.084 72.658 169.39 72.9485 168.665 72.953Z" fill="url(#paint10_linear_3800_290992)" style="mix-blend-mode:multiply" />
  </g>
  <path d="M175.977 82.7128C176.262 82.4527 176.492 82.1385 176.655 81.7887C176.817 81.4388 176.908 81.0602 176.923 80.6748L176.866 42.489L144.055 62.9409L157.209 74.6883L175.977 82.7128Z" fill="url(#paint11_linear_3800_290992)" />
  <path d="M111.182 42.4506L111.251 80.7631C111.253 81.4883 111.542 82.1832 112.055 82.6957C112.568 83.2083 113.263 83.4969 113.988 83.4985L174.198 83.3964C174.851 83.3754 175.478 83.1341 175.977 82.7117L111.182 42.4506Z" fill="url(#paint12_linear_3800_290992)" />
  <g filter="url(#filter6_dd_3800_290992)">
    <path d="M131.973 50.2582C133.076 50.2582 133.97 49.3642 133.97 48.2614C133.97 47.1586 133.076 46.2646 131.973 46.2646C130.87 46.2646 129.976 47.1586 129.976 48.2614C129.976 49.3642 130.87 50.2582 131.973 50.2582Z" fill="url(#paint13_linear_3800_290992)" />
    <path d="M139.96 50.2582C141.063 50.2582 141.957 49.3642 141.957 48.2614C141.957 47.1586 141.063 46.2646 139.96 46.2646C138.857 46.2646 137.963 47.1586 137.963 48.2614C137.963 49.3642 138.857 50.2582 139.96 50.2582Z" fill="url(#paint14_linear_3800_290992)" />
    <path d="M147.947 50.2582C149.05 50.2582 149.944 49.3642 149.944 48.2614C149.944 47.1586 149.05 46.2646 147.947 46.2646C146.845 46.2646 145.951 47.1586 145.951 48.2614C145.951 49.3642 146.845 50.2582 147.947 50.2582Z" fill="url(#paint15_linear_3800_290992)" />
    <path d="M155.935 50.2582C157.038 50.2582 157.932 49.3642 157.932 48.2614C157.932 47.1586 157.038 46.2646 155.935 46.2646C154.832 46.2646 153.938 47.1586 153.938 48.2614C153.938 49.3642 154.832 50.2582 155.935 50.2582Z" fill="url(#paint16_linear_3800_290992)" />
  </g>
  <defs>
    <filter id="filter0_f_3800_290992" x="0.892352" y="140.106" width="158.593" height="3.56491" filterUnits="userSpaceOnUse" color-interpolation-filters="sRGB">
      <feFlood flood-opacity="0" result="BackgroundImageFix" />
      <feBlend mode="normal" in="SourceGraphic" in2="BackgroundImageFix" result="shape" />
      <feGaussianBlur stdDeviation="0.729117" result="effect1_foregroundBlur_3800_290992" />
    </filter>
    <filter id="filter1_f_3800_290992" x="0.892352" y="140.106" width="158.593" height="3.56491" filterUnits="userSpaceOnUse" color-interpolation-filters="sRGB">
      <feFlood flood-opacity="0" result="BackgroundImageFix" />
      <feBlend mode="normal" in="SourceGraphic" in2="BackgroundImageFix" result="shape" />
      <feGaussianBlur stdDeviation="0.729117" result="effect1_foregroundBlur_3800_290992" />
    </filter>
    <filter id="filter2_ii_3800_290992" x="2.3501" y="136.72" width="155.676" height="5.04618" filterUnits="userSpaceOnUse" color-interpolation-filters="sRGB">
      <feFlood flood-opacity="0" result="BackgroundImageFix" />
      <feBlend mode="normal" in="SourceGraphic" in2="BackgroundImageFix" result="shape" />
      <feColorMatrix in="SourceAlpha" type="matrix" values="0 0 0 0 0 0 0 0 0 0 0 0 0 0 0 0 0 0 127 0" result="hardAlpha" />
      <feOffset dy="-0.303097" />
      <feGaussianBlur stdDeviation="0.151549" />
      <feComposite in2="hardAlpha" operator="arithmetic" k2="-1" k3="1" />
      <feColorMatrix type="matrix" values="0 0 0 0 0 0 0 0 0 0 0 0 0 0 0 0 0 0 0.12 0" />
      <feBlend mode="normal" in2="shape" result="effect1_innerShadow_3800_290992" />
      <feColorMatrix in="SourceAlpha" type="matrix" values="0 0 0 0 0 0 0 0 0 0 0 0 0 0 0 0 0 0 127 0" result="hardAlpha" />
      <feOffset dy="0.303097" />
      <feGaussianBlur stdDeviation="0.101032" />
      <feComposite in2="hardAlpha" operator="arithmetic" k2="-1" k3="1" />
      <feColorMatrix type="matrix" values="0 0 0 0 1 0 0 0 0 1 0 0 0 0 1 0 0 0 0.4 0" />
      <feBlend mode="normal" in2="effect1_innerShadow_3800_290992" result="effect2_innerShadow_3800_290992" />
    </filter>
    <filter id="filter3_f_3800_290992" x="54.5694" y="152.654" width="51.2387" height="8.42766" filterUnits="userSpaceOnUse" color-interpolation-filters="sRGB">
      <feFlood flood-opacity="0" result="BackgroundImageFix" />
      <feBlend mode="normal" in="SourceGraphic" in2="BackgroundImageFix" result="shape" />
      <feGaussianBlur stdDeviation="1.45823" result="effect1_foregroundBlur_3800_290992" />
    </filter>
    <filter id="filter4_dii_3800_290992" x="65.0217" y="82.6877" width="36.5625" height="48.4289" filterUnits="userSpaceOnUse" color-interpolation-filters="sRGB">
      <feFlood flood-opacity="0" result="BackgroundImageFix" />
      <feColorMatrix in="SourceAlpha" type="matrix" values="0 0 0 0 0 0 0 0 0 0 0 0 0 0 0 0 0 0 127 0" result="hardAlpha" />
      <feOffset dx="3.11405" dy="4.15418" />
      <feGaussianBlur stdDeviation="2.81178" />
      <feComposite in2="hardAlpha" operator="out" />
      <feColorMatrix type="matrix" values="0 0 0 0 0 0 0 0 0 0 0 0 0 0 0 0 0 0 0.1 0" />
      <feBlend mode="normal" in2="BackgroundImageFix" result="effect1_dropShadow_3800_290992" />
      <feBlend mode="normal" in="SourceGraphic" in2="effect1_dropShadow_3800_290992" result="shape" />
      <feColorMatrix in="SourceAlpha" type="matrix" values="0 0 0 0 0 0 0 0 0 0 0 0 0 0 0 0 0 0 127 0" result="hardAlpha" />
      <feOffset dy="-7.00661" />
      <feGaussianBlur stdDeviation="3.89256" />
      <feComposite in2="hardAlpha" operator="arithmetic" k2="-1" k3="1" />
      <feColorMatrix type="matrix" values="0 0 0 0 0 0 0 0 0 0 0 0 0 0 0 0 0 0 0.15 0" />
      <feBlend mode="normal" in2="shape" result="effect2_innerShadow_3800_290992" />
      <feColorMatrix in="SourceAlpha" type="matrix" values="0 0 0 0 0 0 0 0 0 0 0 0 0 0 0 0 0 0 127 0" result="hardAlpha" />
      <feOffset dy="4.67107" />
      <feGaussianBlur stdDeviation="3.11405" />
      <feComposite in2="hardAlpha" operator="arithmetic" k2="-1" k3="1" />
      <feColorMatrix type="matrix" values="0 0 0 0 1 0 0 0 0 1 0 0 0 0 1 0 0 0 0.25 0" />
      <feBlend mode="normal" in2="effect2_innerShadow_3800_290992" result="effect3_innerShadow_3800_290992" />
    </filter>
    <filter id="filter5_i_3800_290992" x="116.641" y="40.1104" width="55.7607" height="33.9316" filterUnits="userSpaceOnUse" color-interpolation-filters="sRGB">
      <feFlood flood-opacity="0" result="BackgroundImageFix" />
      <feBlend mode="normal" in="SourceGraphic" in2="BackgroundImageFix" result="shape" />
      <feColorMatrix in="SourceAlpha" type="matrix" values="0 0 0 0 0 0 0 0 0 0 0 0 0 0 0 0 0 0 127 0" result="hardAlpha" />
      <feOffset dx="1" dy="1" />
      <feGaussianBlur stdDeviation="1" />
      <feComposite in2="hardAlpha" operator="arithmetic" k2="-1" k3="1" />
      <feColorMatrix type="matrix" values="0 0 0 0 1 0 0 0 0 1 0 0 0 0 1 0 0 0 1 0" />
      <feBlend mode="normal" in2="shape" result="effect1_innerShadow_3800_290992" />
    </filter>
    <filter id="filter6_dd_3800_290992" x="127.366" y="44.8146" width="33.1756" height="9.21316" filterUnits="userSpaceOnUse" color-interpolation-filters="sRGB">
      <feFlood flood-opacity="0" result="BackgroundImageFix" />
      <feColorMatrix in="SourceAlpha" type="matrix" values="0 0 0 0 0 0 0 0 0 0 0 0 0 0 0 0 0 0 127 0" result="hardAlpha" />
      <feOffset dy="0.2175" />
      <feGaussianBlur stdDeviation="0.32625" />
      <feColorMatrix type="matrix" values="0 0 0 0 0 0 0 0 0 0 0 0 0 0 0 0 0 0 0.18 0" />
      <feBlend mode="normal" in2="BackgroundImageFix" result="effect1_dropShadow_3800_290992" />
      <feColorMatrix in="SourceAlpha" type="matrix" values="0 0 0 0 0 0 0 0 0 0 0 0 0 0 0 0 0 0 127 0" result="hardAlpha" />
      <feOffset dy="1.16" />
      <feGaussianBlur stdDeviation="1.305" />
      <feColorMatrix type="matrix" values="0 0 0 0 0 0 0 0 0 0 0 0 0 0 0 0 0 0 0.22 0" />
      <feBlend mode="normal" in2="effect1_dropShadow_3800_290992" result="effect2_dropShadow_3800_290992" />
      <feBlend mode="normal" in="SourceGraphic" in2="effect2_dropShadow_3800_290992" result="shape" />
    </filter>
    <linearGradient id="paint0_linear_3800_290992" x1="80.1884" y1="48.1582" x2="80.1884" y2="137.024" gradientUnits="userSpaceOnUse">
      <stop stop-color="#99A5B0" />
      <stop offset="1" stop-color="#8897A4" />
    </linearGradient>
    <linearGradient id="paint1_linear_3800_290992" x1="158.027" y1="137.023" x2="2.3501" y2="137.023" gradientUnits="userSpaceOnUse">
      <stop stop-color="#A8B5BF" />
      <stop offset="0.0357143" stop-color="#BFCDD9" />
      <stop offset="0.0714286" stop-color="#B4C1CC" />
      <stop offset="0.500018" stop-color="#B4C1CC" />
      <stop offset="0.928571" stop-color="#B4C1CC" />
      <stop offset="0.964286" stop-color="#BFCDD9" />
      <stop offset="1" stop-color="#A8B5BF" />
    </linearGradient>
    <linearGradient id="paint2_linear_3800_290992" x1="108.644" y1="127.457" x2="93.7823" y2="40.2944" gradientUnits="userSpaceOnUse">
      <stop stop-color="#E6EBEC" />
      <stop offset="1" stop-color="#F5F5F5" />
    </linearGradient>
    <linearGradient id="paint3_linear_3800_290992" x1="80.1881" y1="51.5176" x2="80.1881" y2="133.49" gradientUnits="userSpaceOnUse">
      <stop stop-color="#99A5B0" />
      <stop offset="1" stop-color="#99A5B0" />
    </linearGradient>
    <linearGradient id="paint4_linear_3800_290992" x1="91.0126" y1="151.788" x2="60.3199" y2="79.6795" gradientUnits="userSpaceOnUse">
      <stop stop-color="#EAEFF0" />
      <stop offset="1" stop-color="white" />
    </linearGradient>
    <linearGradient id="paint5_linear_3800_290992" x1="80.1884" y1="79.6787" x2="80.1884" y2="157.517" gradientUnits="userSpaceOnUse">
      <stop stop-color="#99A5B0" />
      <stop offset="1" stop-color="#99A5B0" />
    </linearGradient>
    <linearGradient id="paint6_linear_3800_290992" x1="69.9543" y1="89.6943" x2="56.5276" y2="134.789" gradientUnits="userSpaceOnUse">
      <stop stop-color="#0078D4" />
      <stop offset="1" stop-color="#5B41D3" />
    </linearGradient>
    <linearGradient id="paint7_linear_3800_290992" x1="150.471" y1="89.0933" x2="116.989" y2="31.507" gradientUnits="userSpaceOnUse">
      <stop offset="0.31" stop-color="#114A8B" />
      <stop offset="1" stop-color="#0669BC" />
    </linearGradient>
    <linearGradient id="paint8_linear_3800_290992" x1="174.241" y1="94.3759" x2="140.401" y2="36.1666" gradientUnits="userSpaceOnUse">
      <stop stop-color="#0078D4" />
      <stop offset="1" stop-color="#28AFEA" />
    </linearGradient>
    <linearGradient id="paint9_linear_3800_290992" x1="384413" y1="564632" x2="381507" y2="568852" gradientUnits="userSpaceOnUse">
      <stop stop-color="#0078D4" />
      <stop offset="1" stop-color="#28AFEA" />
    </linearGradient>
    <linearGradient id="paint10_linear_3800_290992" x1="127.674" y1="34.1355" x2="155.653" y2="77.1902" gradientUnits="userSpaceOnUse">
      <stop stop-color="#F1F1F1" />
      <stop offset="1" stop-color="#E4E4E4" />
    </linearGradient>
    <linearGradient id="paint11_linear_3800_290992" x1="183.767" y1="44.718" x2="143.285" y2="43.2619" gradientUnits="userSpaceOnUse">
      <stop stop-color="#0078D4" />
      <stop offset="1" stop-color="#5B41D3" />
    </linearGradient>
    <linearGradient id="paint12_linear_3800_290992" x1="198.92" y1="73.2315" x2="105.803" y2="62.7206" gradientUnits="userSpaceOnUse">
      <stop stop-color="#888AFF" />
      <stop offset="1" stop-color="#0078D4" />
    </linearGradient>
    <linearGradient id="paint13_linear_3800_290992" x1="130.475" y1="45.1415" x2="131.973" y2="50.2582" gradientUnits="userSpaceOnUse">
      <stop stop-color="#1FBCFF" />
      <stop offset="0.484375" stop-color="#3580D5" />
      <stop offset="1" stop-color="#0038BB" />
    </linearGradient>
    <linearGradient id="paint14_linear_3800_290992" x1="138.463" y1="45.1415" x2="139.96" y2="50.2582" gradientUnits="userSpaceOnUse">
      <stop stop-color="#1FBCFF" />
      <stop offset="0.484375" stop-color="#3580D5" />
      <stop offset="1" stop-color="#0038BB" />
    </linearGradient>
    <linearGradient id="paint15_linear_3800_290992" x1="146.45" y1="45.1415" x2="147.947" y2="50.2582" gradientUnits="userSpaceOnUse">
      <stop stop-color="#1FBCFF" />
      <stop offset="0.484375" stop-color="#3580D5" />
      <stop offset="1" stop-color="#0038BB" />
    </linearGradient>
    <linearGradient id="paint16_linear_3800_290992" x1="154.437" y1="45.1415" x2="155.935" y2="50.2582" gradientUnits="userSpaceOnUse">
      <stop stop-color="#1FBCFF" />
      <stop offset="0.484375" stop-color="#3580D5" />
      <stop offset="1" stop-color="#0038BB" />
    </linearGradient>
  </defs>
</svg>
