<svg xmlns="http://www.w3.org/2000/svg" width="512" height="512" fill="none" viewBox="0 0 512 512"><path fill="url(#aa0d410f9ede4c6890fa16f7e79dae7a-a)" d="M120.936 158.735h261.461l-17.589 213.024c-2.65 32.095-29.471 56.792-61.675 56.792H200.688c-32.149 0-58.944-24.617-61.663-56.651l-18.089-213.165Z"/><path fill="url(#aa0d410f9ede4c6890fa16f7e79dae7a-b)" d="M120.936 158.735h261.461l-17.589 213.024c-2.65 32.095-29.471 56.792-61.675 56.792H200.688c-32.149 0-58.944-24.617-61.663-56.651l-18.089-213.165Z"/><path fill="url(#aa0d410f9ede4c6890fa16f7e79dae7a-c)" d="M120.936 158.735h261.461l-17.589 213.024c-2.65 32.095-29.471 56.792-61.675 56.792H200.688c-32.149 0-58.944-24.617-61.663-56.651l-18.089-213.165Z"/><path fill="url(#aa0d410f9ede4c6890fa16f7e79dae7a-d)" fill-rule="evenodd" d="M251.821 95.923c-19.823 0-35.893 16.07-35.893 35.893v18.256h-20.422v-18.256c0-31.102 25.213-56.315 56.315-56.315 31.102 0 56.315 25.213 56.315 56.315v18.256h-20.422v-18.256c0-19.823-16.07-35.893-35.893-35.893Z" clip-rule="evenodd"/><path fill="url(#aa0d410f9ede4c6890fa16f7e79dae7a-e)" fill-rule="evenodd" d="M251.821 95.923c-19.823 0-35.893 16.07-35.893 35.893v18.256h-20.422v-18.256c0-31.102 25.213-56.315 56.315-56.315 31.102 0 56.315 25.213 56.315 56.315v18.256h-20.422v-18.256c0-19.823-16.07-35.893-35.893-35.893Z" clip-rule="evenodd"/><path fill="url(#aa0d410f9ede4c6890fa16f7e79dae7a-f)" fill-rule="evenodd" d="M251.821 95.923c-19.823 0-35.893 16.07-35.893 35.893v18.256h-20.422v-18.256c0-31.102 25.213-56.315 56.315-56.315 31.102 0 56.315 25.213 56.315 56.315v18.256h-20.422v-18.256c0-19.823-16.07-35.893-35.893-35.893Z" clip-rule="evenodd"/><path fill="url(#aa0d410f9ede4c6890fa16f7e79dae7a-g)" d="m409.358 136.767-314.065-.058c-6.072-.001-10.993 4.93-10.992 11.013 0 6.084 4.922 11.016 10.994 11.018l314.065.057c6.071.001 10.992-4.93 10.992-11.013-.001-6.084-4.923-11.016-10.994-11.017Z"/><defs><radialGradient id="aa0d410f9ede4c6890fa16f7e79dae7a-b" cx="0" cy="0" r="1" gradientTransform="rotate(-174.47 249.808 97.778) scale(238.473 1664.38)" gradientUnits="userSpaceOnUse"><stop offset=".411" stop-color="#202020"/><stop offset=".712" stop-color="#434343" stop-opacity="0"/></radialGradient><radialGradient id="aa0d410f9ede4c6890fa16f7e79dae7a-c" cx="0" cy="0" r="1" gradientTransform="matrix(0 43.4272 -303.093 0 251.666 152.766)" gradientUnits="userSpaceOnUse"><stop offset=".411" stop-color="#242227"/><stop offset=".969" stop-color="#242227" stop-opacity="0"/></radialGradient><radialGradient id="aa0d410f9ede4c6890fa16f7e79dae7a-d" cx="0" cy="0" r="1" gradientTransform="matrix(-20.4533 48.44098 -47.14037 -19.90415 254.231 131.477)" gradientUnits="userSpaceOnUse"><stop offset=".375" stop-color="#818181"/><stop offset=".623" stop-color="#363636"/><stop offset=".796" stop-color="#1A1A1A"/><stop offset=".914" stop-color="#363636"/><stop offset="1" stop-color="#818181"/></radialGradient><radialGradient id="aa0d410f9ede4c6890fa16f7e79dae7a-e" cx="0" cy="0" r="1" gradientTransform="rotate(107.314 81.74 156.124) scale(84.8557 88.9139)" gradientUnits="userSpaceOnUse"><stop offset=".411" stop-color="#939393" stop-opacity="0"/><stop offset=".542" stop-color="#939393"/><stop offset=".654" stop-color="#939393" stop-opacity="0"/></radialGradient><radialGradient id="aa0d410f9ede4c6890fa16f7e79dae7a-f" cx="0" cy="0" r="1" gradientTransform="matrix(-78.80146 -9.07862 7.04602 -61.15876 301.656 140.848)" gradientUnits="userSpaceOnUse"><stop stop-color="#1A1A1A"/><stop offset=".505" stop-color="#363636" stop-opacity="0"/></radialGradient><linearGradient id="aa0d410f9ede4c6890fa16f7e79dae7a-a" x1="348" x2="-76.498" y1="175.704" y2="661.04" gradientUnits="userSpaceOnUse"><stop offset=".227" stop-color="#414141"/><stop offset="1" stop-color="#3EF3FF"/></linearGradient><linearGradient id="aa0d410f9ede4c6890fa16f7e79dae7a-g" x1="237.088" x2="236.833" y1="110.651" y2="161.911" gradientUnits="userSpaceOnUse"><stop offset=".598" stop-color="#939393"/><stop offset=".74" stop-color="#4E4E4E"/><stop offset=".832" stop-color="#363636"/><stop offset=".933" stop-color="#4E4E4E"/><stop offset="1" stop-color="#939393"/></linearGradient></defs></svg>