<svg xmlns="http://www.w3.org/2000/svg" width="512" height="512" fill="none" viewBox="0 0 512 512"><path fill="url(#c8545f57fc37451eb7b3e1d65b44b34a-a)" d="M120.936 158.735h261.461l-17.589 213.024c-2.65 32.095-29.471 56.792-61.675 56.792H200.688c-32.149 0-58.944-24.617-61.663-56.651l-18.089-213.165Z"/><path fill="url(#c8545f57fc37451eb7b3e1d65b44b34a-b)" d="M120.936 158.735h261.461l-17.589 213.024c-2.65 32.095-29.471 56.792-61.675 56.792H200.688c-32.149 0-58.944-24.617-61.663-56.651l-18.089-213.165Z"/><path fill="url(#c8545f57fc37451eb7b3e1d65b44b34a-c)" d="M120.936 158.735h261.461l-17.589 213.024c-2.65 32.095-29.471 56.792-61.675 56.792H200.688c-32.149 0-58.944-24.617-61.663-56.651l-18.089-213.165Z"/><path fill="url(#c8545f57fc37451eb7b3e1d65b44b34a-d)" fill-rule="evenodd" d="M251.821 95.923c-19.823 0-35.893 16.07-35.893 35.893v18.256h-20.422v-18.256c0-31.102 25.213-56.315 56.315-56.315 31.102 0 56.315 25.213 56.315 56.315v18.256h-20.422v-18.256c0-19.823-16.07-35.893-35.893-35.893Z" clip-rule="evenodd"/><path fill="url(#c8545f57fc37451eb7b3e1d65b44b34a-e)" fill-rule="evenodd" d="M251.821 95.923c-19.823 0-35.893 16.07-35.893 35.893v18.256h-20.422v-18.256c0-31.102 25.213-56.315 56.315-56.315 31.102 0 56.315 25.213 56.315 56.315v18.256h-20.422v-18.256c0-19.823-16.07-35.893-35.893-35.893Z" clip-rule="evenodd"/><path fill="url(#c8545f57fc37451eb7b3e1d65b44b34a-f)" fill-rule="evenodd" d="M251.821 95.923c-19.823 0-35.893 16.07-35.893 35.893v18.256h-20.422v-18.256c0-31.102 25.213-56.315 56.315-56.315 31.102 0 56.315 25.213 56.315 56.315v18.256h-20.422v-18.256c0-19.823-16.07-35.893-35.893-35.893Z" clip-rule="evenodd"/><path fill="url(#c8545f57fc37451eb7b3e1d65b44b34a-g)" d="m409.358 136.767-314.065-.058c-6.072-.001-10.993 4.93-10.992 11.013 0 6.084 4.922 11.016 10.994 11.018l314.065.057c6.071.001 10.992-4.93 10.992-11.013-.001-6.084-4.923-11.016-10.994-11.017Z"/><defs><radialGradient id="c8545f57fc37451eb7b3e1d65b44b34a-b" cx="0" cy="0" r="1" gradientTransform="matrix(0 43.4272 -303.093 0 251.666 152.766)" gradientUnits="userSpaceOnUse"><stop offset=".411" stop-color="#BDBDBD"/><stop offset=".969" stop-color="#D9D9D9" stop-opacity="0"/></radialGradient><radialGradient id="c8545f57fc37451eb7b3e1d65b44b34a-c" cx="0" cy="0" r="1" gradientTransform="rotate(-174.47 249.808 97.778) scale(238.473 1664.38)" gradientUnits="userSpaceOnUse"><stop offset=".411" stop-color="#BDBDBD"/><stop offset=".585" stop-color="#D9D9D9" stop-opacity="0"/></radialGradient><radialGradient id="c8545f57fc37451eb7b3e1d65b44b34a-d" cx="0" cy="0" r="1" gradientTransform="matrix(-18.088 41.65324 -43.25603 -18.78403 254.453 130.388)" gradientUnits="userSpaceOnUse"><stop offset=".375" stop-color="#E2D7CF"/><stop offset=".623" stop-color="#D5BFAF"/><stop offset=".796" stop-color="#B89F8C"/><stop offset=".859" stop-color="#CEBCAF"/><stop offset="1" stop-color="#E2D7CF"/></radialGradient><radialGradient id="c8545f57fc37451eb7b3e1d65b44b34a-e" cx="0" cy="0" r="1" gradientTransform="rotate(107.314 81.74 156.124) scale(84.8557 88.9139)" gradientUnits="userSpaceOnUse"><stop offset=".411" stop-color="#E2D7CF" stop-opacity="0"/><stop offset=".542" stop-color="#F3E9E2"/><stop offset=".654" stop-color="#E2D7CF" stop-opacity="0"/></radialGradient><radialGradient id="c8545f57fc37451eb7b3e1d65b44b34a-f" cx="0" cy="0" r="1" gradientTransform="matrix(-78.80146 -9.07862 7.04602 -61.15876 301.656 140.848)" gradientUnits="userSpaceOnUse"><stop stop-color="#B89F8C"/><stop offset=".505" stop-color="#E2D7CF" stop-opacity="0"/></radialGradient><linearGradient id="c8545f57fc37451eb7b3e1d65b44b34a-a" x1="366.519" x2="63.924" y1="141.658" y2="586.433" gradientUnits="userSpaceOnUse"><stop offset=".368" stop-color="#E7E7E7"/><stop offset=".628" stop-color="#C9F5FF"/></linearGradient><linearGradient id="c8545f57fc37451eb7b3e1d65b44b34a-g" x1="237.088" x2="236.833" y1="110.651" y2="161.911" gradientUnits="userSpaceOnUse"><stop offset=".598" stop-color="#E2D7CF"/><stop offset=".74" stop-color="#D5BFAF"/><stop offset=".832" stop-color="#B89F8C"/><stop offset=".933" stop-color="#CEBCAF"/><stop offset="1" stop-color="#E2D7CF"/></linearGradient></defs></svg>