<?xml version="1.0" encoding="utf-8"?>
<svg width="512" height="512" viewBox="0 0 512 512" fill="none" xmlns="http://www.w3.org/2000/svg">
  <defs>
    <linearGradient id="gradient_1" gradientUnits="userSpaceOnUse" x1="0.137" y1="0.153" x2="385.602" y2="501.894">
      <stop offset="0" stop-color="#FF4736" />
      <stop offset="1" stop-color="#5F0000" />
    </linearGradient>
  </defs>
  <g id="ErrorShield">
    <rect id="Rectangle" width="512" height="512" />
    <path id="Path" d="M417.005 133.023C417.005 133.023 416.99 132.641 416.99 132.641C416.777 127.933 416.635 122.949 416.548 117.406C416.149 90.3739 394.659 68.0139 367.624 66.5023C311.255 63.3571 267.648 44.9759 230.39 8.66003C230.39 8.66003 230.072 8.35713 230.072 8.35713C217.92 -2.78571 199.587 -2.78571 187.431 8.35713C187.431 8.35713 187.113 8.66003 187.113 8.66003C149.854 44.9759 106.248 63.3571 49.879 66.5063C22.8466 68.0139 1.35429 90.3739 0.953682 117.41C0.871605 122.916 0.726013 127.898 0.512032 132.641C0.512032 132.641 0.489559 133.527 0.489559 133.527C-0.605766 191.007 -1.96785 262.544 21.9642 327.475C35.1228 363.181 55.0518 394.219 81.194 419.732C110.968 448.788 149.966 471.856 197.103 488.292C198.637 488.826 200.23 489.26 201.854 489.585C204.143 490.042 206.447 490.27 208.751 490.27C211.055 490.27 213.363 490.042 215.649 489.585C217.272 489.26 218.877 488.823 220.418 488.284C267.499 471.819 306.456 448.74 336.203 419.688C362.335 394.167 382.264 363.121 395.434 327.407C419.455 262.282 418.097 190.611 417.005 133.023C417.005 133.023 417.005 133.023 417.005 133.023Z" fill="url(#gradient_1)" transform="translate(46.901 10.748)" />
    <path id="Vector" d="M428.725 138.775C429.101 158.604 429.257 173.822 429.194 184.43C429.086 202.427 428.469 218.848 427.341 233.695C424.413 272.228 417.564 306.095 406.793 335.298C393.257 372.003 373.045 403.485 346.157 429.744C315.65 459.539 276.335 482.851 228.213 499.68C226.417 500.309 224.564 500.814 222.655 501.197C219.989 501.729 217.307 501.995 214.609 501.995C211.917 501.995 209.234 501.729 206.56 501.196C204.669 500.817 202.826 500.315 201.031 499.69C152.852 482.891 113.494 459.591 82.9575 429.791C56.0577 403.539 35.8457 372.063 22.3215 335.365C11.5894 306.247 4.76682 272.463 1.85386 234.012C0.73143 219.197 0.117821 202.808 0.0130234 184.847C-0.048748 174.26 0.109222 159.058 0.486923 139.241L0.51347 138.24C0.724476 133.563 0.869919 128.545 0.949802 123.186C1.05955 115.78 2.54988 108.668 5.42081 101.85C8.19595 95.2596 12.0759 89.3713 17.0607 84.185C22.045 78.9993 27.7765 74.8873 34.2552 71.8488C40.9565 68.706 48.0081 66.9282 55.4101 66.5154C82.9182 64.9785 107.529 59.6337 129.243 50.4809C150.9 41.3522 170.796 27.95 188.931 10.2742L189.328 9.89804C196.526 3.29935 204.954 0 214.611 0C224.268 0 232.721 3.32379 239.97 9.97137L240.34 10.3244C258.441 27.9669 278.319 41.3522 299.976 50.4804C321.69 59.6329 346.301 64.9766 373.809 66.5115C381.212 66.9254 388.264 68.704 394.965 71.8473C401.444 74.8862 407.175 78.9985 412.159 84.1842C417.144 89.3704 421.023 95.2584 423.798 101.848C426.669 108.666 428.159 115.775 428.268 123.177C428.355 128.704 428.501 133.733 428.706 138.264L428.721 138.646L428.725 138.775L428.725 138.775ZM417.003 139.061L416.99 138.743C416.781 134.13 416.633 129.002 416.544 123.361C416.367 111.381 412.088 101.03 403.706 92.3091C395.321 83.5853 385.138 78.8884 373.155 78.2184C344.295 76.6081 318.384 70.9637 295.421 61.2851C272.403 51.5829 251.315 37.3948 232.156 18.7208L231.89 18.4681C226.986 13.9728 221.227 11.7252 214.611 11.7252C207.995 11.7252 202.208 13.9973 197.251 18.5414L197.011 18.7711C177.887 37.4113 156.816 51.5828 133.797 61.2855C110.835 70.9643 84.9244 76.6099 56.0641 78.2223C44.0822 78.8906 33.899 83.5865 25.5142 92.3102C17.1314 101.032 12.8512 111.382 12.6737 123.36C12.592 128.837 12.4431 133.973 12.2267 138.768L12.2083 139.539C11.8336 159.209 11.6768 174.289 11.738 184.779C11.8412 202.467 12.4437 218.583 13.5455 233.127C16.376 270.489 22.9686 303.217 33.3232 331.31C46.2367 366.351 65.5112 396.381 91.1468 421.399C120.439 449.986 158.354 472.392 204.892 488.619C206.176 489.066 207.5 489.426 208.864 489.7C210.773 490.08 212.688 490.27 214.609 490.27C216.534 490.27 218.451 490.08 220.359 489.699C221.729 489.424 223.056 489.062 224.339 488.613C270.824 472.356 308.7 449.937 337.965 421.356C363.591 396.329 382.866 366.291 395.792 331.242C406.185 303.062 412.804 270.251 415.649 232.807C416.756 218.232 417.363 202.083 417.469 184.36C417.531 173.862 417.376 158.763 417.003 139.061L417.003 139.061Z" fill="#5F0000" fill-rule="evenodd" transform="translate(41.043 4.885)" />
  </g>
</svg>