<svg width="35" height="16" viewBox="0 0 35 16" fill="none" xmlns="http://www.w3.org/2000/svg">
<rect x="0.5" width="34" height="16" rx="4" fill="#FADB5F"/>
<rect x="0.5" width="34" height="16" rx="4" fill="url(#paint0_radial_4519_55904)"/>
<path d="M5.3608 12V3.27273H10.9517V4.59801H6.94176V6.96733H10.5682V8.29261H6.94176V12H5.3608ZM12.2301 12V5.45455H13.7259V6.54545H13.794C13.9134 6.16761 14.1179 5.87642 14.4077 5.67188C14.7003 5.46449 15.0341 5.3608 15.4091 5.3608C15.4943 5.3608 15.5895 5.36506 15.6946 5.37358C15.8026 5.37926 15.892 5.3892 15.9631 5.40341V6.82244C15.8977 6.79972 15.794 6.77983 15.652 6.76278C15.5128 6.7429 15.3778 6.73295 15.2472 6.73295C14.9659 6.73295 14.7131 6.79403 14.4886 6.91619C14.267 7.03551 14.0923 7.2017 13.9645 7.41477C13.8366 7.62784 13.7727 7.87358 13.7727 8.15199V12H12.2301ZM19.6161 12.1278C18.9599 12.1278 18.3931 11.9915 17.9158 11.7188C17.4414 11.4432 17.0763 11.054 16.8207 10.5511C16.565 10.0455 16.4371 9.45028 16.4371 8.76562C16.4371 8.09233 16.565 7.50142 16.8207 6.9929C17.0792 6.48153 17.44 6.08381 17.9031 5.79972C18.3661 5.51278 18.9102 5.36932 19.5352 5.36932C19.9386 5.36932 20.3192 5.43466 20.6772 5.56534C21.038 5.69318 21.3562 5.89205 21.6317 6.16193C21.9102 6.43182 22.1289 6.77557 22.288 7.19318C22.4471 7.60795 22.5266 8.10227 22.5266 8.67614V9.14915H17.1616V8.10938H21.0479C21.0451 7.81392 20.9812 7.55114 20.8562 7.32102C20.7312 7.08807 20.5565 6.90483 20.332 6.77131C20.1104 6.63778 19.8519 6.57102 19.5565 6.57102C19.2411 6.57102 18.9641 6.64773 18.7255 6.80114C18.4869 6.9517 18.3008 7.15057 18.1673 7.39773C18.0366 7.64205 17.9698 7.91051 17.967 8.20312V9.1108C17.967 9.49148 18.0366 9.81818 18.1758 10.0909C18.315 10.3608 18.5096 10.5682 18.7596 10.7131C19.0096 10.8551 19.3022 10.9261 19.6374 10.9261C19.8619 10.9261 20.065 10.8949 20.2468 10.8324C20.4286 10.767 20.5863 10.6719 20.7198 10.5469C20.8533 10.4219 20.9542 10.267 21.0224 10.0824L22.4627 10.2443C22.3718 10.625 22.1985 10.9574 21.9428 11.2415C21.69 11.5227 21.3661 11.7415 20.9712 11.8977C20.5763 12.0511 20.1246 12.1278 19.6161 12.1278ZM26.7294 12.1278C26.0732 12.1278 25.5064 11.9915 25.0291 11.7188C24.5547 11.4432 24.1896 11.054 23.9339 10.5511C23.6783 10.0455 23.5504 9.45028 23.5504 8.76562C23.5504 8.09233 23.6783 7.50142 23.9339 6.9929C24.1925 6.48153 24.5533 6.08381 25.0163 5.79972C25.4794 5.51278 26.0234 5.36932 26.6484 5.36932C27.0518 5.36932 27.4325 5.43466 27.7905 5.56534C28.1513 5.69318 28.4695 5.89205 28.745 6.16193C29.0234 6.43182 29.2422 6.77557 29.4013 7.19318C29.5604 7.60795 29.6399 8.10227 29.6399 8.67614V9.14915H24.2749V8.10938H28.1612C28.1584 7.81392 28.0945 7.55114 27.9695 7.32102C27.8445 7.08807 27.6697 6.90483 27.4453 6.77131C27.2237 6.63778 26.9652 6.57102 26.6697 6.57102C26.3544 6.57102 26.0774 6.64773 25.8388 6.80114C25.6001 6.9517 25.4141 7.15057 25.2805 7.39773C25.1499 7.64205 25.0831 7.91051 25.0803 8.20312V9.1108C25.0803 9.49148 25.1499 9.81818 25.2891 10.0909C25.4283 10.3608 25.6229 10.5682 25.8729 10.7131C26.1229 10.8551 26.4155 10.9261 26.7507 10.9261C26.9751 10.9261 27.1783 10.8949 27.3601 10.8324C27.5419 10.767 27.6996 10.6719 27.8331 10.5469C27.9666 10.4219 28.0675 10.267 28.1357 10.0824L29.576 10.2443C29.4851 10.625 29.3118 10.9574 29.0561 11.2415C28.8033 11.5227 28.4794 11.7415 28.0845 11.8977C27.6896 12.0511 27.2379 12.1278 26.7294 12.1278Z" fill="black" fill-opacity="0.8"/>
<defs>
<radialGradient id="paint0_radial_4519_55904" cx="0" cy="0" r="1" gradientUnits="userSpaceOnUse" gradientTransform="translate(27.7266 21.324) scale(39.8207 30.7857)">
<stop offset="0.199" stop-color="#FEC832"/>
<stop offset="0.601" stop-color="#FCD667"/>
<stop offset="0.68" stop-color="#FDDA75"/>
<stop offset="0.886" stop-color="#FEE496"/>
<stop offset="1" stop-color="#FFE8A2"/>
</radialGradient>
</defs>
</svg>
