<?xml version="1.0" encoding="utf-8"?>
<svg width="auto" height="auto" viewBox="0 0 512 512" version="1.1"
  xmlns:xlink="http://www.w3.org/1999/xlink"
  xmlns="http://www.w3.org/2000/svg">
  <defs>
    <linearGradient x1="0.06545921" y1="0.29124564" x2="0.9997804" y2="0.6308404" id="gradient_1">
      <stop offset="0%" stop-color="#4CAF50" />
      <stop offset="48.899998%" stop-color="#4AAF50" />
      <stop offset="66.5%" stop-color="#43AD50" />
      <stop offset="79%" stop-color="#38AA50" />
      <stop offset="89.200005%" stop-color="#27A550" />
      <stop offset="97.799995%" stop-color="#11A050" />
      <stop offset="100%" stop-color="#0A9E50" />
    </linearGradient>
    <linearGradient x1="0.5000001" y1="1" x2="0.5000001" y2="0.28007495" id="gradient_2">
      <stop offset="0%" stop-color="#FFD747" />
      <stop offset="48.2%" stop-color="#FFD645" />
      <stop offset="65.5%" stop-color="#FED43E" />
      <stop offset="77.9%" stop-color="#FCCF33" />
      <stop offset="87.9%" stop-color="#FAC922" />
      <stop offset="96.4%" stop-color="#F7C10C" />
      <stop offset="100%" stop-color="#F5BC00" />
    </linearGradient>
    <linearGradient x1="0.835389" y1="0.07057607" x2="0.12778099" y2="0.7064235" id="gradient_3">
      <stop offset="0%" stop-color="#F7572F" />
      <stop offset="52.3%" stop-color="#F7552D" />
      <stop offset="71.200005%" stop-color="#F75026" />
      <stop offset="84.6%" stop-color="#F7461B" />
      <stop offset="95.4%" stop-color="#F7390A" />
      <stop offset="100%" stop-color="#F73100" />
    </linearGradient>
    <linearGradient x1="0.14642859" y1="0.14642859" x2="0.85357153" y2="0.85357153" id="gradient_4">
      <stop offset="0%" stop-color="#2AA4F4" />
      <stop offset="100%" stop-color="#007AD9" />
    </linearGradient>
  </defs>
  <g id="glide-app-chrome">
    <path d="M0 0L512 0L512 512L0 512L0 0Z" id="Rectangle" fill="none" fill-rule="evenodd" stroke="none" />
    <g id="Icon" transform="translate(12.000198 12)">
      <path d="M366 244C366 311.356 311.356 366 244 366C176.644 366 122 311.356 122 244C122 176.644 176.644 122 244 122C311.356 122 366 176.644 366 244L366 244Z" id="Shape" fill="#FFFFFF" fill-rule="evenodd" stroke="none" />
      <path d="M333.426 307.562L233.874 487.756C103.822 482.51 0 375.272 0 244C0 109.312 109.312 0 244 0L244 134.2C183.366 134.2 134.2 183.366 134.2 244C134.2 304.634 183.366 353.8 244 353.8C280.966 353.8 313.54 335.622 333.426 307.562L333.426 307.562Z" id="Shape" fill="url(#gradient_1)" fill-rule="evenodd" stroke="none" />
      <path d="M488 244C488 378.81 378.81 488 244 488L233.752 488L333.426 307.562C346.236 289.628 353.8 267.668 353.8 244C353.8 183.366 304.634 134.2 244 134.2L244 0C339.282 0 421.51 54.656 461.77 134.2C478.362 167.262 488 204.472 488 244L488 244Z" id="Shape" fill="url(#gradient_2)" fill-rule="evenodd" stroke="none" />
      <path d="M461.648 134.2L244 134.2C183.366 134.2 134.2 183.366 134.2 244C134.2 262.178 138.592 279.258 146.522 294.386L146.4 294.386L38.5522 112.972L38.3082 112.972C81.4962 45.018 157.502 0 244 0C339.16 0 421.51 54.656 461.648 134.2L461.648 134.2Z" id="Shape" fill="url(#gradient_3)" fill-rule="evenodd" stroke="none" />
      <path d="M329.4 244C329.4 291.177 291.177 329.4 244 329.4C196.823 329.4 158.6 291.177 158.6 244C158.6 196.823 196.823 158.6 244 158.6C291.177 158.6 329.4 196.823 329.4 244L329.4 244Z" id="Shape" fill="url(#gradient_4)" fill-rule="evenodd" stroke="none" />
    </g>
  </g>
</svg>
