<svg xmlns="http://www.w3.org/2000/svg" viewBox="0 0 25 25" style="enable-background:new 0 0 25 25" xml:space="preserve"><path d="M21.8.5H23c.8 0 1.5.7 1.5 1.5v10.7c-.1 6.5-5.4 11.8-12 11.8s-12-5.4-12-12v-.3c.1 4 3.4 7.3 7.5 7.3s7.5-3.3 7.5-7.4V6.9c0-3.6 2.8-6.4 6.3-6.4z" style="fill:#005d53"/><path d="M16 4.3c-2.6.8-4.5 3.3-4.5 6.2V12c0 3-2.5 5.5-5.5 5.5S.5 15 .5 12v.7-.5c.1 4 3.4 7.3 7.5 7.3s7.5-3.3 7.5-7.4V6.8c0-.9.2-1.7.5-2.5z" style="fill:#0a9888"/><circle cx="6" cy="12" r="5.5" style="fill:#40dcc9"/></svg>