<?xml version="1.0" encoding="UTF-8"?>
<svg data-slug-id="azure-applied-ai-services" viewBox="0 0 400 200" xmlns="http://www.w3.org/2000/svg">
<g clip-path="url(#f)">
<path d="m178.53 140.82s-16.508-5.705 2.516-20.606c17.155-11.543 36.988-18.418 57.568-19.956l17.552-34.567c-25.378-3.6096-51.238-1.3995-75.647 6.4651-38.724 13.561-77.418 56.044-50.568 78.161 8.101 3.549 17.082 4.541 25.755 2.846 8.674-1.696 16.632-6 22.824-12.343z" fill="url(#e)"/>
<path d="m204.53 107.92v-24.079c0-1.2607 0.497-2.4699 1.383-3.3614s2.088-1.3923 3.34-1.3923h3.143c0.456 2.0758 1.657 3.9091 3.373 5.1482 1.717 1.2392 3.827 1.7969 5.927 1.5661 2.1-0.2307 4.042-1.2336 5.452-2.8162 1.41-1.5827 2.19-3.6337 2.19-5.7596 0-2.1258-0.78-4.1768-2.19-5.7595s-3.352-2.5856-5.452-2.8163-4.21 0.327-5.927 1.5661c-1.716 1.2392-2.917 3.0725-3.373 5.1483h-3.192c-2.233 0.0026-4.374 0.8965-5.953 2.4856-1.579 1.5892-2.468 3.7437-2.47 5.991v15.102h-5.967c-0.456-2.0758-1.657-3.9091-3.374-5.1482-1.716-1.2392-3.827-1.7969-5.926-1.5662-2.1 0.2307-4.042 1.2336-5.452 2.8163s-2.19 3.6337-2.19 5.7595c0 2.126 0.78 4.177 2.19 5.76 1.41 1.582 3.352 2.585 5.452 2.816 2.099 0.231 4.21-0.327 5.926-1.566 1.717-1.239 2.918-3.073 3.374-5.148h5.967v6.615c1.213-0.471 2.446-0.921 3.749-1.361zm16.229-35.608c0.966-2e-3 1.911 0.2845 2.715 0.8232 0.805 0.5388 1.432 1.3055 1.803 2.2032s0.469 1.8861 0.282 2.8399c-0.187 0.9539-0.651 1.8304-1.334 2.5186-0.682 0.6882-1.552 1.1572-2.5 1.3476-0.947 0.1904-1.929 0.0937-2.822-0.2779s-1.656-1.0014-2.193-1.8097-0.824-1.7588-0.824-2.7311c0-1.2929 0.506-2.5337 1.409-3.4535 0.903-0.9199 2.13-1.4445 3.414-1.4603h0.05zm-34.308 33.396c-0.966 0-1.911-0.289-2.714-0.829s-1.429-1.308-1.798-2.207c-0.369-0.898-0.466-1.887-0.276-2.8403 0.189-0.9535 0.655-1.829 1.339-2.5158s1.554-1.154 2.502-1.3425 1.93-0.0898 2.822 0.2837 1.654 1.0048 2.189 1.8142c0.536 0.8094 0.82 1.7605 0.818 2.7327-2e-3 1.302-0.518 2.549-1.433 3.468-0.916 0.92-2.156 1.436-3.449 1.436z" fill="url(#d)"/>
<path d="m154.05 112.02h-26.154c-0.795 1.241-1.511 2.482-2.178 3.723h28.332c2.233-3e-3 4.374-0.897 5.953-2.486s2.467-3.743 2.47-5.991v-2.071c2.065-0.459 3.89-1.669 5.123-3.398 1.233-1.73 1.788-3.8564 1.559-5.9724-0.229-2.1159-1.227-4.0722-2.802-5.4934-1.574-1.4211-3.615-2.2071-5.73-2.2071s-4.155 0.786-5.73 2.2071c-1.574 1.4212-2.572 3.3775-2.801 5.4934-0.229 2.116 0.326 4.2424 1.559 5.9724 1.233 1.729 3.057 2.939 5.123 3.398v2.061c1e-3 0.625-0.12 1.245-0.357 1.823-0.237 0.577-0.584 1.103-1.023 1.545-0.439 0.443-0.96 0.794-1.534 1.033-0.574 0.24-1.189 0.363-1.81 0.363zm1.691-15.232c0-0.9719 0.286-1.9219 0.823-2.73 0.536-0.8081 1.299-1.4379 2.191-1.8098 0.892-0.372 1.874-0.4693 2.821-0.2797s1.817 0.6576 2.5 1.3449c0.683 0.6872 1.148 1.5627 1.336 2.5159 0.189 0.9532 0.092 1.9412-0.278 2.8391-0.369 0.8979-0.995 1.6655-1.798 2.2055s-1.747 0.828-2.713 0.828c-1.295-3e-3 -2.537-0.523-3.453-1.446-0.915-0.9229-1.429-2.1738-1.429-3.4779v0.01z" fill="url(#c)"/>
<path d="m171.9 132.64h-8.075c-0.456-2.079-1.658-3.915-3.377-5.156-1.718-1.241-3.831-1.8-5.934-1.569-2.102 0.231-4.046 1.235-5.458 2.819-1.413 1.585-2.194 3.639-2.194 5.767 0 2.129 0.781 4.182 2.194 5.767 1.412 1.584 3.356 2.588 5.458 2.819 2.103 0.231 4.216-0.328 5.934-1.569 1.719-1.241 2.921-3.077 3.377-5.156h8.95c-0.661-1.122-0.966-2.421-0.875-3.722zm-16.448 6.775c-0.966 0-1.91-0.288-2.713-0.828s-1.429-1.308-1.798-2.206c-0.37-0.897-0.467-1.885-0.278-2.839 0.188-0.953 0.653-1.828 1.336-2.516 0.683-0.687 1.553-1.155 2.5-1.344 0.947-0.19 1.929-0.093 2.821 0.279s1.655 1.002 2.191 1.81c0.537 0.808 0.823 1.758 0.823 2.73 0 1.303-0.514 2.553-1.43 3.475-0.915 0.921-2.157 1.439-3.452 1.439z" fill="url(#b)"/>
<path d="m129.95 150.32c62.322 38.129 122.78 25.66 168.97-80.224 0.726-1.6795 1.095-3.4929 1.084-5.3242v-31.465c0-0.8768-0.345-1.7179-0.96-2.3388-0.616-0.621-1.45-0.9712-2.321-0.9738h-29.963c-1.334 0.0618-2.622 0.5039-3.716 1.2747-1.093 0.7708-1.946 1.8385-2.46 3.0787-31.126 88.5-105.89 126.97-130.63 115.97z" fill="url(#a)"/>
</g>
<defs>
<radialGradient id="e" cx="0" cy="0" r="1" gradientTransform="translate(152.05 56.554) rotate(59.98) scale(97.161 136.37)" gradientUnits="userSpaceOnUse">
<stop stop-color="#9CEBFF" offset="0"/>
<stop stop-color="#50E6FF" offset=".667"/>
<stop stop-color="#32BEDD" offset="1"/>
</radialGradient>
<radialGradient id="d" cx="0" cy="0" r="1" gradientTransform="translate(139.72 51.011) scale(183.05 184.22)" gradientUnits="userSpaceOnUse">
<stop stop-color="#E7F9FF" offset="0"/>
<stop stop-color="#C3F1FF" offset=".277"/>
<stop stop-color="#C1F1FF" offset=".408"/>
<stop stop-color="#9CEBFF" offset="1"/>
</radialGradient>
<radialGradient id="c" cx="0" cy="0" r="1" gradientTransform="translate(139.71 51.009) scale(183.05 184.22)" gradientUnits="userSpaceOnUse">
<stop stop-color="#E7F9FF" offset="0"/>
<stop stop-color="#C3F1FF" offset=".277"/>
<stop stop-color="#C1F1FF" offset=".408"/>
<stop stop-color="#9CEBFF" offset="1"/>
</radialGradient>
<radialGradient id="b" cx="0" cy="0" r="1" gradientTransform="translate(139.71 51.007) scale(183.05 184.22)" gradientUnits="userSpaceOnUse">
<stop stop-color="#E7F9FF" offset="0"/>
<stop stop-color="#C3F1FF" offset=".277"/>
<stop stop-color="#C1F1FF" offset=".408"/>
<stop stop-color="#9CEBFF" offset="1"/>
</radialGradient>
<linearGradient id="a" x1="271.66" x2="157.69" y1="55.99" y2="182.96" gradientUnits="userSpaceOnUse">
<stop stop-color="#0078D4" offset="0"/>
<stop stop-color="#005BA1" offset=".712"/>
<stop stop-color="#003067" offset="1"/>
</linearGradient>
<clipPath id="f">
<rect transform="translate(121 30)" width="179" height="140" fill="#fff"/>
</clipPath>
</defs>
</svg>
