<?xml version="1.0" encoding="UTF-8" standalone="no"?>
<svg
   id="b089cfca-0de1-451c-a1ca-6680ea50cb4f"
   width="150"
   height="149.22377"
   viewBox="0 0 150 149.22377"
   version="1.1"
   sodipodi:docname="Azure-Cosmos-DB.svg"
   inkscape:version="1.2-beta (1b65182ce9, 2022-04-05)"
   xmlns:inkscape="http://www.inkscape.org/namespaces/inkscape"
   xmlns:sodipodi="http://sodipodi.sourceforge.net/DTD/sodipodi-0.dtd"
   xmlns="http://www.w3.org/2000/svg"
   xmlns:svg="http://www.w3.org/2000/svg"
   xmlns:rdf="http://www.w3.org/1999/02/22-rdf-syntax-ns#"
   xmlns:cc="http://creativecommons.org/ns#"
   xmlns:dc="http://purl.org/dc/elements/1.1/">
  <sodipodi:namedview
     id="namedview31"
     pagecolor="#505050"
     bordercolor="#eeeeee"
     borderopacity="1"
     inkscape:pageshadow="0"
     inkscape:pageopacity="0"
     inkscape:pagecheckerboard="0"
     inkscape:deskcolor="#505050"
     showgrid="false"
     inkscape:zoom="2.8784722"
     inkscape:cx="14.93848"
     inkscape:cy="30.571773"
     inkscape:window-width="1920"
     inkscape:window-height="1009"
     inkscape:window-x="1912"
     inkscape:window-y="-5"
     inkscape:window-maximized="1"
     inkscape:current-layer="b089cfca-0de1-451c-a1ca-6680ea50cb4f" />
  <defs
     id="defs10">
    <radialGradient
       id="b25d0836-964a-4c84-8c20-855f66e8345e"
       cx="-105.006"
       cy="-10.409"
       r="5.954"
       gradientTransform="matrix(1.036,0,0,1.027,117.739,19.644)"
       gradientUnits="userSpaceOnUse">
      <stop
         offset="0.183"
         stop-color="#5ea0ef"
         id="stop2" />
      <stop
         offset="1"
         stop-color="#0078d4"
         id="stop4" />
    </radialGradient>
    <clipPath
       id="b36c7f5d-2ef1-4760-8a25-eeb9661f4e47">
      <path
         d="M 14.969,7.53 A 6.137,6.137 0 1 1 7.574,2.987 6.137,6.137 0 0 1 14.969,7.53 Z"
         fill="none"
         id="path7" />
    </clipPath>
  </defs>
  <title
     id="title12">Azure Cosmos DB</title>
  <g
     id="g219"
     transform="matrix(8.8235422,0,0,8.8235422,-4.4119883,-4.7999816)">
    <path
       d="M 2.954,5.266 A 0.175,0.175 0 0 1 2.778,5.09 v 0 A 2.012,2.012 0 0 0 0.769,3.081 0.176,0.176 0 0 1 0.593,2.906 v 0 A 0.176,0.176 0 0 1 0.769,2.73 2.012,2.012 0 0 0 2.778,0.72 0.175,0.175 0 0 1 2.954,0.544 v 0 A 0.175,0.175 0 0 1 3.13,0.72 v 0 a 2.012,2.012 0 0 0 2.009,2.009 0.175,0.175 0 0 1 0.176,0.176 v 0 A 0.175,0.175 0 0 1 5.139,3.081 v 0 A 2.011,2.011 0 0 0 3.13,5.09 0.177,0.177 0 0 1 2.954,5.266 Z"
       fill="#50e6ff"
       id="path14" />
    <path
       d="M 15.611,17.456 A 0.141,0.141 0 0 1 15.47,17.315 v 0 a 1.609,1.609 0 0 0 -1.607,-1.607 0.141,0.141 0 0 1 -0.141,-0.14 v 0 a 0.141,0.141 0 0 1 0.141,-0.141 v 0 a 1.608,1.608 0 0 0 1.607,-1.607 0.141,0.141 0 0 1 0.141,-0.141 v 0 a 0.141,0.141 0 0 1 0.141,0.141 v 0 a 1.608,1.608 0 0 0 1.607,1.607 0.141,0.141 0 1 1 0,0.282 v 0 a 1.609,1.609 0 0 0 -1.607,1.607 0.141,0.141 0 0 1 -0.141,0.14 z"
       fill="#50e6ff"
       id="path16" />
    <g
       id="g26">
      <path
         d="M 14.969,7.53 A 6.137,6.137 0 1 1 7.574,2.987 6.137,6.137 0 0 1 14.969,7.53 Z"
         fill="url(#b25d0836-964a-4c84-8c20-855f66e8345e)"
         id="path18"
         style="fill:url(#b25d0836-964a-4c84-8c20-855f66e8345e)" />
      <g
         clip-path="url(#b36c7f5d-2ef1-4760-8a25-eeb9661f4e47)"
         id="g24">
        <path
           d="M 5.709,13.115 A 1.638,1.638 0 1 0 5.714,9.84 1.307,1.307 0 0 0 5.721,9.7 1.651,1.651 0 0 0 4.06,8.064 H 2.832 a 6.251,6.251 0 0 0 1.595,5.051 z"
           fill="#f2f2f2"
           id="path20" />
        <path
           d="m 15.045,7.815 c 0,-0.015 0,-0.03 -0.007,-0.044 a 5.978,5.978 0 0 0 -1.406,-2.88 1.825,1.825 0 0 0 -0.289,-0.09 1.806,1.806 0 0 0 -2.3,1.663 2,2 0 0 0 -0.2,-0.013 1.737,1.737 0 0 0 -0.581,3.374 1.451,1.451 0 0 0 0.541,0.1 h 2.03 a 13.453,13.453 0 0 0 2.212,-2.11 z"
           fill="#f2f2f2"
           id="path22" />
      </g>
    </g>
    <path
       d="M 17.191,3.832 C 16.562,2.785 15.091,2.377 13.036,2.683 a 14.606,14.606 0 0 0 -2.082,0.452 6.456,6.456 0 0 1 1.528,0.767 C 12.723,3.849 12.965,3.786 13.197,3.751 A 7.49,7.49 0 0 1 14.3,3.662 2.188,2.188 0 0 1 16.259,4.387 v 0 c 0.383,0.638 0.06,1.729 -0.886,3 A 16.723,16.723 0 0 1 10.624,11.438 16.758,16.758 0 0 1 4.8,13.7 C 3.236,13.934 2.118,13.7 1.735,13.064 1.352,12.428 1.675,11.334 2.621,10.069 2.738,9.912 2.767,9.835 2.9,9.677 a 6.252,6.252 0 0 1 0.026,-1.63 11.552,11.552 0 0 0 -1.17,1.372 c -1.239,1.657 -1.575,3.147 -0.947,4.194 a 3.165,3.165 0 0 0 2.9,1.249 8.434,8.434 0 0 0 1.251,-0.1 17.855,17.855 0 0 0 6.219,-2.4 17.808,17.808 0 0 0 5.061,-4.332 c 1.243,-1.661 1.579,-3.15 0.951,-4.198 z"
       fill="#50e6ff"
       id="path28" />
  </g>
  <metadata
     id="metadata137">
    <rdf:RDF>
      <cc:Work
         rdf:about="">
        <dc:title>Azure Cosmos DB</dc:title>
      </cc:Work>
    </rdf:RDF>
  </metadata>
</svg>
