<svg xmlns="http://www.w3.org/2000/svg" viewBox="0 0 24 24" fill="none" xmlns:v="https://vecta.io/nano"><g clip-path="url(#C)"><path d="M19.521.899L2.216 4.894A1.57 1.57 0 0 0 1.04 6.777l.463 2.007a1.57 1.57 0 0 0 1.883 1.177l17.305-3.995a1.57 1.57 0 0 0 1.177-1.883l-.463-2.007A1.57 1.57 0 0 0 19.521.899z" fill="url(#A)"/><path d="M1 18h22v3c0 1.1-.9 2-2 2H3c-1.1 0-2-.9-2-2v-3z" fill="#5a4cdb"/><path d="M23 13H8v5h15v-5z" fill="#885ede"/><path d="M16 8H1v5h15V8z" fill="#c689e6"/><g fill="#aa72e1"><path d="M8 13H1v5h7v-5zm8-5h5c1.1 0 2 .9 2 2v3h-7V8z"/></g><path d="M1 16.43V18H2.57C1.7 18 1 17.3 1 16.43Z" fill="#5a4cdb"/><path d="M1 11.43V13H2.57C1.7 13 1 12.3 1 11.43Z" fill="#aa72e1"/><path d="M1 6.43V8H2.57C1.7 8 1 7.3 1 6.43Z" fill="#c689e6"/><g style="mix-blend-mode:soft-light"><path d="M21 8H2.57C1.7 8 1 7.29 1 6.43V8v13c0 1.1.9 2 2 2h18c1.1 0 2-.9 2-2V10c0-1.1-.9-2-2-2z" fill="url(#B)"/></g></g><defs><linearGradient id="A" x1=".687" y1="5.247" x2="13.937" y2="15.909" gradientUnits="userSpaceOnUse"><stop stop-color="#5a4cdb"/><stop offset="1" stop-color="#ad58db"/></linearGradient><linearGradient id="B" x1="1" y1="6.43" x2="25.617" y2="16.771" gradientUnits="userSpaceOnUse"><stop stop-color="#fccef5"/><stop offset="1" stop-color="#5a4cdb"/></linearGradient><clipPath id="C"><path fill="#fff" transform="translate(1)" d="M0 0h22v23H0z"/></clipPath></defs></svg>