<svg xmlns="http://www.w3.org/2000/svg" viewBox="0 0 64 64"><path d="M15.24 35.08h-1.7V29a4.6 4.6 0 00-.54-2.55 2.06 2.06 0 00-1.83-.79 2.26 2.26 0 00-1.85 1A3.8 3.8 0 008.57 29v6h-1.7v-6.21q0-3.12-2.41-3.12a2.23 2.23 0 00-1.84.94A3.87 3.87 0 001.9 29v6H.2V24.49h1.7v1.68a3.6 3.6 0 013.29-1.92 3.06 3.06 0 013 2.19 3.78 3.78 0 013.52-2.19q3.49 0 3.5 4.31zm10.76 0h-1.7v-1.66a3.55 3.55 0 01-3.3 1.9 3.48 3.48 0 01-2.48-.84 2.9 2.9 0 01-.89-2.22q0-3 3.5-3.45l3.17-.44q0-2.7-2.18-2.7A5.21 5.21 0 0018.69 27v-1.77a6.56 6.56 0 013.6-1q3.73 0 3.73 4zm-1.7-5.36l-2.55.35a4.16 4.16 0 00-1.78.58 1.69 1.69 0 00-.6 1.48 1.61 1.61 0 00.55 1.27 2.14 2.14 0 001.47.49 2.72 2.72 0 002.12-.89 3.16 3.16 0 00.82-2.24zm12.14 4.87a5.51 5.51 0 01-2.9.73 4.8 4.8 0 01-3.66-1.47A5.34 5.34 0 0128.49 30a5.87 5.87 0 011.5-4.2 5.24 5.24 0 014-1.59 5.57 5.57 0 012.46.52v1.74a4.31 4.31 0 00-2.52-.83 3.41 3.41 0 00-2.66 1.16 4.42 4.42 0 00-1 3.06 4.21 4.21 0 001 2.94 3.37 3.37 0 002.62 1.08 4.25 4.25 0 002.55-.88zm8.76.73a6.51 6.51 0 01-5.05-2.08 7.71 7.71 0 01-1.9-5.41 8.17 8.17 0 011.93-5.71A6.75 6.75 0 0145.45 20a6.36 6.36 0 014.95 2.07 7.73 7.73 0 011.88 5.41 8.19 8.19 0 01-1.92 5.74 6.63 6.63 0 01-5.16 2.1zm.12-13.75a4.78 4.78 0 00-3.79 1.69 6.52 6.52 0 00-1.46 4.43 6.57 6.57 0 001.42 4.41 4.64 4.64 0 003.71 1.67 4.87 4.87 0 003.85-1.59 6.51 6.51 0 001.41-4.46 6.8 6.8 0 00-1.36-4.54 4.68 4.68 0 00-3.77-1.61zm9.18 12.91v-2a4 4 0 00.84.56 6.79 6.79 0 001 .42 8.16 8.16 0 001.09.26 6.08 6.08 0 001 .09 4 4 0 002.39-.59 2.23 2.23 0 00.53-2.76 3 3 0 00-.73-.81 7.33 7.33 0 00-1.1-.7l-1.37-.71q-.78-.39-1.45-.8a6.29 6.29 0 01-1.17-.89 3.72 3.72 0 01-.78-1.1A3.76 3.76 0 0155 22.2a3.81 3.81 0 011.13-1.2 5.3 5.3 0 011.65-.72 7.57 7.57 0 011.89-.28 7.23 7.23 0 013.2.53v2a5.79 5.79 0 00-3.37-.91 5.53 5.53 0 00-1.14.12 3.21 3.21 0 00-1 .39 2.24 2.24 0 00-.72.69 1.84 1.84 0 00-.28 1 2.13 2.13 0 00.21 1 2.39 2.39 0 00.63.75 6.24 6.24 0 001 .66q.59.32 1.37.7t1.51.83a6.91 6.91 0 011.25 1 4.28 4.28 0 01.85 1.17 3.29 3.29 0 01.31 1.47 3.72 3.72 0 01-.43 1.86 3.52 3.52 0 01-1.16 1.24 5.05 5.05 0 01-1.68.69 9.23 9.23 0 01-2 .21 8.11 8.11 0 01-.87-.06q-.52-.06-1.05-.17a8.3 8.3 0 01-1-.27 3.14 3.14 0 01-.8-.42z"/></svg>