<svg xmlns="http://www.w3.org/2000/svg" viewBox="0 0 64 64"><path d="M58.88 32.57a.51.51 0 010-.62c1.17-1.92 2.32-3.84 3.49-5.76a.75.75 0 00.09-.65c-2.21-8-6.68-24.25-6.7-24.33l-25 6.56a.89.89 0 00-.48.38q-1.7 2.88-3.37 5.79c-.16.28-5.07.08-7.34.07a.9.9 0 00-.57.22C13 20.06.66 32.13.5 32.26c.19.16 12.08 11.68 18 17.48a.83.83 0 00.65.25h6.82a1.34 1.34 0 01.9.59c1.11 1.93 2.25 3.86 3.36 5.79a.78.78 0 00.53.4c8.18 2.13 24.94 6.54 25 6.54q3.35-12.19 6.7-24.37a.81.81 0 00-.08-.57q-1.74-2.91-3.5-5.8zm-31.79-17a1.2 1.2 0 01.52-.31c6.21-1.56 18.86-4.72 19.05-4.76L35.8 28.82a.67.67 0 01-.67.39H13.37c.13-.15 9.23-9.21 13.71-13.66zm.58 33.73a1.34 1.34 0 01-.59-.33c-4.47-4.43-13.3-13.74-13.45-13.9h21.74a.67.67 0 01.67.38c3.54 6 10.51 18.44 10.61 18.62zm29.7-16.74c-1.71 6-5.23 18.22-5.29 18.39L41.17 32.58a.52.52 0 010-.63c3.58-6 10.83-18.25 10.94-18.42l.83 2.87 4.44 15.52a1.22 1.22 0 01-.01.64z"/></svg>