<svg id="Icons" xmlns="http://www.w3.org/2000/svg" viewBox="0 0 64 64"><defs><style>.cls-1{fill:#a4c439}</style></defs><rect class="cls-1" x="23.29" y="-.28" width="1" height="9" rx=".5" ry=".5" transform="rotate(-35 23.791 4.224)"/><rect class="cls-1" x="41.13" y="-.28" width="1" height="9" rx=".5" ry=".5" transform="rotate(-145 41.625 4.224)"/><path class="cls-1" d="M10 22a3.94 3.94 0 00-4 3.88v16.24A3.94 3.94 0 0010 46a3.94 3.94 0 004-3.88V25.88A3.94 3.94 0 0010 22m15 17a3.94 3.94 0 00-4 3.88v16.24a4 4 0 008 0V42.88A3.94 3.94 0 0025 39m14 0a3.94 3.94 0 00-4 3.88v16.24a4 4 0 008 0V42.88A3.94 3.94 0 0039 39m15-17a3.94 3.94 0 00-4 3.88v16.24a4 4 0 008 0V25.88A3.94 3.94 0 0054 22"/><path class="cls-1" d="M15 45a5.93 5.93 0 005.83 6h22.34A5.93 5.93 0 0049 45V23H15zm34-23.07a17 17 0 00-34 0z"/><path d="M39.5 15a1.5 1.5 0 111.5-1.5 1.5 1.5 0 01-1.5 1.5m-15 0a1.5 1.5 0 111.5-1.5 1.5 1.5 0 01-1.5 1.5" fill="#fff"/></svg>