<?xml version="1.0" encoding="utf-8"?>
<svg width="auto" height="auto" viewBox="0 0 360 84" version="1.1" xmlns:xlink="http://www.w3.org/1999/xlink" xmlns="http://www.w3.org/2000/svg">
  <g id="microsoft_azure_logo">
    <path d="M0 0L360 0L360 84L0 84L0 0Z" id="Background" fill="none" fill-rule="evenodd" stroke="none" />
    <g id="Icon-and-Text" transform="translate(11.194946 6.005005)">
      <g id="MS-logotype" transform="translate(93.59003 11.192535)">
        <path d="M46.76 3.19746L46.76 46.3975L39.26 46.3975L39.26 12.5375L39.14 12.5375L25.73 46.3975L20.73 46.3975L7.02 12.5375L6.92999 12.5375L6.92999 46.3975L0 46.3975L0 3.19746L10.76 3.19746L23.17 35.1975L23.35 35.1975L36.45 3.19746L46.76 3.19746ZM53.03 6.48746C53.0188 5.34639 53.4954 4.25484 54.34 3.48747C55.1808 2.689 56.3006 2.25113 57.46 2.26746C58.6492 2.23254 59.8011 2.68395 60.65 3.51746C61.4798 4.29197 61.9415 5.38256 61.92 6.51747C61.9484 7.65988 61.473 8.75696 60.62 9.51747C59.7638 10.3147 58.6296 10.7454 57.46 10.7175C56.2885 10.7517 55.1528 10.3119 54.31 9.49746C53.4674 8.727 53.0004 7.62888 53.03 6.48746L53.03 6.48746ZM61.03 15.4275L61.03 46.4275L53.74 46.4275L53.74 15.4275L61.03 15.4275ZM83.15 41.0975C84.3791 41.0679 85.5924 40.8137 86.73 40.3475C88.0223 39.8492 89.2403 39.1763 90.35 38.3475L90.35 45.1275C89.0966 45.8191 87.7491 46.3244 86.35 46.6275C84.7558 46.9894 83.1247 47.1639 81.49 47.1475C77.374 47.3162 73.3754 45.7536 70.4644 42.8387C67.5533 39.9239 65.9959 35.9233 66.17 31.8075C65.9976 27.3009 67.5578 22.8994 70.53 19.5075C73.45 16.2775 77.53 14.6675 82.92 14.6675C84.3165 14.6734 85.707 14.8514 87.06 15.1975C88.2229 15.4541 89.3486 15.8573 90.41 16.3975L90.41 23.3975C89.3483 22.6103 88.1885 21.9649 86.96 21.4775C85.8115 21.0345 84.591 20.8073 83.36 20.8075C80.7325 20.6902 78.1818 21.7105 76.36 23.6075C74.5161 25.6805 73.5639 28.3969 73.71 31.1675C73.71 34.2975 74.55 36.7375 76.25 38.4875C78.0941 40.2935 80.6128 41.2407 83.19 41.0975L83.15 41.0975ZM111.15 14.9175C111.676 14.9129 112.201 14.9531 112.72 15.0375C113.118 15.1014 113.51 15.2019 113.89 15.3375L113.89 22.7175C113.376 22.3725 112.813 22.1062 112.22 21.9275C111.36 21.6566 110.461 21.5283 109.56 21.5475C107.771 21.5396 106.084 22.3775 105.01 23.8075C103.777 25.3208 103.16 27.6541 103.16 30.8075L103.16 46.4375L95.87 46.4375L95.87 15.4375L103.16 15.4375L103.16 20.3175L103.28 20.3175C103.863 18.717 104.907 17.3251 106.28 16.3175C107.712 15.3504 109.413 14.8604 111.14 14.9175L111.15 14.9175ZM114.29 31.3675C114.29 26.2475 115.737 22.1908 118.63 19.1975C121.523 16.2041 125.54 14.7075 130.68 14.7075C135.52 14.7075 139.3 16.1475 142.02 19.0275C144.74 21.9075 146.1 25.8008 146.1 30.7075C146.1 35.7275 144.653 39.7275 141.76 42.7075C138.867 45.6875 134.93 47.1741 129.95 47.1675C125.15 47.1675 121.34 45.7541 118.52 42.9275C115.7 40.1008 114.287 36.2475 114.28 31.3675L114.29 31.3675ZM121.88 31.1275C121.88 34.3541 122.613 36.8241 124.08 38.5375C125.681 40.3045 128 41.2467 130.38 41.0975C132.688 41.2478 134.931 40.2986 136.43 38.5375C137.817 36.8241 138.51 34.2941 138.51 30.9475C138.51 27.6008 137.793 25.0841 136.36 23.3975C134.851 21.6809 132.643 20.7458 130.36 20.8575C127.983 20.7293 125.681 21.7121 124.13 23.5175C122.623 25.2975 121.87 27.8341 121.87 31.1275L121.88 31.1275ZM156.95 23.5675C156.903 24.4921 157.27 25.3896 157.95 26.0175C159.298 26.9792 160.781 27.7373 162.35 28.2675C164.688 29.0488 166.794 30.3994 168.48 32.1975C169.667 33.7007 170.29 35.5726 170.24 37.4875C170.312 40.2256 169.061 42.8308 166.88 44.4875C164.64 46.2475 161.62 47.1375 157.8 47.1375C156.368 47.1205 154.941 46.9631 153.54 46.6675C152.167 46.4198 150.825 46.0207 149.54 45.4775L149.54 38.3075C150.859 39.2283 152.295 39.9682 153.81 40.5075C155.141 41.0104 156.548 41.2843 157.97 41.3175C159.225 41.3989 160.481 41.1616 161.62 40.6275C162.416 40.1367 162.869 39.2396 162.79 38.3075C162.792 37.3161 162.343 36.3777 161.57 35.7574C160.154 34.7413 158.598 33.9362 156.95 33.3675C154.759 32.5857 152.793 31.2813 151.22 29.5675C150.056 28.0296 149.462 26.1349 149.54 24.2075C149.488 21.5163 150.721 18.9611 152.86 17.3275C155.335 15.4442 158.393 14.4887 161.5 14.6275C162.722 14.6414 163.94 14.7618 165.14 14.9875C166.295 15.1758 167.425 15.491 168.51 15.9275L168.51 22.8575C167.461 22.1643 166.329 21.6065 165.14 21.1975C163.913 20.7481 162.617 20.5146 161.31 20.5075C160.176 20.4418 159.049 20.7244 158.08 21.3175C157.331 21.8152 156.898 22.6693 156.94 23.5675L156.95 23.5675ZM173.36 31.3675C173.36 26.2475 174.807 22.1908 177.7 19.1975C180.593 16.2041 184.61 14.7075 189.75 14.7075C194.59 14.7075 198.37 16.1475 201.09 19.0275C203.81 21.9075 205.173 25.8008 205.18 30.7075C205.18 35.7275 203.733 39.7275 200.84 42.7075C197.947 45.6875 194.01 47.1742 189.03 47.1675C184.23 47.1675 180.42 45.7542 177.6 42.9275C174.78 40.1008 173.363 36.2475 173.35 31.3675L173.36 31.3675ZM180.96 31.1275C180.96 34.3541 181.69 36.8242 183.15 38.5375C184.752 40.3033 187.07 41.2452 189.45 41.0975C191.76 41.2462 194.006 40.2976 195.51 38.5375C196.89 36.8242 197.58 34.2942 197.58 30.9475C197.58 27.6175 196.87 25.0975 195.43 23.3975C193.921 21.6809 191.713 20.7458 189.43 20.8575C187.056 20.731 184.758 21.7137 183.21 23.5175C181.68 25.2975 180.95 27.8075 180.95 31.1275L180.96 31.1275ZM229.36 21.3975L218.49 21.3975L218.49 46.3975L211.11 46.3975L211.11 21.3975L205.93 21.3975L205.93 15.3975L211.11 15.3975L211.11 11.0975C211.004 8.10343 212.158 5.202 214.29 3.09748C216.468 1.01195 219.397 -0.102791 222.41 0.00747017C223.196 0.00312284 223.981 0.0498833 224.76 0.147464C225.375 0.220505 225.981 0.3545 226.57 0.547459L226.57 6.80747C226.164 6.59812 225.738 6.42737 225.3 6.29746C224.627 6.08634 223.925 5.98503 223.22 5.99746C221.89 5.91394 220.595 6.44024 219.7 7.42747C218.792 8.64297 218.352 10.1443 218.46 11.6575L218.46 15.3875L229.32 15.3875L229.32 8.38747L236.64 6.16746L236.64 15.3475L244.02 15.3475L244.02 21.3475L236.64 21.3475L236.64 35.8375C236.503 37.2462 236.856 38.6589 237.64 39.8375C238.508 40.6844 239.702 41.1115 240.91 41.0075C241.429 40.989 241.943 40.8878 242.43 40.7075C242.974 40.53 243.494 40.2883 243.98 39.9875L243.98 45.9875C243.251 46.3349 242.477 46.5773 241.68 46.7075C240.635 46.9326 239.569 47.0466 238.5 47.0475C235.43 47.0475 233.12 46.2275 231.59 44.5875C230.06 42.9475 229.28 40.4875 229.28 37.1975L229.36 21.3975Z" id="Shape" fill="#737373" fill-rule="evenodd" stroke="none" />
      </g>
      <g id="MS-symbol">
        <path d="M0 0L34.22 0L34.22 34.22L0 34.22L0 0Z" id="Rectangle" fill="#F25022" fill-rule="evenodd" stroke="none" />
        <path d="M37.77 0L71.99 0L71.99 34.22L37.77 34.22L37.77 0Z" id="Rectangle" fill="#7FBA00" fill-rule="evenodd" stroke="none" />
        <path d="M0 37.77L34.22 37.77L34.22 71.99L0 71.99L0 37.77Z" id="Rectangle" fill="#00A4EF" fill-rule="evenodd" stroke="none" />
        <path d="M37.77 37.77L71.99 37.77L71.99 71.99L37.77 71.99L37.77 37.77Z" id="Rectangle" fill="#FFB900" fill-rule="evenodd" stroke="none" />
        <path d="M0 0L34.22 0L34.22 34.22L0 34.22L0 0Z" id="Rectangle" fill="#F25022" fill-rule="evenodd" stroke="none" />
        <path d="M37.77 0L71.99 0L71.99 34.22L37.77 34.22L37.77 0Z" id="Rectangle" fill="#7FBA00" fill-rule="evenodd" stroke="none" />
        <path d="M0 37.77L34.22 37.77L34.22 71.99L0 71.99L0 37.77Z" id="Rectangle" fill="#00A4EF" fill-rule="evenodd" stroke="none" />
        <path d="M37.77 37.77L71.99 37.77L71.99 71.99L37.77 71.99L37.77 37.77Z" id="Rectangle" fill="#FFB900" fill-rule="evenodd" stroke="none" />
      </g>
    </g>
  </g>
</svg>
