<svg xmlns="http://www.w3.org/2000/svg" fill="none" viewBox="0 0 32 32">
  <path fill="#0364B8" d="m18.4095 16.3664 6.2578-3.7698c-.4279-1.6683-1.3385-3.17323-2.6178-4.32628-1.2794-1.15305-2.8705-1.90296-4.5741-2.15579-1.7036-.25283-3.4439.00265-5.003.73446-1.5591.7318-2.86752 1.90738-3.76146 3.37951l9.69856 6.1379Z"/>
  <path fill="#0078D4" d="m12.6774 11.0375-.0003.001c-1.1044-.684-2.3781-1.04556-3.67714-1.0438-.03 0-.05955.00188-.08946.00225-1.27146.01575-2.51459.37765-3.5958 1.04685-1.08122.6692-1.95965 1.6204-2.54089 2.7513-.58123 1.1309-.84331 2.3989-.75807 3.6676.08525 1.2687.5146 2.4902 1.24191 3.5332l9.02865-1.4464 6.269-4.9912-5.8779-3.5208Z"/>
  <path fill="#1490DF" d="M24.6857 12.6238c-.127-.0084-.2547-.0143-.3839-.0143-.7754-.0008-1.5427.1576-2.2544.4653l-.0002-.0006-3.5025 1.474 3.8658 4.913 6.8985 1.5347c.4513-.8378.6852-1.7754.6802-2.727-.005-.9516-.2486-1.8868-.7087-2.7198-.46-.833-1.1217-1.5373-1.9244-2.0484-.8028-.511-1.7209-.8125-2.6704-.8768v-.0001Z"/>
  <path fill="#28A8EA" d="M18.5553 14.5637 3.25757 21.0012c.64415.9261 1.50286 1.6825 2.50281 2.2047.99994.5222 2.11142.7947 3.23951.7941H24.3124c1.0267.0003 2.0343-.2774 2.9159-.8036.8816-.5262 1.6043-1.2813 2.0914-2.1851l-10.7644-6.4476Z"/>
</svg>
