<svg viewBox="0 0 431 82" fill="none" xmlns="http://www.w3.org/2000/svg">
<path d="M90.7836 11.3501L67.1335 64.7891H52.5728L76.2229 11.3501H90.7836Z" fill="#0D9488"/>
<path d="M113.121 11.3501L89.471 64.7891H74.9102L98.5604 11.3501H113.121Z" fill="#0D9488"/>
<path d="M38.2109 11.3501L14.5607 64.7891H0L23.6501 11.3501H38.2109Z" fill="#0D9488"/>
<path d="M60.5483 11.3501L36.8982 64.7891H22.3375L45.9876 11.3501H60.5483Z" fill="#0D9488"/>
<path d="M46.7574 11.3501L70.4075 64.7891H84.9683L61.3181 11.3501H46.7574Z" fill="#14B8A6"/>
<path d="M24.4199 11.3501L48.0701 64.7891H62.6308L38.9806 11.3501H24.4199Z" fill="#14B8A6"/>
<path d="M193.588 18.592L182.112 61H167.748L161.06 33.488L154.144 61H139.856L128.304 18.592H141.3L147.304 48.916L154.448 18.592H168.204L175.424 48.764L181.352 18.592H193.588ZM204.32 14.184C202.04 14.184 200.165 13.5253 198.696 12.208C197.277 10.84 196.568 9.168 196.568 7.192C196.568 5.16533 197.277 3.49333 198.696 2.176C200.165 0.807996 202.04 0.123996 204.32 0.123996C206.549 0.123996 208.373 0.807996 209.792 2.176C211.261 3.49333 211.996 5.16533 211.996 7.192C211.996 9.168 211.261 10.84 209.792 12.208C208.373 13.5253 206.549 14.184 204.32 14.184ZM210.78 18.592V61H197.784V18.592H210.78ZM245.278 18.136C250.243 18.136 254.195 19.7573 257.134 23C260.123 26.192 261.618 30.6 261.618 36.224V61H248.698V37.972C248.698 35.1347 247.963 32.9307 246.494 31.36C245.025 29.7893 243.049 29.004 240.566 29.004C238.083 29.004 236.107 29.7893 234.638 31.36C233.169 32.9307 232.434 35.1347 232.434 37.972V61H219.438V18.592H232.434V24.216C233.751 22.3413 235.525 20.872 237.754 19.808C239.983 18.6933 242.491 18.136 245.278 18.136ZM267.305 39.72C267.305 35.3627 268.116 31.5373 269.737 28.244C271.409 24.9507 273.664 22.4173 276.501 20.644C279.338 18.8707 282.505 17.984 286.001 17.984C288.788 17.984 291.321 18.5667 293.601 19.732C295.932 20.8973 297.756 22.468 299.073 24.444V4.76H312.069V61H299.073V54.92C297.857 56.9467 296.109 58.568 293.829 59.784C291.6 61 288.99 61.608 286.001 61.608C282.505 61.608 279.338 60.7213 276.501 58.948C273.664 57.124 271.409 54.5653 269.737 51.272C268.116 47.928 267.305 44.0773 267.305 39.72ZM299.073 39.796C299.073 36.5533 298.161 33.9947 296.337 32.12C294.564 30.2453 292.385 29.308 289.801 29.308C287.217 29.308 285.013 30.2453 283.189 32.12C281.416 33.944 280.529 36.4773 280.529 39.72C280.529 42.9627 281.416 45.5467 283.189 47.472C285.013 49.3467 287.217 50.284 289.801 50.284C292.385 50.284 294.564 49.3467 296.337 47.472C298.161 45.5973 299.073 43.0387 299.073 39.796Z" fill="#F4F4F5"/>
<path d="M331.883 4.76V61H321.243V4.76H331.883ZM360.331 61.684C356.278 61.684 352.63 60.7973 349.387 59.024C346.145 57.2 343.586 54.6413 341.711 51.348C339.887 48.0547 338.975 44.2547 338.975 39.948C338.975 35.6413 339.913 31.8413 341.787 28.548C343.713 25.2547 346.322 22.7213 349.615 20.948C352.909 19.124 356.582 18.212 360.635 18.212C364.689 18.212 368.362 19.124 371.655 20.948C374.949 22.7213 377.533 25.2547 379.407 28.548C381.333 31.8413 382.295 35.6413 382.295 39.948C382.295 44.2547 381.307 48.0547 379.331 51.348C377.406 54.6413 374.771 57.2 371.427 59.024C368.134 60.7973 364.435 61.684 360.331 61.684ZM360.331 52.412C362.257 52.412 364.055 51.956 365.727 51.044C367.45 50.0813 368.818 48.6627 369.831 46.788C370.845 44.9133 371.351 42.6333 371.351 39.948C371.351 35.9453 370.287 32.88 368.159 30.752C366.082 28.5733 363.523 27.484 360.483 27.484C357.443 27.484 354.885 28.5733 352.807 30.752C350.781 32.88 349.767 35.9453 349.767 39.948C349.767 43.9507 350.755 47.0413 352.731 49.22C354.758 51.348 357.291 52.412 360.331 52.412ZM405.832 18.212C408.974 18.212 411.735 18.8453 414.116 20.112C416.498 21.328 418.372 22.924 419.74 24.9V18.896H430.456V61.304C430.456 65.2053 429.671 68.676 428.1 71.716C426.53 74.8067 424.174 77.2387 421.032 79.012C417.891 80.836 414.091 81.748 409.632 81.748C403.654 81.748 398.739 80.3547 394.888 77.568C391.088 74.7813 388.935 70.9813 388.428 66.168H398.992C399.55 68.0933 400.74 69.6133 402.564 70.728C404.439 71.8933 406.694 72.476 409.328 72.476C412.419 72.476 414.927 71.5387 416.852 69.664C418.778 67.84 419.74 65.0533 419.74 61.304V54.768C418.372 56.744 416.472 58.3907 414.04 59.708C411.659 61.0253 408.923 61.684 405.832 61.684C402.286 61.684 399.043 60.772 396.104 58.948C393.166 57.124 390.835 54.5653 389.112 51.272C387.44 47.928 386.604 44.1027 386.604 39.796C386.604 35.54 387.44 31.7653 389.112 28.472C390.835 25.1787 393.14 22.6453 396.028 20.872C398.967 19.0987 402.235 18.212 405.832 18.212ZM419.74 39.948C419.74 37.364 419.234 35.16 418.22 33.336C417.207 31.4613 415.839 30.0427 414.116 29.08C412.394 28.0667 410.544 27.56 408.568 27.56C406.592 27.56 404.768 28.0413 403.096 29.004C401.424 29.9667 400.056 31.3853 398.992 33.26C397.979 35.084 397.472 37.2627 397.472 39.796C397.472 42.3293 397.979 44.5587 398.992 46.484C400.056 48.3587 401.424 49.8027 403.096 50.816C404.819 51.8293 406.643 52.336 408.568 52.336C410.544 52.336 412.394 51.8547 414.116 50.892C415.839 49.8787 417.207 48.46 418.22 46.636C419.234 44.7613 419.74 42.532 419.74 39.948Z" fill="#F9FAFB"/>
</svg>
