<svg width="24" height="24" viewBox="0 0 24 24" fill="none" xmlns="http://www.w3.org/2000/svg">
<g filter="url(#filter0_dd)">
<path d="M6.78917 18.9997H4.42094C3.6631 18.9997 3 18.2497 3 17.3925V14.7139H6.78917V18.9997Z" fill="#2279C2"/>
<path d="M20.9985 14.7145H3V5.60718C3 4.75002 3.6631 4 4.42094 4H19.5776C20.3354 4 20.9985 4.75002 20.9985 5.60718V14.7145Z" fill="#FAFAFA"/>
<path d="M6.79065 18.9997H19.5791C20.3369 18.9997 21 18.2497 21 17.3925V14.7139H6.79065V18.9997Z" fill="#4FAEE7"/>
<path d="M19.8206 18.773H4.50963C3.74408 18.773 3.07422 18.0457 3.07422 17.2146V5.78598C3.07422 4.95481 3.74408 4.22754 4.50963 4.22754H19.8206C20.5862 4.22754 21.256 4.95481 21.256 5.78598V17.2146C21.256 18.0457 20.5862 18.773 19.8206 18.773Z" stroke="#2279C2" stroke-width="1.4" stroke-miterlimit="10"/>
</g>
<defs>
<filter id="filter0_dd" x="-1.8" y="-1" width="27.6" height="27.6" filterUnits="userSpaceOnUse" color-interpolation-filters="sRGB">
<feFlood flood-opacity="0" result="BackgroundImageFix"/>
<feColorMatrix in="SourceAlpha" type="matrix" values="0 0 0 0 0 0 0 0 0 0 0 0 0 0 0 0 0 0 127 0" result="hardAlpha"/>
<feOffset dy="0.8"/>
<feGaussianBlur stdDeviation="0.9"/>
<feColorMatrix type="matrix" values="0 0 0 0 0 0 0 0 0 0 0 0 0 0 0 0 0 0 0.13 0"/>
<feBlend mode="normal" in2="BackgroundImageFix" result="effect1_dropShadow"/>
<feColorMatrix in="SourceAlpha" type="matrix" values="0 0 0 0 0 0 0 0 0 0 0 0 0 0 0 0 0 0 127 0" result="hardAlpha"/>
<feOffset dy="0.15"/>
<feGaussianBlur stdDeviation="0.225"/>
<feColorMatrix type="matrix" values="0 0 0 0 0 0 0 0 0 0 0 0 0 0 0 0 0 0 0.1 0"/>
<feBlend mode="normal" in2="effect1_dropShadow" result="effect2_dropShadow"/>
<feBlend mode="normal" in="SourceGraphic" in2="effect2_dropShadow" result="shape"/>
</filter>
</defs>
</svg>
