<svg xmlns="http://www.w3.org/2000/svg" fill="none" viewBox="0 0 113 23">
  <path fill="#F25022" d="M0 0h11.4793c-.0008 3.6472 0 7.29427-.0008 10.9415H0V0Z"/>
  <path fill="#80BA01" d="M12.6513 0h11.4793c0 3.6472.0007 7.29427-.0008 10.9415-3.8257-.0007-7.652 0-11.4778 0-.0014-3.64723-.0007-7.2943-.0007-10.9415Z"/>
  <path fill="#777" d="M103.516 4.16937c1.059-.65656 2.426-.71765 3.619-.40489.01.67566.001 1.35173.004 2.0278-.566-.23776-1.233-.39295-1.829-.15968-.473.17878-.755.64139-.828 1.10399-.089.5869-.031 1.18152-.047 1.77165 1.211.00267 2.422.0007 3.632.00126.01-.7491-.009-1.49891.011-2.24815.823-.2233 1.637-.4737 2.456-.70894.007.98687-.009 1.97472.009 2.96243.819-.01124 1.638-.00267 2.457-.00534v1.9216c-.822-.0321-1.645-.0087-2.466-.0112.003 1.1047 0 2.2094.001 3.3146.013.6119-.034 1.2269.041 1.8368.045.3596.182.7578.536.9438.593.316 1.344.1782 1.888-.169v1.9406c-.71.2937-1.502.3832-2.27.3312-.728-.0513-1.482-.3036-1.957-.8558-.549-.6235-.69-1.4681-.701-2.2577-.006-1.6956.001-3.3911-.003-5.0872-1.211-.0007-2.423-.0012-3.633.0007-.002 2.6606-.001 5.3217-.001 7.9824h-2.483c0-2.6602-.003-5.3196.002-7.9797-.576-.0105-1.152.0027-1.728-.0086.002-.63152.005-1.26364-.002-1.8959.573-.0125 1.147-.00716 1.721-.00323.042-.83968-.092-1.70395.171-2.52215.223-.73843.718-1.40481 1.4-1.82135Zm-53.1543.13743c.5004-.07233 1.0423.09072 1.374.46387.389.40882.4606 1.05948.1724 1.53711-.3186.53886-1.0314.78913-1.6526.65978-.6446-.11038-1.1818-.68155-1.1528-1.3183-.0186-.67018.5695-1.26761 1.259-1.34246Zm-19.0264.29317h3.6106c1.1238 2.71989 2.2559 5.43713 3.381 8.15713.2875.6801.5564 1.368.8577 2.0431 1.4457-3.3988 2.9122-6.78896 4.3469-10.19237 1.1575-.01769 2.3159-.00393 3.4742-.0066-.0028 4.59939-.0015 9.19877-.0008 13.79817-.8355-.002-1.6705.0066-2.5054-.0045.009-3.3943-.0007-6.7884.004-10.18325.0015-.15252-.004-.30504-.0152-.45742-.0489.07092-.0923.14451-.1304.22077-1.4346 3.4742-2.897 6.9387-4.3234 10.4164-.5944.0205-1.1894.0014-1.7843.0104-1.4802-3.4742-2.9419-6.9564-4.4144-10.4334-.0386-.07232-.08-.14268-.1248-.21023-.0303 1.48711-.0047 2.97553-.013 4.46263.0006 2.0595-.0013 4.1189.0006 6.1784-.788.002-1.5759 0-2.3633.0007-.0008-4.5999-.0014-9.19999 0-13.79993Zm25.8588 3.90048c1.198-.32512 2.4902-.31219 3.6878.01053.2468.06573.486.15701.7081.2813-.0138.7536 0 1.50802-.0076 2.26252-.8007-.5829-1.816-.9522-2.8337-.83-.808.0696-1.5788.4692-2.0619 1.0915-.6213.7714-.7647 1.7958-.6579 2.7396.08.7388.4006 1.4768 1.0033 1.9663.626.5302 1.5034.7181 2.3227.659.8095-.0888 1.5734-.4154 2.2276-.8715.007.7143-.0035 1.4287.0055 2.143-1.0151.5758-2.2318.7243-3.3934.6699-1.1885-.06-2.3737-.489-3.2342-1.2854-.9349-.859-1.4423-2.0839-1.5023-3.3109-.0606-1.2755.2117-2.6061.9817-3.6713.6452-.90883 1.6545-1.55218 2.7543-1.85455Zm27.1192-.15041c1.1479-.19254 2.3497-.05126 3.436.34112.0015.72551 0 1.45014.0007 2.17514-.7588-.4976-1.6861-.765-2.6073-.7341-.4639.017-.9741.2043-1.1858.6248-.1683.416-.0517.9615.3599 1.2106.7037.4487 1.5436.6394 2.2731 1.0415.5742.3074 1.1313.7096 1.4223 1.2894.5466 1.0856.3151 2.5202-.6463 3.3298-.9175.8173-2.2391 1.0436-3.4546 1.0002-.8631-.0534-1.7305-.2156-2.5239-.5522.0032-.7629-.005-1.5252.0038-2.2875.6675.4619 1.4378.7927 2.2524.9266.5676.0879 1.1847.092 1.7133-.1497.5063-.2398.5972-.9252.2966-1.3447-.2813-.3231-.6943-.5011-1.0837-.6759-.7315-.3135-1.5002-.5758-2.1428-1.0456-.4516-.3358-.7936-.8091-.9273-1.3426-.1985-.7866-.1366-1.673.3433-2.36048.5481-.80107 1.5002-1.28137 2.4703-1.44638Zm-17.172.31095c.6851-.39224 1.5561-.42511 2.3041-.18524-.0032.78927 0 1.57845-.0019 2.36765-.4896-.3022-1.1005-.4317-1.6782-.3759-.7047.0762-1.2632.5921-1.5526 1.1837-.3145.6261-.3736 1.3343-.3537 2.0191 0 1.5767.0007 3.1532 0 4.7297h-2.4475c-.0021-3.295.0028-6.5905-.0021-9.88548.817-.00984 1.634-.0059 2.4511-.00211-.0034.56583 0 1.13166-.0021 1.69819.2654-.61583.6604-1.21382 1.2829-1.54961Zm-17.8132-.14822c.8232-.00323 1.6472-.0111 2.4704.00393-.0096 3.2944-.0008 6.5891-.0042 9.8835h-2.4647c-.0019-3.2955.0007-6.5912-.0015-9.88743Z"/>
  <path fill="#777" fill-rule="evenodd" d="M77.5686 8.72948c-1.1058-.47974-2.3626-.5442-3.5541-.39969-1.2511.15069-2.4693.71175-3.2638 1.66266-.7252.84895-1.0783 1.93985-1.1457 3.02225-.1002 1.2756.1233 2.6293.9092 3.6938.6695.9188 1.7264 1.5502 2.8682 1.7829.9542.1913 1.9524.192 2.9067.0025 1.1163-.2188 2.1587-.8075 2.8502-1.6762.6757-.8181 1.0148-1.8501 1.0912-2.8798.078-1.0547-.0339-2.147-.4936-3.1194-.4309-.91355-1.2085-1.67641-2.1683-2.08902Zm-.737 2.15002c-.5363-.5171-1.3305-.7182-2.0765-.6716-.5935.0316-1.1933.2229-1.6334.6145-.6066.5239-.8838 1.3046-.9591 2.0635-.0825.8345-.0227 1.7145.3774 2.4754.311.5908.8824 1.055 1.5561 1.2236.6618.1637 1.382.1499 2.0234-.0848.548-.2036.9825-.6335 1.2197-1.142.3583-.7545.3937-1.6029.3495-2.4171-.0615-.7441-.2832-1.5239-.8571-2.0615Zm20.6557-2.07602c-1.1307-.54421-2.4462-.62356-3.685-.47708-.999.12233-1.9808.48367-2.7433 1.12155-.9306.76425-1.4766 1.88795-1.6374 3.03745-.1532 1.1493-.1013 2.3599.3902 3.4355.4716 1.0553 1.4022 1.9124 2.522 2.3322 1.1051.4147 2.3337.4612 3.4968.282 1.1893-.1872 2.3159-.7834 3.0522-1.7008.7868-.9475 1.1252-2.1738 1.1232-3.3685.017-.7997-.0877-1.6104-.3862-2.3617-.3819-.9816-1.1465-1.83072-2.1325-2.30062Zm-1.026 1.96542c-.539-.4512-1.2878-.6057-1.989-.5591-.6867.0368-1.3679.3188-1.8118.8286-.4867.5459-.6956 1.2668-.7522 1.9694-.0587.7254 0 1.4767.2944 2.1548.2447.5692.7096 1.0639 1.3093 1.3058.5557.228 1.1818.2689 1.776.1841.5537-.0775 1.0902-.3299 1.4508-.7439.3576-.4121.5465-.9311.6416-1.4516.12-.6988.1214-1.4183-.0206-2.1135-.1263-.5928-.4014-1.1815-.8985-1.5746Z" clip-rule="evenodd"/>
  <path fill="#02A4EF" d="M0 12.0576c3.82647.0013 7.6528-.0005 11.4793.0013.0006 3.6472 0 7.2937 0 10.9408H0V12.0576Z"/>
  <path fill="#FFB902" d="M12.6521 12.0594c3.8257-.0012 7.6521-.0007 11.4785-.0007v10.9415H12.6514c.0007-3.6471-.0008-7.2943.0007-10.9408Z"/>
</svg>
