<svg width="32" height="32" viewBox="0 0 32 32" fill="none" xmlns="http://www.w3.org/2000/svg">
<path d="M18.4095 16.3664L24.6673 12.5966C24.2394 10.9283 23.3288 9.42337 22.0495 8.27032C20.7701 7.11727 19.179 6.36736 17.4754 6.11453C15.7718 5.8617 14.0315 6.11718 12.4724 6.84899C10.9133 7.58079 9.60488 8.75637 8.71094 10.2285L18.4095 16.3664Z" fill="#0364B8"/>
<path d="M12.6774 11.0375L12.6771 11.0385C11.5727 10.3545 10.299 9.99294 8.99996 9.9947C8.96996 9.9947 8.94041 9.99658 8.9105 9.99695C7.63904 10.0127 6.39591 10.3746 5.3147 11.0438C4.23348 11.713 3.35505 12.6642 2.77381 13.7951C2.19258 14.926 1.9305 16.194 2.01574 17.4627C2.10099 18.7314 2.53034 19.9529 3.25765 20.9959L12.2863 19.5495L18.5553 14.5583L12.6774 11.0375Z" fill="#0078D4"/>
<path d="M24.6857 12.6238C24.5587 12.6154 24.431 12.6095 24.3018 12.6095C23.5264 12.6087 22.7591 12.7671 22.0474 13.0748L22.0472 13.0742L18.5447 14.5482L22.4105 19.4612L29.309 20.9959C29.7603 20.1581 29.9942 19.2205 29.9892 18.2689C29.9842 17.3173 29.7406 16.3821 29.2805 15.5491C28.8205 14.7161 28.1588 14.0118 27.3561 13.5007C26.5533 12.9897 25.6352 12.6882 24.6857 12.6239V12.6238Z" fill="#1490DF"/>
<path d="M18.5553 14.5637L3.25757 21.0012C3.90172 21.9273 4.76043 22.6837 5.76038 23.2059C6.76032 23.7281 7.8718 24.0006 8.99989 24H24.3124C25.3391 24.0003 26.3467 23.7226 27.2283 23.1964C28.1099 22.6702 28.8326 21.9151 29.3197 21.0113L18.5553 14.5637Z" fill="#28A8EA"/>
</svg>
