<svg width="169" height="153" viewBox="0 0 169 153" fill="none" xmlns="http://www.w3.org/2000/svg">
<path d="M168.425 76.3072C168.425 80.3896 168.131 84.4719 167.422 88.4854C167.215 89.6739 167.025 90.8624 166.817 92.1716C165.918 96.2711 164.708 100.25 163.101 104.04C160.421 110.947 156.757 117.337 152.28 123.039C150.689 125.089 148.995 127.035 147.198 128.878C146.403 129.688 145.607 130.48 144.778 131.255C144.518 131.514 144.259 131.772 143.982 132.013C143.118 132.857 142.237 133.684 141.303 134.459C140.283 135.355 139.212 136.199 138.14 136.991C137.829 137.232 137.535 137.456 137.224 137.68C137.206 137.698 137.189 137.697 137.172 137.715C136.463 138.231 135.737 138.748 134.994 139.265C134.51 139.609 134.008 139.937 133.507 140.264C132.747 140.764 132.003 141.246 131.243 141.694C129.531 142.693 127.855 143.692 126.04 144.501C125.02 145.001 124.017 145.483 123.032 145.879C122.721 146.103 122.531 146.189 122.219 146.293C121.13 146.775 119.938 147.275 118.762 147.688C118.745 147.705 118.745 147.705 118.728 147.705C118.088 147.946 117.414 148.188 116.74 148.429C116.705 148.446 116.688 148.446 116.653 148.463C115.789 148.739 114.907 149.014 114.026 149.29C111.208 150.186 108.304 150.892 105.279 151.374C103.914 151.633 102.513 151.822 101.096 151.977C100.681 151.977 100.284 152.08 99.8687 152.08C97.3622 152.477 94.7693 152.58 92.1591 152.58H91.8653C91.1565 152.58 90.4824 152.58 89.791 152.528C88.3389 152.511 86.8869 152.425 85.4522 152.27C85.3485 152.27 85.2447 152.27 85.141 152.253C84.9163 152.235 84.6916 152.201 84.4496 152.149C84.3459 152.132 84.2422 152.098 84.1557 152.08C83.9137 152.063 83.7063 152.046 83.4643 152.029C82.3061 151.908 81.1653 151.77 80.0244 151.598C78.7798 151.426 77.5525 151.202 76.3425 150.961C75.9968 150.892 75.6338 150.823 75.288 150.737C75.0806 150.702 74.8905 150.668 74.683 150.616C73.3866 150.324 72.0901 149.979 70.811 149.6C69.7911 149.273 68.7367 148.98 67.7168 148.635H67.6995C67.0599 148.446 66.4376 148.222 65.8153 147.998C64.8127 147.705 63.9139 147.292 63.015 146.896C62.41 146.689 61.7185 146.396 61.1135 146C60.5085 145.879 59.8171 145.587 59.2121 145.19C59.1775 145.156 59.1084 145.139 59.0565 145.122C56.8785 144.191 54.8041 143.037 52.799 141.814C52.7298 141.78 52.6607 141.728 52.5916 141.694C50.5864 140.505 48.5639 139.196 46.6625 137.801C46.6625 137.715 46.6625 137.715 46.6625 137.715C45.6945 137.008 44.7091 136.285 43.7411 135.51C42.6521 134.666 41.5804 133.753 40.5605 132.806C32.0558 125.123 25.2451 115.632 20.8372 104.849C19.2296 100.767 17.9332 96.5812 16.9306 92.1716C16.7059 90.8624 16.5157 89.6739 16.3256 88.4854C15.7033 84.4719 15.323 80.3896 15.323 76.3072C15.323 34.5019 48.9961 0.585654 90.8108 0.034451C91.1566 7.89273e-07 91.5196 0 91.8653 0C91.8826 0 91.8826 0 91.8998 0H92.574C94.026 0.0344502 95.4608 0.0689011 96.8609 0.172252C100.007 0.361728 103.084 0.757904 106.092 1.32633C108.045 1.68806 109.964 2.11869 111.848 2.65267C114.06 3.22109 116.273 3.92733 118.399 4.71968C118.451 4.73691 118.486 4.75413 118.555 4.77135C147.682 15.5715 168.425 43.5106 168.425 76.3072Z" fill="#C7E0F4"/>
<path d="M86.7258 113.6C81.7267 118.75 77.9445 123.897 70.5703 126.617C61.1305 130.099 51.0977 108.217 49.0683 101.924C48.4201 99.9142 55.331 98.9996 55.331 98.9996C55.331 98.9996 63.1806 111.052 68.4822 111.464C70.3612 111.614 71.7406 107.619 74.8054 100.24L86.7258 113.6Z" fill="#E0BB95"/>
<path d="M56.012 99.5948C55.9042 100.004 55.7619 100.317 55.5842 100.556C54.2452 102.389 55.0079 107.607 54.517 106.89C52.3713 103.796 49.2388 99.9654 49.2074 97.8152C49.1594 94.4883 53.0979 93.5429 52.9159 92.843C52.6626 92.011 52.4689 91.1038 52.2754 90.1227C52.276 90.1039 52.2761 90.104 52.2761 90.104C52.0844 89.1233 51.933 88.0687 51.8005 86.9579C51.735 86.6565 51.7251 86.3928 51.77 86.1702C52.4521 86.5109 53.2808 86.9862 54.2568 87.5602L54.5323 87.719C54.7798 88.1575 55.0459 88.6534 55.3467 89.1876L56.3924 91.0018C56.3978 91.003 56.7977 96.8826 56.012 99.5948Z" fill="#E0BB95"/>
<path d="M41.3656 80.8908C42.1192 81.2491 40.446 84.6563 40.446 84.6563L40.5687 86.477L42.7588 85.6588C42.7588 85.6588 46.0916 85.9137 47.063 86.1376C48.0915 86.3736 49.0924 88.5595 49.2826 89.0108C49.5349 89.6136 50.3681 92.051 50.0259 92.5385C49.3811 93.4548 47.6214 94.3505 47.6214 94.3505C47.6214 94.3505 45.7631 94.7812 46.0777 95.372C46.8349 96.7948 47.9204 100.254 50.4096 98.8859C51.3811 98.3519 52.4407 101.165 52.4407 101.165L49.9982 101.971C49.9982 101.971 52.031 106.956 51.5937 106.494C50.2869 105.111 45.1789 99.7403 41.6715 97.8679C41.3483 97.6957 39.1149 96.0076 39.0977 95.6218C39.0786 95.2066 37.8047 88.4906 38.0277 87.7395C38.1037 87.4846 38.0985 84.6097 38.3526 84.1016C38.7502 83.3058 40.3543 80.412 41.3656 80.8908Z" fill="#E0BB95"/>
<path d="M54.6154 96.6828L48.5567 100.093C47.95 100.434 47.1807 100.221 46.8385 99.618L33.4194 75.9455C33.0771 75.3409 33.2915 74.5744 33.8965 74.2334L39.9552 70.8228C40.5619 70.4817 41.3312 70.6953 41.6734 71.2982L55.0925 94.9707C55.4348 95.5753 55.2222 96.3418 54.6154 96.6828Z" fill="#595553"/>
<path d="M55.8566 95.9749L49.8013 99.3941C49.1877 99.73 48.4236 99.5181 48.0865 98.9066L34.664 75.2513C34.3269 74.6399 34.5395 73.8785 35.1532 73.5237L41.2067 70.1234C41.8014 69.7875 42.5844 69.9994 42.9215 70.5919L51.7926 86.2289L54.3164 90.6971L56.3423 94.2679C56.6829 94.8776 56.4702 95.639 55.8566 95.9749Z" fill="#847F7D"/>
<path d="M55.5817 92.9295L47.319 97.563L35.4263 76.6001L43.689 71.9321L51.7961 86.2289L54.3198 90.6902L55.5817 92.9295Z" fill="#B3AFAB"/>
<path d="M39.549 72.3128L37.8843 73.2498C37.7599 73.3204 37.7167 73.4772 37.7858 73.6012L37.8342 73.6873C37.9051 73.8113 38.0624 73.8544 38.1869 73.7855L39.8515 72.8485C39.9759 72.7778 40.0192 72.6211 39.95 72.4971L39.9016 72.4109C39.8307 72.2852 39.6734 72.2421 39.549 72.3128Z" fill="#605D5A"/>
<path d="M52.4861 97.0823C52.7263 96.9471 52.765 96.5621 52.5725 96.2225C52.38 95.8829 52.0292 95.7172 51.789 95.8524C51.5487 95.9876 51.5101 96.3726 51.7026 96.7122C51.8951 97.0518 52.2459 97.2175 52.4861 97.0823Z" fill="#605D5A"/>
<path d="M105.191 88.6611C105.191 88.6611 98.6205 101.406 86.7277 113.606L74.8125 100.238C78.1504 90.6782 82.688 82.0174 82.688 82.0174C89.388 66.6853 100.798 70.8383 105.447 74.2885C109.901 77.6095 107.274 83.5504 105.191 88.6611Z" fill="url(#paint0_linear)"/>
<path d="M47.6165 94.3574C47.6165 94.3574 45.7565 95.4219 44.9234 96.2195L40.4048 91.9649L38.2734 84.4961C38.2976 84.31 38.3218 84.1791 38.3616 84.105C38.7453 83.311 40.3633 80.4034 41.3642 80.8857C42.123 81.2474 40.4497 84.6597 40.4497 84.6597L40.8854 86.222L42.7488 85.6536C42.7488 85.6536 46.0884 85.912 47.0582 86.1307C48.085 86.3701 49.0841 88.5577 49.276 89.0142C49.5387 89.6222 50.3615 92.0475 50.0262 92.5436C49.3762 93.46 47.6165 94.3574 47.6165 94.3574Z" fill="#E0BB95"/>
<path d="M54.6312 91.2587C53.9268 90.9923 52.8101 90.1633 52.3893 89.8301C52.3711 89.8107 52.3711 89.8106 52.3711 89.8106C51.5283 89.1649 50.6322 88.4232 49.7212 87.6079C49.097 87.1382 48.8876 86.6817 49.0351 86.2172C49.199 85.8285 49.6547 85.6919 50.4013 85.8278C50.6426 85.8915 50.8863 85.9369 51.1641 86.0395C51.3695 86.1025 51.5731 86.1651 51.7974 86.2287L54.4173 88.8968L54.6312 91.2587Z" fill="#E0BB95"/>
<path d="M146.109 101.887C146.109 101.887 140.283 113.014 138.503 124.141C137.95 127.655 137.915 132.185 138.14 136.991C137.829 137.232 137.535 137.456 137.224 137.68C137.206 137.698 137.189 137.698 137.172 137.715C136.463 138.231 135.737 138.748 134.994 139.265C134.51 139.61 134.009 139.937 133.507 140.264C132.747 140.764 132.003 141.246 131.243 141.694C129.531 142.693 127.855 143.692 126.04 144.501C125.02 145.001 124.017 145.483 123.032 145.879C122.721 146.103 122.531 146.189 122.219 146.293C121.13 146.775 119.938 147.275 118.762 147.688C118.745 147.705 118.745 147.705 118.728 147.705C118.088 147.946 117.414 148.188 116.74 148.429C116.705 148.446 116.688 148.446 116.653 148.463C115.789 148.739 114.908 149.014 114.026 149.29C111.208 150.186 108.304 150.892 105.279 151.374C103.914 151.633 102.513 151.822 101.096 151.977C100.681 151.977 100.284 152.08 99.8687 152.08C97.3623 152.477 94.7694 152.58 92.1592 152.58H91.8653C91.1566 152.58 90.4825 152.58 89.791 152.528C88.339 152.511 86.887 152.425 85.4522 152.27C85.3485 152.27 85.2448 152.27 85.1411 152.253C84.9164 152.236 84.6917 152.201 84.4497 152.149C84.3459 152.132 84.2422 152.098 84.1558 152.08C83.9138 152.063 83.7064 152.046 83.4644 152.029C82.3062 151.908 81.1653 151.77 80.0244 151.598C78.7798 151.426 77.5525 151.202 76.3425 150.961C75.9968 150.892 75.6338 150.823 75.2881 150.737C76.6191 135.596 78.4687 116.717 79.333 111.446C82.6692 91.6031 89.186 73.7062 91.7789 72.2766C94.9422 70.5368 102.358 68.5904 109.86 68.8832C109.981 68.8832 118.607 68.2976 129.583 71.3981C129.583 71.3981 139.938 72.9139 143.983 79.3733C148.581 86.8318 146.109 94.807 146.109 101.887Z" fill="url(#paint1_linear)"/>
<path d="M103.836 69.0692C101.924 79.3319 119.514 80.2655 121.075 72.0767C122.399 65.1316 122.392 60.8701 124.116 53.2342C124.717 50.5677 108.747 48.2148 107.464 50.9226C105.549 54.9584 104.96 63.0335 103.836 69.0692Z" fill="url(#paint2_linear)"/>
<path d="M152.279 123.039C150.689 125.089 148.995 127.035 147.197 128.878C146.402 129.688 145.607 130.48 144.777 131.255C144.518 131.514 144.259 131.772 143.982 132.013C143.118 132.857 142.236 133.684 141.303 134.459C139.989 135.613 138.606 136.681 137.223 137.68C137.293 132.978 137.154 128.861 136.93 125.864C136.29 117.027 130.015 82.9389 130.015 82.9389C130.672 80.5791 133.49 74.223 140.387 77.203C149.514 81.1475 151.847 102.644 152.279 123.039Z" fill="#E0BB95"/>
<path d="M89.0684 37.487L95.9033 37.7058L95.9137 37.3733C96.0485 33.1652 92.7348 29.6444 88.5118 29.5083C88.5118 29.5083 86.4513 30.4213 84.4237 30.2783C82.396 30.1353 81.6769 29.2896 81.6769 29.2896L81.6666 29.622C81.5317 33.8301 84.8455 37.3509 89.0684 37.487Z" fill="#3A312E"/>
<path d="M107.433 49.1846L121.208 49.6256C127.386 49.8237 132.555 44.9937 132.754 38.8375L132.771 38.2846C132.961 32.3626 128.299 27.4086 122.356 27.2192L108.156 26.7644C102.65 26.5887 98.0433 30.8933 97.867 36.3795L97.784 38.9339C97.6077 44.4184 101.927 49.0089 107.433 49.1846Z" fill="#3A312E"/>
<path d="M126.873 54.9033C130.437 54.9033 133.326 52.0245 133.326 48.4732C133.326 44.9219 130.437 42.0431 126.873 42.0431C123.309 42.0431 120.42 44.9219 120.42 48.4732C120.42 52.0245 123.309 54.9033 126.873 54.9033Z" fill="#E0BB95"/>
<path d="M126.017 53.5064L127.563 39.852C127.666 35.7232 116.835 26.3544 116.835 26.3544L101.184 25.4312C92.5481 26.5818 90.8264 36.798 90.5377 43.5899C90.2387 50.6281 90.9042 56.3399 92.6898 60.3499C95.5973 66.8799 99.376 68.4147 104.306 69.0107C114.09 70.194 122.315 65.2005 126.017 53.5064Z" fill="#E0BB95"/>
<path d="M118.328 17.5438C111.329 16.171 102.411 18.3913 96.5308 18.5325C92.0347 18.6393 88.2387 13.3305 88.2387 13.3305C88.2387 13.3305 84.899 17.3509 84.9319 22.1429C84.9665 26.9349 89.9293 34.5794 101.983 35.2908L115.532 35.8506C115.302 36.4018 114.785 37.2631 113.656 37.8574C112.856 38.2777 112.01 38.7152 112.01 38.7152C113.81 41.1887 116.821 42.2584 119.646 41.721C120.522 45.2297 123.103 48.0391 126.06 48.1321C128.525 45.3313 130.033 39.1337 129.035 35.5733C129.469 34.3331 130.169 31.7803 129.888 28.6643C129.262 21.7519 125.815 19.0131 118.328 17.5438Z" fill="#3A312E"/>
<g opacity="0.7">
<path opacity="0.7" d="M112.129 57.9367C112.072 58.7411 111.746 59.511 111.215 60.1742C110.684 60.8339 109.922 61.361 109.078 61.6297C108.235 61.9071 107.331 61.9243 106.52 61.7245C105.708 61.5212 104.968 61.1199 104.432 60.4912C104.242 60.2672 104.269 59.9331 104.494 59.7436C104.579 59.673 104.677 59.6316 104.779 59.6213L104.817 59.6178C105.55 59.5369 106.159 59.4955 106.724 59.4146C107.286 59.3353 107.784 59.2285 108.257 59.0839C108.731 58.9357 109.184 58.7445 109.67 58.4741C110.161 58.2088 110.662 57.8592 111.293 57.4733L111.327 57.4526C111.576 57.3011 111.901 57.3786 112.053 57.6266C112.114 57.7214 112.138 57.8316 112.129 57.9367Z" fill="#9B643D"/>
</g>
<path d="M101.649 57.4681C104.861 57.4681 107.464 54.8739 107.464 51.6736C107.464 48.4734 104.861 45.8791 101.649 45.8791C98.4374 45.8791 95.834 48.4734 95.834 51.6736C95.834 54.8739 98.4374 57.4681 101.649 57.4681Z" fill="url(#paint3_radial)"/>
<path d="M112.077 47.5842C112.907 47.5712 113.565 46.6084 113.547 45.4336C113.528 44.2589 112.84 43.3171 112.01 43.33C111.179 43.343 110.521 44.3059 110.539 45.4807C110.558 46.6554 111.246 47.5972 112.077 47.5842Z" fill="#191203"/>
<path d="M103.196 46.0117C102.785 45.9928 101.006 49.7065 100.031 51.4394C99.6492 52.118 98.6034 53.5219 100.676 54.2591C102.073 54.7569 106.27 55.0532 106.882 54.7793C111.115 52.8777 106.889 46.1891 103.196 46.0117Z" fill="#E0BB95"/>
<path d="M96.5308 48.5919C97.3613 48.5789 98.0197 47.6284 98.0015 46.4688C97.9832 45.3093 97.2951 44.3798 96.4647 44.3928C95.6342 44.4058 94.9757 45.3564 94.994 46.5159C95.0123 47.6754 95.7003 48.6049 96.5308 48.5919Z" fill="#191203"/>
<path d="M153.113 115.617C152.28 97.632 148.285 79.3509 140.188 75.9576C131.727 72.411 122.655 79.2321 124.54 94.0629C124.54 94.0629 133.017 101.196 135.101 116.977L153.113 115.617Z" fill="#2B88D8"/>
<path d="M63.0253 61.1509L2.58486 61.1957C1.26248 61.1991 0.187295 60.1432 0.183838 58.8375V14.7826L65.3105 14.2555L65.4125 58.7807C65.4176 60.0864 64.3476 61.1474 63.0253 61.1509Z" fill="#E1DFDD"/>
<path d="M65.6072 14.5569L0.378548 14.6827L0.347431 6.20447C0.342245 4.93498 1.41052 3.90147 2.7329 3.8963L63.1733 3.78778C64.4957 3.78262 65.5709 4.80751 65.5761 6.077L65.6072 14.5569Z" fill="#0078D4"/>
<path d="M58.1734 20.3755H7.66724V53.9266H58.1734V20.3755Z" fill="white"/>
<path d="M22.6313 37.1511H11.4075V39.0149H22.6313V37.1511Z" fill="#E1DFDD"/>
<path d="M13.2778 40.8803H11.4075V42.7441H13.2778V40.8803Z" fill="#107C10"/>
<path d="M54.4306 40.8803H15.1482V42.7441H54.4306V40.8803Z" fill="#E1DFDD"/>
<path d="M13.2778 44.6078H11.4075V46.4716H13.2778V44.6078Z" fill="#107C10"/>
<path d="M54.4306 44.6078H15.1482V46.4716H54.4306V44.6078Z" fill="#E1DFDD"/>
<path d="M13.2778 48.3353H11.4075V50.1991H13.2778V48.3353Z" fill="#107C10"/>
<path d="M54.4306 48.3353H15.1482V50.1991H54.4306V48.3353Z" fill="#E1DFDD"/>
<path d="M14.8024 24.8455H11.4075V28.2285H14.8024V24.8455Z" fill="#F25022"/>
<path d="M18.55 24.8455H15.155V28.2285H18.55V24.8455Z" fill="#7FBA00"/>
<path d="M14.8024 28.5799H11.4075V31.9629H14.8024V28.5799Z" fill="#00A4EF"/>
<path d="M18.55 28.5799H15.155V31.9629H18.55V28.5799Z" fill="#FFB900"/>
<defs>
<linearGradient id="paint0_linear" x1="84.7827" y1="87.2893" x2="104.279" y2="98.7583" gradientUnits="userSpaceOnUse">
<stop offset="0.000599778" stop-color="#2B88D8"/>
<stop offset="0.8557" stop-color="#404C91"/>
</linearGradient>
<linearGradient id="paint1_linear" x1="116.223" y1="115.711" x2="171.697" y2="135.448" gradientUnits="userSpaceOnUse">
<stop offset="0.000599778" stop-color="#2B88D8"/>
<stop offset="0.8557" stop-color="#404C91"/>
</linearGradient>
<linearGradient id="paint2_linear" x1="110.633" y1="77.7533" x2="117.867" y2="53.9123" gradientUnits="userSpaceOnUse">
<stop stop-color="#E0BB95"/>
<stop offset="0.9997" stop-color="#C49A6C"/>
</linearGradient>
<radialGradient id="paint3_radial" cx="0" cy="0" r="1" gradientUnits="userSpaceOnUse" gradientTransform="translate(101.99 52.1171) rotate(1.2051) scale(4.99641 4.62343)">
<stop stop-color="#9B643D"/>
<stop offset="0.4904" stop-color="#BE916A"/>
<stop offset="1" stop-color="#E0BB95"/>
</radialGradient>
</defs>
</svg>
