<?xml version="1.0" encoding="utf-8"?>
<!-- Generator: Adobe Illustrator 26.4.1, SVG Export Plug-In . SVG Version: 6.00 Build 0)  -->
<svg version="1.1" id="Layer_1" xmlns="http://www.w3.org/2000/svg" xmlns:xlink="http://www.w3.org/1999/xlink" x="0px" y="0px"
	 viewBox="0 0 25 25" style="enable-background:new 0 0 25 25;" xml:space="preserve">
<style type="text/css">
	.st0{fill:url(#SVGID_1_);}
	.st1{fill:url(#SVGID_00000032630338453224610750000013079922868414954937_);}
	.st2{fill:url(#SVGID_00000124861650980354716730000016157202302228056462_);}
	.st3{fill:url(#SVGID_00000051365373636106537440000010094445138164104615_);}
	.st4{fill:url(#SVGID_00000057863540924978467940000016997534329038183340_);}
</style>
<linearGradient id="SVGID_1_" gradientUnits="userSpaceOnUse" x1="5.5961" y1="13.2394" x2="8.3484" y2="26.2824" gradientTransform="matrix(1 0 0 -1 0 26.1653)">
	<stop  offset="0" style="stop-color:#053377"/>
	<stop  offset="1" style="stop-color:#2F91F2"/>
</linearGradient>
<path class="st0" d="M6.2,0c3.5,0,6.2,2.8,6.2,6.2v7.8H0V6.2C0,2.8,2.8,0,6.2,0z"/>
<linearGradient id="SVGID_00000042006767913490984340000005090271310920726159_" gradientUnits="userSpaceOnUse" x1="22.7513" y1="22.9587" x2="16.4905" y2="13.566" gradientTransform="matrix(1 0 0 -1 0 26.1653)">
	<stop  offset="0" style="stop-color:#4AC1FF"/>
	<stop  offset="0.9266" style="stop-color:#155EB5"/>
</linearGradient>
<path style="fill:url(#SVGID_00000042006767913490984340000005090271310920726159_);" d="M18.8,0c-3.5,0-6.2,2.8-6.2,6.2v7.8H25V6.2
	C25,2.8,22.2,0,18.8,0z"/>
<linearGradient id="SVGID_00000023994539113671802660000015698166544213275327_" gradientUnits="userSpaceOnUse" x1="10.321" y1="20.3206" x2="16.4409" y2="8.2112" gradientTransform="matrix(1 0 0 -1 0 26.1653)">
	<stop  offset="0" style="stop-color:#96DFFF"/>
	<stop  offset="0.4134" style="stop-color:#53ADEE"/>
	<stop  offset="1" style="stop-color:#006BB9"/>
</linearGradient>
<path style="fill:url(#SVGID_00000023994539113671802660000015698166544213275327_);" d="M18.8,10.2c0-3.5-2.8-6.2-6.2-6.2
	s-6.2,2.8-6.2,6.2s2.8,6.3,6.2,6.3S18.8,13.6,18.8,10.2z"/>
<linearGradient id="SVGID_00000155145268542237706260000001998920380380582839_" gradientUnits="userSpaceOnUse" x1="18.266" y1="12.6369" x2="24.9146" y2="1.5827" gradientTransform="matrix(1 0 0 -1 0 26.1653)">
	<stop  offset="7.991940e-02" style="stop-color:#4AC1FF"/>
	<stop  offset="1" style="stop-color:#155EB5"/>
</linearGradient>
<path style="fill:url(#SVGID_00000155145268542237706260000001998920380380582839_);" d="M25,6.3c0-0.1,0-0.2,0-0.3
	c-0.2,3.8-3.9,6.8-7.5,6.8c-3.5,0-6.2,2.7-6.2,6.1c0,3.4,2.8,6.1,6.2,6.1c4.9,0,7.5-4.5,7.5-9V6.3z"/>
<linearGradient id="SVGID_00000173849986120160334610000011901996546323016371_" gradientUnits="userSpaceOnUse" x1="3.6758" y1="15.8631" x2="9.9212" y2="0.8362" gradientTransform="matrix(1 0 0 -1 0 26.1653)">
	<stop  offset="0" style="stop-color:#2F91F2"/>
	<stop  offset="1" style="stop-color:#053377"/>
</linearGradient>
<path style="fill:url(#SVGID_00000173849986120160334610000011901996546323016371_);" d="M0,16c0,4.5,2.5,9,7.5,9
	c3.5,0,6.2-2.7,6.2-6.1c0-3.4-2.8-6.1-6.2-6.1c-3.7,0-7.4-3-7.5-6.8c0,0.1,0,0.2,0,0.3V16z"/>
</svg>
