<svg xmlns="http://www.w3.org/2000/svg" viewBox="0 0 150 150"><defs><linearGradient id="a" x1="-3.751" y1="84.679" x2="150.364" y2="22.263" gradientTransform="matrix(1 0 0 -1 0 149.89)" gradientUnits="userSpaceOnUse"><stop offset="0" stop-color="#fccef5"/><stop offset="1" stop-color="#5a4cdb"/></linearGradient><linearGradient id="b" x1="30.545" y1="150.047" x2="112.705" y2="84.008" gradientTransform="matrix(1 0 0 -1 0 149.89)" gradientUnits="userSpaceOnUse"><stop offset="0" stop-color="#5a4cdb"/><stop offset="1" stop-color="#ad58db"/></linearGradient></defs><path d="M133.404 48.74H16.596a9.735 9.735 0 0 1-9.733-9.735v96.731a9.731 9.731 0 0 0 9.733 9.734h116.807a9.731 9.731 0 0 0 9.734-9.734V58.473a9.731 9.731 0 0 0-9.733-9.734Z" fill="url(#a)"/><path d="M121.585 4.782 14.411 29.525a9.734 9.734 0 0 0-7.295 11.674L9.99 53.647a9.735 9.735 0 0 0 11.674 7.295L128.838 36.2a9.734 9.734 0 0 0 7.295-11.674l-2.874-12.448a9.734 9.734 0 0 0-11.674-7.295Z" fill="url(#b)"/><path d="M6.863 113.226h136.274v22.51a9.739 9.739 0 0 1-9.733 9.734H16.596a9.739 9.739 0 0 1-9.733-9.734Z" fill="#5a4cdb"/><path d="M52.49 80.983H6.863v32.243H52.49ZM97.51 48.74h35.894a9.739 9.739 0 0 1 9.733 9.733v22.51H97.51Z" fill="#aa72e1"/><path d="M143.137 80.983H52.49v32.243h90.647Z" fill="#885ede"/><path d="M97.51 48.74H6.863v32.243H97.51Z" fill="#c689e6"/><path d="M6.863 103.492v9.734h9.733a9.735 9.735 0 0 1-9.733-9.734Z" fill="#5a4cdb"/><path d="M6.863 71.249v9.734h9.733a9.735 9.735 0 0 1-9.733-9.734Z" fill="#aa72e1"/><path d="M6.863 39.005v9.734h9.733a9.735 9.735 0 0 1-9.733-9.734Z" fill="#c689e6"/></svg>