<svg width="48" height="48" viewBox="0 0 48 48" fill="none" xmlns="http://www.w3.org/2000/svg">
<path d="M17.9629 14.2246C17.3184 14.9837 16.5879 15.9076 15.7715 16.9961C14.9551 18.0703 14.1172 19.2448 13.2578 20.5195C12.4128 21.7799 11.582 23.0977 10.7656 24.4727C9.94922 25.8333 9.21875 27.1868 8.57422 28.5332C7.92969 29.8652 7.4069 31.1543 7.00586 32.4004C6.61914 33.6322 6.42578 34.7422 6.42578 35.7305C6.42578 36.2747 6.4974 36.7832 6.64062 37.2559L6.61914 37.3633C6.56185 37.3633 6.51888 37.349 6.49023 37.3203C5.75977 36.4036 5.11523 35.4154 4.55664 34.3555C3.99805 33.2812 3.52539 32.1784 3.13867 31.0469C2.76628 29.901 2.47982 28.7337 2.2793 27.5449C2.0931 26.3561 2 25.1745 2 24C2 22.5677 2.14323 21.1354 2.42969 19.7031C2.71615 18.2565 3.13867 16.86 3.69727 15.5137C4.25586 14.153 4.94336 12.8639 5.75977 11.6465C6.57617 10.429 7.50716 9.32617 8.55273 8.33789C8.61003 8.2806 8.71745 8.24479 8.875 8.23047C9.04688 8.20182 9.1543 8.1875 9.19727 8.1875C9.64128 8.1875 10.1211 8.29492 10.6367 8.50977C11.1667 8.72461 11.7109 9.00391 12.2695 9.34766C12.8281 9.69141 13.3867 10.0781 13.9453 10.5078C14.5039 10.9375 15.0339 11.3743 15.5352 11.8184C16.0365 12.248 16.4948 12.6634 16.9102 13.0645C17.3255 13.4655 17.6764 13.8021 17.9629 14.0742L17.9844 14.1602L17.9629 14.2246ZM8.55273 8.33789H8.57422H8.55273ZM39.4258 8.33789H39.4473H39.4258ZM38.7812 8.1875C38.8529 8.1875 38.9603 8.20182 39.1035 8.23047C39.2611 8.24479 39.3757 8.2806 39.4473 8.33789C40.4928 9.32617 41.4238 10.429 42.2402 11.6465C43.0566 12.8639 43.7441 14.153 44.3027 15.5137C44.8613 16.86 45.2839 18.2565 45.5703 19.7031C45.8568 21.1354 46 22.5677 46 24C46 25.1745 45.8997 26.3561 45.6992 27.5449C45.513 28.7337 45.2266 29.901 44.8398 31.0469C44.4674 32.1784 44.002 33.2812 43.4434 34.3555C42.8848 35.4154 42.2402 36.4036 41.5098 37.3203C41.4811 37.349 41.4382 37.3633 41.3809 37.3633L41.3594 37.2559C41.5026 36.7832 41.5742 36.2747 41.5742 35.7305C41.5742 34.7422 41.3737 33.6322 40.9727 32.4004C40.5859 31.1543 40.0703 29.8652 39.4258 28.5332C38.7956 27.1868 38.0651 25.8262 37.2344 24.4512C36.418 23.0762 35.5801 21.7585 34.7207 20.498C33.8757 19.2233 33.0378 18.0488 32.207 16.9746C31.3906 15.8861 30.6673 14.9622 30.0371 14.2031L30.0156 14.1387C30.0299 14.1243 30.0371 14.1172 30.0371 14.1172C30.0371 14.1029 30.0443 14.0885 30.0586 14.0742C30.3307 13.8021 30.6745 13.4655 31.0898 13.0645C31.5195 12.6634 31.985 12.248 32.4863 11.8184C32.9876 11.3743 33.5104 10.9375 34.0547 10.5078C34.6133 10.0781 35.1647 9.69141 35.709 9.34766C36.2676 9.00391 36.8047 8.72461 37.3203 8.50977C37.8503 8.29492 38.3372 8.1875 38.7812 8.1875ZM12.4629 5.35156L12.5059 5.24414C14.2962 4.16992 16.1367 3.36068 18.0273 2.81641C19.918 2.27214 21.9089 2 24 2C26.0911 2 28.0749 2.27214 29.9512 2.81641C31.8275 3.34635 33.6608 4.14844 35.4512 5.22266L35.4941 5.33008L35.3867 5.35156C34.9427 5.2513 34.4557 5.20117 33.9258 5.20117C33.1237 5.20117 32.2858 5.30143 31.4121 5.50195C30.5527 5.68815 29.6934 5.9388 28.834 6.25391C27.9746 6.56901 27.1367 6.92708 26.3203 7.32812C25.5039 7.71484 24.7448 8.10156 24.043 8.48828L24 8.50977L23.957 8.48828C23.2695 8.10156 22.5176 7.71484 21.7012 7.32812C20.8848 6.94141 20.0469 6.5905 19.1875 6.27539C18.3281 5.96029 17.4616 5.70247 16.5879 5.50195C15.7285 5.30143 14.9049 5.20117 14.1172 5.20117C13.8594 5.20117 13.6016 5.21549 13.3438 5.24414C13.0859 5.25846 12.8281 5.30143 12.5703 5.37305L12.4629 5.35156ZM9.51953 40.5645V40.543V40.5645ZM24.0645 19.6816C24.5944 20.0827 25.2103 20.5911 25.9121 21.207C26.6283 21.8086 27.3874 22.4889 28.1895 23.248C28.9915 24.0072 29.8151 24.8236 30.6602 25.6973C31.5195 26.571 32.3503 27.4733 33.1523 28.4043C33.9688 29.3353 34.735 30.2734 35.4512 31.2188C36.1816 32.1641 36.819 33.0879 37.3633 33.9902C37.9076 34.8783 38.3372 35.7376 38.6523 36.5684C38.9674 37.3848 39.125 38.1367 39.125 38.8242C39.125 39.1536 39.0749 39.4688 38.9746 39.7695C38.8744 40.056 38.7096 40.321 38.4805 40.5645C38.1797 40.8652 37.8359 41.1589 37.4492 41.4453C37.0625 41.7318 36.6901 41.9967 36.332 42.2402C34.4987 43.472 32.5365 44.4102 30.4453 45.0547C28.3542 45.6849 26.2057 46 24 46C21.7943 46 19.6458 45.6849 17.5547 45.0547C15.4635 44.4102 13.5013 43.472 11.668 42.2402C11.3099 41.9967 10.9375 41.7318 10.5508 41.4453C10.1641 41.1589 9.82031 40.8652 9.51953 40.5645C9.29036 40.321 9.12565 40.056 9.02539 39.7695C8.92513 39.4688 8.875 39.1536 8.875 38.8242C8.875 38.1367 9.03255 37.3848 9.34766 36.5684C9.66276 35.7376 10.0924 34.8783 10.6367 33.9902C11.181 33.0879 11.8112 32.1641 12.5273 31.2188C13.2578 30.2734 14.0241 29.3353 14.8262 28.4043C15.6426 27.4733 16.4733 26.571 17.3184 25.6973C18.1777 24.8236 19.0085 24.0072 19.8105 23.248C20.6126 22.4889 21.3646 21.8086 22.0664 21.207C22.7826 20.5911 23.4056 20.0827 23.9355 19.6816L24 19.6387L24.0645 19.6816Z" fill="#107C10"/>
</svg>
