<?xml version="1.0" encoding="UTF-8"?>
<svg id="Layer_2" data-name="Layer 2" xmlns="http://www.w3.org/2000/svg" viewBox="0 0 79.61 17">
  <defs>
    <style>
      .cls-1 {
        fill: #ffc20e;
      }

      .cls-2 {
        fill: #f26522;
      }

      .cls-3 {
        fill: #00aeef;
      }

      .cls-4 {
        fill: gray;
      }

      .cls-5 {
        fill: #8dc63f;
      }
    </style>
  </defs>
  <g id="Text">
    <g id="MS_Logo" data-name="MS Logo">
      <rect class="cls-2" width="8" height="8"/>
      <rect class="cls-5" x="9" width="8" height="8"/>
      <rect class="cls-3" y="9" width="8" height="8"/>
      <rect class="cls-1" x="9" y="9" width="8" height="8"/>
      <g>
        <path class="cls-4" d="m31.35,13.57v-6.47c0-.49.03-1.22.08-2.18h-.03c-.09.51-.19.89-.29,1.13l-3.07,7.51h-1.1l-3.09-7.44c-.08-.25-.18-.65-.29-1.2h-.04c.01.13.03.46.05,1,.02.54.02,1,.02,1.4v6.25h-1.57V3.42h2.41l2.58,6.42c.25.62.4,1.09.46,1.4h.04l.54-1.42,2.66-6.4h2.31v10.16h-1.67Z"/>
        <path class="cls-4" d="m36.68,3.76c0,.27-.1.49-.29.67-.2.18-.43.27-.71.27s-.51-.09-.71-.27c-.19-.18-.29-.4-.29-.67s.1-.5.29-.69c.2-.18.43-.28.71-.28.29,0,.53.09.72.28.19.19.29.42.29.68Zm-1.84,9.82v-7.25h1.64v7.25h-1.64Z"/>
        <path class="cls-4" d="m43.38,13.27c-.56.32-1.24.48-2.06.48-.7,0-1.32-.15-1.87-.45-.55-.3-.97-.73-1.28-1.29-.3-.56-.46-1.18-.46-1.87,0-.79.16-1.48.47-2.09.31-.6.77-1.07,1.37-1.41.6-.33,1.29-.5,2.08-.5.31,0,.63.03.96.1.33.07.59.16.79.27v1.55c-.53-.39-1.09-.58-1.67-.58-.68,0-1.23.23-1.65.68-.42.46-.63,1.06-.63,1.82s.2,1.35.61,1.78c.41.43.96.64,1.65.64.25,0,.53-.05.84-.16.31-.11.6-.26.86-.45v1.47Z"/>
        <path class="cls-4" d="m48.97,7.92c-.09-.06-.22-.12-.42-.17-.19-.05-.37-.08-.53-.08-.48,0-.86.2-1.15.61-.29.41-.44.93-.44,1.59v3.71h-1.64v-7.25h1.64v1.41h.03c.16-.49.4-.86.73-1.13.33-.27.7-.4,1.13-.4.28,0,.5.03.66.1v1.62Z"/>
        <path class="cls-4" d="m56.57,9.88c0,1.18-.34,2.12-1.02,2.82-.68.7-1.6,1.05-2.77,1.05s-2.01-.33-2.67-1c-.66-.67-1-1.57-1-2.72,0-1.2.34-2.15,1.02-2.85.68-.69,1.62-1.04,2.83-1.04,1.13,0,2.02.33,2.66,1,.64.66.96,1.58.96,2.74Zm-1.7.06c0-.8-.18-1.41-.54-1.83-.36-.42-.85-.62-1.47-.62s-1.15.22-1.51.65-.54,1.05-.54,1.84.18,1.37.54,1.79c.36.43.87.64,1.52.64s1.15-.21,1.49-.63c.34-.42.5-1.04.5-1.85Z"/>
        <path class="cls-4" d="m62.23,11.5c0,.67-.26,1.22-.78,1.63s-1.22.62-2.11.62c-.29,0-.62-.04-.98-.11-.37-.08-.67-.17-.92-.28v-1.57c.3.22.63.38.99.5.36.12.68.18.97.18.78,0,1.18-.26,1.18-.78,0-.18-.04-.33-.12-.44-.08-.11-.21-.22-.4-.33-.19-.11-.49-.25-.89-.42-.47-.2-.82-.4-1.05-.59-.23-.19-.4-.41-.51-.67-.11-.25-.17-.55-.17-.89,0-.65.26-1.18.77-1.59s1.18-.62,2-.62c.25,0,.54.03.85.09.32.06.58.13.78.22v1.48c-.22-.15-.48-.27-.79-.36-.3-.09-.6-.14-.9-.14-.33,0-.58.07-.77.22-.19.15-.28.33-.28.56,0,.25.07.45.22.6.15.14.5.33,1.05.55.68.27,1.16.58,1.44.91s.42.75.42,1.23Z"/>
        <path class="cls-4" d="m70.45,9.88c0,1.18-.34,2.12-1.02,2.82-.68.7-1.6,1.05-2.77,1.05s-2.01-.33-2.67-1c-.66-.67-1-1.57-1-2.72,0-1.2.34-2.15,1.02-2.85.68-.69,1.62-1.04,2.83-1.04,1.13,0,2.02.33,2.66,1,.64.66.96,1.58.96,2.74Zm-1.7.06c0-.8-.18-1.41-.54-1.83s-.85-.62-1.47-.62-1.15.22-1.51.65c-.36.43-.55,1.05-.55,1.84s.18,1.37.55,1.79c.36.43.87.64,1.52.64s1.15-.21,1.49-.63.5-1.04.5-1.85Z"/>
        <path class="cls-4" d="m75.48,4.18c-.26-.12-.52-.18-.78-.18-.36,0-.64.11-.84.34-.2.23-.3.57-.3,1.01v.97h1.62v1.32h-1.62v5.94h-1.66v-5.94h-1.22v-1.32h1.22v-1.06c0-.51.11-.96.33-1.35.22-.39.53-.7.93-.92.4-.22.85-.33,1.36-.33.4,0,.72.04.96.13v1.38Z"/>
        <path class="cls-4" d="m79.61,13.5c-.1.06-.27.11-.53.17-.25.05-.5.08-.73.08-1.42,0-2.13-.76-2.13-2.29v-3.82h-1.2v-1.32h1.2v-1.67l1.64-.5v2.17h1.75v1.32h-1.75v3.51c0,.46.08.78.25.97.17.19.42.29.78.29.09,0,.21-.02.36-.06.14-.04.27-.09.36-.16v1.31Z"/>
      </g>
    </g>
  </g>
</svg>