<svg width="1008" height="1024" viewBox="0 0 1008 1024" fill="none" xmlns="http://www.w3.org/2000/svg">
<path d="M772.184 947.489C885.271 872.821 969.699 753.789 996.943 630.622C1002.53 605.373 1005.85 573.513 1006.97 540.09C1004.36 589.064 994.979 636.209 979.752 680.572C975.496 692.971 970.786 705.148 965.639 717.094C888.437 896.222 713.191 1021.85 508.814 1023.99C604.663 1024.5 694.621 998.708 772.184 947.489Z" fill="url(#paint0_radial_13_125)"/>
<path fill-rule="evenodd" clip-rule="evenodd" d="M172.664 125.598C145.795 149.784 120.793 177.285 97.6589 208.1C54.9328 266.838 24.2786 335.183 9.41567 409.356C3.56639 442.902 0.820606 478.497 1.0265 516.658C1.35445 577.765 4.80112 602.885 21.3785 665.038C32.3551 706.186 41.3318 753.834 41.3318 770.922C41.3318 788.01 31.0948 843.463 18.5813 894.147C-3.95055 985.441 -4.05345 986.474 7.96486 1002.56C25.1338 1025.54 47.7428 1025.65 132.102 1003.16C226.969 977.863 266.696 977.948 362.315 1003.62C411.621 1016.86 460.283 1023.62 507.522 1023.98C712.45 1022.36 888.27 896.592 965.637 717.094C970.784 705.149 975.494 692.972 979.751 680.572C994.978 636.21 1004.36 589.065 1006.97 540.09C1007.69 518.866 1007.52 497.01 1006.48 475.813C989.207 224.571 793.433 23.2863 547.089 1.86793C531.177 0.744483 515.01 0.112814 499.187 0C374.279 1.06335 260.203 48.2459 172.664 125.598ZM47.3247 977.222C44.5857 977.222 51.2601 944.841 62.1597 905.26C73.1336 865.412 79.7586 828.125 82.0403 793.152C85.0332 747.285 80.5537 705.407 68.6159 666.98C62.1815 646.263 56.9554 625.916 52.9372 605.854L52.4965 602.925C46.7945 573.513 43.8052 543.109 43.8052 511.992C43.8052 253.806 249.618 44.5043 503.501 44.5043C757.383 44.5043 963.197 253.806 963.197 511.992C963.197 619.296 927.651 718.154 867.874 797.052C853.934 813.454 837.835 831.045 822.608 846.223C775.868 892.825 754.119 909.16 709.623 931.088C669.281 950.967 634.295 963.376 596.082 969.996C566.176 976.216 535.215 979.479 503.501 979.479C459.183 979.479 416.33 973.104 375.78 961.198C368.592 959.382 361.294 957.352 353.717 955.085C305.438 940.62 268.449 935.153 224.942 938.839C197.115 941.199 166.623 947.303 128.804 957.2C86.7299 968.215 50.0642 977.222 47.3247 977.222Z" fill="url(#paint1_radial_13_125)"/>
<path d="M62.1596 905.259C51.26 944.84 44.5857 977.221 47.3247 977.221C50.0642 977.221 86.7299 968.214 128.804 957.2C166.623 947.302 197.115 941.198 224.942 938.838C268.449 935.152 305.438 940.619 353.717 955.085C361.294 957.351 368.592 959.381 375.78 961.198C416.33 973.103 459.183 979.479 503.501 979.479C535.215 979.479 566.176 976.215 596.082 969.995C634.295 963.375 669.281 950.966 709.623 931.087C754.119 909.16 775.868 892.824 822.608 846.222C837.835 831.045 853.934 813.454 867.874 797.052C927.65 718.153 963.197 619.295 963.197 511.991C963.197 253.805 757.383 44.5036 503.501 44.5036C249.618 44.5036 43.8052 253.805 43.8052 511.991C43.8052 543.108 46.7944 573.512 52.4964 602.924L52.9372 605.854C56.9554 625.916 62.1814 646.262 68.6159 666.979C80.5537 705.406 85.0331 747.284 82.0403 793.151C79.7585 828.124 73.1336 865.412 62.1596 905.259Z" fill="url(#paint2_radial_13_125)"/>
<path d="M772.184 947.489C885.271 872.821 969.699 753.789 996.943 630.622C1002.53 605.373 1005.85 573.513 1006.97 540.09C1004.36 589.064 994.979 636.209 979.752 680.572C975.496 692.971 970.786 705.148 965.639 717.094C888.437 896.222 713.191 1021.85 508.814 1023.99C604.663 1024.5 694.621 998.708 772.184 947.489Z" fill="url(#paint3_radial_13_125)"/>
<path fill-rule="evenodd" clip-rule="evenodd" d="M172.664 125.598C145.795 149.784 120.793 177.285 97.6589 208.1C54.9328 266.838 24.2786 335.183 9.41567 409.356C3.56639 442.902 0.820606 478.497 1.0265 516.658C1.35445 577.765 4.80112 602.885 21.3785 665.038C32.3551 706.186 41.3318 753.834 41.3318 770.922C41.3318 788.01 31.0948 843.463 18.5813 894.147C-3.95055 985.441 -4.05345 986.474 7.96486 1002.56C25.1338 1025.54 47.7428 1025.65 132.102 1003.16C226.969 977.863 266.696 977.948 362.315 1003.62C411.621 1016.86 460.283 1023.62 507.522 1023.98C712.45 1022.36 888.27 896.592 965.637 717.094C970.784 705.149 975.494 692.972 979.751 680.572C994.978 636.21 1004.36 589.065 1006.97 540.09C1007.69 518.866 1007.52 497.01 1006.48 475.813C989.207 224.571 793.433 23.2863 547.089 1.86793C531.177 0.744483 515.01 0.112814 499.187 0C374.279 1.06335 260.203 48.2459 172.664 125.598ZM47.3247 977.222C44.5857 977.222 51.2601 944.841 62.1597 905.26C73.1336 865.412 79.7586 828.125 82.0403 793.152C85.0332 747.285 80.5537 705.407 68.6159 666.98C62.1815 646.263 56.9554 625.916 52.9372 605.854L52.4965 602.925C46.7945 573.513 43.8052 543.109 43.8052 511.992C43.8052 253.806 249.618 44.5043 503.501 44.5043C757.383 44.5043 963.197 253.806 963.197 511.992C963.197 619.296 927.651 718.154 867.874 797.052C853.934 813.454 837.835 831.045 822.608 846.223C775.868 892.825 754.119 909.16 709.623 931.088C669.281 950.967 634.295 963.376 596.082 969.996C566.176 976.216 535.215 979.479 503.501 979.479C459.183 979.479 416.33 973.104 375.78 961.198C368.592 959.382 361.294 957.352 353.717 955.085C305.438 940.62 268.449 935.153 224.942 938.839C197.115 941.199 166.623 947.303 128.804 957.2C86.7299 968.215 50.0642 977.222 47.3247 977.222Z" fill="url(#paint4_radial_13_125)"/>
<path fill-rule="evenodd" clip-rule="evenodd" d="M531.854 402.527C520.706 403.813 512.206 412.804 511.414 424.142C511.071 429.028 511.182 429.36 522.331 457.856C547.7 522.69 553.844 538.29 554.877 540.49C557.383 545.806 560.901 550.81 565.304 555.303C568.679 558.749 570.905 560.601 574.671 563.098C581.288 567.488 584.573 568.704 610.325 576.277C635.414 583.65 649.118 588.557 660.93 594.376C676.228 601.918 686.904 610.497 693.654 620.68C698.502 627.981 702.79 641.08 704.66 654.263C705.39 659.419 705.394 670.808 704.669 675.469C703.093 685.58 699.945 694.053 695.132 701.145C692.572 704.916 693.462 704.284 697.184 699.689C707.718 686.684 718.444 664.459 723.92 644.303C730.545 619.909 731.445 593.712 726.511 568.922C716.908 520.642 686.218 478.977 642.996 455.532C640.28 454.058 629.937 448.675 615.913 441.433C613.785 440.334 610.886 438.829 609.466 438.09C608.046 437.349 605.147 435.845 603.019 434.746C600.891 433.648 594.765 430.478 589.404 427.703C584.043 424.927 578.051 421.822 576.078 420.802C570.072 417.692 566.043 415.602 563.038 414.04C549.142 406.816 543.261 403.895 541.587 403.388C539.828 402.857 535.358 402.175 534.236 402.266C534 402.285 532.927 402.403 531.854 402.527Z" fill="url(#paint5_radial_13_125)"/>
<path d="M562.155 644.553C561.385 645.007 560.303 645.661 559.751 646.009C559.199 646.356 557.975 647.113 557.026 647.692C553.558 649.806 544.324 655.456 536.395 660.318C531.181 663.515 530.406 663.991 523.786 668.074C521.422 669.53 518.906 671.066 518.194 671.484C517.486 671.907 514.454 673.76 511.462 675.603C508.466 677.45 503.243 680.652 499.855 682.722C496.467 684.788 490.403 688.501 486.387 690.972C482.366 693.443 477.077 696.68 474.637 698.167C472.193 699.658 469.936 701.092 469.62 701.364C469.152 701.76 447.421 715.13 436.519 721.728C428.238 726.737 418.658 730.085 408.852 731.403C404.287 732.017 395.647 732.017 391.095 731.407C378.751 729.751 367.379 725.179 357.64 717.957C353.82 715.126 346.628 707.989 343.878 704.302C337.398 695.611 333.207 686.293 331.036 675.75C330.537 673.323 330.064 671.275 329.986 671.195C329.783 670.99 330.15 674.659 330.811 679.45C331.499 684.432 332.964 691.644 334.541 697.806C346.752 745.521 381.499 784.332 428.537 802.795C442.082 808.111 455.751 811.459 470.621 813.102C476.209 813.721 492.028 813.97 497.86 813.529C524.609 811.517 547.895 803.699 571.786 788.704C573.914 787.368 577.912 784.861 580.672 783.138C583.428 781.415 586.91 779.22 588.41 778.267C589.906 777.31 591.714 776.184 592.422 775.761C593.13 775.338 594.55 774.452 595.574 773.793C596.598 773.134 600.984 770.378 605.32 767.671L622.653 756.799L628.601 753.063L628.815 752.93L629.474 752.52L629.785 752.324L634.166 749.573L649.308 740.076C668.605 728.033 674.357 723.807 683.324 715.085C687.059 711.452 692.696 705.246 692.972 704.458C693.03 704.298 694.031 702.762 695.198 701.047C699.944 694.075 703.105 685.536 704.677 675.465C705.402 670.808 705.394 659.414 704.668 654.259C703.256 644.294 700.051 632.995 696.591 625.8C690.924 613.997 678.849 603.276 661.503 594.638C656.717 592.256 651.771 590.075 651.218 590.102C650.956 590.115 634.816 599.914 615.347 611.878C595.881 623.841 578.989 634.223 577.805 634.954C576.625 635.684 574.591 636.913 573.29 637.692L562.155 644.553Z" fill="url(#paint6_radial_13_125)"/>
<path d="M329.666 587.168L329.749 670.492L330.835 675.331C334.231 690.46 340.114 701.364 350.341 711.497C355.152 716.261 358.83 719.133 364.043 722.2C375.074 728.683 386.946 731.879 399.951 731.875C413.57 731.866 425.352 728.491 437.493 721.123C439.542 719.881 447.572 714.97 455.332 710.215L469.446 701.568V602.706V503.844L469.441 413.403C469.441 355.703 469.335 321.437 469.152 318.749C467.994 301.855 460.88 286.324 448.917 274.577C445.248 270.972 442.109 268.564 432.765 262.178C428.115 258.999 419.603 253.178 413.85 249.24C408.097 245.302 398.618 238.815 392.786 234.824C386.954 230.833 378.636 225.139 374.301 222.171C365.271 215.988 364.564 215.558 361.835 214.588C358.284 213.326 354.521 212.863 350.944 213.247C340.518 214.365 332.172 221.841 330.003 232.005C329.665 233.587 329.603 254.633 329.599 368.858L329.594 503.844L329.666 587.168Z" fill="url(#paint7_linear_13_125)"/>
<defs>
<radialGradient id="paint0_radial_13_125" cx="0" cy="0" r="1" gradientUnits="userSpaceOnUse" gradientTransform="translate(705.19 290.12) rotate(129.505) scale(951.146 948.479)">
<stop stop-color="#F6FFFE"/>
<stop offset="0.916667" stop-color="#DEF6FE"/>
</radialGradient>
<radialGradient id="paint1_radial_13_125" cx="0" cy="0" r="1" gradientUnits="userSpaceOnUse" gradientTransform="translate(705.189 290.121) rotate(129.505) scale(951.146 948.479)">
<stop stop-color="#F6FFFE"/>
<stop offset="0.916667" stop-color="#DEF6FE"/>
</radialGradient>
<radialGradient id="paint2_radial_13_125" cx="0" cy="0" r="1" gradientUnits="userSpaceOnUse" gradientTransform="translate(705.189 290.12) rotate(129.505) scale(951.146 948.479)">
<stop stop-color="#F6FFFE"/>
<stop offset="0.916667" stop-color="#C6E5F7"/>
</radialGradient>
<radialGradient id="paint3_radial_13_125" cx="0" cy="0" r="1" gradientUnits="userSpaceOnUse" gradientTransform="translate(244.159 133.549) rotate(82.0928) scale(809.101 1388.57)">
<stop stop-color="#22C2EB"/>
<stop offset="0.649663" stop-color="#3882EB"/>
<stop offset="0.872489" stop-color="#3B7AE1"/>
<stop offset="0.938495" stop-color="#1C59D1"/>
<stop offset="1" stop-color="#1348C3"/>
</radialGradient>
<radialGradient id="paint4_radial_13_125" cx="0" cy="0" r="1" gradientUnits="userSpaceOnUse" gradientTransform="translate(244.157 133.55) rotate(82.0928) scale(809.101 1388.57)">
<stop stop-color="#22C2EB"/>
<stop offset="0.649663" stop-color="#3882EB"/>
<stop offset="0.872489" stop-color="#3B7AE1"/>
<stop offset="0.938495" stop-color="#1C59D1"/>
<stop offset="1" stop-color="#1348C3"/>
</radialGradient>
<radialGradient id="paint5_radial_13_125" cx="0" cy="0" r="1" gradientUnits="userSpaceOnUse" gradientTransform="translate(715.933 636.757) rotate(-131.104) scale(311.249 224.171)">
<stop stop-color="#00CACC"/>
<stop offset="1" stop-color="#048FCE"/>
</radialGradient>
<radialGradient id="paint6_radial_13_125" cx="0" cy="0" r="1" gradientUnits="userSpaceOnUse" gradientTransform="translate(382.068 749.893) rotate(-23.0535) scale(337.621 559.992)">
<stop stop-color="#00BBEC"/>
<stop offset="1" stop-color="#2756A9"/>
</radialGradient>
<linearGradient id="paint7_linear_13_125" x1="399.516" y1="213.116" x2="399.516" y2="731.875" gradientUnits="userSpaceOnUse">
<stop stop-color="#00BBEC"/>
<stop offset="1" stop-color="#2756A9"/>
</linearGradient>
</defs>
</svg>
