<?xml version="1.0" encoding="UTF-8"?> <svg xmlns="http://www.w3.org/2000/svg" width="48" height="48" viewBox="0 0 48 48" fill="none"><path d="M48 4.992V43.008L36 48L0 35.8788L36 41.226V0L48 4.992ZM11.2944 34.1604L3 27.342V24.1548L8.3724 20.6616L3 17.1672V13.98L11.2944 7.1604L15.4212 8.4312L15.408 8.4408L15.6 8.4444V16.0764L23.3988 10.8876L30 12.9204V28.4004L23.3988 30.4332L15.6 25.2444V32.8752L11.2944 34.1604V34.1604ZM15.5088 20.6604L24 24.8748V16.4472L15.5088 20.6604V20.6604ZM10.8 23.1756L5.5764 25.9656L10.8 29.64V23.1756ZM10.8 11.6808L5.5764 15.3552L10.8 18.1452V11.6808V11.6808Z" fill="#CB2E6D"></path></svg> 