<svg width="64" height="65" viewBox="0 0 64 65" fill="none" xmlns="http://www.w3.org/2000/svg">
<g filter="url(#filter0_dd)">
<path d="M31.5 62C28.4624 62 26 59.5376 26 56.5C26 53.4624 28.4624 51 31.5 51C34.5376 51 37 53.4624 37 56.5C37 59.5376 34.5376 62 31.5 62Z" fill="#006FC9"/>
</g>
<g filter="url(#filter1_dd)">
<mask id="path-2-inside-1" fill="white">
<path fill-rule="evenodd" clip-rule="evenodd" d="M32 1.99951C18.1929 1.99951 7 13.1928 7 26.9999C7 38.6175 14.9244 48.3845 25.6629 51.19L31.5273 57.0544L37.1028 51.479C48.4627 49.1231 57 39.0583 57 26.9999C57 13.1928 45.8071 1.99951 32 1.99951Z"/>
</mask>
<path fill-rule="evenodd" clip-rule="evenodd" d="M32 1.99951C18.1929 1.99951 7 13.1928 7 26.9999C7 38.6175 14.9244 48.3845 25.6629 51.19L31.5273 57.0544L37.1028 51.479C48.4627 49.1231 57 39.0583 57 26.9999C57 13.1928 45.8071 1.99951 32 1.99951Z" fill="white"/>
<path d="M25.6629 51.19L25.9157 50.2225L26.1782 50.2911L26.37 50.4829L25.6629 51.19ZM31.5273 57.0544L32.2344 57.7615L31.5273 58.4686L30.8202 57.7615L31.5273 57.0544ZM37.1028 51.479L36.3957 50.7719L36.607 50.5606L36.8997 50.4999L37.1028 51.479ZM6 26.9999C6 12.6405 17.6406 0.999512 32 0.999512V2.99951C18.7452 2.99951 8 13.745 8 26.9999H6ZM25.4101 52.1575C14.2424 49.2399 6 39.0835 6 26.9999H8C8 38.1514 15.6065 47.5291 25.9157 50.2225L25.4101 52.1575ZM26.37 50.4829L32.2344 56.3473L30.8202 57.7615L24.9558 51.8971L26.37 50.4829ZM30.8202 56.3473L36.3957 50.7719L37.8099 52.1861L32.2344 57.7615L30.8202 56.3473ZM58 26.9999C58 39.5418 49.1206 50.0079 37.3058 52.4582L36.8997 50.4999C47.8049 48.2382 56 38.5748 56 26.9999H58ZM32 0.999512C46.3594 0.999512 58 12.6405 58 26.9999H56C56 13.745 45.2548 2.99951 32 2.99951V0.999512Z" fill="#A19F9D" mask="url(#path-2-inside-1)"/>
</g>
<path d="M20.6621 34C20.0762 34 19.5195 33.8828 18.9922 33.6484C18.4648 33.4141 17.9961 33.0918 17.5859 32.6816C17.1758 32.2715 16.8535 31.8027 16.6191 31.2754C16.3848 30.748 16.2617 30.1855 16.25 29.5879V18.1621C16.25 17.5762 16.3672 17.0195 16.6016 16.4922C16.8359 15.9648 17.1582 15.4961 17.5684 15.0859C17.9785 14.6758 18.4473 14.3535 18.9746 14.1191C19.502 13.8848 20.0645 13.7617 20.6621 13.75H43.3379C43.9238 13.75 44.4805 13.8672 45.0078 14.1016C45.5352 14.3359 46.0039 14.6582 46.4141 15.0684C46.8242 15.4785 47.1465 15.9473 47.3809 16.4746C47.6152 17.002 47.7383 17.5645 47.75 18.1621V29.5879C47.75 30.1738 47.6328 30.7305 47.3984 31.2578C47.1641 31.7852 46.8418 32.2539 46.4316 32.6641C46.0215 33.0742 45.5527 33.3965 45.0254 33.6309C44.498 33.8652 43.9355 33.9883 43.3379 34H20.6621ZM18.5 29.5C18.5 29.8164 18.5586 30.1094 18.6758 30.3789C18.793 30.6484 18.9512 30.8887 19.1504 31.0996C19.3496 31.3105 19.584 31.4688 19.8535 31.5742C20.123 31.6797 20.4219 31.7383 20.75 31.75H32C32 29.8867 32.3516 28.1406 33.0547 26.5117C33.7578 24.8828 34.7246 23.4531 35.9551 22.2227C37.1855 20.9922 38.6152 20.0254 40.2441 19.3223C41.873 18.6191 43.625 18.2617 45.5 18.25C45.5 17.9453 45.4414 17.6582 45.3242 17.3887C45.207 17.1191 45.0488 16.8789 44.8496 16.668C44.6504 16.457 44.4102 16.293 44.1289 16.1758C43.8477 16.0586 43.5547 16 43.25 16H20.75C20.4336 16 20.1406 16.0586 19.8711 16.1758C19.6016 16.293 19.3672 16.4512 19.168 16.6504C18.9688 16.8496 18.8047 17.0898 18.6758 17.3711C18.5469 17.6523 18.4883 17.9453 18.5 18.25V29.5ZM45.5 20.5C43.9414 20.5 42.4824 20.793 41.123 21.3789C39.7637 21.9648 38.5684 22.7676 37.5371 23.7871C36.5059 24.8066 35.7031 25.9961 35.1289 27.3555C34.5547 28.7148 34.2617 30.1797 34.25 31.75H43.25C43.5664 31.75 43.8594 31.6914 44.1289 31.5742C44.3984 31.457 44.6328 31.2988 44.832 31.0996C45.0312 30.9004 45.1953 30.6602 45.3242 30.3789C45.4531 30.0977 45.5117 29.8047 45.5 29.5V20.5ZM48.875 36.25C49.1797 36.25 49.4434 36.3613 49.666 36.584C49.8887 36.8066 50 37.0703 50 37.375C50 37.6797 49.8887 37.9434 49.666 38.166C49.4434 38.3887 49.1797 38.5 48.875 38.5H15.125C14.8203 38.5 14.5566 38.3887 14.334 38.166C14.1113 37.9434 14 37.6797 14 37.375C14 37.0703 14.1113 36.8066 14.334 36.584C14.5566 36.3613 14.8203 36.25 15.125 36.25H48.875Z" fill="#605E5C"/>
<defs>
<filter id="filter0_dd" x="24.2" y="50" width="14.6" height="14.6" filterUnits="userSpaceOnUse" color-interpolation-filters="sRGB">
<feFlood flood-opacity="0" result="BackgroundImageFix"/>
<feColorMatrix in="SourceAlpha" type="matrix" values="0 0 0 0 0 0 0 0 0 0 0 0 0 0 0 0 0 0 127 0" result="hardAlpha"/>
<feOffset dy="0.8"/>
<feGaussianBlur stdDeviation="0.9"/>
<feColorMatrix type="matrix" values="0 0 0 0 0 0 0 0 0 0 0 0 0 0 0 0 0 0 0.13 0"/>
<feBlend mode="normal" in2="BackgroundImageFix" result="effect1_dropShadow"/>
<feColorMatrix in="SourceAlpha" type="matrix" values="0 0 0 0 0 0 0 0 0 0 0 0 0 0 0 0 0 0 127 0" result="hardAlpha"/>
<feOffset dy="0.15"/>
<feGaussianBlur stdDeviation="0.225"/>
<feColorMatrix type="matrix" values="0 0 0 0 0 0 0 0 0 0 0 0 0 0 0 0 0 0 0.1 0"/>
<feBlend mode="normal" in2="effect1_dropShadow" result="effect2_dropShadow"/>
<feBlend mode="normal" in="SourceGraphic" in2="effect2_dropShadow" result="shape"/>
</filter>
<filter id="filter1_dd" x="5.2" y="0.999512" width="53.6" height="58.6549" filterUnits="userSpaceOnUse" color-interpolation-filters="sRGB">
<feFlood flood-opacity="0" result="BackgroundImageFix"/>
<feColorMatrix in="SourceAlpha" type="matrix" values="0 0 0 0 0 0 0 0 0 0 0 0 0 0 0 0 0 0 127 0" result="hardAlpha"/>
<feOffset dy="0.8"/>
<feGaussianBlur stdDeviation="0.9"/>
<feColorMatrix type="matrix" values="0 0 0 0 0 0 0 0 0 0 0 0 0 0 0 0 0 0 0.13 0"/>
<feBlend mode="normal" in2="BackgroundImageFix" result="effect1_dropShadow"/>
<feColorMatrix in="SourceAlpha" type="matrix" values="0 0 0 0 0 0 0 0 0 0 0 0 0 0 0 0 0 0 127 0" result="hardAlpha"/>
<feOffset dy="0.15"/>
<feGaussianBlur stdDeviation="0.225"/>
<feColorMatrix type="matrix" values="0 0 0 0 0 0 0 0 0 0 0 0 0 0 0 0 0 0 0.1 0"/>
<feBlend mode="normal" in2="effect1_dropShadow" result="effect2_dropShadow"/>
<feBlend mode="normal" in="SourceGraphic" in2="effect2_dropShadow" result="shape"/>
</filter>
</defs>
</svg>
