<svg fill="none" viewBox="0 0 40 40" width="24" height="24" xmlns="http://www.w3.org/2000/svg">
    <path fill="url(#a)" d="M13.3364 21.9053c-.0208-.1768.1342-.6305-.1619-.9289-.2445-.2466-.6405-.3258-1.1277-.2373-2.30637.3997-4.75145 3.0821-4.75577 3.0864-1.0555 1.0554-1.72404 2.2933-2.08288 3.6445-.16193.6154-.25498 1.2397-.27481 1.8686-.06495 2.1666.736 4.3325 2.36181 6.0064 2.08477 2.154 4.26625 2.7876 5.20845 3.0974 5.9026 1.9285 12.485-.1121 17.2043-4.7926 6.6485-6.5939 6.7444-17.2945.2671-24.00722 3.3931 3.50782 2.7213 9.72572-1.3752 13.78842-.333.3303-2.2577 2.1791-4.932 2.9952-2.3552.7226-4.1422.5472-5.6785.1316-1.5921-.4287-2.9658-1.6062-3.4678-2.1123-.5019-.5061-1.0518-1.4369-1.1851-2.5402Z" />
    <path fill="url(#b)" d="M26.3882 7.75799c.2108.46398.3901.94442.544 1.44168.4613 1.49783.6826 3.13423.5826 4.83713-.3705 6.313-3.371 11.9123-8.942 11.5853-3.266-.1917-4.5975-2.3901-5.2337-3.7152-.0977 5.7187 5.8306 8.496 9.3155 8.7006 9.8527.5783 11.3831-8.4433 11.4981-10.4017.0617-1.0522-.1488-2.6635-.3965-3.6422-.0147-.0619-.0297-.1177-.0505-.18-1.0598-3.7788-3.3881-7.05233-6.5215-9.29292-.4512-.31942-1.0228.16576-.796.66731Z" />
    <path fill="url(#c)" d="M17.7015 2.03763c.6611-1.130944 2.099-1.535448 3.2528-.9151 1.1538.62034 1.6094 2.04284 1.0306 3.21806L13.3347 21.9053l-5.51439-2.9648L17.7015 2.03763Z" />
    <path fill="url(#d)" d="M1.53881 29.0762c-.821473-2.9899.90174-6.195 3.8489-7.1588 2.94716-.9637 6.00219.6788 6.82369 3.6688.8215 2.9899-.9017 6.195-3.84887 7.1587l-4.6248 1.5124c-.39296.1285-.8003-.0905-.90983-.4892l-1.28909-4.6919Z" />
    <path fill="url(#e)" d="m6.3418 21.6932 5.5195 2.955 1.4749-2.7431-5.5144-2.9647-1.48 2.7528Z" />
    <path fill="url(#f)" d="M31.278 5.694c-.3811-.27097-.3811-.83688 0-1.10786l1.0823-.76956c.4179-.2972.7831-.66237 1.0803-1.08033l.7696-1.08228c.2709-.38108.8369-.38108 1.1078 0l.7696 1.08228c.2972.41796.6624.78313 1.0803 1.08033l1.0823.76956c.3811.27098.3811.83689 0 1.10786l-1.0823.76957c-.4179.2972-.7831.66237-1.0803 1.08033l-.7696 1.08227c-.2709.38108-.8369.38108-1.1078 0l-.7696-1.08227c-.2972-.41796-.6624-.78313-1.0803-1.08033L31.278 5.694Z" />
    <path fill="url(#g)" d="M22.2337 12.2368c-.658-.4678-.658-1.445 0-1.9129l1.8687-1.32875c.7217-.51316 1.3522-1.14369 1.8654-1.86536l1.3288-1.86871c.4679-.658 1.445-.658 1.9129 0l1.3288 1.86871c.5131.72167 1.1437 1.3522 1.8653 1.86536l1.8687 1.32875c.658.4679.658 1.4451 0 1.9129l-1.8687 1.3288c-.7216.5132-1.3522 1.1437-1.8653 1.8654l-1.3288 1.8687c-.4679.658-1.445.658-1.9129 0l-1.3288-1.8687c-.5132-.7217-1.1437-1.3522-1.8654-1.8654l-1.8687-1.3288Z" />
    <defs>
        <linearGradient id="a" x1="13.3907" x2="38.5584" y1="39.1655" y2="21.5704" gradientUnits="userSpaceOnUse">
            <stop stop-color="#C640F0" />
            <stop offset="1" stop-color="#F3CBFF" />
        </linearGradient>
        <linearGradient id="b" x1="18.7668" x2="29.1857" y1="30.6341" y2="13.4036" gradientUnits="userSpaceOnUse">
            <stop offset="0.284714" stop-color="#E9ACFA" />
            <stop offset="0.951408" stop-color="#C640F0" />
        </linearGradient>
        <linearGradient id="c" x1="13.0325" x2="18.4689" y1="9.5111" y2="12.6741" gradientUnits="userSpaceOnUse">
            <stop stop-color="#E9ACFA" />
            <stop offset="0.871558" stop-color="#8260F6" />
        </linearGradient>
        <linearGradient id="e" x1="6.69258" x2="13.3447" y1="18.3287" y2="21.9052" gradientUnits="userSpaceOnUse">
            <stop stop-color="#AA6CF5" />
            <stop offset="1" stop-color="#4B35F1" />
        </linearGradient>
        <linearGradient id="f" x1="30.9922" x2="38.4648" y1="1.36816" y2="8.20135" gradientUnits="userSpaceOnUse">
            <stop offset="0.19096" stop-color="#C886F8" />
            <stop offset="0.774317" stop-color="#4B35F1" />
        </linearGradient>
        <linearGradient id="g" x1="21.7402" x2="34.6428" y1="4.76758" y2="16.5662" gradientUnits="userSpaceOnUse">
            <stop offset="0.217003" stop-color="#C886F8" />
            <stop offset="0.769109" stop-color="#4B35F1" />
        </linearGradient>
        <radialGradient id="d" cx="0" cy="0" r="1" gradientTransform="matrix(5.71123 13.67412 -11.97912 5.00329 4.74347 24.4493)" gradientUnits="userSpaceOnUse">
            <stop stop-color="#E9ACFA" />
            <stop offset="0.658981" stop-color="#4B35F1" />
        </radialGradient>
    </defs>
</svg>