<svg xmlns="http://www.w3.org/2000/svg" xmlns:xlink="http://www.w3.org/1999/xlink" viewBox="0 0 256 256">
  <defs>
    <linearGradient id="a" x1="202.55" x2="53.45" y1="257.12" y2="-1.12" data-name="New Gradient Swatch" gradientUnits="userSpaceOnUse">
      <stop offset="0" stop-color="#d7ccb3"/>
      <stop offset="1" stop-color="#f2e6ca"/>
    </linearGradient>
    <linearGradient id="b" x1="134.91" x2="84.09" y1="145.01" y2="56.99" gradientUnits="userSpaceOnUse">
      <stop offset="0"/>
      <stop offset="0" stop-color="#ffb900"/>
      <stop offset="1" stop-color="#fef000"/>
    </linearGradient>
    <linearGradient id="c" x1="98.76" x2="48.91" y1="144.52" y2="58.19" gradientUnits="userSpaceOnUse">
      <stop offset="0"/>
      <stop offset="0" stop-color="#d83b01"/>
      <stop offset="1" stop-color="#ec6725"/>
    </linearGradient>
    <linearGradient id="d" x1="171.91" x2="121.09" y1="145.01" y2="56.99" gradientUnits="userSpaceOnUse">
      <stop offset="0"/>
      <stop offset="0" stop-color="#56b60e"/>
      <stop offset="1" stop-color="#66eb6e"/>
    </linearGradient>
    <linearGradient id="e" x1="207.09" x2="157.24" y1="143.81" y2="57.48" gradientUnits="userSpaceOnUse">
      <stop offset="0"/>
      <stop offset="0" stop-color="#0078d4"/>
      <stop offset="1" stop-color="#28afea"/>
    </linearGradient>
    <linearGradient xlink:href="#a" id="f" x1="80.07" x2="59.93" y1="203.45" y2="168.55" data-name="New Gradient Swatch"/>
    <linearGradient xlink:href="#a" id="g" x1="138.07" x2="117.93" y1="203.45" y2="168.55" data-name="New Gradient Swatch"/>
    <linearGradient xlink:href="#a" id="h" x1="196.07" x2="175.93" y1="203.45" y2="168.55" data-name="New Gradient Swatch"/>
  </defs>
  <g data-name="Layer 2" style="isolation:isolate">
    <g data-name="Ramp Work">
      <rect width="224" height="224" x="16" y="16" fill="url(#a)" rx="10.67" ry="10.67"/>
      <path fill="#666" d="M32 32h192v192H32z"/>
      <rect width="148" height="96" x="54" y="53" class="cls-2" opacity=".32" rx="5.31" ry="5.31" style="mix-blend-mode:multiply"/>
      <rect width="148" height="96" x="54" y="53" class="cls-2" opacity=".24" rx="5.31" ry="5.31" style="mix-blend-mode:multiply"/>
      <path fill="url(#b)" d="M91 53h37v96H91z"/>
      <path fill="url(#c)" d="M91 149H59.35c-2.95 0-5.35-2.39-5.35-5.35v-85.3C54 55.4 56.39 53 59.35 53H91v96Z"/>
      <path fill="url(#d)" d="M128 53h37v96h-37z"/>
      <path fill="url(#e)" d="M165 53h31.65c2.95 0 5.35 2.4 5.35 5.35v85.31c0 2.95-2.4 5.35-5.35 5.35H165V53Z"/>
      <path fill="none" d="M0 0h256v256H0z"/>
      <rect width="32" height="32" x="54" y="170" fill="url(#f)" rx="4.67" ry="4.67"/>
      <rect width="32" height="32" x="112" y="170" fill="url(#g)" rx="4.67" ry="4.67"/>
      <rect width="32" height="32" x="170" y="170" fill="url(#h)" rx="4.67" ry="4.67"/>
    </g>
  </g>
</svg>
