<svg xmlns="http://www.w3.org/2000/svg" fill="none" viewBox="0 0 1008 1024">
  <path fill="url(#a)" d="M772.184 947.489c113.087-74.668 197.515-193.7 224.759-316.867 5.587-25.249 8.907-57.109 10.027-90.532-2.61 48.974-11.991 96.119-27.218 140.482-4.256 12.399-8.966 24.576-14.113 36.522-77.202 179.128-252.448 304.756-456.825 306.896 95.849.51 185.807-25.282 263.37-76.501Z"/>
  <path fill="url(#b)" fill-rule="evenodd" d="M172.664 125.598c-26.869 24.186-51.871 51.687-75.0051 82.502-42.7261 58.738-73.3803 127.083-88.24323 201.256C3.56639 442.902.820606 478.497 1.0265 516.658c.32795 61.107 3.77462 86.227 20.352 148.38 10.9766 41.148 19.9533 88.796 19.9533 105.884 0 17.088-10.237 72.541-22.7505 123.225-22.53185 91.294-22.63475 92.327-10.61644 108.413 17.16894 22.98 39.77794 23.09 124.13714.6 94.867-25.297 134.594-25.212 230.213.46 49.306 13.24 97.968 20 145.207 20.36 204.928-1.62 380.748-127.388 458.115-306.886 5.147-11.945 9.857-24.122 14.114-36.522 15.227-44.362 24.609-91.507 27.219-140.482.72-21.224.55-43.08-.49-64.277C989.207 224.571 793.433 23.2863 547.089 1.86793 531.177.744483 515.01.112814 499.187 0 374.279 1.06335 260.203 48.2459 172.664 125.598ZM47.3247 977.222c-2.739 0 3.9354-32.381 14.835-71.962 10.9739-39.848 17.5989-77.135 19.8806-112.108 2.9929-45.867-1.4866-87.745-13.4244-126.172-6.4344-20.717-11.6605-41.064-15.6787-61.126l-.4407-2.929c-5.702-29.412-8.6913-59.816-8.6913-90.933 0-258.186 205.8128-467.4877 459.6958-467.4877 253.882 0 459.696 209.3017 459.696 467.4877 0 107.304-35.546 206.162-95.323 285.06-13.94 16.402-30.039 33.993-45.266 49.171-46.74 46.602-68.489 62.937-112.985 84.865-40.342 19.879-75.328 32.288-113.541 38.908-29.906 6.22-60.867 9.483-92.581 9.483-44.318 0-87.171-6.375-127.721-18.281-7.188-1.816-14.486-3.846-22.063-6.113-48.279-14.465-85.268-19.932-128.775-16.246-27.827 2.36-58.319 8.464-96.138 18.361-42.0741 11.015-78.7398 20.022-81.4793 20.022Z" clip-rule="evenodd"/>
  <path fill="url(#c)" d="M62.1596 905.259C51.26 944.84 44.5857 977.221 47.3247 977.221c2.7395 0 39.4052-9.007 81.4793-20.021 37.819-9.898 68.311-16.002 96.138-18.362 43.507-3.686 80.496 1.781 128.775 16.247 7.577 2.266 14.875 4.296 22.063 6.113 40.55 11.905 83.403 18.281 127.721 18.281 31.714 0 62.675-3.264 92.581-9.484 38.213-6.62 73.199-19.029 113.541-38.908 44.496-21.927 66.245-38.263 112.985-84.865 15.227-15.177 31.326-32.768 45.266-49.17 59.776-78.899 95.323-177.757 95.323-285.061 0-258.186-205.814-467.4874-459.696-467.4874-253.883 0-459.6958 209.3014-459.6958 467.4874 0 31.117 2.9892 61.521 8.6912 90.933l.4408 2.93c4.0182 20.062 9.2442 40.408 15.6787 61.125 11.9378 38.427 16.4172 80.305 13.4244 126.172-2.2818 34.973-8.9067 72.261-19.8807 112.108Z"/>
  <path fill="url(#d)" d="M772.184 947.489c113.087-74.668 197.515-193.7 224.759-316.867 5.587-25.249 8.907-57.109 10.027-90.532-2.61 48.974-11.991 96.119-27.218 140.482-4.256 12.399-8.966 24.576-14.113 36.522-77.202 179.128-252.448 304.756-456.825 306.896 95.849.51 185.807-25.282 263.37-76.501Z"/>
  <path fill="url(#e)" fill-rule="evenodd" d="M172.664 125.598c-26.869 24.186-51.871 51.687-75.0051 82.502-42.7261 58.738-73.3803 127.083-88.24323 201.256C3.56639 442.902.820606 478.497 1.0265 516.658c.32795 61.107 3.77462 86.227 20.352 148.38 10.9766 41.148 19.9533 88.796 19.9533 105.884 0 17.088-10.237 72.541-22.7505 123.225-22.53185 91.294-22.63475 92.327-10.61644 108.413 17.16894 22.98 39.77794 23.09 124.13714.6 94.867-25.297 134.594-25.212 230.213.46 49.306 13.24 97.968 20 145.207 20.36 204.928-1.62 380.748-127.388 458.115-306.886 5.147-11.945 9.857-24.122 14.114-36.522 15.227-44.362 24.609-91.507 27.219-140.482.72-21.224.55-43.08-.49-64.277C989.207 224.571 793.433 23.2863 547.089 1.86793 531.177.744483 515.01.112814 499.187 0 374.279 1.06335 260.203 48.2459 172.664 125.598ZM47.3247 977.222c-2.739 0 3.9354-32.381 14.835-71.962 10.9739-39.848 17.5989-77.135 19.8806-112.108 2.9929-45.867-1.4866-87.745-13.4244-126.172-6.4344-20.717-11.6605-41.064-15.6787-61.126l-.4407-2.929c-5.702-29.412-8.6913-59.816-8.6913-90.933 0-258.186 205.8128-467.4877 459.6958-467.4877 253.882 0 459.696 209.3017 459.696 467.4877 0 107.304-35.546 206.162-95.323 285.06-13.94 16.402-30.039 33.993-45.266 49.171-46.74 46.602-68.489 62.937-112.985 84.865-40.342 19.879-75.328 32.288-113.541 38.908-29.906 6.22-60.867 9.483-92.581 9.483-44.318 0-87.171-6.375-127.721-18.281-7.188-1.816-14.486-3.846-22.063-6.113-48.279-14.465-85.268-19.932-128.775-16.246-27.827 2.36-58.319 8.464-96.138 18.361-42.0741 11.015-78.7398 20.022-81.4793 20.022Z" clip-rule="evenodd"/>
  <path fill="url(#f)" fill-rule="evenodd" d="M531.854 402.527c-11.148 1.286-19.648 10.277-20.44 21.615-.343 4.886-.232 5.218 10.917 33.714 25.369 64.834 31.513 80.434 32.546 82.634 2.506 5.316 6.024 10.32 10.427 14.813 3.375 3.446 5.601 5.298 9.367 7.795 6.617 4.39 9.902 5.606 35.654 13.179 25.089 7.373 38.793 12.28 50.605 18.099 15.298 7.542 25.974 16.121 32.724 26.304 4.848 7.301 9.136 20.4 11.006 33.583.73 5.156.734 16.545.009 21.206-1.576 10.111-4.724 18.584-9.537 25.676-2.56 3.771-1.67 3.139 2.052-1.456 10.534-13.005 21.26-35.23 26.736-55.386 6.625-24.394 7.525-50.591 2.591-75.381-9.603-48.28-40.293-89.945-83.515-113.39-2.716-1.474-13.059-6.857-27.083-14.099-2.128-1.099-5.027-2.604-6.447-3.343-1.42-.741-4.319-2.245-6.447-3.344-2.128-1.098-8.254-4.268-13.615-7.043-5.361-2.776-11.353-5.881-13.326-6.901-6.006-3.11-10.035-5.2-13.04-6.762-13.896-7.224-19.777-10.145-21.451-10.652-1.759-.531-6.229-1.213-7.351-1.122-.236.019-1.309.137-2.382.261Z" clip-rule="evenodd"/>
  <path fill="url(#g)" d="M562.155 644.553c-.77.454-1.852 1.108-2.404 1.456-.552.347-1.776 1.104-2.725 1.683-3.468 2.114-12.702 7.764-20.631 12.626-5.214 3.197-5.989 3.673-12.609 7.756-2.364 1.456-4.88 2.992-5.592 3.41-.708.423-3.74 2.276-6.732 4.119-2.996 1.847-8.219 5.049-11.607 7.119-3.388 2.066-9.452 5.779-13.468 8.25-4.021 2.471-9.31 5.708-11.75 7.195-2.444 1.491-4.701 2.925-5.017 3.197-.468.396-22.199 13.766-33.101 20.364-8.281 5.009-17.861 8.357-27.667 9.675-4.565.614-13.205.614-17.757.004-12.344-1.656-23.716-6.228-33.455-13.45-3.82-2.831-11.012-9.968-13.762-13.655-6.48-8.691-10.671-18.009-12.842-28.552-.499-2.427-.972-4.475-1.05-4.555-.203-.205.164 3.464.825 8.255.688 4.982 2.153 12.194 3.73 18.356 12.211 47.715 46.958 86.526 93.996 104.989 13.545 5.316 27.214 8.664 42.084 10.307 5.588.619 21.407.868 27.239.427 26.749-2.012 50.035-9.83 73.926-24.825 2.128-1.336 6.126-3.843 8.886-5.566 2.756-1.723 6.238-3.918 7.738-4.871 1.496-.957 3.304-2.083 4.012-2.506.708-.423 2.128-1.309 3.152-1.968s5.41-3.415 9.746-6.122l17.333-10.872 5.948-3.736.214-.133.659-.41.311-.196 4.381-2.751 15.142-9.497c19.297-12.043 25.049-16.269 34.016-24.991 3.735-3.633 9.372-9.839 9.648-10.627.058-.16 1.059-1.696 2.226-3.411 4.746-6.972 7.907-15.511 9.479-25.582.725-4.657.717-16.051-.009-21.206-1.412-9.965-4.617-21.264-8.077-28.459-5.667-11.803-17.742-22.524-35.088-31.162-4.786-2.382-9.732-4.563-10.285-4.536-.262.013-16.402 9.812-35.871 21.776-19.466 11.963-36.358 22.345-37.542 23.076-1.18.73-3.214 1.959-4.515 2.738l-11.135 6.861Z"/>
  <path fill="url(#h)" d="m329.666 587.168.083 83.324 1.086 4.839c3.396 15.129 9.279 26.033 19.506 36.166 4.811 4.764 8.489 7.636 13.702 10.703 11.031 6.483 22.903 9.679 35.908 9.675 13.619-.009 25.401-3.384 37.542-10.752 2.049-1.242 10.079-6.153 17.839-10.908l14.114-8.647V503.844l-.005-90.441c0-57.7-.106-91.966-.289-94.654-1.158-16.894-8.272-32.425-20.235-44.172-3.669-3.605-6.808-6.013-16.152-12.399-4.65-3.179-13.162-9-18.915-12.938-5.753-3.938-15.232-10.425-21.064-14.416-5.832-3.991-14.15-9.685-18.485-12.653-9.03-6.183-9.737-6.613-12.466-7.583-3.551-1.262-7.314-1.725-10.891-1.341-10.426 1.118-18.772 8.594-20.941 18.758-.338 1.582-.4 22.628-.404 136.853l-.005 134.986.072 83.324Z"/>
  <defs>
    <radialGradient id="a" cx="0" cy="0" r="1" gradientTransform="matrix(-605.06729987 733.8748367 -731.81706199 -603.37069967 705.19 290.12)" gradientUnits="userSpaceOnUse">
      <stop stop-color="#F6FFFE"/>
      <stop offset=".916667" stop-color="#DEF6FE"/>
    </radialGradient>
    <radialGradient id="b" cx="0" cy="0" r="1" gradientTransform="matrix(-605.06729987 733.8748367 -731.81706199 -603.37069967 705.189 290.121)" gradientUnits="userSpaceOnUse">
      <stop stop-color="#F6FFFE"/>
      <stop offset=".916667" stop-color="#DEF6FE"/>
    </radialGradient>
    <radialGradient id="c" cx="0" cy="0" r="1" gradientTransform="matrix(-605.06729987 733.8748367 -731.81706199 -603.37069967 705.189 290.12)" gradientUnits="userSpaceOnUse">
      <stop stop-color="#F6FFFE"/>
      <stop offset=".916667" stop-color="#C6E5F7"/>
    </radialGradient>
    <radialGradient id="d" cx="0" cy="0" r="1" gradientTransform="rotate(82.0928 45.38974564 206.98141833) scale(809.101 1388.57)" gradientUnits="userSpaceOnUse">
      <stop stop-color="#22C2EB"/>
      <stop offset=".649663" stop-color="#3882EB"/>
      <stop offset=".872489" stop-color="#3B7AE1"/>
      <stop offset=".938495" stop-color="#1C59D1"/>
      <stop offset="1" stop-color="#1348C3"/>
    </radialGradient>
    <radialGradient id="e" cx="0" cy="0" r="1" gradientTransform="rotate(82.0928 45.3881714 206.98076984) scale(809.101 1388.57)" gradientUnits="userSpaceOnUse">
      <stop stop-color="#22C2EB"/>
      <stop offset=".649663" stop-color="#3882EB"/>
      <stop offset=".872489" stop-color="#3B7AE1"/>
      <stop offset=".938495" stop-color="#1C59D1"/>
      <stop offset="1" stop-color="#1348C3"/>
    </radialGradient>
    <radialGradient id="f" cx="0" cy="0" r="1" gradientTransform="rotate(-131.104 502.71112343 155.63595852) scale(311.249 224.171)" gradientUnits="userSpaceOnUse">
      <stop stop-color="#00CACC"/>
      <stop offset="1" stop-color="#048FCE"/>
    </radialGradient>
    <radialGradient id="g" cx="0" cy="0" r="1" gradientTransform="matrix(310.65845411 -132.20916961 219.28753635 515.27081857 382.068 749.893)" gradientUnits="userSpaceOnUse">
      <stop stop-color="#00BBEC"/>
      <stop offset="1" stop-color="#2756A9"/>
    </radialGradient>
    <linearGradient id="h" x1="399.516" x2="399.516" y1="213.116" y2="731.875" gradientUnits="userSpaceOnUse">
      <stop stop-color="#00BBEC"/>
      <stop offset="1" stop-color="#2756A9"/>
    </linearGradient>
  </defs>
</svg>
