<svg xmlns="http://www.w3.org/2000/svg" fill="none" viewBox="0 0 96 84">
  <defs>
    <linearGradient id="c" x1="66.5" x2="38.5" y1="90.5" y2="8" gradientUnits="userSpaceOnUse">
      <stop stop-color="#E6AD10"/>
      <stop offset="1" stop-color="#F2C811"/>
    </linearGradient>
    <linearGradient id="d" x1="46" x2="79.298897" y1="-5.46875" y2="90.713402" gradientUnits="userSpaceOnUse">
      <stop stop-color="#E6AD10"/>
      <stop offset="1" stop-color="#C87E0E"/>
    </linearGradient>
    <linearGradient id="g" x1="36.998199" x2="61.786201" y1="46" y2="93.593002" gradientUnits="userSpaceOnUse">
      <stop stop-color="#F6D751"/>
      <stop offset="1" stop-color="#E6AD10"/>
    </linearGradient>
    <linearGradient id="h" x1="23.998199" x2="39.527199" y1="64" y2="108.11" gradientUnits="userSpaceOnUse">
      <stop stop-color="#F9E589"/>
      <stop offset="1" stop-color="#F6D751"/>
    </linearGradient>
    <filter id="e">
      <feFlood flood-opacity="0" result="BackgroundImageFix"/>
      <feBlend in="SourceGraphic" in2="BackgroundImageFix" result="shape"/>
      <feGaussianBlur result="effect1_foregroundBlur" stdDeviation=".4"/>
    </filter>
    <filter id="f">
      <feFlood flood-opacity="0" result="BackgroundImageFix"/>
      <feBlend in="SourceGraphic" in2="BackgroundImageFix" result="shape"/>
      <feGaussianBlur result="effect1_foregroundBlur" stdDeviation="4"/>
    </filter>
    <clipPath id="a">
      <path fill="#fff" d="M0 0h96v96H0z"/>
    </clipPath>
  </defs>
  <g clip-path="url(#a)" transform="translate(-2.1e-7 -12)">
    <mask id="b" width="96" height="84" x="0" y="12" mask-type="alpha" maskUnits="userSpaceOnUse">
      <path fill="#c4c4c4" d="M4 12C1.79086 12 1e-7 13.7909 2.1e-7 16l.0000034 64C.00000371 82.2091 1.79086 84 4 84h20v8c0 2.2091 1.7909 4 4 4h40c2.2091 0 4-1.7909 4-4v-8h20c2.2091 0 4-1.7909 4-4V16c0-2.2091-1.7909-4-4-4z"/>
    </mask>
    <g mask="url(#b)">
      <path fill="url(#c)" d="m0 84-.00000315-72H96v72z"/>
      <path fill="url(#d)" d="M72 32v64H54c-2.2091 0-4-1.7909-4-4V32c0-2.2091 1.7909-4 4-4h14c2.2091 0 4 1.7909 4 4z"/>
      <g filter="url(#e)">
        <path fill="#000" fill-opacity=".2" d="M59 96.4v-46c0-2.2091-1.7909-4-4-4H41c-2.2091 0-4 1.7909-4 4v14h-9c-2.2091 0-4 1.7909-4 4v28z"/>
      </g>
      <g filter="url(#f)">
        <path fill="#000" fill-opacity=".18" d="M59 98V52c0-2.2091-1.7909-4-4-4H41c-2.2091 0-4 1.7909-4 4v14h-9c-2.2091 0-4 1.7909-4 4v28z"/>
      </g>
      <path fill="url(#g)" d="M59 50v46H41c-2.2091 0-4-1.7909-4-4V50c0-2.2091 1.7909-4 4-4h14c2.2091 0 4 1.7909 4 4z"/>
      <path fill="url(#h)" d="M24 68v28h22V68c0-2.2091-1.7909-4-4-4H28c-2.2091 0-4 1.7909-4 4z"/>
    </g>
  </g>
</svg>
