<svg data-name="Layer 1" xmlns="http://www.w3.org/2000/svg" viewBox="0 0 64 64"><circle cx="32" cy="32" r="31" transform="rotate(-45 32.002 31.994)" fill="#5c2d91"/><path d="M53.92 10.08a31 31 0 010 43.84L10.08 10.08a31 31 0 0143.84 0z" fill="#633ba3"/><path d="M6.06 33.27A1.31 1.31 0 014.75 32a1.29 1.29 0 01.38-1 1.26 1.26 0 01.94-.38 1.29 1.29 0 01.51.1A1.38 1.38 0 017 31a1.32 1.32 0 01.4 1 1.23 1.23 0 01-.11.51 1.43 1.43 0 01-.29.42 1.33 1.33 0 01-.42.28 1.29 1.29 0 01-.52.06zM24.41 33L13.52 17.26l-.4-.62a4 4 0 01-.32-.64h-.07v17H11V13.39h2l10.7 15.55.44.69.36.59h.07q-.05-.45-.08-1t0-1.24V13.39h1.83V33zm6.27 0V13.39h9.56v1.67H32.5v7.19h7.16v1.64H32.5v7.45h8.18V33zm19.04-17.94V33H47.9V15.06h-5.64v-1.67h13.12v1.67zm-23.9 30.59a4.93 4.93 0 01-2.32.49A3.74 3.74 0 0120.63 45a4.26 4.26 0 01-1.08-3 4.46 4.46 0 011.21-3.26 4.12 4.12 0 013.08-1.24 4.93 4.93 0 012 .35v1a4 4 0 00-2-.5 3.06 3.06 0 00-2.35 1 3.64 3.64 0 00-.9 2.58 3.47 3.47 0 00.84 2.45 2.86 2.86 0 002.21.91 4.14 4.14 0 002.19-.56zm4.09.49a2.78 2.78 0 01-2.12-.84 3.11 3.11 0 01-.79-2.23 3.24 3.24 0 01.83-2.36 3 3 0 012.23-.85 2.69 2.69 0 012.09.83A3.28 3.28 0 0132.9 43a3.22 3.22 0 01-.81 2.3 2.84 2.84 0 01-2.18.84zm.09-5.47a1.83 1.83 0 00-1.46.63A2.59 2.59 0 0028 43a2.45 2.45 0 00.54 1.68 1.85 1.85 0 001.46.62 1.76 1.76 0 001.43-.6 2.62 2.62 0 00.5-1.72 2.66 2.66 0 00-.5-1.73 1.75 1.75 0 00-1.43-.58zm7.56.33a1.18 1.18 0 00-.73-.19 1.23 1.23 0 00-1 .58 2.68 2.68 0 00-.41 1.58V46h-1v-6h1v1.24a2.1 2.1 0 01.63-1 1.43 1.43 0 01.94-.35 1.57 1.57 0 01.57.08zm5.87 2.24h-4.24a2.24 2.24 0 00.54 1.55 1.86 1.86 0 001.42.54 3 3 0 001.85-.67v.9a3.48 3.48 0 01-2.09.57 2.54 2.54 0 01-2-.82A3.35 3.35 0 0138.2 43a3.28 3.28 0 01.8-2.26 2.55 2.55 0 012-.88 2.26 2.26 0 011.82.76 3.18 3.18 0 01.64 2.12zm-1-.81a2 2 0 00-.4-1.29 1.37 1.37 0 00-1.1-.46 1.55 1.55 0 00-1.15.49 2.21 2.21 0 00-.59 1.27z" fill="#fff"/></svg>