<svg xmlns="http://www.w3.org/2000/svg" fill="none" viewBox="0 0 64 65">
  <g filter="url(#a)">
    <path fill="#006FC9" d="M31.5 62c-3.0376 0-5.5-2.4624-5.5-5.5s2.4624-5.5 5.5-5.5 5.5 2.4624 5.5 5.5-2.4624 5.5-5.5 5.5Z"/>
  </g>
  <g filter="url(#b)">
    <mask id="c" fill="#fff">
      <path fill-rule="evenodd" d="M32 1.99951c-13.8071 0-25 11.19329-25 25.00039C7 38.6175 14.9244 48.3845 25.6629 51.19l5.8644 5.8644 5.5755-5.5754C48.4627 49.1231 57 39.0583 57 26.9999 57 13.1928 45.8071 1.99951 32 1.99951Z" clip-rule="evenodd"/>
    </mask>
    <path fill="#fff" fill-rule="evenodd" d="M32 1.99951c-13.8071 0-25 11.19329-25 25.00039C7 38.6175 14.9244 48.3845 25.6629 51.19l5.8644 5.8644 5.5755-5.5754C48.4627 49.1231 57 39.0583 57 26.9999 57 13.1928 45.8071 1.99951 32 1.99951Z" clip-rule="evenodd"/>
    <path fill="#A19F9D" d="m25.6629 51.19.2528-.9675.2625.0686.1918.1918-.7071.7071Zm5.8644 5.8644.7071.7071-.7071.7071-.7071-.7071.7071-.7071Zm5.5755-5.5754-.7071-.7071.2113-.2113.2927-.0607.2031.9791ZM6 26.9999C6 12.6405 17.6406.999512 32 .999512V2.99951c-13.2548 0-24 10.74549-24 24.00039H6Zm19.4101 25.1576C14.2424 49.2399 6 39.0835 6 26.9999h2c0 11.1515 7.6065 20.5292 17.9157 23.2226l-.5056 1.935Zm.9599-1.6746 5.8644 5.8644-1.4142 1.4142-5.8644-5.8644 1.4142-1.4142Zm4.4502 5.8644 5.5755-5.5754 1.4142 1.4142-5.5755 5.5754-1.4142-1.4142ZM58 26.9999c0 12.5419-8.8794 23.008-20.6942 25.4583l-.4061-1.9583C47.8049 48.2382 56 38.5748 56 26.9999h2ZM32 .999512c14.3594 0 26 11.640988 26 26.000388h-2C56 13.745 45.2548 2.99951 32 2.99951V.999512Z" mask="url(#c)"/>
  </g>
  <path fill="#605E5C" d="M20.6621 34c-.5859 0-1.1426-.1172-1.6699-.3516-.5274-.2343-.9961-.5566-1.4063-.9668-.4101-.4101-.7324-.8789-.9668-1.4062-.2343-.5274-.3574-1.0899-.3691-1.6875V18.1621c0-.5859.1172-1.1426.3516-1.6699.2343-.5274.5566-.9961.9668-1.4063.4101-.4101.8789-.7324 1.4062-.9668.5274-.2343 1.0899-.3574 1.6875-.3691h22.6758c.5859 0 1.1426.1172 1.6699.3516.5274.2343.9961.5566 1.4063.9668.4101.4101.7324.8789.9668 1.4062.2343.5274.3574 1.0899.3691 1.6875v11.4258c0 .5859-.1172 1.1426-.3516 1.6699-.2343.5274-.5566.9961-.9668 1.4063-.4101.4101-.8789.7324-1.4062.9668-.5274.2343-1.0899.3574-1.6875.3691H20.6621ZM18.5 29.5c0 .3164.0586.6094.1758.8789.1172.2695.2754.5098.4746.7207.1992.2109.4336.3692.7031.4746.2695.1055.5684.1641.8965.1758H32c0-1.8633.3516-3.6094 1.0547-5.2383.7031-1.6289 1.6699-3.0586 2.9004-4.289 1.2304-1.2305 2.6601-2.1973 4.289-2.9004 1.6289-.7032 3.3809-1.0606 5.2559-1.0723 0-.3047-.0586-.5918-.1758-.8613-.1172-.2696-.2754-.5098-.4746-.7207-.1992-.211-.4394-.375-.7207-.4922-.2812-.1172-.5742-.1758-.8789-.1758h-22.5c-.3164 0-.6094.0586-.8789.1758-.2695.1172-.5039.2754-.7031.4746-.1992.1992-.3633.4394-.4922.7207-.1289.2812-.1875.5742-.1758.8789V29.5Zm27-9c-1.5586 0-3.0176.293-4.377.8789-1.3593.5859-2.5546 1.3887-3.5859 2.4082-1.0312 1.0195-1.834 2.209-2.4082 3.5684-.5742 1.3593-.8672 2.8242-.8789 4.3945h9c.3164 0 .6094-.0586.8789-.1758.2695-.1172.5039-.2754.7031-.4746.1992-.1992.3633-.4394.4922-.7207.1289-.2812.1875-.5742.1758-.8789v-9Zm3.375 15.75c.3047 0 .5684.1113.791.334.2227.2226.334.4863.334.791s-.1113.5684-.334.791c-.2226.2227-.4863.334-.791.334h-33.75c-.3047 0-.5684-.1113-.791-.334-.2227-.2226-.334-.4863-.334-.791s.1113-.5684.334-.791c.2226-.2227.4863-.334.791-.334h33.75Z"/>
  <defs>
    <filter id="a" width="14.6" height="14.6" x="24.2" y="50" color-interpolation-filters="sRGB" filterUnits="userSpaceOnUse">
      <feFlood flood-opacity="0" result="BackgroundImageFix"/>
      <feColorMatrix in="SourceAlpha" result="hardAlpha" values="0 0 0 0 0 0 0 0 0 0 0 0 0 0 0 0 0 0 127 0"/>
      <feOffset dy=".8"/>
      <feGaussianBlur stdDeviation=".9"/>
      <feColorMatrix values="0 0 0 0 0 0 0 0 0 0 0 0 0 0 0 0 0 0 0.13 0"/>
      <feBlend in2="BackgroundImageFix" result="effect1_dropShadow"/>
      <feColorMatrix in="SourceAlpha" result="hardAlpha" values="0 0 0 0 0 0 0 0 0 0 0 0 0 0 0 0 0 0 127 0"/>
      <feOffset dy=".15"/>
      <feGaussianBlur stdDeviation=".225"/>
      <feColorMatrix values="0 0 0 0 0 0 0 0 0 0 0 0 0 0 0 0 0 0 0.1 0"/>
      <feBlend in2="effect1_dropShadow" result="effect2_dropShadow"/>
      <feBlend in="SourceGraphic" in2="effect2_dropShadow" result="shape"/>
    </filter>
    <filter id="b" width="53.6" height="58.6549" x="5.2" y=".999512" color-interpolation-filters="sRGB" filterUnits="userSpaceOnUse">
      <feFlood flood-opacity="0" result="BackgroundImageFix"/>
      <feColorMatrix in="SourceAlpha" result="hardAlpha" values="0 0 0 0 0 0 0 0 0 0 0 0 0 0 0 0 0 0 127 0"/>
      <feOffset dy=".8"/>
      <feGaussianBlur stdDeviation=".9"/>
      <feColorMatrix values="0 0 0 0 0 0 0 0 0 0 0 0 0 0 0 0 0 0 0.13 0"/>
      <feBlend in2="BackgroundImageFix" result="effect1_dropShadow"/>
      <feColorMatrix in="SourceAlpha" result="hardAlpha" values="0 0 0 0 0 0 0 0 0 0 0 0 0 0 0 0 0 0 127 0"/>
      <feOffset dy=".15"/>
      <feGaussianBlur stdDeviation=".225"/>
      <feColorMatrix values="0 0 0 0 0 0 0 0 0 0 0 0 0 0 0 0 0 0 0.1 0"/>
      <feBlend in2="effect1_dropShadow" result="effect2_dropShadow"/>
      <feBlend in="SourceGraphic" in2="effect2_dropShadow" result="shape"/>
    </filter>
  </defs>
</svg>
