<svg xmlns="http://www.w3.org/2000/svg" xmlns:xlink="http://www.w3.org/1999/xlink" fill="none" viewBox="0 0 352 168">
  <path fill="url(#a)" d="M251.482 140.03H99.7852V43.2044c0-2.2517 1.8368-4.0887 4.0888-4.0887h143.52c2.252 0 4.088 1.837 4.088 4.0887V140.03Z"/>
  <path fill="#fff" d="M244.845 126.579H106.421c-1.126 0-2.015-.889-2.015-2.015V50.3746c0-1.1259.889-2.0147 2.015-2.0147h138.424c1.126 0 2.015.8888 2.015 2.0147v74.2484c0 1.067-.889 1.956-2.015 1.956Z"/>
  <path fill="#D1D1D1" d="M89 131.853h173.385v4.148c0 2.192-1.777 3.97-3.97 3.97H92.9702c-2.1925 0-3.9702-1.778-3.9702-3.97v-4.148Z"/>
  <g opacity=".25">
    <path fill="url(#b)" d="M116.555 72.0386h120.457v35.8385H116.555z"/>
    <path fill="#fff" d="M232.816 104.89H205.38c-1.303 0-2.37-1.066-2.37-2.37V75.0841c0-1.3036 1.067-2.3702 2.37-2.3702h27.436c1.304 0 2.37 1.0666 2.37 2.3702V102.52c0 1.304-1.066 2.37-2.37 2.37Zm-82.308-2.37V75.0841c0-1.3036-1.066-2.3702-2.37-2.3702h-27.436c-1.303 0-2.37 1.0666-2.37 2.3702V102.52c0 1.304 1.067 2.37 2.37 2.37h27.436c1.304 0 2.37-1.066 2.37-2.37Zm41.243 0V75.0841c0-1.3036-1.066-2.3702-2.37-2.3702h-27.436c-1.304 0-2.37 1.0666-2.37 2.3702V102.52c0 1.304 1.066 2.37 2.37 2.37h27.436c1.304 0 2.37-1.066 2.37-2.37Z" opacity=".25"/>
  </g>
  <path fill="#fff" d="M175.633 46.1084c1.277 0 2.311-1.0347 2.311-2.3111 0-1.2763-1.034-2.311-2.311-2.311-1.276 0-2.311 1.0347-2.311 2.311 0 1.2764 1.035 2.3111 2.311 2.3111Z"/>
  <path fill="#197ED0" d="M238.857 74.0735c12.723 0 23.037-10.3139 23.037-23.0368C261.894 38.3139 251.58 28 238.857 28c-12.723 0-23.037 10.3139-23.037 23.0367 0 12.7229 10.314 23.0368 23.037 23.0368Z"/>
  <path fill="#fff" d="M251.191 42.5676c-.637-.6371-1.614-.6795-2.293-.1274l-.127.1274-13.93 13.8872-4.969-4.9689c-.679-.6795-1.741-.6795-2.421 0-.637.6371-.679 1.6138-.127 2.2933l.127.1274 6.201 6.2004c.637.6371 1.614.6795 2.293.1275l.127-.1275 15.119-15.1187c.68-.6795.68-1.7412 0-2.4207Z"/>
  <rect width="55" height="55" x="148" y="61.0737" fill="#F7F7F7" rx="3"/>
  <path fill="#FFB900" d="M163.554 72.5695c-.755 0-1.321.5661-1.415 1.2266v5.4728c0 .7549.566 1.321 1.226 1.4154h5.473c.755 0 1.416-.6605 1.416-1.4154 0-.7548-.567-1.321-1.227-1.4154h-1.982c5.379-4.3404 13.211-3.963 18.212 1.038 5.378 5.3784 5.378 13.965 0 19.3435-5.379 5.378-13.965 5.378-19.344 0-3.208-3.2082-4.623-7.8318-3.774-12.2666.188-.7549-.378-1.5098-1.133-1.6985-.754-.1887-1.509.3775-1.698 1.1323-1.038 5.3785.566 10.8512 4.529 14.8148 6.417 6.416 16.89 6.416 23.307 0 6.416-6.4169 6.416-16.8907 0-23.307-6.134-6.1333-15.852-6.4164-22.363-.9436v-1.9816c.189-.7548-.472-1.4153-1.227-1.4153Z"/>
  <defs>
    <linearGradient id="a" x1="178.275" x2="171.584" y1="178.694" y2="-43.3473" gradientUnits="userSpaceOnUse">
      <stop stop-color="#929292"/>
      <stop offset=".0572917" stop-color="#BFBDBC"/>
      <stop offset=".8415" stop-color="#D8D6D4"/>
      <stop offset="1" stop-color="#E1DFDD"/>
    </linearGradient>
    <pattern id="b" width="1" height="1" patternContentUnits="objectBoundingBox">
      <use xlink:href="#c"/>
    </pattern>
  </defs>
</svg>
