<svg width="48" height="48" viewBox="0 0 48 48" fill="none" xmlns="http://www.w3.org/2000/svg">
<path d="M8.5 8C6.01472 8 4 10.0147 4 12.5V17.5C4 19.9853 6.01472 22 8.5 22H13.5C15.9853 22 18 19.9853 18 17.5V12.5C18 10.0147 15.9853 8 13.5 8H8.5ZM22.5 10C21.6716 10 21 10.6716 21 11.5C21 12.3284 21.6716 13 22.5 13H42.5C43.3284 13 44 12.3284 44 11.5C44 10.6716 43.3284 10 42.5 10H22.5ZM22.5 16C21.6716 16 21 16.6716 21 17.5C21 18.3284 21.6716 19 22.5 19H36.5C37.3284 19 38 18.3284 38 17.5C38 16.6716 37.3284 16 36.5 16H22.5ZM8.5 26C6.01472 26 4 28.0147 4 30.5V35.5C4 37.9853 6.01472 40 8.5 40H13.5C15.9853 40 18 37.9853 18 35.5V30.5C18 28.0147 15.9853 26 13.5 26H8.5ZM22.5 28C21.6716 28 21 28.6716 21 29.5C21 30.3284 21.6716 31 22.5 31H42.5C43.3284 31 44 30.3284 44 29.5C44 28.6716 43.3284 28 42.5 28H22.5ZM22.5 34C21.6716 34 21 34.6716 21 35.5C21 36.3284 21.6716 37 22.5 37H36.5C37.3284 37 38 36.3284 38 35.5C38 34.6716 37.3284 34 36.5 34H22.5Z" fill="#0078D4"/>
</svg>
