<svg width="48" height="48" viewBox="0 0 48 48" fill="none" xmlns="http://www.w3.org/2000/svg">
<path d="M10.5 6.99121H37.4953C38.3238 6.99121 38.9953 6.31964 38.9953 5.49121C38.9953 4.73182 38.431 4.10423 37.6989 4.00491L37.4953 3.99121H10.5C9.67157 3.99121 9 4.66278 9 5.49121C9 6.2506 9.56431 6.87819 10.2965 6.97752L10.5 6.99121ZM23.7668 43.9866L24 44C25.0257 44 25.871 43.2279 25.9865 42.2333L26 42V16.82L32.5881 23.4056C33.3092 24.1265 34.4436 24.1818 35.2281 23.5717L35.4165 23.4053C36.1374 22.6842 36.1928 21.5498 35.5826 20.7652L35.4162 20.5769L25.421 10.5836C24.7003 9.86313 23.5666 9.8074 22.7821 10.4166L22.5936 10.5828L12.5868 20.576C11.8052 21.3565 11.8043 22.6229 12.5848 23.4045C13.3053 24.1259 14.4397 24.1822 15.2247 23.5726L15.4132 23.4064L22 16.83V42C22 43.0257 22.7721 43.871 23.7668 43.9866Z" fill="#0078D4"/>
</svg>
