<svg width="48" height="48" viewBox="0 0 48 48" fill="none" xmlns="http://www.w3.org/2000/svg">
<path d="M32.1035 10.057C31.4337 10.9353 31.6027 12.1903 32.481 12.8601C35.9349 15.4943 38 19.5741 38 24C38 30.9946 32.8705 36.7912 26.168 37.8331L27.5858 36.4142C28.3668 35.6332 28.3668 34.3668 27.5858 33.5858C26.8047 32.8047 25.5384 32.8047 24.7574 33.5858L19.7574 38.5858C18.9763 39.3668 18.9763 40.6332 19.7574 41.4142L24.7574 46.4142C25.5384 47.1953 26.8047 47.1953 27.5858 46.4142C28.3668 45.6332 28.3668 44.3668 27.5858 43.5858L25.8994 41.901C34.9477 40.952 42 33.2996 42 24C42 18.3129 39.3424 13.0624 34.9067 9.67956C34.0284 9.00972 32.7734 9.17872 32.1035 10.057ZM28.2426 6.58579L23.2426 1.58579C22.4616 0.804738 21.1953 0.804738 20.4142 1.58579C19.6932 2.30675 19.6378 3.44122 20.2478 4.2258L20.4142 4.41421L22.1006 6.09903C13.0523 7.04798 6 14.7004 6 24C6 29.4397 8.43029 34.4863 12.5432 37.8837C13.3948 38.5872 14.6554 38.4671 15.3589 37.6155C16.0623 36.7639 15.9422 35.5032 15.0906 34.7998C11.8881 32.1544 10 28.2337 10 24C10 17.0054 15.1295 11.2088 21.832 10.1669L20.4142 11.5858C19.6332 12.3668 19.6332 13.6332 20.4142 14.4142C21.1352 15.1352 22.2696 15.1906 23.0542 14.5806L23.2426 14.4142L28.2426 9.41421C28.9636 8.69325 29.0191 7.55878 28.409 6.7742L28.2426 6.58579Z" fill="#0078D4"/>
</svg>
