<svg width="48" height="48" viewBox="0 0 48 48" fill="none" xmlns="http://www.w3.org/2000/svg">
<path d="M32 4C38.6274 4 44 9.37258 44 16C44 19.0746 42.8357 21.9687 40.7921 24.1671L40.4123 24.5568L22.9581 42.0106L22.8519 42.1096L22.7404 42.1994C21.402 43.3517 19.692 44 17.8859 44C13.7757 44 10.4437 40.668 10.4437 36.5578C10.4437 34.7551 11.0897 33.0497 12.2348 31.7149L12.5314 31.3891L12.5616 31.3652L27.1436 16.7576C27.924 15.9759 29.1903 15.9747 29.972 16.7551C30.7538 17.5355 30.7549 18.8018 29.9745 19.5835L15.3925 34.1911L15.3706 34.2079C14.778 34.8416 14.4437 35.6709 14.4437 36.5578C14.4437 38.4589 15.9848 40 17.8859 40C18.6438 40 19.3597 39.7561 19.9484 39.3142L20.1926 39.1128L20.1942 39.116L37.599 21.7141L37.9161 21.3853C39.2463 19.926 40 18.025 40 16C40 11.5817 36.4182 8 32 8C29.8767 8 27.8908 8.8292 26.4097 10.2772L26.1002 10.5968L26.0633 10.6228L7.4127 29.2805C6.63182 30.0618 5.3655 30.062 4.58427 29.2812C3.80305 28.5003 3.80277 27.234 4.58364 26.4527L23.2016 7.82649L23.2948 7.74043C25.5426 5.37154 28.6634 4 32 4Z" fill="#0078D4"/>
</svg>
