<svg width="48" height="48" viewBox="0 0 48 48" fill="none" xmlns="http://www.w3.org/2000/svg">
<path d="M7.5 9.75C7.5 6.85051 9.8505 4.5 12.75 4.5H35.25C38.1495 4.5 40.5 6.85051 40.5 9.75V36C40.5 37.6569 39.1569 39 37.5 39H10.628C10.9369 39.8739 11.7703 40.5 12.75 40.5H39C39.8284 40.5 40.5 41.1716 40.5 42C40.5 42.8284 39.8284 43.5 39 43.5H12.75C9.85051 43.5 7.5 41.1495 7.5 38.25V9.75ZM31.5 24.75C31.5 23.5074 30.4926 22.5 29.25 22.5H18.75C17.5074 22.5 16.5 23.5074 16.5 24.75V25.5C16.5 28.4572 19.2893 31.5 24 31.5C28.7107 31.5 31.5 28.4572 31.5 25.5V24.75ZM28.125 16.875C28.125 14.5968 26.2782 12.75 24 12.75C21.7218 12.75 19.875 14.5968 19.875 16.875C19.875 19.1532 21.7218 21 24 21C26.2782 21 28.125 19.1532 28.125 16.875Z" fill="#0078D4"/>
</svg>
