<svg width="48" height="48" viewBox="0 0 48 48" fill="none" xmlns="http://www.w3.org/2000/svg">
<path d="M35.5061 27.9998C37.9914 27.9998 40.0061 30.0146 40.0061 32.4998V34.31C40.0061 36.4973 39.0512 38.5757 37.3916 40.0005C34.2607 42.6885 29.78 44.0021 24 44.0021C18.221 44.0021 13.7434 42.6889 10.6176 40.0016C8.96039 38.5768 8.00708 36.5 8.00708 34.3145V32.4998C8.00708 30.0146 10.0218 27.9998 12.5071 27.9998H35.5061ZM23.7971 4.01467L24.0007 4.00098C24.76 4.00098 25.3876 4.56528 25.487 5.29744L25.5007 5.50098L25.4991 6.99898L32.5 6.99999C34.9853 6.99999 37 9.01471 37 11.5V20.5092C37 22.9945 34.9853 25.0092 32.5 25.0092H15.5C13.0147 25.0092 11 22.9945 11 20.5092V11.5C11 9.01471 13.0147 6.99999 15.5 6.99999L22.4991 6.99898L22.5007 5.50098C22.5007 4.74159 23.065 4.11399 23.7971 4.01467L24.0007 4.00098L23.7971 4.01467ZM19.4986 13C18.1186 13 17 14.1186 17 15.4986C17 16.8785 18.1186 17.9971 19.4986 17.9971C20.8785 17.9971 21.9972 16.8785 21.9972 15.4986C21.9972 14.1186 20.8785 13 19.4986 13ZM28.484 13C27.1041 13 25.9855 14.1186 25.9855 15.4986C25.9855 16.8785 27.1041 17.9971 28.484 17.9971C29.864 17.9971 30.9826 16.8785 30.9826 15.4986C30.9826 14.1186 29.864 13 28.484 13Z" fill="#0078D4"/>
</svg>
