<svg width="48" height="48" viewBox="0 0 48 48" fill="none" xmlns="http://www.w3.org/2000/svg">
<path d="M39 39.75C39 42.863 36.8571 46 31.5 46C26.1429 46 24 42.8748 24 39.75C24 37.6789 25.4391 36 27.2143 36H35.7857C37.5609 36 39 37.6789 39 39.75Z" fill="#8DC8E8"/>
<path d="M36 29.5C36 31.9853 33.9853 34 31.5 34C29.0147 34 27 31.9853 27 29.5C27 27.0147 29.0147 25 31.5 25C33.9853 25 36 27.0147 36 29.5Z" fill="#8DC8E8"/>
<path d="M41.5 35C43.433 35 45 33.433 45 31.5C45 29.567 43.433 28 41.5 28C39.567 28 38 29.567 38 31.5C38 33.433 39.567 35 41.5 35Z" fill="#8DC8E8"/>
<path d="M40.9968 39.75C40.9968 41.1895 40.6398 42.6793 39.8318 43.9987C39.8902 43.9996 39.9491 44 40.0084 44C44.2941 44 46.0084 41.8041 46.0084 39.625C46.0084 38.1753 44.8571 37 43.437 37H40.3559C40.7716 37.8472 40.9968 38.7986 40.9968 39.75Z" fill="#8DC8E8"/>
<path d="M8 8.5C8 6.01472 10.0147 4 12.5 4H28.5C30.9853 4 33 6.01472 33 8.5V18.9986H35.5056C37.9909 18.9986 40.0056 21.0133 40.0056 23.4986V26.2054C39.1266 26.4531 38.3368 26.9137 37.6955 27.5281C37.5278 27.0008 37.2947 26.5026 37.0056 26.0432V23.4986C37.0056 22.6702 36.334 21.9986 35.5056 21.9986H31.5C30.6716 21.9986 30 21.327 30 20.4986V8.5C30 7.67157 29.3284 7 28.5 7H12.5C11.6716 7 11 7.67157 11 8.5V40H22.0036C22.0324 41.0073 22.2366 42.032 22.6481 43H9.5C8.67157 43 8 42.3284 8 41.5V8.5Z" fill="#0078D4"/>
<path d="M22 20C22 18.8954 22.8954 18 24 18C25.1046 18 26 18.8954 26 20C26 21.1046 25.1046 22 24 22C22.8954 22 22 21.1046 22 20Z" fill="#0078D4"/>
<path d="M24 11C22.8954 11 22 11.8954 22 13C22 14.1046 22.8954 15 24 15C25.1046 15 26 14.1046 26 13C26 11.8954 25.1046 11 24 11Z" fill="#0078D4"/>
<path d="M15 13C15 11.8954 15.8954 11 17 11C18.1046 11 19 11.8954 19 13C19 14.1046 18.1046 15 17 15C15.8954 15 15 14.1046 15 13Z" fill="#0078D4"/>
<path d="M15 20C15 18.8954 15.8954 18 17 18C18.1046 18 19 18.8954 19 20C19 21.1046 18.1046 22 17 22C15.8954 22 15 21.1046 15 20Z" fill="#0078D4"/>
<path d="M17 25C15.8954 25 15 25.8954 15 27C15 28.1046 15.8954 29 17 29C18.1046 29 19 28.1046 19 27C19 25.8954 18.1046 25 17 25Z" fill="#0078D4"/>
</svg>
