<svg width="48" height="48" viewBox="0 0 48 48" fill="none" xmlns="http://www.w3.org/2000/svg">
<path fill-rule="evenodd" clip-rule="evenodd" d="M28 8.5V10H37.5C39.9853 10 42 12.0147 42 14.5V41.5C42 42.3284 41.3284 43 40.5 43H34.5V37.5C34.5 36.9477 34.0523 36.5 33.5 36.5H28.5C27.9477 36.5 27.5 36.9477 27.5 37.5V43H7.5C6.67157 43 6 42.3284 6 41.5V8.5C6 6.01472 8.01472 4 10.5 4H23.5C25.9853 4 28 6.01472 28 8.5ZM9 8.5C9 7.67157 9.67157 7 10.5 7H23.5C24.3284 7 25 7.67157 25 8.5V10H24.5C22.0147 10 20 12.0147 20 14.5V40H9V8.5ZM34 28C35.1046 28 36 28.8954 36 30C36 31.1046 35.1046 32 34 32C32.8954 32 32 31.1046 32 30C32 28.8954 32.8954 28 34 28ZM30 30C30 31.1046 29.1046 32 28 32C26.8954 32 26 31.1046 26 30C26 28.8954 26.8954 28 28 28C29.1046 28 30 28.8954 30 30ZM34 22C35.1046 22 36 22.8954 36 24C36 25.1046 35.1046 26 34 26C32.8954 26 32 25.1046 32 24C32 22.8954 32.8954 22 34 22ZM30 24C30 25.1046 29.1046 26 28 26C26.8954 26 26 25.1046 26 24C26 22.8954 26.8954 22 28 22C29.1046 22 30 22.8954 30 24ZM34 16C35.1046 16 36 16.8954 36 18C36 19.1046 35.1046 20 34 20C32.8954 20 32 19.1046 32 18C32 16.8954 32.8954 16 34 16ZM30 18C30 19.1046 29.1046 20 28 20C26.8954 20 26 19.1046 26 18C26 16.8954 26.8954 16 28 16C29.1046 16 30 16.8954 30 18Z" fill="#0078D4"/>
<path d="M14 14C15.1046 14 16 13.1046 16 12C16 10.8954 15.1046 10 14 10C12.8954 10 12 10.8954 12 12C12 13.1046 12.8954 14 14 14Z" fill="#8DC8E8"/>
<path d="M16 18C16 19.1046 15.1046 20 14 20C12.8954 20 12 19.1046 12 18C12 16.8954 12.8954 16 14 16C15.1046 16 16 16.8954 16 18Z" fill="#8DC8E8"/>
<path d="M14 26C15.1046 26 16 25.1046 16 24C16 22.8954 15.1046 22 14 22C12.8954 22 12 22.8954 12 24C12 25.1046 12.8954 26 14 26Z" fill="#8DC8E8"/>
<path d="M14 32C15.1046 32 16 31.1046 16 30C16 28.8954 15.1046 28 14 28C12.8954 28 12 28.8954 12 30C12 31.1046 12.8954 32 14 32Z" fill="#8DC8E8"/>
<path d="M16 36C16 37.1046 15.1046 38 14 38C12.8954 38 12 37.1046 12 36C12 34.8954 12.8954 34 14 34C15.1046 34 16 34.8954 16 36Z" fill="#8DC8E8"/>
</svg>
