<svg width="48" height="48" viewBox="0 0 48 48" fill="none" xmlns="http://www.w3.org/2000/svg">
<path fill-rule="evenodd" clip-rule="evenodd" d="M28.25 21.6936C23.6508 21.6936 19.795 24.8691 18.7531 29.1479C15.2059 29.7315 12.5 32.8119 12.5 36.5242C12.5 40.653 15.847 44.0001 19.9758 44.0001H36.5242C40.653 44.0001 44 40.653 44 36.5242C44 32.8119 41.2941 29.7315 37.7469 29.148C36.705 24.8691 32.8492 21.6936 28.25 21.6936ZM28.25 24.6936C24.7641 24.6936 21.8914 27.3279 21.5172 30.7134L21.369 32.0542L19.9758 32.0484H19.973C17.5024 32.0499 15.5 34.0533 15.5 36.5242C15.5 38.9962 17.5039 41.0001 19.9758 41.0001H36.5242C38.9961 41.0001 41 38.9962 41 36.5242C41 34.0533 38.9977 32.05 36.5271 32.0484H36.5242L35.131 32.0544L34.9828 30.7134C34.6086 27.3279 31.7359 24.6936 28.25 24.6936Z" fill="#8DC8E8"/>
<path fill-rule="evenodd" clip-rule="evenodd" d="M7.5 36H10.5143C10.7338 31.9724 13.4672 28.6167 17.1727 27.4704C18.7828 23.0101 23.0068 19.8001 28 19.6962V17.5C28 15.567 26.433 14 24.5 14H22.5C22.2239 14 22 13.7761 22 13.5V7.5C22 5.567 20.433 4 18.5 4H7.5C5.567 4 4 5.567 4 7.5V32.5C4 34.433 5.567 36 7.5 36ZM10.5 19C11.3284 19 12 18.3284 12 17.5C12 16.6716 11.3284 16 10.5 16C9.67157 16 9 16.6716 9 17.5C9 18.3284 9.67157 19 10.5 19ZM15.5 13C16.3284 13 17 12.3284 17 11.5C17 10.6716 16.3284 10 15.5 10C14.6716 10 14 10.6716 14 11.5C14 12.3284 14.6716 13 15.5 13ZM14 17.5C14 18.3284 14.6716 19 15.5 19C16.3284 19 17 18.3284 17 17.5C17 16.6716 16.3284 16 15.5 16C14.6716 16 14 16.6716 14 17.5ZM15.5 25C16.3284 25 17 24.3284 17 23.5C17 22.6716 16.3284 22 15.5 22C14.6716 22 14 22.6716 14 23.5C14 24.3284 14.6716 25 15.5 25ZM10.5 25C11.3284 25 12 24.3284 12 23.5C12 22.6716 11.3284 22 10.5 22C9.67157 22 9 22.6716 9 23.5C9 24.3284 9.67157 25 10.5 25ZM9 11.5C9 12.3284 9.67157 13 10.5 13C11.3284 13 12 12.3284 12 11.5C12 10.6716 11.3284 10 10.5 10C9.67157 10 9 10.6716 9 11.5Z" fill="#0078D4"/>
</svg>
