<svg width="48" height="48" viewBox="0 0 48 48" fill="none" xmlns="http://www.w3.org/2000/svg">
<path d="M15 23V19H33V23H15Z" fill="#8DC8E8"/>
<path d="M20 33V42H15V33H20Z" fill="#8DC8E8"/>
<path fill-rule="evenodd" clip-rule="evenodd" d="M8 6C5.79086 6 4 7.79086 4 10C4 11.4806 4.8044 12.7733 6 13.4649V40.5C6 41.3284 6.67157 42 7.5 42H12V31.5C12 30.6716 12.6716 30 13.5 30H21.5C22.3284 30 23 30.6716 23 31.5V42H40.5C41.3284 42 42 41.3284 42 40.5V13.4649C43.1956 12.7733 44 11.4806 44 10C44 7.79086 42.2091 6 40 6H8ZM8 9C7.44772 9 7 9.44772 7 10C7 10.5523 7.44772 11 8 11H40C40.5523 11 41 10.5523 41 10C41 9.44772 40.5523 9 40 9H8ZM34.5 16H13.5C12.6716 16 12 16.6716 12 17.5V24.5C12 25.3284 12.6716 26 13.5 26H34.5C35.3284 26 36 25.3284 36 24.5V17.5C36 16.6716 35.3284 16 34.5 16ZM34.5 30H29.5C28.6716 30 28 30.6716 28 31.5V36.5C28 37.3284 28.6716 38 29.5 38H34.5C35.3284 38 36 37.3284 36 36.5V31.5C36 30.6716 35.3284 30 34.5 30Z" fill="#0078D4"/>
</svg>
