<svg width="48" height="48" viewBox="0 0 48 48" fill="none" xmlns="http://www.w3.org/2000/svg">
<path d="M8 10.5C8 6.91015 10.9101 4 14.5 4H33.5C37.0899 4 40 6.91015 40 10.5V37.5C40 41.0899 37.0898 44 33.5 44H14.5C10.9101 44 8 41.0899 8 37.5V10.5ZM18 10C15.7909 10 14 11.7909 14 14V16C14 18.2091 15.7909 20 18 20H30C32.2091 20 34 18.2091 34 16V14C34 11.7909 32.2091 10 30 10H18ZM19 26.5C19 25.1193 17.8807 24 16.5 24C15.1193 24 14 25.1193 14 26.5C14 27.8807 15.1193 29 16.5 29C17.8807 29 19 27.8807 19 26.5ZM16.5 37C17.8807 37 19 35.8807 19 34.5C19 33.1193 17.8807 32 16.5 32C15.1193 32 14 33.1193 14 34.5C14 35.8807 15.1193 37 16.5 37ZM34 26.5C34 25.1193 32.8807 24 31.5 24C30.1193 24 29 25.1193 29 26.5C29 27.8807 30.1193 29 31.5 29C32.8807 29 34 27.8807 34 26.5ZM31.5 37C32.8807 37 34 35.8807 34 34.5C34 33.1193 32.8807 32 31.5 32C30.1193 32 29 33.1193 29 34.5C29 35.8807 30.1193 37 31.5 37ZM26.5 26.5C26.5 25.1193 25.3807 24 24 24C22.6193 24 21.5 25.1193 21.5 26.5C21.5 27.8807 22.6193 29 24 29C25.3807 29 26.5 27.8807 26.5 26.5ZM24 37C25.3807 37 26.5 35.8807 26.5 34.5C26.5 33.1193 25.3807 32 24 32C22.6193 32 21.5 33.1193 21.5 34.5C21.5 35.8807 22.6193 37 24 37Z" fill="#0078D4"/>
</svg>
