<svg width="48" height="48" viewBox="0 0 48 48" fill="none" xmlns="http://www.w3.org/2000/svg">
<path d="M4.5 11.25C4.5 7.52208 7.52208 4.5 11.25 4.5H36.75C40.4779 4.5 43.5 7.52208 43.5 11.25V36.75C43.5 40.4779 40.4779 43.5 36.75 43.5H11.25C7.52208 43.5 4.5 40.4779 4.5 36.75V11.25ZM18 18.75C18 17.5074 16.9926 16.5 15.75 16.5C14.5074 16.5 13.5 17.5074 13.5 18.75C13.5 19.9926 14.5074 21 15.75 21C16.9926 21 18 19.9926 18 18.75ZM15.75 30C16.9926 30 18 28.9926 18 27.75C18 26.5074 16.9926 25.5 15.75 25.5C14.5074 25.5 13.5 26.5074 13.5 27.75C13.5 28.9926 14.5074 30 15.75 30ZM24 30C25.2426 30 26.25 28.9926 26.25 27.75C26.25 26.5074 25.2426 25.5 24 25.5C22.7574 25.5 21.75 26.5074 21.75 27.75C21.75 28.9926 22.7574 30 24 30ZM24 21C25.2426 21 26.25 19.9926 26.25 18.75C26.25 17.5074 25.2426 16.5 24 16.5C22.7574 16.5 21.75 17.5074 21.75 18.75C21.75 19.9926 22.7574 21 24 21ZM32.25 21C33.4926 21 34.5 19.9926 34.5 18.75C34.5 17.5074 33.4926 16.5 32.25 16.5C31.0074 16.5 30 17.5074 30 18.75C30 19.9926 31.0074 21 32.25 21Z" fill="#0078D4"/>
</svg>
