<svg width="48" height="48" viewBox="0 0 48 48" fill="none" xmlns="http://www.w3.org/2000/svg">
<path d="M5 8.5C5 7.67157 5.67157 7 6.5 7H7.61653C9.51746 7 10.6556 8.27799 11.3065 9.46599C11.7403 10.2579 12.0542 11.1764 12.2996 12.0079C12.3661 12.0027 12.4335 12 12.5016 12H37.4962C39.1566 12 40.3557 13.5888 39.9003 15.1856L36.2449 28.0039C35.5712 30.3663 33.4124 31.9955 30.9558 31.9955H19.0595C16.5826 31.9955 14.4112 30.3398 13.7557 27.9512L12.2347 22.4091L9.71748 13.9116L9.7134 13.8967C9.40199 12.761 9.10973 11.7001 8.67546 10.9074C8.25373 10.1376 7.91753 10 7.61653 10H6.5C5.67157 10 5 9.32843 5 8.5ZM18 42C20.2091 42 22 40.2091 22 38C22 35.7909 20.2091 34 18 34C15.7909 34 14 35.7909 14 38C14 40.2091 15.7909 42 18 42ZM32 42C34.2091 42 36 40.2091 36 38C36 35.7909 34.2091 34 32 34C29.7909 34 28 35.7909 28 38C28 40.2091 29.7909 42 32 42Z" fill="#0078D4"/>
</svg>
