<svg width="48" height="48" viewBox="0 0 48 48" fill="none" xmlns="http://www.w3.org/2000/svg">
<path d="M3.00008 20.25C3.00008 11.5515 10.0516 4.5 18.7501 4.5C27.4486 4.5 34.5001 11.5515 34.5001 20.25C34.5001 28.9485 27.4486 36 18.7501 36C16.2211 36 13.8278 35.4029 11.707 34.341L5.83473 35.9144C4.16171 36.3627 2.63077 34.8318 3.07906 33.1588L4.65367 27.2822C4.41202 26.7987 4.19452 26.301 4.00274 25.7907C3.35448 24.0661 3.00008 22.1983 3.00008 20.25Z" fill="#0078D4"/>
<path d="M18.75 38.2502C19.7485 38.2502 20.7281 38.1689 21.6824 38.0126C23.799 39.576 26.4165 40.5002 29.2499 40.5002C31.4795 40.5002 33.5712 39.9293 35.3913 38.9267C35.7306 38.7398 36.1291 38.6914 36.5032 38.7917L41.687 40.1807L40.297 34.9933C40.1969 34.6196 40.245 34.2216 40.4314 33.8825C41.4309 32.0645 41.9999 29.9761 41.9999 27.7502C41.9999 23.4034 39.8247 19.5646 36.5033 17.2631C36.2674 15.8508 35.8671 14.4942 35.3227 13.2136C41.0064 15.5908 44.9999 21.2041 44.9999 27.7502C44.9999 29.6985 44.6455 31.5663 43.9973 33.291C43.8055 33.8012 43.588 34.2989 43.3463 34.7825L44.921 40.659C45.3693 42.332 43.8383 43.863 42.1653 43.4147L36.293 41.8412C34.1723 42.9031 31.7789 43.5002 29.2499 43.5002C24.5637 43.5002 20.3556 41.4536 17.4705 38.2055C17.8931 38.2352 18.3198 38.2502 18.75 38.2502Z" fill="#8DC8E8"/>
</svg>
