<svg width="48" height="48" viewBox="0 0 48 48" fill="none" xmlns="http://www.w3.org/2000/svg">
<path fill-rule="evenodd" clip-rule="evenodd" d="M37.9734 10L9.1 10C6.28335 10 4 12.2834 4 15.1V28.9C4 31.7167 6.28335 34 9.1 34L38.9 34C41.7167 34 44 31.7167 44 28.9V15.1C44 14.7309 43.9608 14.3709 43.8863 14.024L31.4277 26.0211C30.0354 27.3619 27.8197 27.3201 26.4789 25.9277C25.1381 24.5354 25.1799 22.3197 26.5723 20.9789L37.9734 10ZM10.5 17C9.67157 17 9 17.6716 9 18.5C9 19.3284 9.67157 20 10.5 20H14.5C15.3284 20 16 19.3284 16 18.5C16 17.6716 15.3284 17 14.5 17H10.5ZM10.5 24C9.67157 24 9 24.6716 9 25.5C9 26.3284 9.67157 27 10.5 27H20.5C21.3284 27 22 26.3284 22 25.5C22 24.6716 21.3284 24 20.5 24H10.5Z" fill="#0078D4"/>
<path d="M43.5405 11.5805C44.1372 11.0059 44.1551 10.0563 43.5805 9.45954C43.0058 8.86281 42.0563 8.84489 41.4595 9.41952L27.9595 22.4195C27.3628 22.9942 27.3449 23.9437 27.9195 24.5405C28.4942 25.1372 29.4437 25.1551 30.0405 24.5805L43.5405 11.5805Z" fill="#8DC8E8"/>
</svg>
