<svg width="48" height="48" viewBox="0 0 48 48" fill="none" xmlns="http://www.w3.org/2000/svg">
<path d="M23.9999 4C35.0456 4 43.9999 12.9543 43.9999 24C43.9999 35.0457 35.0456 44 23.9999 44C12.9542 44 3.99994 35.0457 3.99994 24C3.99994 12.9543 12.9542 4 23.9999 4ZM32.6338 17.6161C32.1782 17.1605 31.4584 17.1301 30.9676 17.525L30.8661 17.6161L20.7499 27.7322L17.1338 24.1161C16.6457 23.628 15.8542 23.628 15.3661 24.1161C14.9104 24.5717 14.8801 25.2915 15.2749 25.7824L15.3661 25.8839L19.8661 30.3839C20.3217 30.8395 21.0415 30.8699 21.5323 30.475L21.6338 30.3839L32.6338 19.3839C33.122 18.8957 33.122 18.1043 32.6338 17.6161Z" fill="#0078D4"/>
</svg>
