<svg width="48" height="48" viewBox="0 0 48 48" fill="none" xmlns="http://www.w3.org/2000/svg">
<path d="M27.5 4H20.5C18.1841 4 16.2768 5.74944 16.0276 7.99888L12.5 8C10.0147 8 8 10.0147 8 12.5V39.5C8 41.9853 10.0147 44 12.5 44H35.5C37.9853 44 40 41.9853 40 39.5V12.5C40 10.0147 37.9853 8 35.5 8L31.9724 7.99888C31.7232 5.74944 29.8159 4 27.5 4ZM20.5 7H27.5C28.3284 7 29 7.67157 29 8.5C29 9.32843 28.3284 10 27.5 10H20.5C19.6716 10 19 9.32843 19 8.5C19 7.67157 19.6716 7 20.5 7ZM25 20.5C25 19.6716 25.6716 19 26.5 19H33.5C34.3284 19 35 19.6716 35 20.5C35 21.3284 34.3284 22 33.5 22H26.5C25.6716 22 25 21.3284 25 20.5ZM26.5001 30H33.4999C34.3283 30 34.9999 30.6716 34.9999 31.5C34.9999 32.3284 34.3283 33 33.4999 33H26.5001C25.6717 33 25.0001 32.3284 25.0001 31.5C25.0001 30.6716 25.6717 30 26.5001 30ZM21.5607 19.5607L17.5607 23.5607C16.9749 24.1464 16.0251 24.1464 15.4393 23.5607L13.4393 21.5607C12.8536 20.9749 12.8536 20.0251 13.4393 19.4393C14.0251 18.8536 14.9749 18.8536 15.5607 19.4393L16.5 20.3787L19.4393 17.4393C20.0251 16.8536 20.9749 16.8536 21.5607 17.4393C22.1464 18.0251 22.1464 18.9749 21.5607 19.5607ZM21.5607 28.4393C22.1464 29.0251 22.1464 29.9749 21.5607 30.5607L17.5607 34.5607C16.9749 35.1464 16.0251 35.1464 15.4393 34.5607L13.4393 32.5607C12.8536 31.9749 12.8536 31.0251 13.4393 30.4393C14.0251 29.8536 14.9749 29.8536 15.5607 30.4393L16.5 31.3787L19.4393 28.4393C20.0251 27.8536 20.9749 27.8536 21.5607 28.4393Z" fill="#0078D4"/>
</svg>
