<svg width="48" height="48" viewBox="0 0 48 48" fill="none" xmlns="http://www.w3.org/2000/svg">
<path d="M12 4.5C14.284 4.5 16.3295 5.52095 17.7051 7.13137C19.6645 6.39988 21.7856 6 24 6C26.2144 6 28.3355 6.39988 30.2949 7.13138C31.6705 5.52095 33.716 4.5 36 4.5C40.1421 4.5 43.5 7.85786 43.5 12C43.5 14.284 42.4791 16.3295 40.8686 17.7051C41.6001 19.6645 42 21.7856 42 24C42 28.4306 40.3993 32.4872 37.7446 35.6233L41.5607 39.4393C42.1464 40.0251 42.1464 40.9749 41.5607 41.5607C40.9749 42.1464 40.0251 42.1464 39.4393 41.5607L35.6233 37.7446C32.4872 40.3993 28.4306 42 24 42C19.5694 42 15.5128 40.3993 12.3767 37.7446L8.56066 41.5607C7.97487 42.1464 7.02513 42.1464 6.43934 41.5607C5.85355 40.9749 5.85355 40.0251 6.43934 39.4393L10.2554 35.6233C7.60073 32.4872 6 28.4306 6 24C6 21.7856 6.39988 19.6645 7.13137 17.7051C5.52095 16.3295 4.5 14.284 4.5 12C4.5 7.85786 7.85786 4.5 12 4.5ZM8.50488 14.8347C10.0487 12.2303 12.2303 10.0487 14.8347 8.50488C14.0609 7.87655 13.0744 7.5 12 7.5C9.51472 7.5 7.5 9.51472 7.5 12C7.5 13.0744 7.87655 14.0609 8.50488 14.8347ZM33.1653 8.50489C35.7696 10.0487 37.9513 12.2304 39.4951 14.8347C40.1235 14.0609 40.5 13.0744 40.5 12C40.5 9.51472 38.4853 7.5 36 7.5C34.9256 7.5 33.9391 7.87655 33.1653 8.50489ZM24 15C24 14.1716 23.3284 13.5 22.5 13.5C21.6716 13.5 21 14.1716 21 15V25.5C21 26.3284 21.6716 27 22.5 27H30C30.8284 27 31.5 26.3284 31.5 25.5C31.5 24.6716 30.8284 24 30 24H24V15Z" fill="#0078D4"/>
</svg>
