<svg width="48" height="48" viewBox="0 0 48 48" fill="none" xmlns="http://www.w3.org/2000/svg">
<path d="M12.1596 16.0387C13.0962 10.3438 18.0404 6 24 6C29.9596 6 34.9038 10.3438 35.8404 16.0387C40.4169 16.4625 44 20.3128 44 25C44 25.3329 43.9819 25.6615 43.9467 25.985C41.635 22.3851 37.596 20 33 20C25.8203 20 20 25.8203 20 33C20 33.3365 20.0128 33.67 20.0379 34H13C8.02944 34 4 29.9706 4 25C4 20.3128 7.58309 16.4625 12.1596 16.0387Z" fill="#0078D4"/>
<path fill-rule="evenodd" clip-rule="evenodd" d="M44 33C44 26.9249 39.0751 22 33 22C26.9249 22 22 26.9249 22 33C22 39.0751 26.9249 44 33 44C39.0751 44 44 39.0751 44 33ZM34.0022 39.007L34.0013 34H38.9932C39.5449 34 39.9922 33.5523 39.9922 33C39.9922 32.4477 39.5449 32 38.9932 32H34.0009L34 26.9985C34 26.4463 33.5523 25.9985 33 25.9985C32.4477 25.9985 32 26.4463 32 26.9985L32.0009 32H26.9912C26.4395 32 25.9922 32.4477 25.9922 33C25.9922 33.5523 26.4395 34 26.9912 34H32.0013L32.0022 39.007C32.0022 39.5593 32.4499 40.007 33.0022 40.007C33.5545 40.007 34.0022 39.5593 34.0022 39.007Z" fill="#8DC8E8"/>
</svg>
