<svg width="48" height="48" viewBox="0 0 48 48" fill="none" xmlns="http://www.w3.org/2000/svg">
<path fill-rule="evenodd" clip-rule="evenodd" d="M35.1525 19.7904C34.5947 14.2159 30.7599 9.60001 24 9.60001C17.24 9.60001 13.4085 14.1793 12.8475 19.7904L12.677 19.7904C8.32661 19.7904 4.79999 23.419 4.79999 27.8952C4.79999 32.3714 8.32661 36 12.6769 36H21.6V28.8C21.6 26.149 23.749 24 26.4 24H42.2323C40.8934 21.491 38.3013 19.7904 35.3231 19.7904L35.1525 19.7904Z" fill="#0078D4"/>
<path d="M24 28.8C24 27.4745 25.0745 26.4 26.4 26.4H43.2C44.5255 26.4 45.6 27.4745 45.6 28.8V38.4C45.6 39.7255 44.5255 40.8 43.2 40.8H38.4V43.2H39.6C40.2627 43.2 40.8 43.7373 40.8 44.4C40.8 45.0628 40.2627 45.6 39.6 45.6H30C29.3372 45.6 28.8 45.0628 28.8 44.4C28.8 43.7373 29.3372 43.2 30 43.2H31.2V40.8H26.4C25.0745 40.8 24 39.7255 24 38.4V28.8Z" fill="#8DC8E8"/>
</svg>
