<svg width="48" height="48" viewBox="0 0 48 48" fill="none" xmlns="http://www.w3.org/2000/svg">
<path fill-rule="evenodd" clip-rule="evenodd" d="M24 10C18.262 10 13.5501 14.3935 13.0448 20H12.75C8.46979 20 5 23.4698 5 27.75C5 32.0302 8.46979 35.5 12.75 35.5H23V28.3204C23 26.3892 24.1122 24.6306 25.8571 23.8029L32.8571 20.4825C33.5352 20.1608 34.2676 20 35 20H34.9552C34.4499 14.3935 29.738 10 24 10Z" fill="#0078D4"/>
<path fill-rule="evenodd" clip-rule="evenodd" d="M45 37.6771V28.3204C45 27.1617 44.3327 26.1065 43.2857 25.6099L36.2857 22.2895C35.472 21.9035 34.528 21.9035 33.7143 22.2895L26.7143 25.6099C25.6673 26.1065 25 27.1617 25 28.3204V37.6771C25 38.8359 25.6673 39.891 26.7143 40.3876L33.7143 43.7081C34.528 44.094 35.472 44.094 36.2857 43.7081L43.2857 40.3876C44.3327 39.891 45 38.8359 45 37.6771ZM29.4286 28.0963C28.9296 27.8596 28.3332 28.0723 28.0965 28.5712C27.8598 29.0702 28.0724 29.6666 28.5714 29.9033L34 32.4784V38.9998C34 39.5521 34.4477 39.9998 35 39.9998C35.5523 39.9998 36 39.5521 36 38.9998V32.4784L41.4286 29.9033C41.9276 29.6666 42.1402 29.0702 41.9035 28.5712C41.6668 28.0723 41.0704 27.8596 40.5714 28.0963L35 30.7391L29.4286 28.0963Z" fill="#8DC8E8"/>
</svg>
