<svg width="48" height="48" viewBox="0 0 48 48" fill="none" xmlns="http://www.w3.org/2000/svg">
<path d="M13.0448 16C13.5501 10.3935 18.262 6 24 6C29.738 6 34.4499 10.3935 34.9552 16H35.25C39.5302 16 43 19.4698 43 23.75C43 24.0487 42.9831 24.3434 42.9502 24.6333C40.5655 21.8002 36.993 20 33 20C26.3276 20 20.8293 25.0268 20.0856 31.5H12.75C8.46979 31.5 5 28.0302 5 23.75C5 19.4698 8.46979 16 12.75 16H13.0448Z" fill="#0078D4"/>
<path fill-rule="evenodd" clip-rule="evenodd" d="M44 33C44 26.9249 39.0751 22 33 22C26.9249 22 22 26.9249 22 33C22 39.0751 26.9249 44 33 44C39.0751 44 44 39.0751 44 33ZM33.7071 25.2929C33.5196 25.1054 33.2652 25 33 25C32.7348 25 32.4804 25.1054 32.2929 25.2929L27.2929 30.2929C26.9024 30.6834 26.9024 31.3166 27.2929 31.7071C27.6834 32.0976 28.3166 32.0976 28.7071 31.7071L32 28.4142V40C32 40.5523 32.4477 41 33 41C33.5523 41 34 40.5523 34 40V28.4142L37.2929 31.7071C37.6834 32.0976 38.3166 32.0976 38.7071 31.7071C39.0976 31.3166 39.0976 30.6834 38.7071 30.2929L33.7071 25.2929Z" fill="#8DC8E8"/>
</svg>
