<svg width="48" height="48" viewBox="0 0 48 48" fill="none" xmlns="http://www.w3.org/2000/svg">
<path d="M41.9304 34.2779C39.9859 35.389 37.4599 36 34.8 36C32.1401 36 29.614 35.389 27.6696 34.2779C27.2348 34.0295 26.8045 33.7395 26.4 33.4086V40.8C26.4 43.451 30.1608 45.6 34.8 45.6C39.4392 45.6 43.2 43.451 43.2 40.8V33.4086C42.7955 33.7395 42.3652 34.0295 41.9304 34.2779Z" fill="#8DC8E8"/>
<path fill-rule="evenodd" clip-rule="evenodd" d="M24 7.20001C30.7599 7.20001 34.5947 11.8159 35.1525 17.3904L35.3231 17.3904C39.0056 17.3904 42.098 19.9906 42.9605 23.504C42.5526 23.2526 42.1216 23.0356 41.6851 22.8485C39.8007 22.0409 37.3648 21.6 34.8 21.6C32.2352 21.6 29.7992 22.0409 27.9149 22.8485C26.977 23.2504 26.0646 23.7907 25.3519 24.5129C24.629 25.2454 24 26.2914 24 27.6V33.6H12.6769C8.32661 33.6 4.79999 29.9714 4.79999 25.4952C4.79999 21.019 8.32661 17.3904 12.677 17.3904L12.8475 17.3904C13.4085 11.7793 17.24 7.20001 24 7.20001Z" fill="#0078D4"/>
<path d="M34.8 24C30.1608 24 26.4 26.149 26.4 28.8C26.4 31.451 30.1608 33.6 34.8 33.6C39.4392 33.6 43.2 31.451 43.2 28.8C43.2 26.149 39.4392 24 34.8 24Z" fill="#8DC8E8"/>
</svg>
