<svg width="48" height="48" viewBox="0 0 48 48" fill="none" xmlns="http://www.w3.org/2000/svg">
<path d="M16.1711 37.2218L28.1633 9.2128C28.5981 8.19739 29.7737 7.72667 30.7891 8.16143C31.732 8.56513 32.2052 9.60762 31.9199 10.5675L31.8405 10.7872L19.8482 38.7962C19.4134 39.8116 18.2378 40.2824 17.2224 39.8476C16.2795 39.4439 15.8063 38.4014 16.0916 37.4416L16.1711 37.2218L28.1633 9.2128L16.1711 37.2218ZM4.58579 22.5858L12.5858 14.5858C13.3668 13.8047 14.6332 13.8047 15.4142 14.5858C16.1352 15.3067 16.1906 16.4412 15.5806 17.2258L15.4142 17.4142L8.82843 24L15.4142 30.5858C16.1953 31.3668 16.1953 32.6332 15.4142 33.4142C14.6932 34.1352 13.5588 34.1906 12.7742 33.5806L12.5858 33.4142L4.58579 25.4142C3.86482 24.6932 3.80936 23.5588 4.41941 22.7742L4.58579 22.5858L12.5858 14.5858L4.58579 22.5858ZM32.5842 14.5833C33.3052 13.8624 34.4396 13.807 35.2242 14.417L35.4126 14.5834L43.4143 22.5858C44.1355 23.3072 44.1906 24.4422 43.5798 25.2268L43.4133 25.4151L35.4116 33.4062C34.63 34.1867 33.3637 34.1859 32.5832 33.4043C31.8627 32.6829 31.808 31.5484 32.4185 30.7642L32.585 30.5759L39.1707 23.999L32.584 17.4117C31.803 16.6306 31.8031 15.3643 32.5842 14.5833Z" fill="#0078D4"/>
</svg>
