<svg width="48" height="48" viewBox="0 0 48 48" fill="none" xmlns="http://www.w3.org/2000/svg">
<path d="M4.79999 9.6C4.79999 6.94903 6.94902 4.8 9.59999 4.8H12C14.651 4.8 16.8 6.94903 16.8 9.6V18.6H13.8C11.4804 18.6 9.59999 20.4804 9.59999 22.8C9.59999 25.1196 11.4804 27 13.8 27H16.8V36C16.8 38.651 14.651 40.8 12 40.8H9.59999C6.94902 40.8 4.79999 38.651 4.79999 36V9.6ZM36 4.8C33.349 4.8 31.2 6.94903 31.2 9.6V36C31.2 38.651 33.349 40.8 36 40.8H38.4C41.051 40.8 43.2 38.651 43.2 36V9.6C43.2 6.94903 41.051 4.8 38.4 4.8H36ZM21.5272 16.7272C22.2301 16.0243 23.3698 16.0243 24.0728 16.7272L28.8728 21.5272C29.5757 22.2302 29.5757 23.3698 28.8728 24.0728L24.0728 28.8728C23.3698 29.5757 22.2301 29.5757 21.5272 28.8728C20.8243 28.1698 20.8243 27.0302 21.5272 26.3272L23.2544 24.6H13.2C12.2059 24.6 11.4 23.7941 11.4 22.8C11.4 21.8059 12.2059 21 13.2 21L23.2544 21L21.5272 19.2728C20.8243 18.5698 20.8243 17.4302 21.5272 16.7272Z" fill="#0078D4"/>
</svg>
