<svg width="48" height="48" viewBox="0 0 48 48" fill="none" xmlns="http://www.w3.org/2000/svg">
<path d="M4.5 17.25C4.5 13.5221 7.52208 10.5 11.25 10.5H30.75C34.4779 10.5 37.5 13.5221 37.5 17.25V32.25C37.5 35.9779 34.4779 39 30.75 39H22.2909L15.6861 44.476C14.2196 45.6919 12 44.6489 12 42.7439V39H10.5C7.18629 39 4.5 36.3137 4.5 33V17.25Z" fill="#0078D4"/>
<path d="M15.75 4.5C13.2071 4.5 11.0337 6.08191 10.1602 8.31532C10.5174 8.27219 10.8811 8.25 11.25 8.25H30.75C35.7206 8.25 39.75 12.2794 39.75 17.25V31.0639C41.9489 30.1738 43.5 28.018 43.5 25.5V14.25C43.5 8.86522 39.1348 4.5 33.75 4.5H15.75Z" fill="#8DC8E8"/>
</svg>
