<svg width="48" height="48" viewBox="0 0 48 48" fill="none" xmlns="http://www.w3.org/2000/svg">
<path fill-rule="evenodd" clip-rule="evenodd" d="M22 10C22 9.17157 21.3284 8.5 20.5 8.5C10.5589 8.5 3.5 16.5589 3.5 26.5C3.5 36.4411 11.5589 44.5 21.5 44.5C31.4411 44.5 39.5 37.4411 39.5 27.5L39.4863 27.2965C39.387 26.5643 38.7594 26 38 26H22V10Z" fill="#0078D4"/>
<path d="M26.5 3.5C36.4411 3.5 44.5 11.5589 44.5 21.5C44.5 22.3284 43.8284 23 43 23H26.5C25.6716 23 25 22.3284 25 21.5V5C25 4.17157 25.6716 3.5 26.5 3.5Z" fill="#8DC8E8"/>
</svg>
