<svg width="48" height="48" viewBox="0 0 48 48" fill="none" xmlns="http://www.w3.org/2000/svg">
<path d="M36.5 5.99219C39.5376 5.99219 42 8.45462 42 11.4922V36.4922C42 39.5298 39.5376 41.9922 36.5 41.9922H11.5C8.46243 41.9922 6 39.5298 6 36.4922V11.4922C6 8.45462 8.46243 5.99219 11.5 5.99219H36.5ZM15.5 17.9988C14.6716 17.9988 14 18.6675 14 19.4924V32.5052C14 33.3301 14.6716 33.9988 15.5 33.9988C16.3284 33.9988 17 33.3301 17 32.5052V19.4924C17 18.6675 16.3284 17.9988 15.5 17.9988ZM32.5 13.9988C31.6716 13.9988 31 14.6519 31 15.4576V32.54C31 33.3457 31.6716 33.9988 32.5 33.9988C33.3284 33.9988 34 33.3457 34 32.54V15.4576C34 14.6519 33.3284 13.9988 32.5 13.9988ZM23.9502 23.9922C23.1413 24.0003 22.4921 24.657 22.5001 25.4593L22.5707 32.5539C22.5787 33.3562 23.2409 34.0001 24.0498 33.9923C24.8587 33.9843 25.5079 33.3275 25.4999 32.5252L25.4293 25.4306C25.4213 24.6283 24.7591 23.9844 23.9502 23.9922Z" fill="#0078D4"/>
</svg>
