<svg width="48" height="48" viewBox="0 0 48 48" fill="none" xmlns="http://www.w3.org/2000/svg">
<path d="M7.5 10.5C7.5 8.01472 9.51472 6 12 6C14.4853 6 16.5 8.01472 16.5 10.5V37.5C16.5 39.9853 14.4853 42 12 42C9.51472 42 7.5 39.9853 7.5 37.5V10.5ZM19.5 19.5C19.5 17.0147 21.5147 15 24 15C26.4853 15 28.5 17.0147 28.5 19.5V37.5C28.5 39.9853 26.4853 42 24 42C21.5147 42 19.5 39.9853 19.5 37.5V19.5ZM36 24C33.5147 24 31.5 26.0147 31.5 28.5V37.5C31.5 39.9853 33.5147 42 36 42C38.4853 42 40.5 39.9853 40.5 37.5V28.5C40.5 26.0147 38.4853 24 36 24Z" fill="#0078D4"/>
</svg>
