<svg width="48" height="48" viewBox="0 0 48 48" fill="none" xmlns="http://www.w3.org/2000/svg">
<path fill-rule="evenodd" clip-rule="evenodd" d="M12.25 6C8.79822 6 6 8.79822 6 12.25V19.75C6 20.4404 6.55964 21 7.25 21C7.94036 21 8.5 20.4404 8.5 19.75V12.25C8.5 10.1789 10.1789 8.5 12.25 8.5H24V18.75C24 21.6495 26.3505 24 29.25 24H39.5V35.75C39.5 37.8211 37.8211 39.5 35.75 39.5H28.25C27.5596 39.5 27 40.0596 27 40.75C27 41.4404 27.5596 42 28.25 42H35.75C39.2018 42 42 39.2018 42 35.75V12.25C42 8.79822 39.2018 6 35.75 6H12.25Z" fill="#0078D4"/>
<path d="M7.25 29.5C6.55964 29.5 6 28.9404 6 28.25C6 27.5596 6.55964 27 7.25 27H19.75C20.4404 27 21 27.5596 21 28.25V40.75C21 41.4404 20.4404 42 19.75 42C19.0596 42 18.5 41.4404 18.5 40.75V31.2678L8.13388 41.6339C7.64573 42.122 6.85427 42.122 6.36612 41.6339C5.87796 41.1457 5.87796 40.3543 6.36612 39.8661L16.7322 29.5H7.25Z" fill="#8DC8E8"/>
</svg>
