<svg width="48" height="48" viewBox="0 0 48 48" fill="none" xmlns="http://www.w3.org/2000/svg">
<path fill-rule="evenodd" clip-rule="evenodd" d="M43.9977 22.3831C41.6621 24.6233 38.4918 26 35 26C27.8203 26 22 20.1797 22 13C22 10.4223 22.7502 8.01983 24.0443 5.99902H8.5L8.1919 6.00941C5.85032 6.16773 4 8.1173 4 10.499V31.5036L4.01038 31.8117C4.16871 34.1533 6.11827 36.0036 8.5 36.0036L16.998 36.003V40.999L13.5 40.9999L13.2965 41.0136C12.5643 41.1129 12 41.7405 12 42.4999C12 43.3283 12.6716 43.9999 13.5 43.9999H34.5L34.7035 43.9862C35.4357 43.8869 36 43.2593 36 42.4999C36 41.6715 35.3284 40.9999 34.5 40.9999L30.998 40.999V36.003L39.4977 36.0036L39.8058 35.9932C42.1473 35.8349 43.9977 33.8853 43.9977 31.5036V22.3831ZM19.996 36.003H27.996L27.998 40.9999H19.998L19.996 36.003Z" fill="#0078D4"/>
<path fill-rule="evenodd" clip-rule="evenodd" d="M46 13C46 19.0751 41.0751 24 35 24C28.9249 24 24 19.0751 24 13C24 6.92487 28.9249 2 35 2C41.0751 2 46 6.92487 46 13ZM35 6C35.5523 6 36 6.44772 36 7V16.5858L39.2929 13.2929C39.6834 12.9024 40.3166 12.9024 40.7071 13.2929C41.0976 13.6834 41.0976 14.3166 40.7071 14.7071L35.7071 19.7071C35.3166 20.0976 34.6834 20.0976 34.2929 19.7071L29.2929 14.7071C28.9024 14.3166 28.9024 13.6834 29.2929 13.2929C29.6834 12.9024 30.3166 12.9024 30.7071 13.2929L34 16.5858V7C34 6.44772 34.4477 6 35 6Z" fill="#8DC8E8"/>
</svg>
