<svg width="48" height="48" viewBox="0 0 48 48" fill="none" xmlns="http://www.w3.org/2000/svg">
<path fill-rule="evenodd" clip-rule="evenodd" d="M8.5 4C6.01472 4 4 6.01472 4 8.5V39.5C4 41.9853 6.01472 44 8.5 44H17.3368C17.1208 43.5454 17 43.0368 17 42.5C17 40.567 18.567 39 20.5 39H21V38H18.5C14.9101 38 12 35.0899 12 31.5V18.5C12 14.9101 14.9101 12 18.5 12H24V8.5C24 6.01472 21.9853 4 19.5 4H8.5Z" fill="#0078D4"/>
<path fill-rule="evenodd" clip-rule="evenodd" d="M18.5 14C16.0147 14 14 16.0147 14 18.5V31.5C14 33.9853 16.0147 36 18.5 36H23V41H20.5C19.6716 41 19 41.6716 19 42.5C19 43.3284 19.6716 44 20.5 44H37.5C38.3284 44 39 43.3284 39 42.5C39 41.6716 38.3284 41 37.5 41H35V36H39.5C41.9853 36 44 33.9853 44 31.5V18.5C44 16.0147 41.9853 14 39.5 14H18.5ZM32 41V36H26V41H32Z" fill="#8DC8E8"/>
</svg>
