<svg width="48" height="48" viewBox="0 0 48 48" fill="none" xmlns="http://www.w3.org/2000/svg">
<path fill-rule="evenodd" clip-rule="evenodd" d="M12.5 4C10.0147 4 8 6.01472 8 8.5V34.5C8 36.9853 10.0147 39 12.5 39H30.5C32.9853 39 35 36.9853 35 34.5V17.9951H25.5078C23.0225 17.9951 21.0078 15.9803 21.0078 13.4951V4H12.5ZM14 24.5C14 23.6716 14.6716 23 15.5 23C16.3284 23 17 23.6716 17 24.5C17 25.3284 16.3284 26 15.5 26C14.6716 26 14 25.3284 14 24.5ZM15.5 32C14.6716 32 14 31.3284 14 30.5C14 29.6716 14.6716 29 15.5 29C16.3284 29 17 29.6716 17 30.5C17 31.3284 16.3284 32 15.5 32ZM21.5 26C20.6716 26 20 25.3284 20 24.5C20 23.6716 20.6716 23 21.5 23H27.6075C28.4359 23 29.1075 23.6716 29.1075 24.5C29.1075 25.3284 28.4359 26 27.6075 26H21.5ZM20 30.5C20 29.6716 20.6716 29 21.5 29H27.6075C28.4359 29 29.1075 29.6716 29.1075 30.5C29.1075 31.3284 28.4359 32 27.6075 32H21.5C20.6716 32 20 31.3284 20 30.5ZM24.0078 4.93456V13.4951C24.0078 14.3235 24.6794 14.9951 25.5078 14.9951H34.0676C33.9494 14.8412 33.8207 14.6944 33.682 14.5557L24.4443 5.31802C24.3064 5.18018 24.1606 5.05221 24.0078 4.93456Z" fill="#0078D4"/>
<path d="M13.2578 41C13.8756 42.7478 15.5424 44 17.5018 44H30.5018C35.7485 44 40.0018 39.7467 40.0018 34.5V22.7377C40.0018 21.5443 39.5276 20.3997 38.6837 19.5558L37.0018 17.8738V34.5C37.0018 38.0899 34.0916 41 30.5018 41H13.2578Z" fill="#8DC8E8"/>
</svg>
