<svg width="48" height="48" viewBox="0 0 48 48" fill="none" xmlns="http://www.w3.org/2000/svg">
<path d="M12.5 4C10.0147 4 8 6.01472 8 8.5V39.5C8 41.9853 10.0147 44 12.5 44H35.5C37.9853 44 40 41.9853 40 39.5V8.5C40 6.01472 37.9853 4 35.5 4H12.5ZM15.5 12H32.5C33.3284 12 34 12.6716 34 13.5C34 14.3284 33.3284 15 32.5 15H15.5C14.6716 15 14 14.3284 14 13.5C14 12.6716 14.6716 12 15.5 12ZM14 33.5C14 32.6716 14.6716 32 15.5 32H32.5C33.3284 32 34 32.6716 34 33.5C34 34.3284 33.3284 35 32.5 35H15.5C14.6716 35 14 34.3284 14 33.5ZM15.5 22H32.5C33.3284 22 34 22.6716 34 23.5C34 24.3284 33.3284 25 32.5 25H15.5C14.6716 25 14 24.3284 14 23.5C14 22.6716 14.6716 22 15.5 22Z" fill="#0078D4"/>
</svg>
