<svg width="48" height="48" viewBox="0 0 48 48" fill="none" xmlns="http://www.w3.org/2000/svg">
<path fill-rule="evenodd" clip-rule="evenodd" d="M24 15.6V4.79999H13.2C11.2118 4.79999 9.59998 6.41176 9.59998 8.39999V39.6C9.59998 41.5882 11.2118 43.2 13.2 43.2H21.6V40.8C21.6 39.8151 21.9884 38.9299 22.6592 38.2592L28.8504 32.068C28.8172 31.7267 28.8 31.3873 28.8 31.05C28.8 29.7469 29.0612 28.4932 29.5974 27.3169C30.1063 26.2007 30.8012 25.207 31.6754 24.3493C32.5622 23.4793 33.5893 22.8061 34.7413 22.3386C35.8839 21.8749 37.0889 21.6328 38.3385 21.6008L38.3692 21.6H38.4V19.2H27.6C25.6117 19.2 24 17.5882 24 15.6ZM26.4 15.6V5.39999L37.8 16.8H27.6C26.9372 16.8 26.4 16.2627 26.4 15.6Z" fill="#0078D4"/>
<path fill-rule="evenodd" clip-rule="evenodd" d="M24.3562 45.2437C24.5937 45.4812 24.875 45.6 25.2 45.6H30C30.275 45.5875 30.4937 45.5312 30.6562 45.4312C30.8187 45.3312 30.9375 45.1937 31.0125 45.0187C31.0875 44.8437 31.1375 44.6562 31.1625 44.4562C31.1875 44.2562 31.2 44.05 31.2 43.8375V43.2C31.775 43.1875 32.225 43.1687 32.55 43.1437C32.875 43.1187 33.1187 43.025 33.2812 42.8625C33.4437 42.7 33.5375 42.4625 33.5625 42.15C33.5875 41.8375 33.6 41.3875 33.6 40.8H34.8C35.0625 40.8 35.275 40.7437 35.4375 40.6312C35.6 40.5187 35.725 40.3812 35.8125 40.2187C35.9 40.0562 35.9562 39.8687 35.9812 39.6562C36.0062 39.4437 36.0187 39.225 36.0187 39C36.0062 38.8125 36 38.6312 36 38.4562V37.9875C36.4125 38.1375 36.8312 38.2437 37.2562 38.3062C37.6812 38.3687 38.1125 38.4 38.55 38.4C39.55 38.3875 40.4687 38.1937 41.3062 37.8187C42.1437 37.4437 42.8875 36.9187 43.5375 36.2437C44.1875 35.5687 44.6937 34.8 45.0562 33.9375C45.4187 33.075 45.6 32.1625 45.6 31.2C45.6 30.2 45.4125 29.2625 45.0375 28.3875C44.6625 27.5125 44.15 26.75 43.5 26.1C42.85 25.45 42.0875 24.9375 41.2125 24.5625C40.3375 24.1875 39.4 24 38.4 24C37.425 24.025 36.5062 24.2125 35.6437 24.5625C34.7812 24.9125 34.0187 25.4125 33.3562 26.0625C32.6937 26.7125 32.1687 27.4625 31.7812 28.3125C31.3937 29.1625 31.2 30.075 31.2 31.05C31.2 31.6375 31.2687 32.2562 31.4062 32.9062L24.3562 39.9562C24.1187 40.1937 24 40.475 24 40.8V44.4C24 44.725 24.1187 45.0062 24.3562 45.2437ZM42 29.4C42 28.9 41.825 28.475 41.475 28.125C41.125 27.775 40.7 27.6 40.2 27.6C39.7 27.6 39.275 27.775 38.925 28.125C38.575 28.475 38.4 28.9 38.4 29.4C38.4 29.9 38.575 30.325 38.925 30.675C39.275 31.025 39.7 31.2 40.2 31.2C40.7 31.2 41.125 31.025 41.475 30.675C41.825 30.325 42 29.9 42 29.4Z" fill="#8DC8E8"/>
</svg>
