<svg width="48" height="48" viewBox="0 0 48 48" fill="none" xmlns="http://www.w3.org/2000/svg">
<path d="M24 16V4H12C9.79086 4 8 5.79086 8 8V40C8 42.2091 9.79086 44 12 44H36C38.2091 44 40 42.2091 40 40V20H28C25.7909 20 24 18.2091 24 16ZM14 24.5C14 23.6716 14.6716 23 15.5 23C16.3284 23 17 23.6716 17 24.5C17 25.3284 16.3284 26 15.5 26C14.6716 26 14 25.3284 14 24.5ZM14 30.5C14 29.6716 14.6716 29 15.5 29C16.3284 29 17 29.6716 17 30.5C17 31.3284 16.3284 32 15.5 32C14.6716 32 14 31.3284 14 30.5ZM14 36.5C14 35.6716 14.6716 35 15.5 35C16.3284 35 17 35.6716 17 36.5C17 37.3284 16.3284 38 15.5 38C14.6716 38 14 37.3284 14 36.5ZM20 24.5C20 23.6716 20.6716 23 21.5 23H32.5C33.3284 23 34 23.6716 34 24.5C34 25.3284 33.3284 26 32.5 26H21.5C20.6716 26 20 25.3284 20 24.5ZM20 30.5C20 29.6716 20.6716 29 21.5 29H32.5C33.3284 29 34 29.6716 34 30.5C34 31.3284 33.3284 32 32.5 32H21.5C20.6716 32 20 31.3284 20 30.5ZM20 36.5C20 35.6716 20.6716 35 21.5 35H32.5C33.3284 35 34 35.6716 34 36.5C34 37.3284 33.3284 38 32.5 38H21.5C20.6716 38 20 37.3284 20 36.5ZM27 16V5L39 17H28C27.4477 17 27 16.5523 27 16Z" fill="#0078D4"/>
</svg>
