<svg width="48" height="48" viewBox="0 0 48 48" fill="none" xmlns="http://www.w3.org/2000/svg">
<path fill-rule="evenodd" clip-rule="evenodd" d="M24 15.25V4H11C9.34315 4 8 5.34315 8 7V24.101C9.27052 22.8045 11.0413 22 13 22C16.5571 22 19.4944 24.6531 19.9412 28.0884C22.2527 28.5287 24 30.5603 24 33V43H37C38.6569 43 40 41.6569 40 40V19H27.75C25.6789 19 24 17.3211 24 15.25ZM26.5 15.25V4.46429L39.4615 16.5H27.75C27.0596 16.5 26.5 15.9404 26.5 15.25Z" fill="#0078D4"/>
<path fill-rule="evenodd" clip-rule="evenodd" d="M8 30H7C5.34315 30 4 31.3431 4 33V43C4 44.6569 5.34315 46 7 46H19C20.6569 46 22 44.6569 22 43V33C22 31.3431 20.6569 30 19 30H18V29C18 26.2386 15.7614 24 13 24C10.2386 24 8 26.2386 8 29V30ZM13 26.5C11.6193 26.5 10.5 27.6193 10.5 29V30H15.5V29C15.5 27.6193 14.3807 26.5 13 26.5ZM13 41C14.6569 41 16 39.6569 16 38C16 36.3431 14.6569 35 13 35C11.3431 35 10 36.3431 10 38C10 39.6569 11.3431 41 13 41Z" fill="#8DC8E8"/>
</svg>
