<svg width="48" height="48" viewBox="0 0 48 48" fill="none" xmlns="http://www.w3.org/2000/svg">
<path d="M8 8.5C8 6.01472 10.0147 4 12.5 4H21.0078V13.4951C21.0078 15.9803 23.0225 17.9951 25.5078 17.9951H35V34.5C35 36.9853 32.9853 39 30.5 39H12.5C10.0147 39 8 36.9853 8 34.5V8.5Z" fill="#0078D4"/>
<path d="M24.0078 13.4951V4.93456C24.1606 5.05221 24.3064 5.18018 24.4443 5.31802L33.682 14.5557C33.8207 14.6944 33.9494 14.8412 34.0676 14.9951H25.5078C24.6794 14.9951 24.0078 14.3235 24.0078 13.4951Z" fill="#0078D4"/>
<path d="M13.2578 41C13.8756 42.7478 15.5424 44 17.5018 44H30.5018C35.7485 44 40.0018 39.7467 40.0018 34.5V22.7377C40.0018 21.5443 39.5276 20.3997 38.6837 19.5558L37.0018 17.8738V34.5C37.0018 38.0899 34.0916 41 30.5018 41H13.2578Z" fill="#8DC8E8"/>
</svg>
