<svg width="48" height="48" viewBox="0 0 48 48" fill="none" xmlns="http://www.w3.org/2000/svg">
<path d="M24 16V4H12C9.79086 4 8 5.79086 8 8V40C8 42.2091 9.79086 44 12 44H36C38.2091 44 40 42.2091 40 40V20H28C25.7909 20 24 18.2091 24 16ZM16.5 23H31.5C32.3284 23 33 23.6716 33 24.5C33 25.3284 32.3284 26 31.5 26H16.5C15.6716 26 15 25.3284 15 24.5C15 23.6716 15.6716 23 16.5 23ZM16.5 28.5H31.5C32.3284 28.5 33 29.1716 33 30C33 30.8284 32.3284 31.5 31.5 31.5H16.5C15.6716 31.5 15 30.8284 15 30C15 29.1716 15.6716 28.5 16.5 28.5ZM16.5 34H31.5C32.3284 34 33 34.6716 33 35.5C33 36.3284 32.3284 37 31.5 37H16.5C15.6716 37 15 36.3284 15 35.5C15 34.6716 15.6716 34 16.5 34ZM27 16V5L39 17H28C27.4477 17 27 16.5523 27 16Z" fill="#0078D4"/>
</svg>
