<svg width="48" height="48" viewBox="0 0 48 48" fill="none" xmlns="http://www.w3.org/2000/svg">
<path d="M9.75 6C6.02208 6 3 9.02208 3 12.75V35.25C3 38.9779 6.02208 42 9.75 42H38.25C41.9779 42 45 38.9779 45 35.25V12.75C45 9.02208 41.9779 6 38.25 6H9.75ZM39 12C39.8284 12 40.5 12.6716 40.5 13.5V16.5C40.5 17.3284 39.8284 18 39 18C38.1716 18 37.5 17.3284 37.5 16.5V13.5C37.5 12.6716 38.1716 12 39 12ZM37.5 22.5C37.5 21.6716 38.1716 21 39 21C39.8284 21 40.5 21.6716 40.5 22.5V25.5C40.5 26.3284 39.8284 27 39 27C38.1716 27 37.5 26.3284 37.5 25.5V22.5ZM39 30C39.8284 30 40.5 30.6716 40.5 31.5V34.5C40.5 35.3284 39.8284 36 39 36C38.1716 36 37.5 35.3284 37.5 34.5V31.5C37.5 30.6716 38.1716 30 39 30ZM7.5 13.5C7.5 12.6716 8.17157 12 9 12C9.82843 12 10.5 12.6716 10.5 13.5V16.5C10.5 17.3284 9.82843 18 9 18C8.17157 18 7.5 17.3284 7.5 16.5V13.5ZM9 21C9.82843 21 10.5 21.6716 10.5 22.5V25.5C10.5 26.3284 9.82843 27 9 27C8.17157 27 7.5 26.3284 7.5 25.5V22.5C7.5 21.6716 8.17157 21 9 21ZM7.5 31.5C7.5 30.6716 8.17157 30 9 30C9.82843 30 10.5 30.6716 10.5 31.5V34.5C10.5 35.3284 9.82843 36 9 36C8.17157 36 7.5 35.3284 7.5 34.5V31.5ZM19.5 19.5738C19.5 18.3604 20.8168 17.6048 21.8644 18.2171L30.2628 23.1255C31.1498 23.6439 31.1498 24.9258 30.2628 25.4442L21.8643 30.3526C20.8167 30.9649 19.5 30.2093 19.5 28.9959V19.5738Z" fill="#0078D4"/>
</svg>
