<svg width="48" height="48" viewBox="0 0 48 48" fill="none" xmlns="http://www.w3.org/2000/svg">
<path fill-rule="evenodd" clip-rule="evenodd" d="M27.642 13H39.5C41.7735 13 43.6532 14.6859 43.9571 16.8758L43.9896 17.1919L44 17.5V26.5997C43.2499 26.2163 42.4002 26 41.5 26C40.0238 26 38.6834 26.5816 37.6955 27.5281C36.8605 24.9023 34.4024 23 31.5 23C27.9101 23 25 25.9102 25 29.5C25 31.2626 25.7016 32.8613 26.8407 34.0322C23.9886 34.3478 22 36.9364 22 39.75C22 39.8332 22.0012 39.9166 22.0038 40H8.5C6.11827 40 4.16871 38.1497 4.01038 35.8081L4 35.5V20.998L16.4139 21L16.8067 20.9828C17.5879 20.9144 18.3379 20.6428 18.9819 20.1953L19.2947 19.957L27.642 13ZM16.4139 8C17.335 8 18.2306 8.28257 18.9819 8.8047L19.2947 9.043L23.5 12.546L17.3741 17.6523L17.2044 17.7748C17.0273 17.8846 16.829 17.9564 16.6226 17.9854L16.4139 18L4 17.998V12.5C4 10.1183 5.85032 8.16871 8.1919 8.01038L8.5 8H16.4139Z" fill="#0078D4"/>
<path d="M36 29.5C36 31.9853 33.9853 34 31.5 34C29.0147 34 27 31.9853 27 29.5C27 27.0147 29.0147 25 31.5 25C33.9853 25 36 27.0147 36 29.5Z" fill="#8DC8E8"/>
<path d="M39 39.75C39 42.863 36.8571 46 31.5 46C26.1429 46 24 42.8748 24 39.75C24 37.6789 25.4391 36 27.2143 36H35.7857C37.5609 36 39 37.6789 39 39.75Z" fill="#8DC8E8"/>
<path d="M41.5 35C43.433 35 45 33.433 45 31.5C45 29.567 43.433 28 41.5 28C39.567 28 38 29.567 38 31.5C38 33.433 39.567 35 41.5 35Z" fill="#8DC8E8"/>
<path d="M40.9968 39.75C40.9968 41.1895 40.6398 42.6793 39.8318 43.9987C39.8902 43.9996 39.9491 44 40.0084 44C44.2941 44 46.0084 41.8041 46.0084 39.625C46.0084 38.1753 44.8571 37 43.437 37H40.3559C40.7716 37.8472 40.9968 38.7986 40.9968 39.75Z" fill="#8DC8E8"/>
</svg>
