<svg width="48" height="48" viewBox="0 0 48 48" fill="none" xmlns="http://www.w3.org/2000/svg">
<path d="M4.00012 12.4984C4.00098 10.0138 6.01545 8 8.50012 8H16.4112C17.4622 8 18.4802 8.36793 19.2883 9.03995L24.0503 12.9998H35.5009C37.9862 12.9998 40.0009 15.0145 40.0009 17.4998V19.0039H12.8431C10.7775 19.0039 8.9772 20.4101 8.47701 22.4142L4.63297 37.8157C4.63097 37.8237 4.71887 37.4712 4.63297 37.8157C4.22589 37.1388 3.9919 36.3459 3.99219 35.4984L4.00012 12.4984ZM7.48993 38.7579C7.33243 39.3889 7.80976 40 8.46017 40H36.9395C38.5455 40 39.9454 38.9071 40.335 37.3491L43.8614 23.2465C44.0192 22.6153 43.5418 22.0039 42.8912 22.0039H12.8431C12.1546 22.0039 11.5545 22.4726 11.3877 23.1407L7.48993 38.7579Z" fill="#0078D4"/>
</svg>
