<svg width="48" height="48" viewBox="0 0 48 48" fill="none" xmlns="http://www.w3.org/2000/svg">
<path fill-rule="evenodd" clip-rule="evenodd" d="M18.621 9H18.525L15.186 6.33C14.919 6.117 14.589 6 14.25 6H9C5.685 6 3 8.685 3 12V13.5H13.671L18.621 9ZM33 9H23.079L15.258 16.11C14.982 16.359 14.622 16.5 14.25 16.5H3V30C3 33.315 5.685 36 9 36H33C36.315 36 39 33.315 39 30V15C39 11.685 36.315 9 33 9Z" fill="#0078D4"/>
<path d="M42.0001 30.0001V15.8101C43.8001 16.8601 45.0001 18.7801 45.0001 21.0001V30.0001C45.0001 36.6301 39.6301 42.0001 33.0001 42.0001H15.0001C12.7801 42.0001 10.8601 40.8001 9.81006 39.0001H33.0001C37.9501 39.0001 42.0001 34.9501 42.0001 30.0001Z" fill="#8DC8E8"/>
</svg>
