<svg width="48" height="48" viewBox="0 0 48 48" fill="none" xmlns="http://www.w3.org/2000/svg">
<path d="M16.5 24C16.5 21.9112 16.6168 19.8986 16.8329 18H31.1671C31.3832 19.8986 31.5 21.9112 31.5 24C31.5 26.0888 31.3832 28.1015 31.1671 30H16.8329C16.6168 28.1015 16.5 26.0888 16.5 24ZM13.8147 30C13.6088 28.0794 13.5 26.0679 13.5 24C13.5 21.9321 13.6088 19.9206 13.8147 18H3.86964C3.30383 19.9011 3 21.9151 3 24C3 26.0849 3.30383 28.0989 3.86964 30H13.8147ZM5.02089 33H14.2269C14.6983 35.7895 15.3846 38.3203 16.2433 40.467C16.7963 41.8495 17.4331 43.1037 18.1517 44.1749C12.3455 42.4948 7.57474 38.376 5.02089 33ZM17.2724 33H30.7276C30.2933 35.3989 29.6931 37.5483 28.9712 39.3528C28.1987 41.2841 27.3164 42.7463 26.4134 43.7012C25.5133 44.6529 24.6973 45 24 45C23.3027 45 22.4867 44.6529 21.5866 43.7012C20.6836 42.7463 19.8013 41.2841 19.0288 39.3528C18.3069 37.5483 17.7067 35.3989 17.2724 33ZM33.7731 33C33.3017 35.7895 32.6154 38.3203 31.7567 40.467C31.2037 41.8495 30.5669 43.1037 29.8483 44.1749C35.6545 42.4948 40.4253 38.376 42.9791 33H33.7731ZM44.1304 30C44.6962 28.0989 45 26.0849 45 24C45 21.9151 44.6962 19.9011 44.1304 18H34.1853C34.3912 19.9206 34.5 21.9321 34.5 24C34.5 26.0679 34.3912 28.0794 34.1853 30H44.1304ZM28.9712 8.64718C29.6931 10.4517 30.2933 12.6011 30.7276 15H17.2724C17.7067 12.6011 18.3069 10.4517 19.0288 8.64718C19.8013 6.71592 20.6836 5.25369 21.5866 4.29882C22.4835 3.35041 23.2971 3.00241 23.9928 3.00001L24 3.00001L24.0041 3C24.7005 3.00135 25.5151 3.34897 26.4134 4.29882C27.3164 5.25369 28.1987 6.71592 28.9712 8.64718ZM33.7731 15H42.9791C40.4253 9.62403 35.6545 5.50527 29.8483 3.82511C30.5669 4.89628 31.2037 6.15048 31.7567 7.53301C32.6154 9.67972 33.3017 12.2105 33.7731 15ZM5.02089 15H14.2269C14.6983 12.2105 15.3846 9.67972 16.2433 7.53301C16.7963 6.15048 17.4331 4.89628 18.1517 3.82511C12.3455 5.50527 7.57474 9.62403 5.02089 15Z" fill="#0078D4"/>
</svg>
