<svg width="48" height="48" viewBox="0 0 48 48" fill="none" xmlns="http://www.w3.org/2000/svg">
<path d="M13.7143 22.2857C18.4482 22.2857 22.2857 18.4481 22.2857 13.7143C22.2857 8.98038 18.4482 5.14282 13.7143 5.14282C8.98042 5.14282 5.14286 8.98038 5.14286 13.7143C5.14286 18.4481 8.98042 22.2857 13.7143 22.2857ZM34.2857 22.2857C39.0196 22.2857 42.8571 18.4481 42.8571 13.7143C42.8571 8.98038 39.0196 5.14282 34.2857 5.14282C29.5518 5.14282 25.7143 8.98038 25.7143 13.7143C25.7143 18.4481 29.5518 22.2857 34.2857 22.2857ZM22.2857 34.2857C22.2857 39.0195 18.4482 42.8571 13.7143 42.8571C8.98042 42.8571 5.14286 39.0195 5.14286 34.2857C5.14286 29.5518 8.98042 25.7143 13.7143 25.7143C18.4482 25.7143 22.2857 29.5518 22.2857 34.2857ZM34.2857 42.8571C39.0196 42.8571 42.8571 39.0195 42.8571 34.2857C42.8571 29.5518 39.0196 25.7143 34.2857 25.7143C29.5518 25.7143 25.7143 29.5518 25.7143 34.2857C25.7143 39.0195 29.5518 42.8571 34.2857 42.8571Z" fill="#0078D4"/>
</svg>
