<svg width="48" height="48" viewBox="0 0 48 48" fill="none" xmlns="http://www.w3.org/2000/svg">
<path fill-rule="evenodd" clip-rule="evenodd" d="M41.3021 21.9381C41.9997 19.7006 41.9997 18.001 41.9997 18.001C41.9997 11.3735 36.6271 6 29.9997 6H27.9926L18.6947 13.2643C17.9073 13.8813 17.7682 15.0208 18.3841 15.8092C18.9995 16.5968 20.1358 16.7358 20.9228 16.1196L23.6491 13.9853C24.045 13.6754 24.5333 13.507 25.0361 13.507H31.939C32.5357 13.507 33.108 13.744 33.53 14.166L41.3021 21.9381ZM8.78863 22.9955C9.4204 22.362 10.4447 22.362 11.0765 22.9954C11.7084 23.6289 11.7084 24.656 11.0766 25.2895L8.76033 27.6121C8.12856 28.2456 7.10422 28.2456 6.47241 27.6122C5.8406 26.9787 5.84057 25.9516 6.47234 25.3181L8.78863 22.9955ZM15.7567 26.1278C15.1249 25.4943 14.1006 25.4944 13.4688 26.1279L11.1525 28.4505C10.5207 29.084 10.5208 30.1111 11.1526 30.7446C11.7844 31.378 12.8087 31.378 13.4405 30.7445L15.7568 28.4219C16.3886 27.7883 16.3885 26.7613 15.7567 26.1278ZM17.3565 30.024C17.9883 29.3905 19.0126 29.3905 19.6444 30.0239C20.2762 30.6574 20.2763 31.6845 19.6445 32.318L17.3282 34.6406C16.6964 35.2741 15.6721 35.2741 15.0403 34.6407C14.4085 34.0072 14.4084 32.9801 15.0402 32.3466L17.3565 30.024ZM21.2398 33.9183C21.8716 33.2848 22.8959 33.2847 23.5277 33.9182C24.1595 34.5517 24.1596 35.5788 23.5278 36.2123L21.2115 38.5349C20.5797 39.1684 19.5554 39.1684 18.9236 38.535C18.2918 37.9015 18.2917 36.8744 18.9235 36.2409L21.2398 33.9183Z" fill="#0078D4"/>
<path d="M22.5579 6.43903C21.5045 6.10922 20.4105 6.02155 20.1332 6.00383C20.0882 6.00096 20.0437 6 19.9986 6H19.4996C12.8722 6 7.49965 11.3726 7.49965 18V21.1312C9.01749 19.8952 11.2523 19.9855 12.6654 21.4023C13.2561 21.9945 13.6156 22.7308 13.744 23.4984C14.9982 23.2095 16.3684 23.5549 17.3455 24.5346C18.1056 25.2967 18.4829 26.2971 18.4775 27.2959C19.4742 27.29 20.4728 27.6683 21.2332 28.4308C21.9928 29.1923 22.3701 30.192 22.3652 31.1902C23.3605 31.1854 24.3572 31.5637 25.1165 32.325C26.6259 33.8383 26.6259 36.2919 25.1167 37.8053L24.7779 38.145L26.6888 40.041C27.3156 40.6628 28.3354 40.6628 28.9621 40.0411C29.5832 39.425 29.584 38.4302 28.9647 37.8132C28.4918 37.342 28.5217 36.5482 29.0661 36.1224C29.5202 35.7671 30.1582 35.8146 30.5571 36.209C31.1839 36.8289 32.2023 36.8283 32.8284 36.2072C33.4496 35.5909 33.4503 34.5959 32.8305 33.9789C32.4258 33.5759 32.3795 32.9229 32.7501 32.4659C33.1775 31.9388 33.9549 31.9118 34.4225 32.3738C35.0494 32.9931 36.0673 32.9923 36.6933 32.3714C37.3283 31.7413 37.3264 30.7182 36.7177 30.1143L36.7146 30.1112L33.3341 26.7307C32.8948 26.2914 32.8948 25.5791 33.3341 25.1397C33.7735 24.7004 34.4858 24.7004 34.9251 25.1397L38.8793 29.0894C39.6697 29.8736 40.9726 29.8811 41.6578 29.2014C42.3398 28.5247 42.3349 27.241 41.5514 26.4636L41.5483 26.4605L31.5948 16.507H25.2947L22.7722 18.4818C20.6796 20.12 17.6562 19.7503 16.0201 17.6561C14.3846 15.5629 14.7556 12.5382 16.8472 10.9007L22.5579 6.43903Z" fill="#0078D4"/>
</svg>
