<svg width="48" height="48" viewBox="0 0 48 48" fill="none" xmlns="http://www.w3.org/2000/svg">
<path d="M10 35.5V27.9686L18.1203 33.2739C21.6927 35.6078 26.3073 35.6078 29.8797 33.2739L38 27.9686V35.5C38 35.8246 37.8947 36.1404 37.7 36.4L37.6979 36.4029L37.6953 36.4062L37.6893 36.4142L37.6727 36.4356L37.6486 36.4663L37.6223 36.4991C37.5809 36.5504 37.5238 36.619 37.4506 36.7026C37.3044 36.8697 37.0938 37.0967 36.8161 37.3633C36.261 37.8963 35.4352 38.5896 34.3174 39.2775C32.0718 40.6594 28.6775 42 24 42C19.3225 42 15.9282 40.6594 13.6826 39.2775C12.5648 38.5896 11.739 37.8963 11.1839 37.3633C10.9062 37.0967 10.6956 36.8697 10.5494 36.7026C10.4762 36.619 10.4191 36.5504 10.3777 36.4991C10.357 36.4735 10.3402 36.4522 10.3273 36.4356L10.3107 36.4142L10.3047 36.4062L10.3021 36.4029C10.1074 36.1432 10 35.8246 10 35.5ZM44.3204 20.2558L28.2388 30.7624C25.6634 32.445 22.3366 32.4449 19.7612 30.7624L6 21.7718L6 32.5C6 33.3284 5.32843 34 4.5 34C3.67157 34 3 33.3284 3 32.5V20C3 19.8245 3.03015 19.656 3.08556 19.4994C3.02896 19.3392 2.99926 19.1683 3.00001 18.9935C3.00222 18.4848 3.26217 18.0118 3.6905 17.7372L19.8176 7.39928C22.3665 5.76535 25.6335 5.76534 28.1824 7.39928L44.3095 17.7372C44.7378 18.0118 44.9978 18.4848 45 18.9935C45.0019 19.4387 44.8063 19.8582 44.472 20.1425C44.4242 20.1831 44.3737 20.221 44.3204 20.2558Z" fill="#0078D4"/>
</svg>
