<svg width="48" height="48" viewBox="0 0 48 48" fill="none" xmlns="http://www.w3.org/2000/svg">
<path d="M22.5493 9.17836C18.1559 4.78502 11.0601 4.6985 6.56089 8.98342C3.01101 12.3643 2.10526 17.4842 3.91723 21.75L11.5381 21.75L14.7437 16.1396C15.4298 14.9388 16.7211 14.2131 18.1036 14.2514C19.486 14.2898 20.7352 15.0859 21.3537 16.3229L24.5953 22.8057L26.9672 19.5444C27.5774 18.7053 28.508 18.1566 29.5375 18.0286C30.5671 17.9007 31.6036 18.205 32.4006 18.8692L35.8576 21.75L44.1844 21.75C45.8432 17.5556 44.9422 12.5986 41.5237 9.25248C37.0028 4.82738 29.7623 4.86613 25.289 9.33938L23.9997 10.6287L22.5493 9.17836Z" fill="#0078D4"/>
<path d="M22.9053 43.0259L9.99292 29.25L13.7144 29.2499C15.0602 29.2499 16.3028 28.5288 16.9704 27.3603L17.7794 25.9444L20.6459 31.6771C21.2315 32.8483 22.3857 33.6292 23.6907 33.7372C24.9957 33.8452 26.2625 33.2647 27.0327 32.2056L30.6766 27.1953L32.0993 28.3808C32.7732 28.9424 33.6227 29.25 34.5 29.25L38.2023 29.25L25.0863 43.0341C24.8018 43.333 24.4067 43.5016 23.994 43.5C23.5813 43.4985 23.1875 43.327 22.9053 43.0259Z" fill="#0078D4"/>
<path d="M19.3416 17.3291C19.0968 16.8395 18.6046 16.5221 18.0575 16.5011C17.5105 16.4801 16.9954 16.7588 16.7138 17.2283L12.6507 23.9999H4.00049C3.17206 23.9999 2.50049 24.6715 2.50049 25.4999C2.50049 26.3284 3.17206 26.9999 4.00049 26.9999H13.5C14.0269 26.9999 14.5152 26.7235 14.7862 26.2717L17.8804 21.1148L22.6589 30.6709C22.8931 31.1394 23.3548 31.4517 23.8768 31.4949C24.3988 31.5381 24.9056 31.3058 25.2136 30.8822L30.2707 23.9281L33.5397 26.6523C33.8093 26.8769 34.1491 26.9999 34.5 26.9999H43.5C44.3284 26.9999 45 26.3284 45 25.4999C45 24.6715 44.3284 23.9999 43.5 23.9999H35.0431L30.9603 20.5977C30.6415 20.332 30.2268 20.2103 29.815 20.2615C29.4032 20.3126 29.0309 20.5322 28.7869 20.8678L24.2386 27.1222L19.3416 17.3291Z" fill="#8DC8E8"/>
</svg>
