<svg width="48" height="48" viewBox="0 0 48 48" fill="none" xmlns="http://www.w3.org/2000/svg">
<path fill-rule="evenodd" clip-rule="evenodd" d="M6 12.25C6 8.79822 8.79822 6 12.25 6H35.75C39.2018 6 42 8.79822 42 12.25V35.75C42 37.1058 41.5683 38.3608 40.8348 39.385L26.475 25.0251C25.1081 23.6583 22.8921 23.6583 21.5252 25.0251L7.16525 39.3851C6.43174 38.3609 6 37.1059 6 35.75V12.25ZM30.5 21.5C32.7091 21.5 34.5 19.7091 34.5 17.5C34.5 15.2909 32.7091 13.5 30.5 13.5C28.2909 13.5 26.5 15.2909 26.5 17.5C26.5 19.7091 28.2909 21.5 30.5 21.5Z" fill="#0078D4"/>
<path d="M39.0024 41.0881L24.7072 26.7929C24.3167 26.4024 23.6835 26.4024 23.293 26.7929L8.99769 41.0882C9.94516 41.6667 11.0587 42 12.25 42H35.75C36.9414 42 38.0549 41.6666 39.0024 41.0881Z" fill="#8DC8E8"/>
</svg>
