<svg width="48" height="48" viewBox="0 0 48 48" fill="none" xmlns="http://www.w3.org/2000/svg">
<path d="M22.5 34.5V36C22.5 36.8284 21.8284 37.5 21 37.5H18V39C18 40.6569 16.6569 42 15 42H9C7.34315 42 6 40.6569 6 39V35.1213C6 34.3257 6.31607 33.5626 6.87868 33L18.4866 21.3921C18.1697 20.3151 18 19.1763 18 18C18 11.3726 23.3726 6 30 6C36.6274 6 42 11.3726 42 18C42 24.6274 36.6274 30 30 30H27V33C27 33.8284 26.3284 34.5 25.5 34.5H22.5ZM33 18C34.6569 18 36 16.6569 36 15C36 13.3431 34.6569 12 33 12C31.3431 12 30 13.3431 30 15C30 16.6569 31.3431 18 33 18Z" fill="#0078D4"/>
</svg>
