<svg width="48" height="48" viewBox="0 0 48 48" fill="none" xmlns="http://www.w3.org/2000/svg">
<path d="M6.85653 14.1429C6.85653 12.0126 8.58343 10.2857 10.7137 10.2857H37.2865C39.4167 10.2857 41.1436 12.0126 41.1436 14.1429V29.5714C41.1436 31.7017 39.4167 33.4286 37.2865 33.4286H10.7137C8.58343 33.4286 6.85653 31.7017 6.85653 29.5714V14.1429ZM4.7143 35.1429C4.00422 35.1429 3.42859 35.7185 3.42859 36.4286C3.42859 37.1387 4.00422 37.7143 4.7143 37.7143H43.2857C43.9958 37.7143 44.5714 37.1387 44.5714 36.4286C44.5714 35.7185 43.9958 35.1429 43.2857 35.1429H4.7143Z" fill="#0078D4"/>
</svg>
