<svg width="48" height="48" viewBox="0 0 48 48" fill="none" xmlns="http://www.w3.org/2000/svg">
<path d="M22.6729 5.05529C24.9659 4.14712 27.4468 5.75979 27.5919 8.17844L13.0116 13.9532C10.9524 14.7687 9.60005 16.7589 9.60005 18.9737V33.3878C7.27288 34.2146 4.80005 32.4903 4.80005 29.9935V16.2112C4.80005 13.7503 6.3027 11.5389 8.59065 10.6328L22.6729 5.05529ZM29.8729 9.85647C32.236 8.92054 34.7986 10.6619 34.7986 13.2035V13.4493L22.2325 18.4263C20.4022 19.1512 19.2 20.9203 19.2 22.889V37.24L16.927 38.1413C14.5637 39.0783 12 37.3369 12 34.7947V20.1969C12 18.2282 13.2022 16.4591 15.0325 15.7342L29.8729 9.85647ZM43.2001 18.0012V33.8968C43.2001 35.3733 42.2985 36.7001 40.9257 37.2438L26.5257 42.9472C24.1626 43.8831 21.6 42.1418 21.6 39.6001V23.7045C21.6 22.228 22.5016 20.9011 23.8744 20.3574L38.2744 14.6541C40.6375 13.7182 43.2001 15.4595 43.2001 18.0012Z" fill="#0078D4"/>
</svg>
