<svg width="48" height="48" viewBox="0 0 48 48" fill="none" xmlns="http://www.w3.org/2000/svg">
<path fill-rule="evenodd" clip-rule="evenodd" d="M36.0164 26.3447C35.6158 26.3813 35.2101 26.4 34.8 26.4C27.5098 26.4 21.6 20.4902 21.6 13.2C21.6 10.0145 22.7283 7.09263 24.6072 4.81214C24.4058 4.80407 24.2034 4.79999 24 4.79999C16.2062 4.79999 9.85849 10.7858 9.6077 18.2615L9.61217 19.2937C9.77435 23.0965 11.5567 26.5967 14.8924 29.7461C15.0964 29.9387 15.2389 30.1839 15.303 30.4525L16.0536 33.6H31.9464L32.7003 30.452L32.7628 30.2556C32.8395 30.0645 32.9578 29.8906 33.1106 29.7462C34.2669 28.6539 35.2364 27.5194 36.0164 26.3447ZM30.4538 39.8522L31.3752 36H16.6272L17.5466 39.8512L17.6368 40.1724C18.216 41.9614 19.9357 43.2 21.9011 43.2L26.4435 43.1873C28.3766 43.044 30.0114 41.7031 30.4538 39.8522Z" fill="#0078D4"/>
<path fill-rule="evenodd" clip-rule="evenodd" d="M45.6 13.2C45.6 19.1647 40.7647 24 34.8 24C28.8353 24 24 19.1647 24 13.2C24 7.23532 28.8353 2.39999 34.8 2.39999C40.7647 2.39999 45.6 7.23532 45.6 13.2ZM38.7515 8.75147C39.2201 8.28284 39.9799 8.28284 40.4485 8.75147C40.9172 9.2201 40.9172 9.97989 40.4485 10.4485L33.2485 17.6485C32.7799 18.1172 32.0201 18.1172 31.5515 17.6485L29.1515 15.2485C28.6828 14.7799 28.6828 14.0201 29.1515 13.5515C29.6201 13.0828 30.3799 13.0828 30.8485 13.5515L32.4 15.1029L38.7515 8.75147Z" fill="#8DC8E8"/>
</svg>
