<svg width="48" height="48" viewBox="0 0 48 48" fill="none" xmlns="http://www.w3.org/2000/svg">
<path fill-rule="evenodd" clip-rule="evenodd" d="M12 16V12.5C12 8.08172 15.5817 4.5 20 4.5C24.4183 4.5 28 8.08172 28 12.5V16H31.25C33.8734 16 36 18.1266 36 20.75V22.0001C35.3004 21.9935 34.5989 22.2523 34.0589 22.7761L34.0516 22.7831L34.0089 22.8237C33.9691 22.8613 33.908 22.9184 33.8296 22.9901C33.6716 23.1344 33.4496 23.3319 33.1955 23.5431C32.6249 24.0172 32.1165 24.3706 31.8402 24.4961C31.4607 24.6684 30.7347 24.8373 29.9068 24.9552C29.5316 25.0086 29.1947 25.0438 28.9527 25.0654C28.8325 25.0761 28.7378 25.0833 28.6759 25.0877C28.645 25.0898 28.6225 25.0913 28.6093 25.0921L28.5979 25.0928C27.1405 25.1736 26 26.3796 26 27.8393V33.25C26 37.796 28.3698 40.9824 30.5224 42.9192C30.9589 43.312 31.3937 43.6608 31.8097 43.9674C31.6262 43.9889 31.4394 44 31.25 44H8.75C6.12665 44 4 41.8734 4 39.25V20.75C4 18.1266 6.12665 16 8.75 16H12ZM25.5 12.5C25.5 9.46243 23.0376 7 20 7C16.9624 7 14.5 9.46243 14.5 12.5V16H25.5V12.5ZM20 33C21.6569 33 23 31.6569 23 30C23 28.3431 21.6569 27 20 27C18.3431 27 17 28.3431 17 30C17 31.6569 18.3431 33 20 33Z" fill="#0078D4"/>
<path d="M28 27.76V33.5002C28 39.9828 34.3142 43.2978 35.7224 43.9565C35.901 44.04 36.0963 44.0401 36.275 43.9569C37.6839 43.301 44 40.0095 44 33.7125V27.7597C44 27.3411 43.6582 27.0032 43.2398 26.9889C42.2779 26.956 40.6126 26.8348 39.4986 26.4002C38.4628 25.996 37.2657 24.9301 36.5745 24.2553C36.2586 23.9469 35.7412 23.9468 35.4252 24.255C34.7333 24.9297 33.5352 25.9959 32.5002 26.4002C31.3868 26.8351 29.722 26.9562 28.7603 26.989C28.3419 27.0033 28 27.3413 28 27.76Z" fill="#8DC8E8"/>
</svg>
