<svg width="48" height="48" viewBox="0 0 48 48" fill="none" xmlns="http://www.w3.org/2000/svg">
<path d="M15 12V15H12.75C9.85051 15 7.5 17.3505 7.5 20.25V39.75C7.5 42.6495 9.85051 45 12.75 45H35.25C38.1495 45 40.5 42.6495 40.5 39.75V20.25C40.5 17.3505 38.1495 15 35.25 15H33V12C33 7.02944 28.9706 3 24 3C19.0294 3 15 7.02944 15 12ZM24 6C27.3137 6 30 8.68629 30 12V15H18V12C18 8.68629 20.6863 6 24 6ZM24 33C22.3431 33 21 31.6569 21 30C21 28.3431 22.3431 27 24 27C25.6569 27 27 28.3431 27 30C27 31.6569 25.6569 33 24 33Z" fill="#0078D4"/>
</svg>
