<svg width="48" height="48" viewBox="0 0 48 48" fill="none" xmlns="http://www.w3.org/2000/svg">
<path d="M22.9963 8H10.5L10.1282 8.01046C6.92864 8.1909 4.34772 10.6854 4.03238 13.8471L24 24.3066L26.6165 22.936C23.7931 20.5513 22 16.9851 22 13C22 11.2282 22.3545 9.53918 22.9963 8Z" fill="#0078D4"/>
<path d="M35 26C38.493 26 41.6642 24.6224 44 22.3809V33.5C44 36.966 41.287 39.7984 37.8688 39.9898L37.5 40H10.5C7.03394 40 4.2015 37.287 4.01028 33.8688L4 33.5V17.216L23.304 27.3288C23.74 27.557 24.26 27.557 24.696 27.3288L29.5298 24.7965C31.1925 25.5689 33.0459 26 35 26Z" fill="#0078D4"/>
<path fill-rule="evenodd" clip-rule="evenodd" d="M35 24C41.0751 24 46 19.0751 46 13C46 6.92487 41.0751 2 35 2C28.9249 2 24 6.92487 24 13C24 19.0751 28.9249 24 35 24ZM35 6C34.4477 6 34 6.44772 34 7V15C34 15.5523 34.4477 16 35 16C35.5523 16 36 15.5523 36 15V7C36 6.44772 35.5523 6 35 6ZM36.25 19C36.25 19.6904 35.6904 20.25 35 20.25C34.3096 20.25 33.75 19.6904 33.75 19C33.75 18.3096 34.3096 17.75 35 17.75C35.6904 17.75 36.25 18.3096 36.25 19Z" fill="#8DC8E8"/>
</svg>
