<svg width="48" height="48" viewBox="0 0 48 48" fill="none" xmlns="http://www.w3.org/2000/svg">
<path d="M30.0581 7.12693C29.8298 7.92327 30.2902 8.75394 31.0865 8.98228C31.8829 9.21063 32.7135 8.75018 32.9419 7.95385L34.1823 3.62817C34.4106 2.83183 33.9502 2.00116 33.1538 1.77282C32.3575 1.54447 31.5268 2.00492 31.2985 2.80126L30.0581 7.12693Z" fill="#8DC8E8"/>
<path d="M43.0607 7.06067C43.6464 6.47489 43.6464 5.52514 43.0607 4.93935C42.4749 4.35357 41.5251 4.35357 40.9393 4.93935L36.4393 9.43935C35.8535 10.0251 35.8535 10.9749 36.4393 11.5607C37.0251 12.1465 37.9749 12.1465 38.5607 11.5607L43.0607 7.06067Z" fill="#8DC8E8"/>
<path d="M40.5 15.003C39.6716 15.003 39 15.6746 39 16.503C39 17.3315 39.6716 18.003 40.5 18.003H45C45.8284 18.003 46.5 17.3315 46.5 16.503C46.5 15.6746 45.8284 15.003 45 15.003H40.5Z" fill="#8DC8E8"/>
<path fill-rule="evenodd" clip-rule="evenodd" d="M32.3886 33.6275L39.5127 30.0655C42.26 28.6919 42.8541 25.0305 40.6822 22.8586L25.1424 7.31877C22.9705 5.14688 19.3091 5.74106 17.9355 8.4883L4.9763 34.4068C4.11008 36.1392 4.44962 38.2316 5.81924 39.6012L8.39979 42.1818C9.76941 43.5514 11.8618 43.8909 13.5942 43.0247L17.6697 40.987C19.1114 43.391 21.7428 45 24.75 45C29.3063 45 33 41.3064 33 36.75C33 35.645 32.7827 34.5907 32.3886 33.6275ZM30 36.75C30 36.1273 29.8916 35.5298 29.6926 34.9756L20.3657 39.639C21.3049 41.0615 22.9178 42 24.75 42C27.6495 42 30 39.6495 30 36.75Z" fill="#0078D4"/>
</svg>
