<svg width="48" height="48" viewBox="0 0 48 48" fill="none" xmlns="http://www.w3.org/2000/svg">
<path d="M6 14C6 12.8954 6.89543 12 8 12H13.5147C15.6364 12 17.6713 12.8429 19.1716 14.3431L25.0711 20.2426C26.1963 21.3679 27.7224 22 29.3137 22H37.1686L30.5863 15.4225C29.805 14.6418 29.8045 13.3754 30.5853 12.5941C31.366 11.8128 32.6324 11.8123 33.4137 12.5931L43.4137 22.5858C43.789 22.9608 43.9999 23.4696 44 24.0002C44.0001 24.5307 43.7894 25.0396 43.4142 25.4147L33.4142 35.4147C32.6332 36.1958 31.3668 36.1958 30.5858 35.4147C29.8047 34.6337 29.8047 33.3674 30.5858 32.5863L37.1716 26.0005H29.2348C27.6721 26.021 26.1777 26.6507 25.0711 27.7574L19.1716 33.6569C17.6713 35.1571 15.6364 36 13.5147 36H8C6.89543 36 6 35.1046 6 34C6 32.8954 6.89543 32 8 32H13.5147C14.5756 32 15.593 31.5786 16.3431 30.8284L22.2426 24.9289C22.5792 24.5924 22.9373 24.2823 23.3136 24C22.9373 23.7177 22.5792 23.4076 22.2426 23.0711L16.3431 17.1716C15.593 16.4214 14.5756 16 13.5147 16H8C6.89543 16 6 15.1046 6 14Z" fill="#0078D4"/>
</svg>
