<svg width="48" height="48" viewBox="0 0 48 48" fill="none" xmlns="http://www.w3.org/2000/svg">
<path d="M10.875 3C8.18261 3 6 5.18261 6 7.875V40.125C6 42.8174 8.18261 45 10.875 45H35.625C38.3174 45 40.5 42.8174 40.5 40.125V7.875C40.5 5.18261 38.3174 3 35.625 3H10.875ZM15 10.5H31.5C32.3284 10.5 33 11.1716 33 12V15C33 15.8284 32.3284 16.5 31.5 16.5H15C14.1716 16.5 13.5 15.8284 13.5 15V12C13.5 11.1716 14.1716 10.5 15 10.5ZM42 12H43.875C44.4963 12 45 12.5037 45 13.125V16.875C45 17.4963 44.4963 18 43.875 18H42V12ZM43.875 21H42V27H43.875C44.4963 27 45 26.4963 45 25.875V22.125C45 21.5037 44.4963 21 43.875 21ZM42 30H43.875C44.4963 30 45 30.5037 45 31.125V34.875C45 35.4963 44.4963 36 43.875 36H42V30Z" fill="#0078D4"/>
</svg>
