<svg width="48" height="48" viewBox="0 0 48 48" fill="none" xmlns="http://www.w3.org/2000/svg">
<path fill-rule="evenodd" clip-rule="evenodd" d="M10.5 8C6.91015 8 4 10.9101 4 14.5V33.5C4 37.0899 6.91015 40 10.5 40H22.3982C22.5612 39.6881 22.7717 39.3999 23.0251 39.1464L25.1716 37H19V21H41V22.223C42.0881 22.4699 43.1012 22.9139 44 23.5155V14.5C44 10.9101 41.0899 8 37.5 8H10.5ZM41 18H19V11H37.5C39.433 11 41 12.567 41 14.5V18Z" fill="#0078D4"/>
<path fill-rule="evenodd" clip-rule="evenodd" d="M39 38C42.866 38 46 34.866 46 31C46 27.134 42.866 24 39 24C35.134 24 32 27.134 32 31C32 31.6321 32.0838 32.2447 32.2409 32.8272C32.1332 32.8904 32.0317 32.9683 31.9393 33.0607L24.4393 40.5607C24.158 40.842 24 41.2235 24 41.6213V44.5C24 45.3284 24.6716 46 25.5 46H29C29.5523 46 30 45.5523 30 45V44H32C32.5523 44 33 43.5523 33 43V41H35C35.5523 41 36 40.5523 36 40V38H39ZM40 32C41.1046 32 42 31.1046 42 30C42 28.8954 41.1046 28 40 28C38.8954 28 38 28.8954 38 30C38 31.1046 38.8954 32 40 32Z" fill="#8DC8E8"/>
</svg>
