<svg width="48" height="48" viewBox="0 0 48 48" fill="none" xmlns="http://www.w3.org/2000/svg">
<path fill-rule="evenodd" clip-rule="evenodd" d="M24 14.5714C24 18.8319 20.5462 22.2857 16.2857 22.2857C12.0252 22.2857 8.57145 18.8319 8.57145 14.5714C8.57145 10.311 12.0252 6.85715 16.2857 6.85715C20.5462 6.85715 24 10.311 24 14.5714ZM34.2857 22.2857C37.5994 22.2857 40.2857 19.5994 40.2857 16.2857C40.2857 12.972 37.5994 10.2857 34.2857 10.2857C30.972 10.2857 28.2857 12.972 28.2857 16.2857C28.2857 19.5994 30.972 22.2857 34.2857 22.2857ZM7.28573 25.7143C5.15549 25.7143 3.42859 27.4412 3.42859 29.5714V30.4286C3.42859 30.4286 3.42859 39.4286 16.2857 39.4286C18.9369 39.4286 21.0414 39.0459 22.712 38.4384C22.4339 37.3866 22.2857 36.282 22.2857 35.1429C22.2857 31.4838 23.8143 28.1817 26.2676 25.8404C25.9541 25.7581 25.625 25.7143 25.2857 25.7143H7.28573Z" fill="#0078D4"/>
<path fill-rule="evenodd" clip-rule="evenodd" d="M28.7935 28.6259C29.3331 30.4949 28.2113 32.438 26.3229 32.9052L24.5683 33.3393C24.4764 33.9265 24.4286 34.5291 24.4286 35.1433C24.4286 35.7859 24.4809 36.4159 24.5813 37.0287L26.2537 37.4315C28.1609 37.8908 29.2946 39.8536 28.7394 41.7351L28.1842 43.6165C29.0723 44.406 30.086 45.0473 31.1898 45.5032L32.6345 43.984C33.9863 42.5624 36.2531 42.5628 37.6044 43.9848L39.061 45.5176C40.1627 45.0672 41.1753 44.4325 42.0637 43.6499L41.4897 41.6617C40.9501 39.7927 42.0719 37.8497 43.9603 37.3825L45.7174 36.9478C45.8094 36.3605 45.8572 35.7577 45.8572 35.1433C45.8572 34.5013 45.805 33.8719 45.7047 33.2596L44.0295 32.8562C42.1223 32.3969 40.9886 30.434 41.5438 28.5526L42.0997 26.6686C41.2118 25.8795 40.1984 25.2386 39.0949 24.783L37.6487 26.3037C36.2969 27.7253 34.0302 27.7249 32.6788 26.3029L31.2222 24.7701C30.1206 25.2208 29.108 25.8559 28.2198 26.6387L28.7935 28.6259ZM32.5714 35.1433C32.5714 36.5635 33.7227 37.7148 35.1429 37.7148C36.563 37.7148 37.7143 36.5635 37.7143 35.1433C37.7143 33.7232 36.563 32.5719 35.1429 32.5719C33.7227 32.5719 32.5714 33.7232 32.5714 35.1433Z" fill="#8DC8E8"/>
</svg>
