<svg width="48" height="48" viewBox="0 0 48 48" fill="none" xmlns="http://www.w3.org/2000/svg">
<path d="M37 8C39.7614 8 42 10.2386 42 13C42 15.7614 39.7614 18 37 18C34.2386 18 32 15.7614 32 13C32 10.2386 34.2386 8 37 8Z" fill="#8DC8E8"/>
<path d="M24 6C27.3137 6 30 8.68629 30 12C30 15.3137 27.3137 18 24 18C20.6863 18 18 15.3137 18 12C18 8.68629 20.6863 6 24 6Z" fill="#8DC8E8"/>
<path d="M44 23.5C44 21.567 42.433 20 40.5 20L33.7493 19.9981C34.5356 20.9493 35.008 22.1695 35.008 23.5V26H35V32H42.5C43.3284 32 44 31.3284 44 30.5V23.5Z" fill="#8DC8E8"/>
<path d="M29.508 20C31.441 20 33.008 21.567 33.008 23.5V30H33V32H15V26H15.0039V23.5C15.0039 21.567 16.5709 20 18.5039 20H29.508Z" fill="#8DC8E8"/>
<path d="M13 30H13.0039V23.5L13.0211 23.0608C13.1127 21.9017 13.5637 20.8436 14.2626 19.9981L7.5 20L7.21295 20.0116C5.41422 20.1576 4 21.6637 4 23.5V30.5C4 31.3284 4.67157 32 5.5 32H13V30Z" fill="#8DC8E8"/>
<path d="M11 8C13.7614 8 16 10.2386 16 13C16 15.7614 13.7614 18 11 18C8.23858 18 6 15.7614 6 13C6 10.2386 8.23858 8 11 8Z" fill="#8DC8E8"/>
<path d="M4 35.5C4 34.6716 4.67157 34 5.5 34H42.5C43.3284 34 44 34.6716 44 35.5V36.5C44 40.6421 40.6421 44 36.5 44H11.5C7.35787 44 4 40.6421 4 36.5V35.5Z" fill="#0078D4"/>
</svg>
