<svg width="48" height="48" viewBox="0 0 48 48" fill="none" xmlns="http://www.w3.org/2000/svg">
<path fill-rule="evenodd" clip-rule="evenodd" d="M26 28.0004V28.1006C23.7178 28.5639 22 30.5817 22 33.0006V43.0005C22 43.3189 22.0298 43.6305 22.0867 43.9324C21.4111 43.9792 20.7157 44.0027 20.0007 44.0027C13.1588 44.0027 8.11287 41.8583 5.02855 37.5297C4.36462 36.5979 4.00781 35.4822 4.00781 34.3381V32.4981C4.00781 30.0141 6.02153 28.0004 8.50557 28.0004H26ZM30.0007 14.0098C30.0007 8.48692 25.5236 4.00977 20.0007 4.00977C14.4779 4.00977 10.0007 8.48692 10.0007 14.0098C10.0007 19.5326 14.4779 24.0098 20.0007 24.0098C25.5236 24.0098 30.0007 19.5326 30.0007 14.0098Z" fill="#0078D4"/>
<path fill-rule="evenodd" clip-rule="evenodd" d="M28 30.0006H27C25.3431 30.0006 24 31.3438 24 33.0006V43.0005C24 44.6573 25.3431 46.0005 27 46.0005H43C44.6569 46.0005 46 44.6573 46 43.0005V33.0006C46 31.3438 44.6569 30.0006 43 30.0006H42V27.5005C42 25.5675 40.4331 24.0005 38.5001 24.0005H31.5C29.567 24.0005 28 25.5675 28 27.5005V30.0006ZM31.5 27.0005C31.2239 27.0005 31 27.2243 31 27.5005V30.0006H39V27.5005C39 27.2243 38.7762 27.0005 38.5001 27.0005H31.5Z" fill="#8DC8E8"/>
</svg>
