<svg width="48" height="48" viewBox="0 0 48 48" fill="none" xmlns="http://www.w3.org/2000/svg">
<path fill-rule="evenodd" clip-rule="evenodd" d="M24 4.79999C18.698 4.79999 14.4 9.09805 14.4 14.4C14.4 19.7019 18.698 24 24 24C26.2923 24 28.3969 23.1965 30.0477 21.8559C30.1354 21.7796 30.224 21.705 30.3135 21.632C32.3276 19.8722 33.5999 17.2847 33.5999 14.4C33.5999 9.09805 29.3019 4.79999 24 4.79999ZM12.0209 26.4L26.9427 26.4C26.2831 28.2544 26.1441 30.2517 26.5242 32.1647L20.9626 37.7262C19.5737 39.1151 19.0056 41.014 19.2583 42.8201C16.6475 42.3803 14.2712 41.5534 12.3239 40.3118C9.19869 38.3191 7.19995 35.2589 7.19995 31.2C7.19995 28.5285 9.36751 26.4 12.0209 26.4Z" fill="#0078D4"/>
<path d="M38.1397 21.657C39.0197 21.7594 39.2715 22.8116 38.645 23.438L36.3047 25.7783C34.8917 27.1913 34.8917 29.4822 36.3047 30.8952C37.7177 32.3082 40.0086 32.3082 41.4216 30.8952L43.7619 28.5549C44.3884 27.9284 45.4405 28.1802 45.543 29.0603C45.8312 31.5352 45.0259 34.1134 43.1272 36.0121C40.7458 38.3935 37.2957 39.0548 34.3208 37.996L27.7766 44.5402C26.3636 45.9532 24.0727 45.9532 22.6597 44.5402C21.2467 43.1273 21.2467 40.8364 22.6597 39.4234L29.2039 32.8792C28.1451 29.9042 28.8065 26.4541 31.1879 24.0727C33.0866 22.174 35.6647 21.3687 38.1397 21.657Z" fill="#8DC8E8"/>
</svg>
