<svg width="48" height="48" viewBox="0 0 48 48" fill="none" xmlns="http://www.w3.org/2000/svg">
<path fill-rule="evenodd" clip-rule="evenodd" d="M14.4 14.4C14.4 9.09805 18.698 4.79999 24 4.79999C29.3019 4.79999 33.6 9.09805 33.6 14.4C33.6 19.7019 29.3019 24 24 24C18.698 24 14.4 19.7019 14.4 14.4ZM7.19995 31.2C7.19995 28.5285 9.36751 26.4 12.0209 26.4L22.2421 26.4C21.8337 27.106 21.6 27.9257 21.6 28.8V38.4C21.6 40.8211 23.3924 42.8235 25.7227 43.1526C25.1547 43.1843 24.5799 43.2 24 43.2C19.5486 43.2 15.4007 42.2736 12.3239 40.3118C9.19869 38.3191 7.19995 35.2589 7.19995 31.2Z" fill="#0078D4"/>
<path d="M24 28.8C24 27.4745 25.0745 26.4 26.4 26.4H43.2C44.5254 26.4 45.6 27.4745 45.6 28.8V38.4C45.6 39.7255 44.5254 40.8 43.2 40.8H38.4V43.2H39.6C40.2627 43.2 40.8 43.7372 40.8 44.4C40.8 45.0627 40.2627 45.6 39.6 45.6H30C29.3372 45.6 28.8 45.0627 28.8 44.4C28.8 43.7372 29.3372 43.2 30 43.2H31.2V40.8H26.4C25.0745 40.8 24 39.7255 24 38.4V28.8Z" fill="#8DC8E8"/>
</svg>
