<svg width="48" height="48" viewBox="0 0 48 48" fill="none" xmlns="http://www.w3.org/2000/svg">
<path d="M6 12.5V35.5C6 39.0899 8.91015 42 12.5 42H35.5C39.0899 42 42 39.0899 42 35.5V12.5C42 8.91015 39.0899 6 35.5 6H12.5C8.91015 6 6 8.91015 6 12.5ZM31 24C32.6569 24 34 25.3431 34 27V28C34 31.9429 30.281 36 24 36C17.719 36 14 31.9429 14 28V27C14 25.3431 15.3431 24 17 24H31ZM24 11C27.0376 11 29.5 13.4624 29.5 16.5C29.5 19.5376 27.0376 22 24 22C20.9624 22 18.5 19.5376 18.5 16.5C18.5 13.4624 20.9624 11 24 11Z" fill="#0078D4"/>
</svg>
