<svg width="48" height="48" viewBox="0 0 48 48" fill="none" xmlns="http://www.w3.org/2000/svg">
<path fill-rule="evenodd" clip-rule="evenodd" d="M25.5242 33.4078C28.1353 32.7408 29.6857 30.0555 28.9578 27.4607L28.5829 26.1244C29.1927 25.6557 29.8537 25.2542 30.5555 24.9305L31.3651 25.7896C33.2586 27.7987 36.4524 27.8003 38.348 25.7932L39.1272 24.9682C39.8419 25.3054 40.5134 25.7237 41.1308 26.2115L40.8279 27.225C40.0375 29.8702 41.6359 32.6353 44.3225 33.2705L45.1601 33.4686C45.2119 33.9047 45.2386 34.349 45.2386 34.7997C45.2386 35.1741 45.2202 35.544 45.1843 35.9086L44.079 36.1909C41.4679 36.8579 39.9175 39.5433 40.6454 42.1381L41.0202 43.474C40.4104 43.9428 39.7495 44.3445 39.0477 44.6683L38.238 43.8092C36.3446 41.8001 33.1507 41.7984 31.2552 43.8055L30.4752 44.6314C29.7606 44.2942 29.0893 43.8762 28.472 43.3885L28.7753 42.3737C29.5657 39.7286 27.9673 36.9635 25.2807 36.3282L24.4417 36.1299C24.39 35.694 24.3633 35.25 24.3633 34.7997C24.3633 34.4252 24.3818 34.0552 24.4177 33.6905L25.5242 33.4078ZM34.801 32.3997C36.1265 32.3997 37.201 33.4742 37.201 34.7997C37.201 36.1251 36.1265 37.1997 34.801 37.1997C33.4755 37.1997 32.401 36.1251 32.401 34.7997C32.401 33.4742 33.4755 32.3997 34.801 32.3997Z" fill="#8DC8E8"/>
<path d="M9.62099 26.4C6.96761 26.4 4.80005 28.5285 4.80005 31.2C4.80005 35.2589 6.79879 38.3191 9.92403 40.3118C13.0008 42.2736 17.1487 43.2 21.6 43.2C22.5861 43.2 23.5573 43.1546 24.5052 43.0625C22.6876 40.8007 21.6 37.9274 21.6 34.8C21.6 31.6089 22.7324 28.6823 24.6172 26.4L9.62099 26.4Z" fill="#0078D4"/>
<path d="M21.6 4.8C16.2981 4.8 12 9.09807 12 14.4C12 19.7019 16.2981 24 21.6 24C26.902 24 31.2001 19.7019 31.2001 14.4C31.2001 9.09807 26.902 4.8 21.6 4.8Z" fill="#0078D4"/>
</svg>
