<svg width="48" height="48" viewBox="0 0 48 48" fill="none" xmlns="http://www.w3.org/2000/svg">
<path fill-rule="evenodd" clip-rule="evenodd" d="M13.5 7.5C11.0147 7.5 9 9.51472 9 12V12.189C9.47943 12.0656 9.98205 12 10.5 12H18C22.1421 12 25.5 15.3579 25.5 19.5V31.5H37.5C39.9853 31.5 42 29.4853 42 27V12C42 9.51472 39.9853 7.5 37.5 7.5H13.5ZM25.4993 37.5H43.4993C44.3277 37.5 44.9993 36.8284 44.9993 36C44.9993 35.1716 44.3277 34.5 43.4993 34.5H25.4993V37.5Z" fill="#0078D4"/>
<path fill-rule="evenodd" clip-rule="evenodd" d="M9 15C6.51472 15 4.5 17.0147 4.5 19.5V37.5C4.5 39.9853 6.51472 42 9 42H18C20.4853 42 22.5 39.9853 22.5 37.5V19.5C22.5 17.0147 20.4853 15 18 15H9ZM12 36C12 36.8284 12.6716 37.5 13.5 37.5C14.3284 37.5 15 36.8284 15 36C15 35.1716 14.3284 34.5 13.5 34.5C12.6716 34.5 12 35.1716 12 36Z" fill="#8DC8E8"/>
</svg>
