<svg width="48" height="48" viewBox="0 0 48 48" fill="none" xmlns="http://www.w3.org/2000/svg">
<path d="M31.5 4C33.9853 4 36 6.01472 36 8.5V39.5C36 41.9853 33.9853 44 31.5 44H16.5C14.0147 44 12 41.9853 12 39.5V8.5C12 6.01472 14.0147 4 16.5 4H31.5ZM24 14.0618L23.7965 14.0755L23.6012 14.1154C23.0369 14.2706 22.6057 14.7473 22.5169 15.3361L22.5 15.5618L22.4987 28.9838L20.5773 27.0616L20.4091 26.9164C19.8219 26.4807 18.9885 26.5291 18.456 27.0616C17.9235 27.5941 17.8751 28.4275 18.3108 29.0147L18.456 29.1829L22.9393 33.6663L23.0436 33.7613L23.1534 33.844L23.3071 33.9364L23.5303 34.0306L23.7229 34.0801L23.9064 34.1027H24.0936L24.2786 34.0797L24.4038 34.0506L24.6052 33.9785L24.7262 33.9184L24.8593 33.8354L24.9843 33.7375L25.0607 33.6663L29.544 29.1829L29.6892 29.0147C30.0765 28.4927 30.0813 27.7763 29.7036 27.2495L29.544 27.0616L29.3758 26.9164C28.8538 26.5291 28.1374 26.5243 27.6106 26.902L27.4227 27.0616L25.4987 28.9838L25.5 15.5618L25.4863 15.3583C25.396 14.6927 24.8691 14.1658 24.2035 14.0755L24 14.0618Z" fill="#0078D4"/>
</svg>
