<svg width="48" height="48" viewBox="0 0 48 48" fill="none" xmlns="http://www.w3.org/2000/svg">
<path fill-rule="evenodd" clip-rule="evenodd" d="M43.9896 12.1919C43.8313 9.85032 41.8817 8 39.5 8H16.5L16.1719 8.01177C14.0055 8.16785 12.2638 9.85764 12.0273 12.0009L17 12L17.3287 12.0106C19.9369 12.1799 22 14.349 22 17L21.9993 34H39.5L39.8081 33.9896C42.1496 33.8313 44 31.8817 44 29.5V12.5L43.9896 12.1919ZM25.5 27H30.5L30.7035 27.0137C31.4357 27.113 32 27.7406 32 28.5C32 29.3284 31.3284 30 30.5 30H25.5L25.2964 29.9863C24.5643 29.887 24 29.2594 24 28.5C24 27.6716 24.6715 27 25.5 27Z" fill="#0078D4"/>
<path fill-rule="evenodd" clip-rule="evenodd" d="M16.5101 13.9997C18.4431 13.9997 20.0101 15.5667 20.0101 17.4997V36.5C20.0101 38.433 18.4431 40 16.5101 40H7.50122C5.56822 40 4.00122 38.433 4.00122 36.5V17.4997C4.00122 15.5667 5.56822 13.9997 7.50122 13.9997H16.5101ZM11.5057 32.9903H12.5057L12.7092 33.004C13.4413 33.1033 14.0057 33.7309 14.0057 34.4903C14.0057 35.2497 13.4413 35.8773 12.7092 35.9766L12.5057 35.9903H11.5057L11.3021 35.9766C10.57 35.8773 10.0057 35.2497 10.0057 34.4903C10.0057 33.7309 10.57 33.1033 11.3021 33.004L11.5057 32.9903Z" fill="#8DC8E8"/>
</svg>
