<svg width="48" height="48" viewBox="0 0 48 48" fill="none" xmlns="http://www.w3.org/2000/svg">
<path fill-rule="evenodd" clip-rule="evenodd" d="M40.4898 25.9933C41.9074 25.9933 42.5339 27.7781 41.4273 28.6641L31.9916 36.2196V39.5083C31.9916 41.9935 29.9769 44.0083 27.4916 44.0083H20.5009C18.0156 44.0083 16.0009 41.9935 16.0009 39.5083V36.2198L6.5617 28.6643C5.45489 27.7784 6.08134 25.9933 7.49906 25.9933H40.4898Z" fill="#0078D4"/>
<path d="M17.5009 17.9991H30.4903C32.3266 17.9991 33.8327 19.4133 33.9787 21.212L33.9903 21.4991V23.9991H14.0009V21.4991C14.0009 19.6627 15.4151 18.1567 17.2138 18.0107L17.5009 17.9991Z" fill="#8DC8E8"/>
<path d="M24.0009 4C27.3146 4 30.0009 6.68629 30.0009 10C30.0009 13.3137 27.3146 16 24.0009 16C20.6872 16 18.0009 13.3137 18.0009 10C18.0009 6.68629 20.6872 4 24.0009 4Z" fill="#8DC8E8"/>
</svg>
