<svg width="48" height="48" viewBox="0 0 48 48" fill="none" xmlns="http://www.w3.org/2000/svg">
<path d="M31.6566 10.4037L34.2808 7.7795C26.8567 3.06427 16.9015 3.94561 10.4235 10.4235C2.92547 17.9216 2.92547 30.0784 10.4235 37.5764C17.9216 45.0745 30.0784 45.0745 37.5764 37.5764C38.2794 36.8735 38.2794 35.7338 37.5764 35.0308C36.8735 34.3279 35.7338 34.3279 35.0309 35.0308C28.9387 41.123 19.0613 41.123 12.9691 35.0308C6.87694 28.9387 6.87694 19.0613 12.9691 12.9691C18.0324 7.90587 25.7102 7.05072 31.6566 10.4037Z" fill="#0078D4"/>
<path d="M41.4 16.2C41.4 17.1941 40.5941 18 39.6 18C38.6059 18 37.8 17.1941 37.8 16.2C37.8 15.2059 38.6059 14.4 39.6 14.4C40.5941 14.4 41.4 15.2059 41.4 16.2Z" fill="#0078D4"/>
<path d="M41.4 28.8C42.3941 28.8 43.2 27.9941 43.2 27C43.2 26.0059 42.3941 25.2 41.4 25.2C40.4059 25.2 39.6 26.0059 39.6 27C39.6 27.9941 40.4059 28.8 41.4 28.8Z" fill="#0078D4"/>
<path d="M43.2 21C43.2 21.9941 42.3941 22.8 41.4 22.8C40.4059 22.8 39.6 21.9941 39.6 21C39.6 20.0059 40.4059 19.2 41.4 19.2C42.3941 19.2 43.2 20.0059 43.2 21Z" fill="#0078D4"/>
<path d="M41.4 31.8C41.4 32.7941 40.5941 33.6 39.6 33.6C38.6059 33.6 37.8 32.7941 37.8 31.8C37.8 30.8059 38.6059 30 39.6 30C40.5941 30 41.4 30.8059 41.4 31.8Z" fill="#0078D4"/>
<path d="M37.8728 10.1272C38.5757 10.8301 38.5757 11.9698 37.8728 12.6728L27.4781 23.0675C27.5576 23.3649 27.6 23.6775 27.6 24C27.6 25.9882 25.9882 27.6 24 27.6C22.0118 27.6 20.4 25.9882 20.4 24C20.4 22.0118 22.0118 20.4 24 20.4C24.3225 20.4 24.6351 20.4424 24.9325 20.5219L35.3272 10.1272C36.0301 9.42425 37.1698 9.42425 37.8728 10.1272Z" fill="#8DC8E8"/>
<path d="M26.3704 15.6899L29.1621 12.8981C24.6332 10.7927 19.0817 11.6083 15.345 15.345C10.565 20.125 10.565 27.875 15.345 32.655C20.125 37.435 27.875 37.435 32.655 32.655C33.3579 31.952 33.3579 30.8123 32.655 30.1094C31.952 29.4064 30.8123 29.4064 30.1094 30.1094C26.7353 33.4835 21.2647 33.4835 17.8906 30.1094C14.5165 26.7353 14.5165 21.2647 17.8906 17.8906C20.1868 15.5944 23.4539 14.8608 26.3704 15.6899Z" fill="#8DC8E8"/>
<path d="M34.2 22.8C35.1941 22.8 36 21.9941 36 21C36 20.0059 35.1941 19.2 34.2 19.2C33.2059 19.2 32.4 20.0059 32.4 21C32.4 21.9941 33.2059 22.8 34.2 22.8Z" fill="#8DC8E8"/>
<path d="M36 27C36 27.9941 35.1941 28.8 34.2 28.8C33.2059 28.8 32.4 27.9941 32.4 27C32.4 26.0059 33.2059 25.2 34.2 25.2C35.1941 25.2 36 26.0059 36 27Z" fill="#8DC8E8"/>
</svg>
