<svg width="48" height="48" viewBox="0 0 48 48" fill="none" xmlns="http://www.w3.org/2000/svg">
<path d="M4.5 9.375C4.5 6.68261 6.68261 4.5 9.375 4.5H29.625C32.3174 4.5 34.5 6.68261 34.5 9.375V28.5H43.5V36.75C43.5 40.4779 40.4779 43.5 36.75 43.5H11.25C7.52208 43.5 4.5 40.4779 4.5 36.75V9.375ZM34.5 40.5H36.75C38.8211 40.5 40.5 38.8211 40.5 36.75V31.5H34.5V40.5ZM12 15C12 15.8284 12.6716 16.5 13.5 16.5H25.5C26.3284 16.5 27 15.8284 27 15C27 14.1716 26.3284 13.5 25.5 13.5H13.5C12.6716 13.5 12 14.1716 12 15ZM13.5 22.5C12.6716 22.5 12 23.1716 12 24C12 24.8284 12.6716 25.5 13.5 25.5H25.5C26.3284 25.5 27 24.8284 27 24C27 23.1716 26.3284 22.5 25.5 22.5H13.5ZM12 33C12 33.8284 12.6716 34.5 13.5 34.5H19.5C20.3284 34.5 21 33.8284 21 33C21 32.1716 20.3284 31.5 19.5 31.5H13.5C12.6716 31.5 12 32.1716 12 33Z" fill="#0078D4"/>
</svg>
