<svg width="48" height="48" viewBox="0 0 48 48" fill="none" xmlns="http://www.w3.org/2000/svg">
<path d="M34.0018 42.4902L34.0032 30.4882C31.2635 32.6855 27.7853 34 24 34C20.2169 34 16.7404 32.687 14.0014 30.4919L14.005 42.4902C14.005 43.7057 15.3749 44.4165 16.3687 43.7166L24.0015 38.3413L31.6384 43.7168C32.6322 44.4164 34.0018 43.7056 34.0018 42.4902Z" fill="#0078D4"/>
<path fill-rule="evenodd" clip-rule="evenodd" d="M38 18C38 10.268 31.732 4 24 4C16.268 4 10 10.268 10 18C10 25.732 16.268 32 24 32C31.732 32 38 25.732 38 18ZM26.2827 14.99L24.4577 11.2847C24.2707 10.9051 23.7295 10.9051 23.5425 11.2847L21.7175 14.99L17.6296 15.5807C17.2108 15.6412 17.0435 16.156 17.3468 16.4511L20.3068 19.3318L19.6053 23.4022C19.5335 23.8192 19.9713 24.1373 20.3457 23.9401L24.0001 22.0152L27.6545 23.9401C28.0287 24.1372 28.4664 23.8195 28.395 23.4026L27.697 19.3318L30.6537 16.4509C30.9566 16.1557 30.7893 15.6412 30.3707 15.5807L26.2827 14.99Z" fill="#8DC8E8"/>
</svg>
