<svg width="48" height="48" viewBox="0 0 48 48" fill="none" xmlns="http://www.w3.org/2000/svg">
<path d="M34.0032 30.4882L34.0018 42.4902C34.0018 43.7056 32.6322 44.4164 31.6384 43.7168L24.0015 38.3413L16.3687 43.7166C15.3749 44.4165 14.005 43.7057 14.005 42.4902L14.0014 30.4919C16.7404 32.687 20.2169 34 24 34C27.7853 34 31.2635 32.6855 34.0032 30.4882Z" fill="#0078D4"/>
<path d="M24 4C31.732 4 38 10.268 38 18C38 25.732 31.732 32 24 32C16.268 32 10 25.732 10 18C10 10.268 16.268 4 24 4Z" fill="#8DC8E8"/>
</svg>
