<svg width="48" height="48" viewBox="0 0 48 48" fill="none" xmlns="http://www.w3.org/2000/svg">
<path d="M22.156 3C21.1653 3 20.2912 3.64798 20.0032 4.59587L14.1073 24H25.5C26.3284 24 27 24.6716 27 25.5C27 26.3284 26.3284 27 25.5 27H13.1958L11.9804 31H27.75C28.5784 31 29.25 31.6716 29.25 32.5C29.25 33.3285 28.5784 34 27.75 34H11.25C11.1898 34 11.1304 33.9965 11.072 33.9896L8.63806 42H4.5C3.67157 42 3 42.6716 3 43.5C3 44.3284 3.67157 45 4.5 45H43.5C44.3284 45 45 44.3284 45 43.5C45 42.6716 44.3284 42 43.5 42H39.3619L27.9969 4.59588C27.7089 3.64798 26.8348 3 25.8441 3H22.156Z" fill="#0078D4"/>
</svg>
