<svg width="48" height="48" viewBox="0 0 48 48" fill="none" xmlns="http://www.w3.org/2000/svg">
<path d="M38.997 3C39.237 3 39.507 3.03 39.747 3.06C40.017 3.09 40.257 3.15 40.497 3.21C38.097 3.84 36.297 5.88 36.057 8.4C36.0297 8.6771 36.0142 8.78087 36.0063 8.83362C36.0029 8.85625 36.0009 8.86949 36 8.883V40.5C36 42.984 33.981 45 31.5 45C29.019 45 27 42.981 27 40.5V36C27 34.344 25.656 33 24 33H9V10.5C9 6.357 12.357 3 16.5 3H38.997ZM24 36V40.5C24 42.195 24.588 43.743 25.539 45H24.834C21.0687 45 18.0081 45.0037 15.5158 45.0068L16.65 45.009C12.672 45.015 10.44 45.018 9.15 45H9C5.685 45 3 42.315 3 39V37.5C3 36.672 3.672 36 4.5 36H24ZM42 6C41.46 6 40.95 6.15 40.5 6.42C39.6 6.93 39 7.89 39 9V15H42C43.65 15 45 13.65 45 12V9C45 7.35 43.65 6 42 6Z" fill="#0078D4"/>
</svg>
