<svg width="48" height="48" viewBox="0 0 48 48" fill="none" xmlns="http://www.w3.org/2000/svg">
<path d="M40.9924 11.2534C42.7441 11.869 44 13.5378 44 15.5V35.5C44 40.1944 40.1944 44 35.5 44H15.5C13.5378 44 11.869 42.7441 11.2534 40.9924L15.4479 40.9991L35.5 41C38.5376 41 41 38.5376 41 35.5V15.5L40.992 15.398L40.9924 11.2534Z" fill="#8DC8E8"/>
<path fill-rule="evenodd" clip-rule="evenodd" d="M34.4936 4C36.9789 4 38.9936 6.01472 38.9936 8.5V34.4936C38.9936 36.9789 36.9789 38.9936 34.4936 38.9936H8.5C6.01472 38.9936 4 36.9789 4 34.4936V8.5C4 6.01472 6.01472 4 8.5 4H34.4936ZM19.1623 22.7164L26.9393 14.9393C27.5251 14.3536 28.4749 14.3536 29.0607 14.9393C29.6464 15.5251 29.6464 16.4749 29.0607 17.0607L20.0607 26.0607C19.4152 26.7061 18.3477 26.6303 17.8 25.9L14.8 21.9C14.3029 21.2373 14.4373 20.2971 15.1 19.8C15.7627 19.3029 16.7029 19.4373 17.2 20.1L19.1623 22.7164Z" fill="#0078D4"/>
</svg>
