<svg width="48" height="48" viewBox="0 0 48 48" fill="none" xmlns="http://www.w3.org/2000/svg">
<path fill-rule="evenodd" clip-rule="evenodd" d="M15.2473 4.27084C16.1386 4.09303 17.0593 4 18.0002 4C18.9477 4 19.8746 4.09433 20.7717 4.27458C21.3682 4.39443 21.8332 4.86271 21.9489 5.46003L22.668 9.17363C22.7258 9.47219 23.0345 9.65043 23.322 9.55122L26.8911 8.31943C27.4659 8.12106 28.1035 8.2893 28.5056 8.7454C29.7225 10.1257 30.6725 11.7491 31.2731 13.5348C31.4669 14.1111 31.2937 14.7473 30.8346 15.1458L27.9818 17.6219C27.7522 17.8213 27.7522 18.1778 27.9818 18.3771L30.8348 20.8535C31.2939 21.2519 31.4671 21.8881 31.2734 22.4643C30.6729 24.25 29.7231 25.8734 28.5064 27.2538C28.1043 27.7099 27.4666 27.8782 26.8918 27.6798L23.322 26.4478C23.0345 26.3486 22.7258 26.5268 22.668 26.8254L21.9487 30.54C21.833 31.1373 21.368 31.6056 20.7715 31.7255C19.8745 31.9057 18.9476 32 18.0002 32C17.0594 32 16.1388 31.907 15.2475 31.7292C14.6501 31.61 14.1842 31.1414 14.0683 30.5433L13.3484 26.8254C13.2906 26.5268 12.9819 26.3486 12.6944 26.4478L9.11235 27.6841C8.53777 27.8824 7.90032 27.7143 7.49818 27.2585C6.2822 25.8803 5.33241 24.2594 4.73107 22.4764C4.53663 21.8999 4.70969 21.263 5.16916 20.8642L8.03454 18.3771C8.26421 18.1778 8.26421 17.8213 8.03454 17.6219L5.16942 15.135C4.70992 14.7362 4.53687 14.0993 4.73135 13.5228C5.33283 11.7398 6.28278 10.1189 7.49892 8.74066C7.90106 8.28492 8.53847 8.11691 9.11301 8.31519L12.6944 9.55122C12.9819 9.65043 13.2906 9.47219 13.3484 9.17363L14.0682 5.45669C14.184 4.85865 14.6499 4.39002 15.2473 4.27084ZM18.002 14.5002C16.069 14.5002 14.502 16.0672 14.502 18C14.502 19.9329 16.069 21.4999 18.002 21.4999C19.9351 21.4999 21.502 19.9329 21.502 18C21.502 16.0672 19.9351 14.5002 18.002 14.5002Z" fill="#0078D4"/>
<path fill-rule="evenodd" clip-rule="evenodd" d="M26.8238 29.5677C27.0687 29.2447 27.498 29.1357 27.8811 29.2679L30.4 30.1373C30.9226 30.3177 31.484 29.9936 31.5891 29.4507L32.0957 26.834C32.1729 26.4356 32.4827 26.1181 32.8855 26.0683C33.2506 26.0232 33.6226 26 34 26C34.3773 26 34.7492 26.0232 35.1144 26.0683C35.5172 26.1181 35.827 26.4356 35.9041 26.834L36.4108 29.4507C36.5159 29.9936 37.0772 30.3177 37.5999 30.1373L40.1188 29.2679C40.502 29.1357 40.9312 29.2447 41.1761 29.5676C41.6242 30.1586 42.0009 30.8067 42.2935 31.499C42.4513 31.8724 42.3311 32.299 42.0249 32.5647L40.0107 34.3131C39.5932 34.6755 39.5932 35.3237 40.0107 35.6861L42.0252 37.4347C42.3313 37.7005 42.4515 38.127 42.2937 38.5004C42.0012 39.1927 41.6246 39.8407 41.1766 40.4317C40.9317 40.7547 40.5024 40.8638 40.1193 40.7315L37.5999 39.862C37.0772 39.6816 36.5159 40.0057 36.4108 40.5485L35.904 43.166C35.8268 43.5644 35.517 43.882 35.1142 43.9317C34.7491 43.9768 34.3773 44 34 44C33.6226 44 33.2508 43.9768 32.8856 43.9317C32.4828 43.882 32.173 43.5644 32.0959 43.166L31.5891 40.5485C31.484 40.0057 30.9226 39.6816 30.4 39.862L27.8806 40.7315C27.4975 40.8637 27.0682 40.7547 26.8233 40.4317C26.3753 39.8407 25.9987 39.1926 25.7062 38.5004C25.5484 38.1269 25.6686 37.7004 25.9747 37.4347L27.9891 35.6861C28.4067 35.3237 28.4067 34.6755 27.9891 34.3131L25.975 32.5648C25.6688 32.299 25.5486 31.8725 25.7064 31.499C25.999 30.8067 26.3758 30.1587 26.8238 29.5677ZM33.9995 32.499C35.3809 32.499 36.5007 33.6188 36.5007 35.0001C36.5007 36.3813 35.3809 37.5011 33.9995 37.5011C32.6182 37.5011 31.4984 36.3813 31.4984 35.0001C31.4984 33.6188 32.6182 32.499 33.9995 32.499Z" fill="#8DC8E8"/>
</svg>
