<svg width="48" height="48" viewBox="0 0 48 48" fill="none" xmlns="http://www.w3.org/2000/svg">
<path d="M27.6104 7.19995C24.6785 7.19995 22.2377 9.30295 21.7143 12.0828C24.3454 14.1068 26.1135 17.1975 26.3714 20.7079C28.4567 18.279 32.4662 18.5283 34.1563 21.4558L36.8132 26.0576C39.1421 25.2331 40.8104 23.0114 40.8104 20.4V13.2C40.8104 9.88624 38.1242 7.19995 34.8104 7.19995H27.6104Z" fill="#2A446F"/>
<path d="M32.0779 22.6558C31.1541 21.0558 28.8447 21.0558 27.921 22.6558L19.5234 37.2008C18.5997 38.8008 19.7544 40.8008 21.6019 40.8008H38.397C40.2445 40.8008 41.3992 38.8008 40.4754 37.2008L32.0779 22.6558Z" fill="#8DC8E8"/>
<path d="M14.4 31.2C19.7019 31.2 24 26.9019 24 21.6C24 16.298 19.7019 12 14.4 12C9.09805 12 4.79999 16.298 4.79999 21.6C4.79999 26.9019 9.09805 31.2 14.4 31.2Z" fill="#0078D4"/>
</svg>
