<svg width="48" height="48" viewBox="0 0 48 48" fill="none" xmlns="http://www.w3.org/2000/svg">
<path fill-rule="evenodd" clip-rule="evenodd" d="M9.85716 6.85715C6.30676 6.85715 3.42859 9.73532 3.42859 13.2857V34.7143C3.42859 38.2647 6.30676 41.1429 9.85716 41.1429H25.8274C25.7516 40.7177 25.7143 40.2876 25.7143 39.8572V39.5053C25.7143 36.6212 28.0525 34.2857 30.9351 34.2857H32.3215C30.8979 33.0292 30 31.1909 30 29.1429C30 25.3558 33.0701 22.2857 36.8572 22.2857C40.5003 22.2857 43.4799 25.1268 43.7011 28.7142C43.7157 28.9505 43.9062 29.1429 44.1429 29.1429C44.3796 29.1429 44.5714 28.951 44.5714 28.7143V13.2857C44.5714 9.73532 41.6933 6.85715 38.1429 6.85715H9.85716Z" fill="#0078D4"/>
<path d="M42 29.1429C42 31.9832 39.6975 34.2857 36.8572 34.2857C34.0168 34.2857 31.7143 31.9832 31.7143 29.1429C31.7143 26.3025 34.0168 24 36.8572 24C39.6975 24 42 26.3025 42 29.1429Z" fill="#8DC8E8"/>
<path d="M46.2857 39.8572C46.2857 43.0591 43.5919 46.2857 36.8572 46.2857C30.1225 46.2858 27.4286 43.0712 27.4286 39.8572V39.5053C27.4286 37.5687 28.9985 36 30.9351 36H42.7792C44.7158 36 46.2857 37.5687 46.2857 39.5053V39.8572Z" fill="#8DC8E8"/>
</svg>
