<svg width="48" height="48" viewBox="0 0 48 48" fill="none" xmlns="http://www.w3.org/2000/svg">
<path d="M40.5 10C35.1732 10 29.9841 8.11305 24.9 4.3C24.3667 3.9 23.6333 3.9 23.1 4.3C18.0159 8.11305 12.8268 10 7.5 10C6.67157 10 6 10.6716 6 11.5V22C6 32.0024 11.9151 39.3515 23.4502 43.8956C23.8035 44.0348 24.1965 44.0348 24.5498 43.8956C36.0849 39.3515 42 32.0024 42 22V11.5C42 10.6716 41.3284 10 40.5 10ZM22.5137 15.2607C22.613 14.5285 23.2406 13.9642 24 13.9642C24.7594 13.9642 25.387 14.5285 25.4863 15.2607L25.5 15.4642V28.4642L25.4863 28.6678C25.387 29.3999 24.7594 29.9642 24 29.9642C23.2406 29.9642 22.613 29.3999 22.5137 28.6678L22.5 28.4642V15.4642L22.5137 15.2607ZM24 36C22.8954 36 22 35.1046 22 34C22 32.8954 22.8954 32 24 32C25.1046 32 26 32.8954 26 34C26 35.1046 25.1046 36 24 36Z" fill="#0078D4"/>
</svg>
