<svg width="48" height="48" viewBox="0 0 48 48" fill="none" xmlns="http://www.w3.org/2000/svg">
<path d="M22.2183 8.09767C23.3162 7.9762 24.1077 6.98773 23.9862 5.88986C23.8648 4.79199 22.8763 4.00046 21.7784 4.12192C11.7773 5.22842 4 13.7045 4 23.9998C4 35.0455 12.9543 43.9998 24 43.9998C34.2925 43.9998 42.7668 36.2266 43.8769 26.2293C43.9988 25.1315 43.2077 24.1427 42.1099 24.0208C41.0121 23.8989 40.0233 24.6901 39.9014 25.7879C39.0137 33.7819 32.2316 39.9998 24 39.9998C15.1634 39.9998 8 32.8363 8 23.9998C8 15.7659 14.2212 8.98244 22.2183 8.09767ZM29.5346 4.78207C28.4711 4.48335 27.3669 5.10325 27.0682 6.16666C26.7695 7.23007 27.3894 8.33429 28.4528 8.63302C29.0287 8.79478 29.5912 8.98846 30.1385 9.21203C31.161 9.62978 32.3286 9.13951 32.7463 8.11698C33.1641 7.09446 32.6738 5.92688 31.6513 5.50914C30.9642 5.22844 30.2578 4.98523 29.5346 4.78207ZM34.6988 9.38361C35.4454 8.56953 36.7105 8.51478 37.5246 9.26133C37.9477 9.64934 38.3538 10.0556 38.7418 10.4788C39.4881 11.293 39.4331 12.5582 38.6188 13.3045C37.8045 14.0509 36.5394 13.9958 35.793 13.1816C35.4833 12.8436 35.159 12.5192 34.8211 12.2094C34.007 11.4628 33.9523 10.1977 34.6988 9.38361ZM22 12C23.1046 12 24 12.8954 24 14V24H30C31.1046 24 32 24.8954 32 26C32 27.1046 31.1046 28 30 28H22C20.8954 28 20 27.1046 20 26V14C20 12.8954 20.8954 12 22 12ZM39.879 15.2459C40.9013 14.8276 42.0691 15.3173 42.4874 16.3397C42.7023 16.865 42.8953 17.4017 43.0652 17.9486C43.1185 18.1201 43.1695 18.2925 43.2182 18.4659C43.5169 19.5293 42.897 20.6335 41.8335 20.9322C40.7701 21.2309 39.6659 20.6109 39.3672 19.5475C39.3285 19.4094 39.2878 19.2721 39.2454 19.1356C39.1101 18.7001 38.9564 18.2727 38.7852 17.8543C38.3669 16.8319 38.8566 15.6641 39.879 15.2459Z" fill="#0078D4"/>
</svg>
