<svg width="48" height="48" viewBox="0 0 48 48" fill="none" xmlns="http://www.w3.org/2000/svg">
<path d="M14 14V10C14 6.68629 16.6863 4 20 4C21.5367 4 22.9385 4.57771 24 5.5278C25.0615 4.57771 26.4633 4 28 4C31.3137 4 34 6.68629 34 10V14H37C38.6569 14 40 15.3431 40 17V36C40 38.8138 38.5474 41.2882 36.3511 42.7144L35.2595 42.5226C33.7109 42.2506 32.1127 41.3966 30.91 40.1777C29.7091 38.9606 29 37.485 29 36V14H31V10C31 8.34315 29.6569 7 28 7C27.0701 7 26.239 7.42312 25.6887 8.08734C25.8906 8.68806 26 9.33125 26 10V36C26 38.4579 27.164 40.6526 28.7746 42.2848C29.4175 42.9364 30.1471 43.5152 30.9322 44H16C11.5817 44 8 40.4183 8 36V17C8 15.3431 9.34315 14 11 14H14ZM17 10V14H23V10C23 8.34315 21.6569 7 20 7C18.3431 7 17 8.34315 17 10Z" fill="#0078D4"/>
</svg>
