<svg width="48" height="48" viewBox="0 0 48 48" fill="none" xmlns="http://www.w3.org/2000/svg">
<path d="M13 17.5C13 17.2239 13.2239 17 13.5 17H34.5C34.7761 17 35 17.2239 35 17.5V21H13V17.5ZM13 24V30.5C13 30.7761 13.2239 31 13.5 31H18V24H13ZM34.5 31H21V24H35V30.5C35 30.7761 34.7761 31 34.5 31ZM4 13.5C4 10.4624 6.46243 8 9.5 8H38.5C41.5376 8 44 10.4624 44 13.5V34.5C44 37.5376 41.5376 40 38.5 40H9.5C6.46243 40 4 37.5376 4 34.5V13.5ZM13.5 14C11.567 14 10 15.567 10 17.5V30.5C10 32.433 11.567 34 13.5 34H34.5C36.433 34 38 32.433 38 30.5V17.5C38 15.567 36.433 14 34.5 14H13.5Z" fill="#0078D4"/>
</svg>
