<svg width="48" height="48" viewBox="0 0 48 48" fill="none" xmlns="http://www.w3.org/2000/svg">
<path fill-rule="evenodd" clip-rule="evenodd" d="M12 12C12 9.34905 14.149 7.20001 16.8 7.20001H36C38.651 7.20001 40.8 9.34905 40.8 12V24C40.8 26.651 38.651 28.8 36 28.8H33.6V26.4C33.6 22.4236 30.3765 19.2 26.4 19.2H12V12ZM33.6 33.6H42C42.6627 33.6 43.2 33.0628 43.2 32.4C43.2 31.7373 42.6627 31.2 42 31.2H33.6V33.6Z" fill="#0078D4"/>
<path fill-rule="evenodd" clip-rule="evenodd" d="M4.8 26.4C4.8 23.749 6.94904 21.6 9.6 21.6H26.4C29.051 21.6 31.2 23.749 31.2 26.4V36C31.2 38.651 29.051 40.8 26.4 40.8H9.6C6.94904 40.8 4.8 38.651 4.8 36V26.4ZM14.4 34.8C14.4 34.1373 14.9373 33.6 15.6 33.6H20.4C21.0627 33.6 21.6 34.1373 21.6 34.8C21.6 35.4628 21.0627 36 20.4 36H15.6C14.9373 36 14.4 35.4628 14.4 34.8Z" fill="#8DC8E8"/>
</svg>
