<svg width="48" height="48" viewBox="0 0 48 48" fill="none" xmlns="http://www.w3.org/2000/svg">
<path d="M6 12.5C6 8.91015 8.91015 6 12.5 6H35.5C39.0899 6 42 8.91015 42 12.5V35.5C42 39.0899 39.0899 42 35.5 42H12.5C8.91015 42 6 39.0899 6 35.5V12.5ZM25 18.5C25 19.3284 25.6716 20 26.5 20H33.5C34.3284 20 35 19.3284 35 18.5C35 17.6716 34.3284 17 33.5 17H26.5C25.6716 17 25 17.6716 25 18.5ZM26.5001 28C25.6717 28 25.0001 28.6716 25.0001 29.5C25.0001 30.3284 25.6717 31 26.5001 31H33.4999C34.3283 31 34.9999 30.3284 34.9999 29.5C34.9999 28.6716 34.3283 28 33.4999 28H26.5001ZM21.5607 17.5607C22.1464 16.9749 22.1464 16.0251 21.5607 15.4393C20.9749 14.8536 20.0251 14.8536 19.4393 15.4393L16.5 18.3787L15.5607 17.4393C14.9749 16.8536 14.0251 16.8536 13.4393 17.4393C12.8536 18.0251 12.8536 18.9749 13.4393 19.5607L15.4393 21.5607C16.0251 22.1464 16.9749 22.1464 17.5607 21.5607L21.5607 17.5607ZM21.5607 26.4393C20.9749 25.8536 20.0251 25.8536 19.4393 26.4393L16.5 29.3787L15.5607 28.4393C14.9749 27.8536 14.0251 27.8536 13.4393 28.4393C12.8536 29.0251 12.8536 29.9749 13.4393 30.5607L15.4393 32.5607C16.0251 33.1464 16.9749 33.1464 17.5607 32.5607L21.5607 28.5607C22.1464 27.9749 22.1464 27.0251 21.5607 26.4393Z" fill="#0078D4"/>
</svg>
