<svg width="48" height="48" viewBox="0 0 48 48" fill="none" xmlns="http://www.w3.org/2000/svg">
<path d="M12.0002 5.5C12.0002 4.79155 11.5045 4.17969 10.8115 4.03266C10.1202 3.88599 9.4206 4.24172 9.13159 4.88606L9.12851 4.89274C9.12451 4.90134 9.11684 4.91762 9.1055 4.94083C9.0828 4.98731 9.04563 5.0611 8.99409 5.15615C8.89054 5.34712 8.73168 5.6189 8.5188 5.92495C8.08352 6.55073 7.47076 7.24977 6.70549 7.72782C6.00289 8.16672 5.78912 9.0921 6.22802 9.79471C6.66693 10.4973 7.59231 10.7111 8.29491 10.2722C8.54409 10.1165 8.77912 9.94947 9.0002 9.77529V14.5C9.0002 15.3284 9.67177 16 10.5002 16C11.3286 16 12.0002 15.3284 12.0002 14.5V5.5ZM38.999 36H21.999L21.7658 36.0135C20.7711 36.129 19.999 36.9743 19.999 38C19.999 39.1046 20.8945 40 21.999 40H38.999L39.2323 39.9865C40.2269 39.871 40.999 39.0257 40.999 38C40.999 36.8954 40.1036 36 38.999 36ZM38.999 23H21.999L21.7658 23.0135C20.7711 23.129 19.999 23.9743 19.999 25C19.999 26.1046 20.8945 27 21.999 27H38.999L39.2323 26.9865C40.2269 26.871 40.999 26.0257 40.999 25C40.999 23.8954 40.1036 23 38.999 23ZM38.999 10H21.999L21.7658 10.0135C20.7711 10.129 19.999 10.9743 19.999 12C19.999 13.1046 20.8945 14 21.999 14H38.999L39.2323 13.9865C40.2269 13.871 40.999 13.0257 40.999 12C40.999 10.8954 40.1036 10 38.999 10ZM10.3019 21.0398C9.69913 20.9334 8.94887 21.1726 8.56062 21.5608C7.97482 22.1465 7.02507 22.1465 6.4393 21.5607C5.85354 20.9749 5.85357 20.0251 6.43938 19.4394C7.55113 18.3277 9.30087 17.8168 10.8231 18.0854C11.618 18.2257 12.4346 18.5942 13.0544 19.2967C13.6852 20.0115 14 20.9453 14 22.0001C14 23.2389 13.4579 24.16 12.7881 24.841C12.2326 25.4057 11.5263 25.862 10.9765 26.2172L10.8175 26.3202C10.427 26.574 10.1086 26.7941 9.85372 27H12.5C13.3284 27 14 27.6716 14 28.5C14 29.3284 13.3284 30 12.5 30H7.5C6.67157 30 6 29.3284 6 28.5C6 25.8729 7.9677 24.5942 9.1501 23.8259L9.27044 23.7477C9.90518 23.3354 10.3369 23.0549 10.6494 22.7372C10.9171 22.465 11 22.2612 11 22.0001C11 21.5548 10.8773 21.3636 10.8049 21.2816C10.7217 21.1872 10.5695 21.087 10.3019 21.0398ZM5.93934 42.5607C5.93934 42.5607 6.12503 42.7281 5.94852 42.5697L5.95924 42.5802L5.98581 42.6055C6.00575 42.6242 6.03018 42.6465 6.05912 42.6718C6.11696 42.7224 6.19305 42.7854 6.2875 42.8563C6.47619 42.9978 6.73992 43.172 7.07918 43.3416C7.76261 43.6834 8.74085 44 10 44C11.2784 44 12.3919 43.6373 13.2026 42.921C14.0184 42.2001 14.4233 41.2063 14.3911 40.202C14.3644 39.3692 14.0581 38.6106 13.5397 38C14.0581 37.3894 14.3644 36.6308 14.3911 35.798C14.4233 34.7937 14.0184 33.7999 13.2026 33.079C12.3919 32.3627 11.2784 32 10 32C8.74085 32 7.76261 32.3166 7.07918 32.6584C6.73992 32.828 6.47619 33.0022 6.2875 33.1437C6.19305 33.2146 6.11696 33.2776 6.05912 33.3282C6.03018 33.3535 6.00575 33.3758 5.98581 33.3945L5.95924 33.4198L5.94846 33.4303L5.94379 33.435L5.94181 33.4369L5.93934 33.4393C5.35355 34.0251 5.35355 34.9749 5.93934 35.5607C6.5172 36.1385 7.44924 36.1463 8.03669 35.5841C8.04341 35.5783 8.06037 35.5641 8.0875 35.5438C8.14881 35.4978 8.26008 35.422 8.42082 35.3416C8.73739 35.1834 9.25915 35 10 35C10.7216 35 11.072 35.1998 11.2162 35.3272C11.3554 35.4501 11.3965 35.5813 11.3926 35.702C11.3885 35.8311 11.3281 36.0054 11.1456 36.1636C10.969 36.3168 10.6192 36.5 10 36.5C9.17157 36.5 8.5 37.1716 8.5 38C8.5 38.8284 9.17157 39.5 10 39.5C10.6192 39.5 10.969 39.6832 11.1456 39.8364C11.3281 39.9946 11.3885 40.1689 11.3926 40.298C11.3965 40.4187 11.3554 40.5499 11.2162 40.6728C11.072 40.8002 10.7216 41 10 41C9.25915 41 8.73739 40.8166 8.42082 40.6584C8.26008 40.578 8.14881 40.5022 8.0875 40.4562C8.06037 40.4359 8.04341 40.4217 8.03669 40.4159C7.44924 39.8537 6.5172 39.8615 5.93934 40.4393C5.35355 41.0251 5.35355 41.9749 5.93934 42.5607ZM5.94379 33.435L5.94181 33.4369C5.9552 33.4258 6.34364 33.103 5.94379 33.435Z" fill="#0078D4"/>
</svg>
