<svg width="48" height="48" viewBox="0 0 48 48" fill="none" xmlns="http://www.w3.org/2000/svg">
<path d="M7.41421 6.58579C6.63317 5.80474 5.36684 5.80474 4.58579 6.58579C3.80474 7.36683 3.80474 8.63317 4.58579 9.41421L7.17157 12L4.58579 14.5858C3.80474 15.3668 3.80474 16.6332 4.58579 17.4142C5.36684 18.1953 6.63317 18.1953 7.41421 17.4142L11.4142 13.4142C12.1953 12.6332 12.1953 11.3668 11.4142 10.5858L7.41421 6.58579ZM20 10C18.8954 10 18 10.8954 18 12C18 13.1046 18.8954 14 20 14H42C43.1046 14 44 13.1046 44 12C44 10.8954 43.1046 10 42 10H20ZM42 34H6C4.89543 34 4 34.8954 4 36C4 37.1046 4.89543 38 6 38H42C43.1046 38 44 37.1046 44 36C44 34.8954 43.1046 34 42 34ZM4 24C4 22.8954 4.89543 22 6 22H42C43.1046 22 44 22.8954 44 24C44 25.1046 43.1046 26 42 26H6C4.89543 26 4 25.1046 4 24Z" fill="#0078D4"/>
</svg>
