<svg width="48" height="48" viewBox="0 0 48 48" fill="none" xmlns="http://www.w3.org/2000/svg">
<path d="M22 7.11641V10C22 11.1046 22.8954 12 24 12C25.1046 12 26 11.1046 26 10V7.11641C33.7904 8.02939 39.9706 14.2096 40.8836 22H38C36.8954 22 36 22.8954 36 24C36 25.1046 36.8954 26 38 26H40.8782C40.4327 29.6341 38.7916 32.8966 36.3992 35.481C35.8365 36.089 35.8731 37.038 36.481 37.6008C37.089 38.1635 38.038 38.1269 38.6008 37.519C41.8853 33.9708 44 29.2651 44 24C44 12.9543 35.0457 4 24 4C12.9543 4 4 12.9543 4 24C4 29.2651 6.1147 33.9708 9.39923 37.519C9.96199 38.1269 10.911 38.1635 11.519 37.6008C12.1269 37.038 12.1635 36.089 11.6008 35.481C9.20842 32.8966 7.56732 29.6341 7.12179 26H10C11.1046 26 12 25.1046 12 24C12 22.8954 11.1046 22 10 22H7.11641C7.49101 18.8035 8.75241 15.8781 10.6479 13.4764L12.5858 15.4142C13.3668 16.1953 14.6332 16.1953 15.4142 15.4142C16.1953 14.6332 16.1953 13.3668 15.4142 12.5858L13.4764 10.6479C15.8781 8.75241 18.8035 7.49101 22 7.11641ZM33.5177 13.2682C33.0413 12.8994 32.3647 12.9122 31.9033 13.2987L31.4688 13.6633C31.192 13.8958 30.7958 14.229 30.3177 14.6322C29.3616 15.4384 28.0772 16.525 26.7651 17.6457C25.4539 18.7657 24.111 19.9231 23.0394 20.8698C22.5042 21.3427 22.0314 21.7676 21.6621 22.1113C21.3186 22.4309 20.9972 22.7413 20.8225 22.9575C19.5165 24.5725 19.796 26.9176 21.4467 28.1953C23.0975 29.4731 25.4945 29.1996 26.8005 27.5846C26.9753 27.3684 27.2101 26.9911 27.449 26.5905C27.7059 26.1598 28.0198 25.6119 28.367 24.9935C29.0622 23.7554 29.9045 22.2106 30.7169 20.7045C31.5298 19.1974 32.3152 17.7245 32.8972 16.6288C33.1882 16.0808 33.4285 15.6269 33.5961 15.3099L33.8588 14.8123C34.1371 14.2841 33.9941 13.6369 33.5177 13.2682Z" fill="#0078D4"/>
</svg>
