<svg width="48" height="48" viewBox="0 0 48 48" fill="none" xmlns="http://www.w3.org/2000/svg">
<path d="M29.502 6.16184C29.1774 5.90189 28.7034 5.95559 28.4452 6.28155L21.5399 14.9996H17.7129L26.0935 4.41887C27.3844 2.7891 29.7548 2.5206 31.3775 3.82036L39.0969 10.0035C40.6291 11.2308 40.9374 13.4067 39.8804 14.9996H35.9592L37.3206 13.42C37.5979 13.0982 37.5529 12.6105 37.2214 12.345L33.4647 9.33592L29.0131 15.0001H25.1974L31.1231 7.46035L29.502 6.16184Z" fill="#8DC8E8"/>
<path fill-rule="evenodd" clip-rule="evenodd" d="M9 10.5C6.51472 10.5 4.5 12.5147 4.5 15V36.7507C4.5 40.4786 7.52208 43.5007 11.25 43.5007H36.75C40.4779 43.5007 43.5 40.4786 43.5 36.7507V23.2507C43.5 19.5228 40.4779 16.5007 36.75 16.5007L9 16.5C8.17157 16.5 7.5 15.8284 7.5 15C7.5 14.1716 8.17157 13.5 9 13.5H15.87L18.2644 10.5H9ZM36 28.5H31.5C30.6716 28.5 30 29.1716 30 30C30 30.8284 30.6716 31.5 31.5 31.5H36C36.8284 31.5 37.5 30.8284 37.5 30C37.5 29.1716 36.8284 28.5 36 28.5Z" fill="#0078D4"/>
</svg>
