<svg width="48" height="48" viewBox="0 0 48 48" fill="none" xmlns="http://www.w3.org/2000/svg">
<path fill-rule="evenodd" clip-rule="evenodd" d="M14.4 7.20001C10.4235 7.20001 7.19995 10.4236 7.19995 14.4V33.6C7.19995 37.5765 10.4235 40.8 14.4 40.8H22.1291L22.6359 38.7729C22.6672 38.6475 22.7016 38.5232 22.7391 38.4H14.4C11.749 38.4 9.59995 36.251 9.59995 33.6V16.8H38.4V22.1559C39.1665 21.8275 39.9805 21.6446 40.8 21.6072V14.4C40.8 10.4236 37.5764 7.20001 33.6 7.20001H14.4Z" fill="#0078D4"/>
<path d="M26.3514 36.9053L37.942 25.3146C39.6948 23.5618 42.5367 23.5618 44.2896 25.3146C46.0424 27.0675 46.0424 29.9094 44.2896 31.6622L32.6989 43.2528C32.0231 43.9286 31.1764 44.408 30.2492 44.6398L26.6543 45.5386C25.0909 45.9294 23.6748 44.5133 24.0656 42.9499L24.9644 39.3549C25.1962 38.4278 25.6756 37.581 26.3514 36.9053Z" fill="#8DC8E8"/>
</svg>
