<svg width="48" height="48" viewBox="0 0 48 48" fill="none" xmlns="http://www.w3.org/2000/svg">
<path d="M33.5 4.00281C27.7011 4.00281 23 8.70382 23 14.5028C23 15.6085 23.1715 16.6764 23.4898 17.68L5.35492 36.4402C3.4352 38.4261 3.64008 41.633 5.79692 43.3585C7.68578 44.8695 10.4143 44.6952 12.0955 42.956L30.0211 24.4123C31.1112 24.795 32.2826 25.0028 33.5 25.0028C39.299 25.0028 44 20.3018 44 14.5028C44 13.4975 43.8583 12.5227 43.5929 11.5987C43.4462 11.0882 43.0406 10.6934 42.5264 10.5605C42.0122 10.4277 41.466 10.5767 41.0905 10.9522L34.7224 17.3203L30.6011 13.199L36.9233 6.87677C37.3016 6.49843 37.4498 5.9472 37.3121 5.43016C37.1745 4.91312 36.7718 4.50856 36.2554 4.36845C35.3757 4.12974 34.4515 4.00281 33.5 4.00281Z" fill="#0078D4"/>
</svg>
