<svg xmlns="http://www.w3.org/2000/svg" fill="none" viewBox="0 0 400 250"><g clip-path="url(#a)"><path fill="#C9C9C9" d="m19.6909 176.787 3.7097 17.379 9.8656-14.69c1.0089-1.601 2.6069-2.74 4.4489-3.173l16.5995-3.83h.215l16.5995-3.831c.9113-.211 1.8553-.24 2.7779-.085.9226.154 1.8056.489 2.5984.986l15.8602 8.844-5.3763-17.097-67.2984 15.497Z"/><path fill="#C8C6C4" d="m29.5028 124.691-7.0162-4.462c-.5284-.328-1.12-.54-1.736-.624-.6161-.083-1.2428-.036-1.8392.14-3.7577 1.238-7.3367 2.964-10.64521 5.134-2.35016 1.864-4.0336 4.438-4.79839 7.339 0 .148-.25537 3.011-.28225 3.145l26.78765-10.471c-.1612-.056-.3184-.123-.4704-.201ZM56.3575 118.428l4.3548-7.084c.3302-.527.7677-.979 1.2841-1.327.5164-.347 1.1001-.582 1.7132-.689 3.9212-.517 7.8933-.517 11.8145 0 2.9326.633 5.5767 2.21 7.5269 4.49.0806.107 1.5457 2.58 1.6263 2.688l-28.6021 2.285c.0941-.121.2016-.242.2823-.363Z"/><path fill="url(#b)" d="M57.0699 115.471c.5386-.977 1.2764-1.83 2.1655-2.504.889-.674 1.9096-1.153 2.9957-1.408h.242c5.0256-.721 10.1302-.694 15.1478.081 1.769.238 3.4676.848 4.9848 1.788 1.5171.94 2.8185 2.191 3.819 3.669 8.2258 12.097 14.7853 27.634 17.3123 33.75 1.407 3.411 2.138 7.063 2.15 10.753 0 12.795-8.4408 15.725-11.0214 16.33-.5617.129-1.1324.214-1.707.256h-1.0887l-19.6775-12.285c-.7539-.468-1.6607-.622-2.5268-.43l-32.0431 7.405c-.8642.203-1.6132.739-2.0833 1.492l-12.2849 19.664-1.0081.444c-.5376.211-1.0902.382-1.6532.511-2.5807.591-11.42477 1.64-17.05649-9.839-1.58947-3.307-2.52507-6.889-2.755373-10.551-.456989-6.546-1.344086-23.32.725803-37.782.2607-1.827.90733-3.577 1.8969-5.135.98957-1.557 2.2994-2.886 3.84235-3.898 4.04381-2.783 8.46011-4.982 13.11831-6.532l.4032-.107c1.134-.259 2.3094-.281 3.4521-.063 1.1427.217 2.2281.669 3.1877 1.326"/><path fill="url(#c)" d="M78.6423 115.054c-4.8379-.756-9.7604-.796-14.6102-.121-.6586.134-1.2805.409-1.8232.806-.5428.397-.9936.905-1.3219 1.492l-5.1345 9.113c-.2925.518-.6898.97-1.1665 1.326-.4767.357-1.0224.61-1.6023.744l-7.9973 1.855h-.215l-8.0646 1.855c-.5783.134-1.1784.146-1.7617.035-.5833-.111-1.1369-.343-1.6253-.681l-8.4678-5.806c-.6215-.42-1.3278-.698-2.0689-.814-.741-.116-1.4985-.068-2.2187.142-4.4623 1.511-8.6921 3.638-12.56723 6.317-1.1752.771-2.17264 1.784-2.92587 2.97-.75322 1.187-1.24495 2.52-1.44241 3.912-1.60545 12.9-2.0149 25.922-1.22312 38.898.21722 3.378 1.08433 6.682 2.55376 9.731 5.79297 11.828 18.29297 7.89 18.29297 7.89l14.2742-21.506c.9947-1.613-1.6801.377.1748 0l15.9005-4.032 16.5457-3.642c1.8414-.417-1.5995-.995 0 0l22.0565 13.037s13.8978-.994 12.8228-14.986c-.147-3.375-.813-6.708-1.976-9.879-2.688-6.721-9.4087-22.312-17.6882-34.503-.7613-1.13-1.7543-2.084-2.9131-2.8-1.1587-.716-2.4566-1.178-3.8074-1.353Z"/><path fill="#F5AE33" d="M71.223 126.868c2.1379 0 3.871-1.733 3.871-3.871s-1.7331-3.871-3.871-3.871-3.8709 1.733-3.8709 3.871 1.733 3.871 3.8709 3.871Z"/><path fill="#9FCECC" d="M82.7552 131.371c2.1379 0 3.871-1.733 3.871-3.871s-1.7331-3.871-3.871-3.871c-2.1378 0-3.8709 1.733-3.8709 3.871s1.7331 3.871 3.8709 3.871ZM64.2206 135.645c2.1379 0 3.8709-1.733 3.8709-3.871s-1.733-3.871-3.8709-3.871c-2.1379 0-3.871 1.733-3.871 3.871s1.7331 3.871 3.871 3.871Z"/><path fill="#F5AE33" d="M74.516 141.519c2.1379 0 3.871-1.733 3.871-3.871s-1.7331-3.871-3.871-3.871-3.871 1.733-3.871 3.871 1.7331 3.871 3.871 3.871Z"/><path fill="#B4B0AB" d="M19.1803 150.403c4.1866 0 7.5806-3.393 7.5806-7.58s-3.394-7.581-7.5806-7.581c-4.1867 0-7.5807 3.394-7.5807 7.581s3.394 7.58 7.5807 7.58ZM42.0698 153.078l-2.3924.551c-.8395.194-1.7213.046-2.452-.41-.7307-.456-1.2507-1.183-1.4459-2.022l-.5511-2.393c-.0364-.161-.1043-.313-.1999-.448-.0955-.134-.2168-.248-.3567-.336-.14-.087-.2959-.146-.4587-.173-.1628-.027-.3294-.022-.49.016l-2.2715.524c-.1627.037-.3166.105-.4528.201-.1362.097-.252.219-.3407.36s-.1486.299-.1762.463c-.0276.165-.0224.333.0154.495l.551 2.379c.1937.838.0479 1.718-.4054 2.448-.4534.731-1.1774 1.252-2.0139 1.45l-2.3791.551c-.3181.091-.5914.297-.7675.577-.1761.28-.2426.616-.1868.942l.5242 2.272c.094.315.3005.585.5805.759.28.173.6139.238.9384.181l2.379-.551c.8394-.193 1.7212-.045 2.4519.411.7308.456 1.2508 1.183 1.4459 2.022l.5511 2.393c.0767.326.2798.608.5646.785.2848.176.6281.232.9542.155l2.2715-.524c.3182-.091.5915-.296.7676-.577.1761-.28.2426-.615.1867-.942l-.551-2.379c-.1933-.839-.0457-1.721.4104-2.452.4561-.73 1.1834-1.25 2.0224-1.445l2.379-.551c.1624-.037.3159-.105.4515-.202.1356-.096.2506-.219.3383-.36.0876-.142.1461-.299.172-.463.026-.165.0189-.333-.0209-.494l-.5242-2.272c-.0364-.162-.1048-.316-.2012-.451-.0964-.136-.219-.251-.3604-.339-.1415-.087-.299-.146-.4634-.172-.1644-.026-.3323-.018-.4939.021ZM59.4625 158.818c4.1867 0 7.5806-3.394 7.5806-7.581s-3.3939-7.581-7.5806-7.581-7.5807 3.394-7.5807 7.581 3.394 7.581 7.5807 7.581Z"/><path fill="#F2F7F7" d="m312.854 65.4545-190.601-1.2309-.739 114.5404 190.601 1.231.739-114.5405Z"/><path fill="#EDEDED" d="m127.763 70.3366 179.489.6265c.684.0024 1.362.1396 1.994.4039.632.2643 1.205.6505 1.688 1.1364.482.486.864 1.0622 1.124 1.6958.26.6337.393 1.3123.39 1.9971l-.069 19.8386-189.918-.6629.069-19.8386c.005-1.3831.559-2.7077 1.54-3.6823.982-.9746 2.31-1.5194 3.693-1.5145Z"/><path fill="#E8E8E8" d="m220.524 101.606-81.047-.523c-2.004-.013-3.639 1.601-3.652 3.606l-.388 60.092c-.013 2.005 1.601 3.64 3.605 3.653l81.047.523c2.004.013 3.639-1.601 3.652-3.605l.388-60.093c.013-2.004-1.601-3.64-3.605-3.653ZM298.181 101.88l-61.988-.4c-1.172-.008-2.129.937-2.137 2.109l-.2 30.968c-.007 1.172.937 2.129 2.11 2.137l61.988.4c1.173.008 2.13-.937 2.137-2.11l.2-30.967c.008-1.173-.937-2.13-2.11-2.137Z"/><path fill="#DBDBDB" d="m298.166 143.801-62.499-.403c-1.039-.007-1.887.83-1.894 1.869l-.04 6.344c-.007 1.04.83 1.887 1.869 1.894l62.499.404c1.039.007 1.887-.83 1.894-1.87l.041-6.344c.006-1.039-.831-1.887-1.87-1.894Z"/><path fill="#E8E8E8" d="m290.796 159.062-55.335-.357c-.98-.007-1.779.783-1.785 1.763l-.043 6.559c-.006.979.783 1.779 1.763 1.785l55.335.357c.98.007 1.779-.782 1.785-1.762l.043-6.559c.006-.98-.783-1.78-1.763-1.786Z"/><path fill="url(#d)" d="m312.678 67.565-190.171-1.1949-.162 25.685L312.516 93.25l.162-25.685Z"/><path fill="#28B3A1" d="m280.675 81.8689.001-.1881c.011-1.7519-1.4-3.1812-3.152-3.1925l-5.201-.0336c-1.752-.0113-3.181 1.3997-3.193 3.1515l-.001.1882c-.011 1.7518 1.4 3.1811 3.152 3.1924l5.201.0336c1.752.0113 3.181-1.3996 3.193-3.1515ZM299.705 81.9754l.002-.1882c.011-1.7518-1.4-3.1811-3.152-3.1924l-5.201-.0336c-1.752-.0114-3.182 1.3996-3.193 3.1515l-.001.1881c-.011 1.7519 1.4 3.1812 3.151 3.1925l5.202.0336c1.752.0113 3.181-1.3997 3.192-3.1515Z"/><path fill="#C8C6C4" d="m312.231 58.441-189.287-1.2231c-.801-.0053-1.595.1474-2.337.4493-.741.3019-1.416.7472-1.985 1.3102-.57.5631-1.022 1.233-1.332 1.9712-.311.7383-.472 1.5304-.475 2.3311l-.82 122.5273 201.505 1.344.793-122.5272c.011-.8047-.138-1.6036-.437-2.3506-.3-.7471-.744-1.4275-1.307-2.0022-.564-.5747-1.235-1.0322-1.976-1.3463-.741-.314-1.537-.4784-2.342-.4837Zm-3.279 117.742-184.288-1.196.739-106.9223 184.288 1.1962-.739 106.9221Z"/><path fill="#B3AFAB" d="m330.452 183.686-227.307-1.468c-3.5264-.023-6.4032 2.814-6.4259 6.336-.0228 3.523 2.8171 6.396 6.3429 6.419l227.307 1.468c3.526.023 6.403-2.814 6.426-6.336.022-3.523-2.817-6.396-6.343-6.419Z"/><path fill="url(#e)" d="M318.797 196.298c.73-3.753-1.72-7.387-5.473-8.117-3.752-.73-7.386 1.72-8.116 5.473l-3.722 19.131c-.73 3.752 1.72 7.386 5.472 8.116 3.753.73 7.387-1.72 8.117-5.473l3.722-19.13Z"/><path fill="url(#f)" d="M359.12 215.643c1.39 3.561 5.404 5.321 8.965 3.93 3.561-1.39 5.321-5.404 3.93-8.965l-7.089-18.154c-1.39-3.562-5.404-5.321-8.965-3.931-3.561 1.391-5.321 5.405-3.93 8.966l7.089 18.154Z"/><path fill="#28B3A1" d="M335.887 208.32c31.853 0 57.675-25.822 57.675-57.675 0-31.852-25.822-57.6743-57.675-57.6743-31.853 0-57.675 25.8223-57.675 57.6743 0 31.853 25.822 57.675 57.675 57.675Z"/><path fill="#D0EAEA" d="M335.887 198.482c26.419 0 47.836-21.417 47.836-47.836 0-26.42-21.417-47.836-47.836-47.836-26.419 0-47.836 21.416-47.836 47.836 0 26.419 21.417 47.836 47.836 47.836Z"/><path fill="url(#g)" d="M335.645 194.946c24.467 0 44.301-19.834 44.301-44.301 0-24.467-19.834-44.301-44.301-44.301-24.467 0-44.301 19.834-44.301 44.301 0 24.467 19.834 44.301 44.301 44.301Z"/><path fill="#F5AE33" d="M337.769 106.411h-2.756c-8.897.134-17.547 2.951-24.816 8.084-7.27 5.132-12.82 12.34-15.924 20.679-3.104 8.339-3.618 17.422-1.474 26.058 2.145 8.637 6.847 16.424 13.491 22.343l32.003-33.158-.524-44.006Z"/><path fill="#28B3A1" d="M308.669 183.951c-.865.014-1.715-.229-2.442-.698-.727-.468-1.299-1.142-1.644-1.936-.345-.793-.448-1.671-.295-2.523.154-.851.556-1.638 1.156-2.262l26.666-27.769-.161-38.978c0-1.157.456-2.266 1.268-3.089.813-.823 1.917-1.292 3.073-1.306.576-.002 1.146.109 1.678.328.532.219 1.017.54 1.425.946.408.405.732.887.954 1.418.222.531.337 1.101.339 1.676l.161 42.487-29.1 30.336c-.397.419-.874.756-1.402.992-.528.235-1.098.364-1.676.378Z"/><path fill="#28B3A1" d="M335.887 157.164c3.6 0 6.519-2.919 6.519-6.519s-2.919-6.519-6.519-6.519-6.519 2.919-6.519 6.519 2.919 6.519 6.519 6.519Z"/><path fill="#FFC571" d="M279.167 88.925c-9.059 7.7554-9.879 21.868-2.204 32.433l34.583-29.5701c-9.247-9.2204-23.307-10.6182-32.379-2.8629ZM391.761 88.2795c9.247 7.5269 10.403 21.6125 2.984 32.3655l-35.296-28.723c9.019-9.4355 23.051-11.1828 32.312-3.6425Z"/><path fill="#A5DAD9" d="m342.433 183.576-6.33.077.13 10.672 6.331-.078-.131-10.671ZM363.219 170.142l-3.896 4.989 8.411 6.569 3.896-4.99-8.411-6.568ZM368.586 147.102l.077 6.331 10.671-.131-.077-6.33-10.671.13ZM357.086 124.935l4.704 4.237 7.142-7.93-4.703-4.237-7.143 7.93Z"/><path fill="url(#h)" d="M295.713 155.981c-.166.011-.333-.011-.49-.065-.158-.053-.303-.138-.428-.247-.125-.11-.227-.244-.3-.393-.073-.15-.116-.312-.126-.478-.505-8.215 1.358-16.403 5.368-23.59 4.009-7.188 9.997-13.075 17.252-16.961.296-.159.643-.193.965-.096.321.097.591.318.749.613.159.296.193.643.096.964-.097.322-.317.591-.613.75-6.808 3.671-12.424 9.213-16.185 15.972-3.76 6.759-5.509 14.453-5.038 22.173.012.167-.008.334-.061.492-.053.158-.137.304-.247.43-.111.125-.245.227-.395.3-.15.072-.314.114-.48.122l-.067.014Z"/><path fill="url(#i)" d="m353.441 192.997-1.048-2.312c10.328-4.643 18.5-13.046 22.852-23.501 4.353-10.455 4.558-22.175.575-32.776l2.379-.9c4.226 11.208 4.017 23.605-.583 34.665-4.601 11.059-13.247 19.947-24.175 24.851v-.027Z"/><path fill="url(#j)" d="M307.567 91.6261c-7.352-7.7822-18.279-8.7769-25.403-2.3118l-.215.2151-.739.7258 1.694 1.5725.497-.4704.148-.1344.08-.0941c6.223-5.6451 15.834-4.7043 22.339 2.1909l.538.5645 1.586-1.6936-.525-.5645Z"/><path fill="url(#k)" d="M363.307 91.2229c7.392-7.742 18.32-8.6694 25.403-2.164.078.0695.15.146.215.2285l.739.7258-1.707 1.5591-.497-.4704-.135-.1478-.094-.0941c-6.182-5.6721-15.793-4.7984-22.352 2.0564l-.537.5645-1.573-1.6935.538-.5645Z"/><path fill="#F3F2F1" d="m87.1859 139.595 49.3401-.336c1.826-.013 3.296-1.503 3.284-3.329l-.667-98.0623c-.013-1.826-1.503-3.2963-3.329-3.2839l-49.3406.3359c-1.8261.0124-3.2963 1.5028-3.2839 3.3289l.6675 98.0624c.0124 1.826 1.5028 3.296 3.3289 3.284Z"/><path fill="#EDEDED" d="m84.8226 44.4145 52.6324-.5144c.192-.0019.383.0341.561.106.179.0719.341.1782.479.313.137.1347.246.2951.322.4721.075.177.115.3672.117.5596l.068 6.9486-55.5487.5429-.0679-6.9486c-.0038-.3862.1451-.7583.4143-1.0353.2691-.277.6368-.4366 1.0229-.4439Z"/><path fill="#E8E8E8" d="m130.881 56.6098-39.0854.266c-.965.0066-1.7419.7942-1.7354 1.7592l.289 42.445c.0065.965.7941 1.742 1.7591 1.736l39.0847-.266c.965-.007 1.742-.795 1.736-1.76l-.289-42.4449c-.007-.965-.794-1.7419-1.759-1.7353ZM132.934 109.498l-41.343.282c-.6829.004-1.2327.562-1.2281 1.245l.0995 14.623c.0047.683.5621 1.233 1.245 1.228l41.3436-.281c.682-.005 1.232-.562 1.228-1.245l-.1-14.624c-.005-.683-.562-1.232-1.245-1.228Z"/><path fill="url(#l)" d="m136.753 34.6754-51.4102.35.1012 14.8652 51.41-.3499-.101-14.8653Z"/><path fill="url(#m)" d="m129.444 40.9886-35.4162.2411c-1.4103.0096-2.5459 1.1607-2.5363 2.5711l.0089 1.3037c.0096 1.4104 1.1607 2.5459 2.5711 2.5363l35.4155-.241c1.411-.0096 2.546-1.1608 2.537-2.5711l-.009-1.3038c-.01-1.4103-1.161-2.5459-2.571-2.5363Z"/><path fill="url(#n)" d="m129.745 45.9277-1.479-.7527c-.008-.0089-.019-.016-.03-.0209-.012-.0048-.024-.0073-.037-.0073-.012 0-.025.0025-.036.0073-.012.0049-.022.012-.031.0209l-1.156-.6183c.07-.2173.106-.4439.108-.672-.003-.5586-.206-1.0977-.572-1.5199-.365-.4221-.87-.6994-1.423-.7817-.552-.0822-1.116.036-1.589.3332-.473.2973-.823.754-.989 1.2875-.165.5336-.134 1.1087.088 1.6213.221.5127.619.929 1.122 1.1736.502.2447 1.075.3016 1.615.1604.541-.1413 1.013-.4713 1.331-.9303l1.142.6048c-.008.0076-.015.0169-.02.0273-.004.0105-.007.0218-.007.0332s.003.0228.007.0332c.005.0104.012.0197.02.0273l1.479.7527c.109.0552.235.065.351.0272.116-.0378.212-.1201.267-.2288.055-.1088.065-.235.027-.3509-.037-.116-.12-.2122-.228-.2674l.04.0403Zm-3.858-.9409c-.21.2297-.483.3918-.786.4658-.302.0741-.62.0567-.912-.0498-.292-.1066-.547-.2975-.731-.5487-.184-.2512-.289-.5512-.302-.8622-.013-.311.066-.619.228-.8848.162-.2659.399-.4777.682-.6086.282-.1309.597-.1751.905-.1269.307.0481.593.1865.822.3975.306.282.488.6738.505 1.0894.018.4157-.13.8214-.411 1.1283Z"/><path fill="#CECDCC" d="M143.011 36.3709c-.014-1.2502-.523-2.4438-1.414-3.3203-.892-.8764-2.094-1.3643-3.344-1.3572l-53.6963.3629c-1.2525.0107-2.4496.5176-3.329 1.4095-.8793.8919-1.3691 2.0961-1.3619 3.3486l.7392 107.1776c.0018.619.1262 1.232.3661 1.803.2399.571.5905 1.089 1.0316 1.524.4411.435.964.778 1.5385 1.01.5744.232 1.1891.347 1.8085.34l53.7633-.363c.62-.003 1.232-.129 1.803-.369s1.09-.591 1.525-1.031c.436-.441.78-.963 1.014-1.537.234-.574.353-1.188.349-1.807l-.793-107.1911Zm-9.543 99.3011-43.3468.309c-.7768-.01-1.52-.318-2.0755-.861-.5556-.543-.8808-1.279-.9084-2.056l-.6317-91.3974c-.0036-.7962.3083-1.5614.8675-2.1282.5593-.5668 1.3202-.8889 2.1164-.896l43.3465-.2957c.796-.0036 1.562.3083 2.128.8675.567.5592.889 1.3202.896 2.1163l.632 91.3975c-.017.79-.344 1.54-.91 2.091-.566.55-1.325.857-2.114.853Z"/><path fill="#B3AFAB" d="M111.815 146.223c2.16 0 3.911-1.751 3.911-3.911s-1.751-3.912-3.911-3.912c-2.161 0-3.912 1.752-3.912 3.912s1.751 3.911 3.912 3.911Z"/><path fill="#FBD692" d="M127.715 78.5483c.007 4.0256-1.5 7.9067-4.22 10.8736-2.944 3.2258-20.578 3.3737-23.5084.3361-1.8348-1.8991-3.1752-4.2195-3.9037-6.7576-.7284-2.5382-.8226-5.2163-.2742-7.7993.5484-2.583 1.7227-4.9919 3.4196-7.0151 1.6967-2.0231 3.8647-3.5987 6.3127-4.5884 2.448-.9897 5.102-1.3632 7.728-1.0877 2.626.2755 5.144 1.1916 7.334 2.6678 2.189 1.4762 3.983 3.4673 5.223 5.7986 1.24 2.3313 1.889 4.9314 1.889 7.572Z"/><path fill="#C8C6C4" d="M111.586 94.677c2.358-.0007 4.688-.5186 6.824-1.5172 2.137-.9986 4.028-2.4536 5.542-4.2624-1.082-1.2205-2.375-2.2358-3.817-2.9973-2.331-1.5619-5.07-2.4036-7.876-2.4204-2.806-.0167-5.555.7923-7.904 2.3263-1.748.9203-3.278 2.2034-4.4893 3.7635 1.5023 1.6052 3.3173 2.8863 5.3323 3.7646 2.016.8784 4.19 1.3353 6.388 1.3429Z"/><path fill="url(#o)" d="M112.07 76.8818h2.688v5.2689c0 1.5322 1.761 1.9758 1.761 1.9758-1.297.9466-2.857 1.4636-4.462 1.4784"/><path fill="url(#p)" d="M112.056 76.8818h-2.688v5.2689c0 1.5322-1.761 1.9758-1.761 1.9758 1.293.9448 2.848 1.4617 4.449 1.4784"/><path fill="#594539" d="M112.205 64.9062h-.175c-4.142 0-7.5 3.3579-7.5 7.5v.0404c0 4.1421 3.358 7.5 7.5 7.5h.175c4.142 0 7.5-3.3579 7.5-7.5v-.0404c0-4.1421-3.358-7.5-7.5-7.5Z"/><path fill="#B28564" d="M112.11 81.3706c-1.563-.006-3.067-.6016-4.211-1.6681-1.144-1.0664-1.843-2.5251-1.958-4.0846V73.306c.059-1.5794.742-3.0711 1.898-4.149 1.156-1.078 2.692-1.6545 4.271-1.6037 1.581-.0544 3.119.5209 4.276 1.5996 1.156 1.0787 1.838 2.5725 1.894 4.1531v2.3119c-.112 1.5606-.811 3.0211-1.955 4.0882-1.144 1.0671-2.65 1.6617-4.215 1.6645Z"/><path fill="url(#q)" d="M112.097 73.0381h-2.527v4.4892h2.527v-4.4892Z"/><path fill="#9B643D" d="M111.304 77.7422c.388.0081.776-.028 1.156-.1075l.511-.1613c.174 0 .336-.1747.551-.2688.046-.0176.097-.0161.143.004.045.0201.081.0573.099.1035.013.0438.013.0906 0 .1344-.086.2445-.24.4592-.444.6183-.202.1803-.448.3053-.712.3629-.261.0603-.532.0603-.793 0-.256-.0608-.492-.1856-.686-.3629-.017-.0164-.031-.0361-.041-.0581-.009-.022-.014-.0456-.014-.0696 0-.0239.005-.0476.014-.0696.01-.022.024-.0417.041-.0581.021-.0089.044-.0134.067-.0134.023 0 .046.0045.068.0134l.04-.0672Z"/><path fill="#B28564" d="M112.097 73.2388c-.135 1.0753-.901 2.2715-.901 2.6882 0 .4167.901.578.901.8737l.645-.1748v-3.3871c-.101-.046-.211-.0699-.323-.0699-.111 0-.221.0239-.322.0699ZM117.93 73.8174h.874c.435 0 .852.1727 1.159.4803.308.3075.481.7246.481 1.1595 0 .4349-.173.852-.481 1.1595-.307.3075-.724.4803-1.159.4803h-.874c-.096 0-.188-.0383-.256-.1063-.068-.0681-.107-.1604-.107-.2566v-2.5538c0-.0963.039-.1886.107-.2566.068-.0681.16-.1063.256-.1063ZM106.694 77.083h-.874c-.435 0-.852-.1728-1.159-.4803-.308-.3075-.481-.7246-.481-1.1595 0-.4349.173-.852.481-1.1595.307-.3075.724-.4803 1.159-.4803h.874c.096 0 .188.0383.256.1063.068.0681.107.1604.107.2566v2.5538c0 .0963-.039.1886-.107.2566-.068.0681-.16.1063-.256.1063Z"/><path fill="#594539" d="m115.551 68.1582-.457.4167c-.055.9335.15 1.8641.592 2.6881.56.9524 1.263 1.8136 2.083 2.5538.476.5733.755 1.2852.793 2.0296.512-.5705.864-1.2659 1.022-2.0161.043-1.2776-.325-2.5353-1.049-3.5888-.787-.9521-1.819-1.6722-2.984-2.0833ZM108.669 68.1582l.471.4167c.055.9335-.149 1.8641-.592 2.6881-.56.9524-1.262 1.8136-2.083 2.5538-.476.5745-.758 1.2849-.806 2.0296-.506-.573-.853-1.2679-1.008-2.0161-.042-1.2754.32-2.5313 1.035-3.5888.79-.9491 1.82-1.6686 2.983-2.0833Z"/><path fill="#594539" d="m116.532 67.809-.416 1.25c-2.417.7541-4.642 2.0245-6.519 3.7232-2.446 2.379-6.479 1.465-7.514-.6318 0 0 .794.4167 1.345-.7123.551-1.1291.497-5 4.623-6.1425 3.401-.914 8.481 2.5134 8.481 2.5134Z"/><path fill="#FBD692" d="M208.011 135.027c.02 7.035-2.599 13.821-7.339 19.019-5.161 5.659-36.008 5.901-41.142.592-3.212-3.324-5.559-7.385-6.834-11.827-1.276-4.442-1.441-9.13-.481-13.65.96-4.521 3.015-8.737 5.985-12.278 2.97-3.541 6.764-6.299 11.049-8.031 4.285-1.731 8.93-2.385 13.526-1.902 4.596.483 9.004 2.088 12.835 4.672 3.832 2.585 6.97 6.071 9.139 10.152 2.169 4.08 3.303 8.632 3.302 13.253h-.04Z"/><path fill="#C8C6C4" d="M179.785 163.252c4.126 0 8.203-.906 11.941-2.652 3.739-1.746 7.05-4.291 9.699-7.455-1.9-2.149-4.178-3.931-6.721-5.256-4.077-2.744-8.874-4.222-13.788-4.248-4.914-.026-9.727 1.4-13.833 4.1-3.096 1.585-5.807 3.828-7.943 6.573 2.641 2.829 5.838 5.084 9.39 6.622 3.553 1.537 7.384 2.326 11.255 2.316Z"/><path fill="url(#r)" d="M180.632 132.11h4.704v9.207c0 2.688 3.078 3.455 3.078 3.455-2.266 1.652-4.992 2.554-7.796 2.58"/><path fill="url(#s)" d="M180.605 132.11h-4.704v9.207c0 2.688-3.078 3.455-3.078 3.455 2.265 1.652 4.991 2.554 7.795 2.58"/><path fill="#594539" d="M180.847 111.156h-.282c-7.253 0-13.132 5.88-13.132 13.132v.04c0 7.253 5.879 13.132 13.132 13.132h.282c7.253 0 13.132-5.879 13.132-13.132v-.04c0-7.252-5.879-13.132-13.132-13.132Z"/><path fill="#B28564" d="M180.713 139.96c-5.377 0-10.753-4.503-10.753-10.054v-4.032c.105-2.755 1.294-5.357 3.308-7.239 2.013-1.883 4.689-2.895 7.445-2.815 2.756-.083 5.434.927 7.448 2.811 2.015 1.883 3.203 4.487 3.304 7.243v4.032c.041 5.551-5.403 10.054-10.752 10.054Z"/><path fill="url(#t)" d="M180.672 125.376h-4.408v7.863h4.408v-7.863Z"/><path fill="#9B643D" d="M179.301 133.603c.672.021 1.345-.037 2.003-.175.308-.074.609-.173.9-.296.31-.107.605-.296.968-.457.039-.019.082-.03.126-.032.044-.002.088.006.129.022.04.017.077.042.107.074.031.032.054.069.068.111.02.035.031.074.031.114 0 .04-.011.08-.031.114-.151.43-.416.811-.766 1.103-.362.312-.796.529-1.263.631-.443.102-.902.102-1.344 0-.444-.104-.855-.316-1.197-.618-.03-.03-.054-.066-.07-.105-.016-.039-.024-.081-.024-.123 0-.043.008-.085.024-.124.016-.039.04-.075.07-.105.063-.059.143-.097.229-.108l.04-.026Z"/><path fill="#B28564" d="M180.686 125.739c-.229 1.869-1.586 4.033-1.586 4.758 0 .726 1.586.995 1.586 1.519l1.169-.296v-5.981c-.182-.088-.382-.134-.585-.134-.202 0-.402.046-.584.134ZM190.901 126.734h1.532c.76.003 1.488.308 2.025.847.537.539.838 1.268.838 2.029 0 .763-.303 1.494-.843 2.034-.539.539-1.271.842-2.034.842h-1.532c-.167 0-.328-.066-.447-.185-.118-.118-.185-.279-.185-.446v-4.49c0-.084.017-.167.05-.245.032-.077.08-.147.14-.206.06-.059.131-.105.21-.136.078-.031.161-.046.246-.044ZM171.21 132.473h-1.533c-.763 0-1.494-.303-2.034-.843-.539-.539-.842-1.271-.842-2.034 0-.763.303-1.494.842-2.034.54-.539 1.271-.842 2.034-.842h1.533c.167 0 .328.067.446.185.119.118.185.279.185.447v4.489c0 .167-.066.328-.185.447-.118.118-.279.185-.446.185Z"/><path fill="#594539" d="m186.734 116.854-.82.713c-.078 1.615.279 3.221 1.035 4.65 1.344 2.514 2.769 3.347 3.642 4.476.843 1.004 1.339 2.253 1.412 3.562.89-1.003 1.502-2.222 1.774-3.535.082-2.228-.554-4.424-1.815-6.263-1.383-1.654-3.191-2.899-5.228-3.603ZM174.691 116.854l.82.713c.087 1.616-.271 3.224-1.035 4.65-1.344 2.514-2.769 3.347-3.642 4.476-.819 1.012-1.291 2.261-1.345 3.562-.89-1.003-1.502-2.222-1.774-3.535-.084-2.23.558-4.428 1.828-6.263 1.359-1.645 3.138-2.89 5.148-3.603Z"/><path fill="#594539" d="m188.441 116.223-.726 2.191c-4.236 1.343-8.129 3.59-11.411 6.586-4.274 4.154-11.344 2.541-13.145-1.115 0 0 1.344.725 2.432-1.25 1.089-1.976.874-8.75 8.065-10.753 5.887-1.667 14.785 4.341 14.785 4.341Z"/></g><defs><linearGradient id="b" x1="67.9104" x2="37.8854" y1="227.728" y2="102.316" gradientUnits="userSpaceOnUse"><stop offset=".13" stop-color="#FAF9F8"/><stop offset=".15" stop-color="#F6F5F4"/><stop offset=".27" stop-color="#E5E4E2"/><stop offset=".39" stop-color="#DBD9D7"/><stop offset=".53" stop-color="#D8D6D4"/><stop offset=".68" stop-color="#DDDBDA"/><stop offset=".87" stop-color="#ECEBEA"/><stop offset="1" stop-color="#FAF9F8"/></linearGradient><linearGradient id="c" x1="67.1351" x2="38.5937" y1="225.865" y2="106.635" gradientUnits="userSpaceOnUse"><stop stop-color="#C8C6C4"/><stop offset=".07" stop-color="#CBC9C7"/><stop offset=".6" stop-color="#DBD9D7"/><stop offset="1" stop-color="#E1DFDD"/></linearGradient><linearGradient id="d" x1="217.654" x2="216.857" y1="66.8548" y2="193.682" gradientUnits="userSpaceOnUse"><stop offset=".02" stop-color="#28B3A1"/><stop offset=".12" stop-color="#23A594"/><stop offset=".49" stop-color="#117769"/></linearGradient><linearGradient id="g" x1="455.795" x2="377.827" y1="21.9478" y2="106.23" gradientUnits="userSpaceOnUse"><stop offset=".2" stop-color="#fff"/><stop offset=".95" stop-color="#D3EBEB"/><stop offset="1" stop-color="#D0EAEA"/></linearGradient><linearGradient id="h" x1="302.099" x2="315.145" y1="160.582" y2="88.6564" gradientUnits="userSpaceOnUse"><stop offset=".16" stop-color="#F5AE33"/><stop offset=".23" stop-color="#F8B84C"/><stop offset=".38" stop-color="#FED38B"/><stop offset=".39" stop-color="#FFD590"/><stop offset=".61" stop-color="#F5AE33"/></linearGradient><linearGradient id="i" x1="387.882" x2="346.776" y1="142.558" y2="187.006" gradientUnits="userSpaceOnUse"><stop stop-color="#D0EAEA"/><stop offset=".13" stop-color="#D4ECEC"/><stop offset=".26" stop-color="#DFF1F1"/><stop offset=".38" stop-color="#F2F9F9"/><stop offset=".44" stop-color="#fff"/><stop offset=".45" stop-color="#FCFDFD"/><stop offset=".54" stop-color="#E8F5F5"/><stop offset=".64" stop-color="#DAEFEF"/><stop offset=".77" stop-color="#D2EBEB"/><stop offset="1" stop-color="#D0EAEA"/></linearGradient><linearGradient id="j" x1="277.538" x2="313.435" y1="86.4249" y2="93.8221" gradientUnits="userSpaceOnUse"><stop offset=".03" stop-color="#FFC571"/><stop offset=".14" stop-color="#FFC776"/><stop offset=".28" stop-color="#FFCE85"/><stop offset=".43" stop-color="#FFD89C"/><stop offset=".53" stop-color="#FFE2B2"/><stop offset=".63" stop-color="#FFD696"/><stop offset=".73" stop-color="#FFCC82"/><stop offset=".83" stop-color="#FFC775"/><stop offset=".93" stop-color="#FFC571"/></linearGradient><linearGradient id="k" x1="-72980.5" x2="-73506.8" y1="-2764.74" y2="-2428.69" gradientUnits="userSpaceOnUse"><stop offset=".03" stop-color="#FFC571"/><stop offset=".14" stop-color="#FFC776"/><stop offset=".28" stop-color="#FFCE85"/><stop offset=".43" stop-color="#FFD89C"/><stop offset=".53" stop-color="#FFE2B2"/><stop offset=".63" stop-color="#FFD696"/><stop offset=".73" stop-color="#FFCC82"/><stop offset=".83" stop-color="#FFC775"/><stop offset=".93" stop-color="#FFC571"/></linearGradient><linearGradient id="l" x1="110.897" x2="111.888" y1="13.6894" y2="159.23" gradientUnits="userSpaceOnUse"><stop offset=".02" stop-color="#28B3A1"/><stop offset=".15" stop-color="#26AE9C"/><stop offset=".31" stop-color="#21A08F"/><stop offset=".49" stop-color="#188879"/><stop offset=".59" stop-color="#117769"/></linearGradient><linearGradient id="m" x1="95.326" x2="116.204" y1="12.7659" y2="52.8532" gradientUnits="userSpaceOnUse"><stop stop-color="#BBE5E0"/><stop offset=".1" stop-color="#94D7CE"/><stop offset=".21" stop-color="#72CABF"/><stop offset=".33" stop-color="#57C0B2"/><stop offset=".46" stop-color="#41B8A8"/><stop offset=".6" stop-color="#32B2A1"/><stop offset=".76" stop-color="#29AF9D"/><stop offset="1" stop-color="#26AE9C"/></linearGradient><linearGradient id="n" x1="86.7887" x2="128.412" y1="48.4417" y2="44.0448" gradientUnits="userSpaceOnUse"><stop stop-color="#047769"/><stop offset="1" stop-color="#0C9D8C"/></linearGradient><linearGradient id="o" x1="114.342" x2="114.382" y1="81.949" y2="77.5001" gradientUnits="userSpaceOnUse"><stop stop-color="#B28564"/><stop offset="1" stop-color="#9B6946"/></linearGradient><linearGradient id="p" x1="479.606" x2="478.897" y1="585.138" y2="556.278" gradientUnits="userSpaceOnUse"><stop stop-color="#B28564"/><stop offset="1" stop-color="#9B6946"/></linearGradient><linearGradient id="r" x1="-861.089" x2="-859.301" y1="1687.04" y2="1598.67" gradientUnits="userSpaceOnUse"><stop stop-color="#B28564"/><stop offset="1" stop-color="#9B6946"/></linearGradient><linearGradient id="s" x1="1216" x2="1214.13" y1="1685.98" y2="1597.6" gradientUnits="userSpaceOnUse"><stop stop-color="#B28564"/><stop offset="1" stop-color="#9B6946"/></linearGradient><radialGradient id="e" cx="0" cy="0" r="1" gradientTransform="rotate(-.699999 14989.65718498 -26080.52331703) scale(28.7951)" gradientUnits="userSpaceOnUse"><stop stop-color="#117769"/><stop offset="1" stop-color="#28B3A1"/></radialGradient><radialGradient id="f" cx="0" cy="0" r="1" gradientTransform="rotate(-.689976 -394476.67344416 -269038.04698381) scale(346.615 834.57)" gradientUnits="userSpaceOnUse"><stop stop-color="#117769"/><stop offset="1" stop-color="#28B3A1"/></radialGradient><radialGradient id="q" cx="0" cy="0" r="1" gradientTransform="translate(111.761 75.3096) scale(2.01613)" gradientUnits="userSpaceOnUse"><stop stop-color="#9B6946"/><stop offset=".55" stop-color="#AA7B59"/><stop offset="1" stop-color="#B28564"/></radialGradient><radialGradient id="t" cx="0" cy="0" r="1" gradientTransform="matrix(11.5505 0 0 20.6008 765.649 882.18)" gradientUnits="userSpaceOnUse"><stop stop-color="#9B6946"/><stop offset=".55" stop-color="#AA7B59"/><stop offset="1" stop-color="#B28564"/></radialGradient><clipPath id="a"><path fill="#fff" d="M.40332 0h399.194v250H.40332z"/></clipPath></defs></svg>
