<?xml version="1.0" encoding="utf-8"?>
<svg width="auto" height="auto" viewBox="0 0 256 256" version="1.1"
  xmlns:xlink="http://www.w3.org/1999/xlink"
  xmlns="http://www.w3.org/2000/svg">
  <g id="Default-Avatar-Icon">
    <path d="M7.999 0L248.001 0Q248.197 0 248.393 0.00963514Q248.59 0.0192703 248.785 0.0385174Q248.98 0.0577644 249.175 0.0865771Q249.369 0.11539 249.562 0.153699Q249.754 0.192007 249.945 0.23972Q250.135 0.287433 250.323 0.344434Q250.511 0.401436 250.696 0.467589Q250.881 0.533742 251.062 0.608888Q251.243 0.684033 251.421 0.76799Q251.598 0.851946 251.772 0.944512Q251.945 1.03708 252.113 1.13803Q252.282 1.23898 252.445 1.34807Q252.608 1.45717 252.766 1.57414Q252.924 1.69112 253.076 1.81569Q253.227 1.94026 253.373 2.07213Q253.518 2.204 253.657 2.34285Q253.796 2.4817 253.928 2.6272Q254.06 2.7727 254.184 2.92449Q254.309 3.07628 254.426 3.234Q254.543 3.39172 254.652 3.55499Q254.761 3.71826 254.862 3.88669Q254.963 4.05512 255.055 4.2283Q255.148 4.40148 255.232 4.57899Q255.316 4.7565 255.391 4.93791Q255.466 5.11933 255.532 5.30422Q255.599 5.4891 255.656 5.67701Q255.713 5.86492 255.76 6.0554Q255.808 6.24588 255.846 6.43847Q255.885 6.63106 255.913 6.8253Q255.942 7.01954 255.961 7.21496Q255.981 7.41038 255.99 7.60651Q256 7.80264 256 7.999L256 248.001Q256 248.197 255.99 248.393Q255.981 248.59 255.961 248.785Q255.942 248.98 255.913 249.175Q255.885 249.369 255.846 249.562Q255.808 249.754 255.76 249.945Q255.713 250.135 255.656 250.323Q255.599 250.511 255.532 250.696Q255.466 250.881 255.391 251.062Q255.316 251.243 255.232 251.421Q255.148 251.598 255.055 251.772Q254.963 251.945 254.862 252.113Q254.761 252.282 254.652 252.445Q254.543 252.608 254.426 252.766Q254.309 252.924 254.184 253.076Q254.06 253.227 253.928 253.373Q253.796 253.518 253.657 253.657Q253.518 253.796 253.373 253.928Q253.227 254.06 253.076 254.184Q252.924 254.309 252.766 254.426Q252.608 254.543 252.445 254.652Q252.282 254.761 252.113 254.862Q251.945 254.963 251.772 255.055Q251.599 255.148 251.421 255.232Q251.243 255.316 251.062 255.391Q250.881 255.466 250.696 255.532Q250.511 255.599 250.323 255.656Q250.135 255.713 249.945 255.76Q249.754 255.808 249.562 255.846Q249.369 255.885 249.175 255.913Q248.98 255.942 248.785 255.961Q248.59 255.981 248.393 255.99Q248.197 256 248.001 256L7.999 256Q7.80264 256 7.60651 255.99Q7.41038 255.981 7.21496 255.961Q7.01954 255.942 6.8253 255.913Q6.63106 255.885 6.43847 255.846Q6.24588 255.808 6.0554 255.76Q5.86492 255.713 5.67701 255.656Q5.4891 255.599 5.30422 255.532Q5.11933 255.466 4.93791 255.391Q4.7565 255.316 4.57899 255.232Q4.40148 255.148 4.2283 255.055Q4.05512 254.963 3.88669 254.862Q3.71826 254.761 3.55499 254.652Q3.39172 254.543 3.234 254.426Q3.07628 254.309 2.92449 254.184Q2.7727 254.06 2.6272 253.928Q2.4817 253.796 2.34285 253.657Q2.204 253.518 2.07213 253.373Q1.94026 253.227 1.81569 253.076Q1.69112 252.924 1.57414 252.766Q1.45717 252.608 1.34807 252.445Q1.23898 252.282 1.13803 252.113Q1.03708 251.945 0.944512 251.772Q0.851946 251.599 0.76799 251.421Q0.684033 251.243 0.608888 251.062Q0.533742 250.881 0.467589 250.696Q0.401436 250.511 0.344434 250.323Q0.287433 250.135 0.23972 249.945Q0.192007 249.754 0.153699 249.562Q0.11539 249.369 0.0865771 249.175Q0.0577644 248.98 0.0385174 248.785Q0.0192703 248.59 0.00963514 248.393Q0 248.197 0 248.001L0 7.999Q0 7.80264 0.00963514 7.60651Q0.0192703 7.41038 0.0385174 7.21496Q0.0577644 7.01954 0.0865771 6.8253Q0.11539 6.63106 0.153699 6.43847Q0.192007 6.24588 0.23972 6.0554Q0.287433 5.86492 0.344434 5.67701Q0.401436 5.4891 0.467589 5.30422Q0.533742 5.11933 0.608888 4.93791Q0.684033 4.7565 0.76799 4.57899Q0.851946 4.40148 0.944512 4.2283Q1.03708 4.05512 1.13803 3.88669Q1.23898 3.71826 1.34807 3.55499Q1.45717 3.39172 1.57414 3.234Q1.69112 3.07628 1.81569 2.92449Q1.94026 2.7727 2.07213 2.6272Q2.204 2.4817 2.34285 2.34285Q2.4817 2.204 2.6272 2.07213Q2.7727 1.94026 2.92449 1.81569Q3.07628 1.69112 3.234 1.57414Q3.39172 1.45717 3.55499 1.34807Q3.71826 1.23898 3.88669 1.13803Q4.05512 1.03708 4.2283 0.944512Q4.40148 0.851946 4.57899 0.76799Q4.7565 0.684033 4.93791 0.608888Q5.11933 0.533742 5.30422 0.467589Q5.4891 0.401436 5.67701 0.344434Q5.86492 0.287433 6.0554 0.23972Q6.24588 0.192007 6.43847 0.153699Q6.63106 0.11539 6.8253 0.0865771Q7.01954 0.0577644 7.21496 0.0385174Q7.41038 0.0192703 7.60651 0.00963514Q7.80264 0 7.999 0L7.999 0Z" id="Background" fill="none" fill-rule="evenodd" stroke="none" />
    <g id="Icon" transform="translate(6 6)">
      <path d="M0 122C0 54.6213 54.6213 0 122 0C189.379 0 244 54.6213 244 122C244 189.379 189.379 244 122 244C54.6213 244 0 189.379 0 122Z" id="Circle" fill="#EBEBEB" fill-rule="evenodd" stroke="none" />
      <path d="M167.75 181.094L76.25 181.094L76.25 169.656C76.25 153.864 89.0519 141.063 104.844 141.063L139.156 141.063C154.948 141.063 167.75 153.864 167.75 169.656L167.75 181.094L167.75 181.094ZM122 129.625C109.741 129.625 98.4138 123.085 92.2845 112.469C86.1552 101.852 86.1552 88.7726 92.2845 78.1563C98.4138 67.5399 109.741 61 122 61C134.259 61 145.586 67.5399 151.715 78.1563C157.845 88.7726 157.845 101.852 151.715 112.469C145.586 123.085 134.259 129.625 122 129.625L122 129.625Z" id="Shape" fill="#AEAEAE" fill-rule="evenodd" stroke="none" />
    </g>
  </g>
</svg>