<?xml version="1.0" encoding="utf-8"?>
<svg width="128px" height="128px" viewBox="0 0 128 128" version="1.1" xmlns:xlink="http://www.w3.org/1999/xlink" xmlns="http://www.w3.org/2000/svg">
  <defs>
    <linearGradient gradientUnits="userSpaceOnUse" x1="64" y1="0" x2="64" y2="128" id="gradient_1">
      <stop offset="0%" stop-color="#FFFFFF" />
      <stop offset="100%" stop-color="#E1E1F2" />
    </linearGradient>
    <linearGradient gradientUnits="userSpaceOnUse" x1="1.9687486" y1="-5.25" x2="51.406254" y2="59.25" id="gradient_2">
      <stop offset="0%" stop-color="#1F1F1F" />
      <stop offset="100%" stop-color="#171717" />
    </linearGradient>
  </defs>
  <g id="NEW_Teams_Icon_Fluent_User">
    <path d="M0 0L128 0L128 128L0 128L0 0Z" id="NEW_Teams_Icon_Fluent_User" fill="none" fill-rule="evenodd" stroke="none" />
    <path d="M0 64C0 28.6538 28.6538 0 64 0C99.3462 0 128 28.6538 128 64C128 99.3462 99.3462 128 64 128C28.6538 128 0 99.3462 0 64Z" id="Circle" fill="url(#gradient_1)" fill-rule="evenodd" stroke="none" />
    <path d="M64 32C55.1634 32 48 39.1634 48 48C48 56.8366 55.1634 64 64 64C72.8364 64 80 56.8366 80 48C80 39.1634 72.8364 32 64 32L64 32ZM52 48C52 41.3726 57.3726 36 64 36C70.6276 36 76 41.3726 76 48C76 54.6274 70.6276 60 64 60C57.3726 60 52 54.6274 52 48L52 48ZM44.0349 68C39.6126 68 36 71.5476 36 76C36 82.7648 39.3312 87.8652 44.54 91.1864C49.6679 94.456 56.581 96 64 96C71.4188 96 78.332 94.456 83.46 91.1864C88.6688 87.8652 92 82.7648 92 76C92 71.5824 88.418 68 84 68L44.0349 68L44.0349 68ZM40 76C40 73.7868 41.7914 72 44.0349 72L84 72C86.2088 72 88 73.7912 88 76C88 81.2352 85.5108 85.1348 81.3096 87.8136C77.0272 90.544 70.9404 92 64 92C57.0596 92 50.9727 90.544 46.6905 87.8136C42.489 85.1348 40 81.2352 40 76L40 76Z" id="Shape" fill="url(#gradient_2)" fill-rule="evenodd" stroke="none" />
  </g>
</svg>