<svg width="48" height="48" xmlns="http://www.w3.org/2000/svg"><g fill="none" fill-rule="evenodd"><circle stroke="#99A1A9" fill="#E6E5E7" cx="24" cy="24" r="23.5"/><path d="M7.938 41.833a10.636 10.636 0 0 1 4.282-3.165c0 .002 1.136-.598 5.396-.897.554-1.08.779-2.703.868-4.055-2.867-2.283-4.794-6.5-4.794-11.348 0-7.271.83-12.368 9.698-12.368 8.867 0 9.701 5.097 9.701 12.368 0 4.872-1.955 9.12-4.855 11.396.07 1.372.281 3.006.833 4.075 3.915.31 5.468.83 5.468.83 2.216.65 3.817 2.004 4.943 3.673A23.904 23.904 0 0 1 24 48a23.911 23.911 0 0 1-16.062-6.167z" fill="#969EA6"/></g></svg>