<svg xmlns="http://www.w3.org/2000/svg" fill="none" viewBox="0 0 25 24">
  <path fill="url(#a)" d="M10.8434 2c2.0058 1.46412 3.4084 2.88471 4.2079 4.26294.7574 1.30588 1.0615 2.64177.9123 4.00766l-.029.2276.1486-.1135c.5332-.4281.9442-.97325 1.1961-1.58646l.0655-.16883.187-.5247c2.0001 1.26941 3.0004 3.41939 3.0004 6.44939 0 4.5447-4.262 7.4459-7.7649 7.4459-3.50342 0-7.49163-1.9441-8.13692-6.0129-.64466-4.0683 2.02904-5.9677 3.85034-8.61769C9.69575 5.60294 10.4827 3.81294 10.8434 2Z"/>
  <defs>
    <linearGradient id="a" x1="22.1322" x2="10.21" y1="19.0833" y2="3.39195" gradientUnits="userSpaceOnUse">
      <stop stop-color="#FF5757"/>
      <stop offset="1" stop-color="#F17B49"/>
    </linearGradient>
  </defs>
</svg>
