<svg xmlns="http://www.w3.org/2000/svg" fill="none" viewBox="0 0 48 48">
  <path fill="url(#a)" d="M12 6c-3.31371 0-6 2.68629-6 6v24c0 3.3137 2.68629 6 6 6h24c3.3137 0 6-2.6863 6-6V12c0-3.31371-2.6863-6-6-6H12Z"/>
  <path fill="url(#b)" d="M20.8839 15.3661c.4881.4882.4881 1.2796 0 1.7678L14.0178 24l6.8661 6.8661c.4881.4882.4881 1.2796 0 1.7678-.4882.4881-1.2796.4881-1.7678 0l-7.75-7.75c-.4881-.4882-.4881-1.2796 0-1.7678l7.75-7.75c.4882-.4881 1.2796-.4881 1.7678 0Zm8 0 7.75 7.75c.4881.4882.4881 1.2796 0 1.7678l-7.75 7.75c-.4882.4881-1.2796.4881-1.7678 0-.4881-.4882-.4881-1.2796 0-1.7678L33.9822 24l-6.8661-6.8661c-.4881-.4882-.4881-1.2796 0-1.7678.4882-.4881 1.2796-.4881 1.7678 0Z"/>
  <defs>
    <linearGradient id="a" x1="14.7776" x2="34.5203" y1="6" y2="42" gradientUnits="userSpaceOnUse">
      <stop offset=".0281195" stop-color="#E67EEA"/>
      <stop offset=".43755" stop-color="#AD64D7"/>
      <stop offset="1" stop-color="#794DC5"/>
    </linearGradient>
    <linearGradient id="b" x1="17.1646" x2="28.0337" y1="15.6924" y2="42.7855" gradientUnits="userSpaceOnUse">
      <stop stop-color="#FDFDFD"/>
      <stop offset="1" stop-color="#F9DCFA"/>
    </linearGradient>
  </defs>
</svg>
