<svg xmlns="http://www.w3.org/2000/svg" fill="none" viewBox="0 0 48 48">
  <path fill="url(#a)" d="M6 10c0-2.20914 1.79086-4 4-4h11c2.2091 0 4 1.79086 4 4v13c0 .5523-.4477 1-1 1H7c-.55229 0-1-.4477-1-1V10Z"/>
  <path fill="url(#b)" d="M38 23c2.2091 0 4 1.7909 4 4v11c0 2.2091-1.7909 4-4 4H24c-.5523 0-1-.4477-1-1V24c0-.5523.4477-1 1-1h14Z"/>
  <path fill="url(#c)" d="M25 41c0 .5523-.4477 1-1 1H10c-2.20914 0-4-1.7909-4-4V24c0-.5523.44772-1 1-1h17c.5523 0 1 .4477 1 1v17Z"/>
  <path fill="url(#d)" d="M30.2544 5.24458c1.6655-1.65393 4.3564-1.64453 6.0104.02098l6.4624 6.50774c1.6539 1.6655 1.6445 4.3564-.021 6.0104l-6.4952 6.4499c-1.6655 1.654-4.3564 1.6446-6.0103-.021l-6.4625-6.5077c-1.6539-1.6655-1.6445-4.3564.021-6.0104l6.4952-6.44992Z"/>
  <defs>
    <linearGradient id="a" x1="6" x2="23.9737" y1="6.18402" y2="25.1563" gradientUnits="userSpaceOnUse">
      <stop stop-color="#B9C0C7"/>
      <stop offset="1" stop-color="#889096"/>
    </linearGradient>
    <linearGradient id="b" x1="42" x2="24.3571" y1="40.6429" y2="23" gradientUnits="userSpaceOnUse">
      <stop stop-color="#63686E"/>
      <stop offset="1" stop-color="#889096"/>
    </linearGradient>
    <linearGradient id="c" x1="6" x2="25" y1="23" y2="35.2143" gradientUnits="userSpaceOnUse">
      <stop stop-color="#55595E"/>
      <stop offset="1" stop-color="#383B3D"/>
    </linearGradient>
    <linearGradient id="d" x1="40.133" x2="28.1833" y1="20.5918" y2="5.74594" gradientUnits="userSpaceOnUse">
      <stop stop-color="#2764E7"/>
      <stop offset="1" stop-color="#36DFF1"/>
    </linearGradient>
  </defs>
</svg>
