<svg xmlns="http://www.w3.org/2000/svg" fill="none" viewBox="0 0 48 48">
  <path fill="#367AF2" d="M4 15.4209v18.329c0 3.4518 2.79822 6.25 6.25 6.25h27.5c3.4518 0 6.25-2.7982 6.25-6.25v-18.25L24.5824 25.724c-.3658.1926-.8031.1919-1.1682-.0019L4 15.4209Z"/>
  <path fill="url(#a)" d="M4 15.4209v18.329c0 3.4518 2.79822 6.25 6.25 6.25h27.5c3.4518 0 6.25-2.7982 6.25-6.25v-18.25L24.5824 25.724c-.3658.1926-.8031.1919-1.1682-.0019L4 15.4209Z"/>
  <path fill="url(#b)" d="M4 15.4209v18.329c0 3.4518 2.79822 6.25 6.25 6.25h27.5c3.4518 0 6.25-2.7982 6.25-6.25v-18.25L24.5824 25.724c-.3658.1926-.8031.1919-1.1682-.0019L4 15.4209Z"/>
  <path fill="url(#c)" fill-opacity=".75" d="M4 15.4209v18.329c0 3.4518 2.79822 6.25 6.25 6.25h27.5c3.4518 0 6.25-2.7982 6.25-6.25v-18.25L24.5824 25.724c-.3658.1926-.8031.1919-1.1682-.0019L4 15.4209Z"/>
  <path fill="url(#d)" fill-opacity=".7" d="M4 15.4209v18.329c0 3.4518 2.79822 6.25 6.25 6.25h27.5c3.4518 0 6.25-2.7982 6.25-6.25v-18.25L24.5824 25.724c-.3658.1926-.8031.1919-1.1682-.0019L4 15.4209Z"/>
  <path fill="url(#e)" d="M4.01995 13.747C4.27612 10.5304 6.96755 8 10.25 8h27.5c3.3098 0 6.0187 2.5728 6.2359 5.8276.0094.1396.0141.2804.0141.4224v1.38L24.5824 25.8541c-.3658.1925-.8031.1919-1.1682-.0019L4 15.551V14.25c0-.1693.00673-.3371.01995-.503Z"/>
  <defs>
    <linearGradient id="a" x1="31" x2="39.662" y1="19.5" y2="40.9443" gradientUnits="userSpaceOnUse">
      <stop offset=".19865" stop-color="#0094F0" stop-opacity="0"/>
      <stop offset=".430619" stop-color="#0094F0"/>
    </linearGradient>
    <linearGradient id="b" x1="18.2857" x2="7.95522" y1="18.0082" y2="41.831" gradientUnits="userSpaceOnUse">
      <stop offset=".191319" stop-color="#0094F0" stop-opacity="0"/>
      <stop offset=".430619" stop-color="#0094F0"/>
    </linearGradient>
    <linearGradient id="c" x1="34.5469" x2="36.2284" y1="30.0845" y2="42.2719" gradientUnits="userSpaceOnUse">
      <stop stop-color="#2764E7" stop-opacity="0"/>
      <stop offset="1" stop-color="#2764E7"/>
    </linearGradient>
    <linearGradient id="d" x1="30.1905" x2="33.258" y1="18.4394" y2="43.2444" gradientUnits="userSpaceOnUse">
      <stop offset=".53288" stop-color="#FF6CE8" stop-opacity="0"/>
      <stop offset="1" stop-color="#FF6CE8"/>
    </linearGradient>
    <linearGradient id="e" x1="15.8832" x2="28.0572" y1="2.27508" y2="34.2614" gradientUnits="userSpaceOnUse">
      <stop stop-color="#6CE0FF"/>
      <stop offset=".461792" stop-color="#29C3FF"/>
      <stop offset="1" stop-color="#4894FE"/>
    </linearGradient>
  </defs>
</svg>
