<svg xmlns="http://www.w3.org/2000/svg" fill="none" viewBox="0 0 48 48">
  <path fill="url(#a)" fill-rule="evenodd" d="M18.8839 30.884 8.13388 41.634c-.48815.4881-1.27961.4881-1.76776 0-.48816-.4882-.48816-1.2796 0-1.7678l10.74998-10.75 1.7678 1.7678Z" clip-rule="evenodd"/>
  <path fill="#D9D9D9" d="M31.818 5.54974 42.4505 16.1823c2.2926 2.2926 1.6654 6.1574-1.2344 7.6073l-10.5447 5.2723c-.2923.1462-.5157.401-.6224.7099l-2.6842 7.7699c-.6632 1.9199-3.1075 2.4829-4.5438 1.0466L9.41205 25.1793c-1.43631-1.4363-.87331-3.8806 1.04665-4.5438l7.7698-2.6841c.3089-.1068.5637-.3302.7099-.6225l5.2723-10.54465c1.4499-2.89988 5.3147-3.52706 7.6073-1.23451Z"/>
  <path fill="url(#b)" d="M31.818 5.54974 42.4505 16.1823c2.2926 2.2926 1.6654 6.1574-1.2344 7.6073l-10.5447 5.2723c-.2923.1462-.5157.401-.6224.7099l-2.6842 7.7699c-.6632 1.9199-3.1075 2.4829-4.5438 1.0466L9.41205 25.1793c-1.43631-1.4363-.87331-3.8806 1.04665-4.5438l7.7698-2.6841c.3089-.1068.5637-.3302.7099-.6225l5.2723-10.54465c1.4499-2.89988 5.3147-3.52706 7.6073-1.23451Z"/>
  <path fill="url(#c)" fill-opacity=".8" d="M31.818 5.54974 42.4505 16.1823c2.2926 2.2926 1.6654 6.1574-1.2344 7.6073l-10.5447 5.2723c-.2923.1462-.5157.401-.6224.7099l-2.6842 7.7699c-.6632 1.9199-3.1075 2.4829-4.5438 1.0466L9.41205 25.1793c-1.43631-1.4363-.87331-3.8806 1.04665-4.5438l7.7698-2.6841c.3089-.1068.5637-.3302.7099-.6225l5.2723-10.54465c1.4499-2.89988 5.3147-3.52706 7.6073-1.23451Z"/>
  <defs>
    <linearGradient id="a" x1="9.22097" x2="19.5534" y1="38.7779" y2="30.8764" gradientUnits="userSpaceOnUse">
      <stop offset=".449" stop-color="#7B7BFF"/>
      <stop offset="1" stop-color="#102784"/>
    </linearGradient>
    <linearGradient id="b" x1="9.86394" x2="34.1818" y1="10.7647" y2="36.03" gradientUnits="userSpaceOnUse">
      <stop stop-color="#43E5CA"/>
      <stop offset="1" stop-color="#1384B1"/>
    </linearGradient>
    <radialGradient id="c" cx="0" cy="0" r="1" gradientTransform="matrix(10.56613383 11.56296018 -29.00886749 26.50805427 35.8165 32.4362)" gradientUnits="userSpaceOnUse">
      <stop stop-color="#E362F8"/>
      <stop offset="1" stop-color="#96F" stop-opacity="0"/>
    </radialGradient>
  </defs>
</svg>
