<svg xmlns="http://www.w3.org/2000/svg" fill="none" viewBox="0 0 48 48">
  <path fill="#242424" d="M24 4c11.0457 0 20 8.9543 20 20s-8.9543 20-20 20S4 35.0457 4 24 12.9543 4 24 4Z"/>
  <path fill="url(#a)" d="M24 4c11.0457 0 20 8.9543 20 20s-8.9543 20-20 20S4 35.0457 4 24 12.9543 4 24 4Z"/>
  <path fill="#D9D9D9" d="M24.25 32c.8284 0 1.5.6716 1.5 1.5s-.6716 1.5-1.5 1.5-1.5-.6716-1.5-1.5.6716-1.5 1.5-1.5Zm0-19c3.3647 0 6.25 2.8821 6.25 6.2488.002 2.1203-.7686 3.4704-2.6784 5.5284l-1.015 1.0866c-1.0224 1.139-1.4272 1.8614-1.4657 2.7155l-.003.1618-.0056.1278-.018.1243c-.1125.5704-.6134 1.0025-1.2175 1.0069-.6903.0048-1.254-.5508-1.2589-1.2412-.0128-1.7886.6768-3.0122 2.3082-4.785l1.0273-1.0977C27.5312 21.3837 28.0012 20.503 28 19.25c0-1.9866-1.7654-3.75-3.75-3.75-1.9193 0-3.6358 1.6536-3.7445 3.5587l-.012.3191c-.064.6303-.5963 1.1222-1.2435 1.1222-.6904 0-1.25-.5596-1.25-1.25 0-3.3654 2.8864-6.25 6.25-6.25Z"/>
  <path fill="url(#b)" d="M24.25 32c.8284 0 1.5.6716 1.5 1.5s-.6716 1.5-1.5 1.5-1.5-.6716-1.5-1.5.6716-1.5 1.5-1.5Zm0-19c3.3647 0 6.25 2.8821 6.25 6.2488.002 2.1203-.7686 3.4704-2.6784 5.5284l-1.015 1.0866c-1.0224 1.139-1.4272 1.8614-1.4657 2.7155l-.003.1618-.0056.1278-.018.1243c-.1125.5704-.6134 1.0025-1.2175 1.0069-.6903.0048-1.254-.5508-1.2589-1.2412-.0128-1.7886.6768-3.0122 2.3082-4.785l1.0273-1.0977C27.5312 21.3837 28.0012 20.503 28 19.25c0-1.9866-1.7654-3.75-3.75-3.75-1.9193 0-3.6358 1.6536-3.7445 3.5587l-.012.3191c-.064.6303-.5963 1.1222-1.2435 1.1222-.6904 0-1.25-.5596-1.25-1.25 0-3.3654 2.8864-6.25 6.25-6.25Z"/>
  <defs>
    <linearGradient id="a" x1="4" x2="44" y1="4" y2="44" gradientUnits="userSpaceOnUse">
      <stop stop-color="#0FAFFF"/>
      <stop offset="1" stop-color="#2764E7"/>
    </linearGradient>
    <linearGradient id="b" x1="19.0934" x2="25.2287" y1="13.3863" y2="35.8578" gradientUnits="userSpaceOnUse">
      <stop stop-color="#FDFDFD"/>
      <stop offset="1" stop-color="#CCEAFF"/>
    </linearGradient>
  </defs>
</svg>
