<svg xmlns="http://www.w3.org/2000/svg" fill="none" viewBox="0 0 48 48">
  <path fill="url(#a)" d="M12.2499 28C9.90326 28 8.00002 29.9013 8 32.2489V33c0 3.7556 1.94167 6.5669 4.9202 8.3802C15.8491 43.1633 19.7861 44 24 44c4.2139 0 8.1509-.8367 11.0798-2.6198C38.0583 39.5669 40 36.7556 40 33v-.7513C40 29.9012 38.0967 28 35.7502 28H12.2499Z"/>
  <path fill="url(#b)" d="M12.2499 28C9.90326 28 8.00002 29.9013 8 32.2489V33c0 3.7556 1.94167 6.5669 4.9202 8.3802C15.8491 43.1633 19.7861 44 24 44c4.2139 0 8.1509-.8367 11.0798-2.6198C38.0583 39.5669 40 36.7556 40 33v-.7513C40 29.9012 38.0967 28 35.7502 28H12.2499Z"/>
  <path fill="url(#c)" d="M24 4c-5.5228 0-10 4.47715-10 10 0 5.5228 4.4772 10 10 10s10-4.4772 10-10c0-5.52285-4.4772-10-10-10Z"/>
  <defs>
    <linearGradient id="a" x1="15.6097" x2="20.779" y1="30.127" y2="46.6354" gradientUnits="userSpaceOnUse">
      <stop offset=".125321" stop-color="#9C6CFE"/>
      <stop offset="1" stop-color="#7A41DC"/>
    </linearGradient>
    <linearGradient id="b" x1="24" x2="31.2381" y1="26.0952" y2="53.1429" gradientUnits="userSpaceOnUse">
      <stop stop-color="#885EDB" stop-opacity="0"/>
      <stop offset="1" stop-color="#E362F8"/>
    </linearGradient>
    <linearGradient id="c" x1="18.7561" x2="28.9488" y1="6.65871" y2="22.9342" gradientUnits="userSpaceOnUse">
      <stop offset=".125321" stop-color="#9C6CFE"/>
      <stop offset="1" stop-color="#7A41DC"/>
    </linearGradient>
  </defs>
</svg>
