<svg xmlns="http://www.w3.org/2000/svg" fill="none" viewBox="0 0 24 24">
  <path fill="url(#a)" d="M4 4.25C4 3.00736 5.00736 2 6.25 2h7.5C14.9926 2 16 3.00736 16 4.25V9.5h1.75c1.2426 0 2.25 1.0074 2.25 2.25V21h-2v1H4.75c-.41421 0-.75-.3358-.75-.75v-17Z"/>
  <path fill="url(#b)" d="M4 4.25C4 3.00736 5.00736 2 6.25 2h7.5C14.9926 2 16 3.00736 16 4.25V9.5h1.75c1.2426 0 2.25 1.0074 2.25 2.25V21h-2v1H4.75c-.41421 0-.75-.3358-.75-.75v-17Z"/>
  <path fill="url(#c)" d="M4 4.25C4 3.00736 5.00736 2 6.25 2h7.5C14.9926 2 16 3.00736 16 4.25V9.5h1.75c1.2426 0 2.25 1.0074 2.25 2.25V21h-2v1H4.75c-.41421 0-.75-.3358-.75-.75v-17Z"/>
  <path fill="url(#d)" d="M4 4.25C4 3.00736 5.00736 2 6.25 2h7.5C14.9926 2 16 3.00736 16 4.25V9.5h1.75c1.2426 0 2.25 1.0074 2.25 2.25V21h-2v1H4.75c-.41421 0-.75-.3358-.75-.75v-17Z"/>
  <path fill="url(#e)" d="M4 4.25C4 3.00736 5.00736 2 6.25 2h7.5C14.9926 2 16 3.00736 16 4.25V9.5h1.75c1.2426 0 2.25 1.0074 2.25 2.25V21h-2v1H4.75c-.41421 0-.75-.3358-.75-.75v-17Z"/>
  <path fill="url(#f)" d="M7 6.5c0 .55228.44772 1 1 1 .55229 0 1-.44772 1-1s-.44771-1-1-1c-.55228 0-1 .44772-1 1Zm1 6c-.55228 0-1 .4477-1 1s.44772 1 1 1c.55229 0 1-.4477 1-1s-.44771-1-1-1ZM8 9c-.55228 0-1 .44771-1 1 0 .5523.44772 1 1 1 .55229 0 1-.4477 1-1 0-.55229-.44771-1-1-1Zm4-3.5c-.5523 0-1 .44772-1 1s.4477 1 1 1 1-.44772 1-1-.4477-1-1-1ZM12 9c-.5523 0-1 .44771-1 1 0 .5523.4477 1 1 1s1-.4477 1-1c0-.55229-.4477-1-1-1Z"/>
  <path fill="url(#g)" d="M20 22c2.2 0 3-1.2165 3-2.4 0-.8837-.7163-1.6-1.6-1.6h-2.8c-.8837 0-1.6.7163-1.6 1.6 0 1.1835.8 2.4 3 2.4Z"/>
  <path fill="url(#h)" fill-opacity=".5" d="M20 22c2.2 0 3-1.2165 3-2.4 0-.8837-.7163-1.6-1.6-1.6h-2.8c-.8837 0-1.6.7163-1.6 1.6 0 1.1835.8 2.4 3 2.4Z"/>
  <path fill="url(#i)" d="M20 17c.8284 0 1.5-.6716 1.5-1.5S20.8284 14 20 14s-1.5.6716-1.5 1.5.6716 1.5 1.5 1.5Z"/>
  <path fill="url(#j)" d="M15.5 23c2.5667 0 3.5-1.5207 3.5-3 0-1.1046-.8954-2-2-2h-3c-1.1046 0-2 .8954-2 2 0 1.4793.9333 3 3.5 3Z"/>
  <path fill="url(#k)" d="M15.5 23c2.5667 0 3.5-1.5207 3.5-3 0-1.1046-.8954-2-2-2h-3c-1.1046 0-2 .8954-2 2 0 1.4793.9333 3 3.5 3Z"/>
  <path fill="url(#l)" d="M15.5 17c1.1046 0 2-.8954 2-2s-.8954-2-2-2-2 .8954-2 2 .8954 2 2 2Z"/>
  <defs>
    <linearGradient id="a" x1="4" x2="23.0814" y1="2.625" y2="22.1682" gradientUnits="userSpaceOnUse">
      <stop stop-color="#29C3FF"/>
      <stop offset="1" stop-color="#2764E7"/>
    </linearGradient>
    <linearGradient id="f" x1="9.15" x2="13.9531" y1="4.5" y2="15.0668" gradientUnits="userSpaceOnUse">
      <stop stop-color="#FDFDFD"/>
      <stop offset="1" stop-color="#B3E0FF"/>
    </linearGradient>
    <linearGradient id="g" x1="18.4268" x2="20.038" y1="18.5317" y2="22.3908" gradientUnits="userSpaceOnUse">
      <stop offset=".125321" stop-color="#9C6CFE"/>
      <stop offset="1" stop-color="#7A41DC"/>
    </linearGradient>
    <linearGradient id="i" x1="19.2134" x2="20.7423" y1="14.3988" y2="16.8401" gradientUnits="userSpaceOnUse">
      <stop offset=".125321" stop-color="#9C6CFE"/>
      <stop offset="1" stop-color="#7A41DC"/>
    </linearGradient>
    <linearGradient id="j" x1="13.6646" x2="15.7761" y1="18.6647" y2="23.3849" gradientUnits="userSpaceOnUse">
      <stop offset=".125321" stop-color="#BD96FF"/>
      <stop offset="1" stop-color="#9C6CFE"/>
    </linearGradient>
    <linearGradient id="k" x1="15.5" x2="18.5212" y1="17.4048" y2="25.3075" gradientUnits="userSpaceOnUse">
      <stop stop-color="#885EDB" stop-opacity="0"/>
      <stop offset="1" stop-color="#E362F8"/>
    </linearGradient>
    <linearGradient id="l" x1="14.4512" x2="16.4898" y1="13.5317" y2="16.7868" gradientUnits="userSpaceOnUse">
      <stop offset=".125321" stop-color="#BD96FF"/>
      <stop offset="1" stop-color="#9C6CFE"/>
    </linearGradient>
    <radialGradient id="b" cx="0" cy="0" r="1" gradientTransform="rotate(.629608 -1872.5866558 1312.78549) scale(5.68784 4.92502)" gradientUnits="userSpaceOnUse">
      <stop stop-color="#4A43CB"/>
      <stop offset=".914422" stop-color="#4A43CB" stop-opacity="0"/>
    </radialGradient>
    <radialGradient id="c" cx="0" cy="0" r="1" gradientTransform="matrix(5.87500035 -.1250005 .10823614 5.08707868 19.4375 19.7188)" gradientUnits="userSpaceOnUse">
      <stop stop-color="#4A43CB"/>
      <stop offset=".914422" stop-color="#4A43CB" stop-opacity="0"/>
    </radialGradient>
    <radialGradient id="d" cx="0" cy="0" r="1" gradientTransform="matrix(.06250126 3.53124692 -3.76667005 .06666813 15.75 15.875)" gradientUnits="userSpaceOnUse">
      <stop stop-color="#4A43CB"/>
      <stop offset="1" stop-color="#4A43CB" stop-opacity="0"/>
    </radialGradient>
    <radialGradient id="e" cx="0" cy="0" r="1" gradientTransform="rotate(91.4502 2.5878816 17.91486226) scale(2.46954 2.63418)" gradientUnits="userSpaceOnUse">
      <stop stop-color="#4A43CB"/>
      <stop offset="1" stop-color="#4A43CB" stop-opacity="0"/>
    </radialGradient>
    <radialGradient id="h" cx="0" cy="0" r="1" gradientTransform="matrix(3.9486142 -.58333413 .68710452 4.6510405 16.2389 20)" gradientUnits="userSpaceOnUse">
      <stop offset=".392122" stop-color="#3B148A"/>
      <stop offset="1" stop-color="#3B148A" stop-opacity="0"/>
    </radialGradient>
  </defs>
</svg>
