<svg xmlns="http://www.w3.org/2000/svg" fill="none" viewBox="0 0 48 48">
  <path fill="url(#a)" d="M9.25 44C8.55964 44 8 43.4404 8 42.75V8.25C8 5.90279 9.90279 4 12.25 4h15.5C30.0972 4 32 5.90279 32 8.25V19h3.75c2.3472 0 4.25 1.9028 4.25 4.25v19.5c0 .6904-.5596 1.25-1.25 1.25H9.25Z"/>
  <path fill="url(#b)" d="M34 37.25V44H24l-1-4 1-5h7.75c1.2426 0 2.25 1.0074 2.25 2.25Z"/>
  <path fill="url(#c)" d="M14 37.25V44h10v-9h-7.75C15.0074 35 14 36.0074 14 37.25Z"/>
  <path fill="url(#d)" d="M18 14c0 1.1046-.8954 2-2 2s-2-.8954-2-2 .8954-2 2-2 2 .8954 2 2Zm-2 9c1.1046 0 2-.8954 2-2s-.8954-2-2-2-2 .8954-2 2 .8954 2 2 2Zm2 5c0 1.1046-.8954 2-2 2s-2-.8954-2-2 .8954-2 2-2 2 .8954 2 2Zm6-12c1.1046 0 2-.8954 2-2s-.8954-2-2-2-2 .8954-2 2 .8954 2 2 2Zm2 5c0 1.1046-.8954 2-2 2s-2-.8954-2-2 .8954-2 2-2 2 .8954 2 2Zm-2 9c1.1046 0 2-.8954 2-2s-.8954-2-2-2-2 .8954-2 2 .8954 2 2 2Zm10-2c0 1.1046-.8954 2-2 2s-2-.8954-2-2 .8954-2 2-2 2 .8954 2 2Z"/>
  <defs>
    <linearGradient id="a" x1="8" x2="46.1629" y1="5.25" y2="44.3364" gradientUnits="userSpaceOnUse">
      <stop stop-color="#29C3FF"/>
      <stop offset="1" stop-color="#2764E7"/>
    </linearGradient>
    <linearGradient id="b" x1="24.375" x2="31.769" y1="33.5714" y2="41.8874" gradientUnits="userSpaceOnUse">
      <stop stop-color="#0067BF"/>
      <stop offset="1" stop-color="#003580"/>
    </linearGradient>
    <linearGradient id="c" x1="14.3571" x2="21.2584" y1="36.875" y2="44.0451" gradientUnits="userSpaceOnUse">
      <stop stop-color="#0067BF"/>
      <stop offset="1" stop-color="#003580"/>
    </linearGradient>
    <linearGradient id="d" x1="20" x2="26" y1="10" y2="34" gradientUnits="userSpaceOnUse">
      <stop stop-color="#FDFDFD"/>
      <stop offset="1" stop-color="#B3E0FF"/>
    </linearGradient>
  </defs>
</svg>
