<svg xmlns="http://www.w3.org/2000/svg" fill="none" viewBox="0 0 119 64">
  <path fill="url(#a)" d="M18.5191 30.7786 1.05347 63.7252 116.182 61.7405l-1.526-57.16042L90.4425 23.6335l-27.8622-7.9389L42.015 36.7328l-23.4959-5.9542Z"/>
  <path fill="#198754" d="M.317742 61.1917c-.3032388.5836-.075958 1.3025.507646 1.6057.583602.3033 1.302532.076 1.605772-.5076L.317742 61.1917ZM18.1408 29.4728l.2943-1.1539-.9155-.2335-.4355.8383 1.0567.5491Zm23.7982 6.0694-.2943 1.1539.6622.1688.4799-.4864-.8478-.8363Zm20.5394-20.8205.3177-1.1476-.6742-.1867-.4913.498.8478.8363Zm27.8882 7.7212-.3178 1.1477.5792.1603.473-.3706-.7344-.9374ZM118.739.213867 105.125 2.14612l8.48 10.82408L118.739.213867ZM2.43116 62.2898l16.76634-32.268-2.1134-1.0981L.317742 61.1917l2.113418 1.0981ZM17.8465 30.6267l23.7982 6.0694.5886-2.3078-23.7982-6.0694-.5886 2.3078Zm24.9403 5.7518L63.3262 15.558l-1.6956-1.6726-20.5393 20.8204 1.6955 1.6727Zm19.3739-20.5091 27.8881 7.7212.6355-2.2954-27.8882-7.7211-.6354 2.2953Zm28.9403 7.5109 19.936-15.61915-1.469-1.87479L89.6321 21.5055l1.4689 1.8748Z"/>
  <defs>
    <linearGradient id="a" x1="56.3051" x2="64.641" y1="4.97703" y2="49.0381" gradientUnits="userSpaceOnUse">
      <stop stop-color="#198754"/>
      <stop offset=".963056" stop-color="#fff" stop-opacity=".3"/>
    </linearGradient>
  </defs>
</svg>
