<svg xmlns="http://www.w3.org/2000/svg" fill="none" viewBox="0 0 48 48">
  <path fill="url(#a)" d="M24.8646 4.34751c-.4835-.46335-1.2462-.46335-1.7297 0-2.7587 2.64376-6.6847 4.0779-10.037 4.83983-1.659.37704-3.13891.58095-4.20237.69031-.531.05461-.95621.08545-1.24566.10256-.14468.00855-.25528.01366-.32806.01659-.03638.00147-.0633.00239-.08027.00293l-.01794.00057-.0034.0001c-.67851.0161-1.22021.5709-1.2202 1.2497V20.75c0 4.837 1.24269 9.6582 4.0977 13.7749 2.8615 4.1259 7.2909 7.4687 13.5292 9.4182.2428.0759.5029.0759.7457 0C36.9406 40.0156 42 30.4968 42 21v-9.75c0-.6789-.5423-1.2336-1.2209-1.2497h-.0027l-.0179-.00057c-.017-.00054-.0439-.00146-.0803-.00293-.0728-.00293-.1834-.00804-.3281-.01659-.2895-.01711-.7147-.04795-1.2457-.10256-1.0635-.10936-2.5435-.31327-4.2025-.69032-3.3525-.76192-7.2786-2.19607-10.0373-4.83982Z"/>
  <defs>
    <radialGradient id="a" cx="0" cy="0" r="1" gradientTransform="rotate(54.4973 13.88959444 -17.15562743) scale(95.1985 84.0956)" gradientUnits="userSpaceOnUse">
      <stop offset=".337728" stop-color="#0FAFFF"/>
      <stop offset=".529425" stop-color="#367AF2"/>
      <stop offset=".682436" stop-color="#5750E2"/>
      <stop offset=".860903" stop-color="#CC23D1"/>
    </radialGradient>
  </defs>
</svg>
