<svg xmlns="http://www.w3.org/2000/svg" fill="none" viewBox="0 0 32 32">
  <path fill="url(#a)" d="M12 6.5C12 4.567 13.567 3 15.5 3S19 4.567 19 6.5v19c0 1.933-1.567 3.5-3.5 3.5S12 27.433 12 25.5v-19Z"/>
  <path fill="url(#b)" d="M22 12.5c0-1.933 1.567-3.5 3.5-3.5s3.5 1.567 3.5 3.5v13c0 1.933-1.567 3.5-3.5 3.5S22 27.433 22 25.5v-13Z"/>
  <path fill="url(#c)" d="M5.5 15C3.567 15 2 16.567 2 18.5v7C2 27.433 3.567 29 5.5 29S9 27.433 9 25.5v-7C9 16.567 7.433 15 5.5 15Z"/>
  <defs>
    <linearGradient id="a" x1="18.4167" x2="14.2216" y1="24.2333" y2="2.81852" gradientUnits="userSpaceOnUse">
      <stop stop-color="#6D37CD"/>
      <stop offset="1" stop-color="#EA71EF"/>
    </linearGradient>
    <linearGradient id="b" x1="28.4167" x2="25.8963" y1="25.3333" y2="8.60803" gradientUnits="userSpaceOnUse">
      <stop stop-color="#E23CB4"/>
      <stop offset="1" stop-color="#EA71EF"/>
    </linearGradient>
    <linearGradient id="c" x1="2.875" x2="16.2586" y1="15.5833" y2="23.4993" gradientUnits="userSpaceOnUse">
      <stop stop-color="#36DFF1"/>
      <stop offset="1" stop-color="#0078D4"/>
    </linearGradient>
  </defs>
</svg>
