<svg xmlns="http://www.w3.org/2000/svg" fill="none" viewBox="0 0 20 20">
  <path fill="url(#a)" d="M16.0001 15.5c0 1.933-2.6863 3.5-6 3.5-3.31374 0-6.00003-1.567-6.00003-3.5S4 13.5 4 13.5h12.0001v2Z"/>
  <path fill="url(#b)" d="M16 13.5c0 1.933-2.6863 3.5-6 3.5-3.31371 0-6-1.567-6-3.5S6.68629 10 10 10c3.3137 0 6 1.567 6 3.5Z"/>
  <path fill="url(#c)" d="M16.0001 11.5c0 1.933-2.6863 3.5-6 3.5-3.31374 0-6.00003-1.567-6.00003-3.5S4 9.5 4 9.5h12.0001v2Z"/>
  <path fill="url(#d)" d="M16 9.5c0 1.933-2.6863 3.5-6 3.5-3.31371 0-6-1.567-6-3.5S6.68629 6 10 6c3.3137 0 6 1.567 6 3.5Z"/>
  <path fill="url(#e)" d="M16.0001 7.5c0 1.933-2.6863 3.5-6 3.5-3.31374 0-6.00003-1.567-6.00003-3.5S4 5.5 4 5.5h12.0001v2Z"/>
  <path fill="url(#f)" d="M16 5.5C16 7.433 13.3137 9 10 9 6.68629 9 4 7.433 4 5.5S6.68629 2 10 2c3.3137 0 6 1.567 6 3.5Z"/>
  <defs>
    <linearGradient id="a" x1="7.18285" x2="9.22313" y1="14.8497" y2="19.3062" gradientUnits="userSpaceOnUse">
      <stop stop-color="#FFA43D"/>
      <stop offset="1" stop-color="#FB5937"/>
    </linearGradient>
    <linearGradient id="b" x1="16.0172" x2="9.60413" y1="16.9973" y2="8.00389" gradientUnits="userSpaceOnUse">
      <stop stop-color="#FF8A69"/>
      <stop offset="1" stop-color="#FFCD0F"/>
    </linearGradient>
    <linearGradient id="c" x1="7.18285" x2="9.22313" y1="10.8497" y2="15.3062" gradientUnits="userSpaceOnUse">
      <stop stop-color="#FFA43D"/>
      <stop offset="1" stop-color="#FB5937"/>
    </linearGradient>
    <linearGradient id="d" x1="16.0172" x2="9.60413" y1="12.9973" y2="4.00389" gradientUnits="userSpaceOnUse">
      <stop stop-color="#FF8A69"/>
      <stop offset="1" stop-color="#FFCD0F"/>
    </linearGradient>
    <linearGradient id="e" x1="7.18285" x2="9.22313" y1="6.84971" y2="11.3062" gradientUnits="userSpaceOnUse">
      <stop stop-color="#FFA43D"/>
      <stop offset="1" stop-color="#FB5937"/>
    </linearGradient>
    <linearGradient id="f" x1="16.0172" x2="9.60413" y1="8.99728" y2=".00389416" gradientUnits="userSpaceOnUse">
      <stop stop-color="#FF8A69"/>
      <stop offset="1" stop-color="#FFCD0F"/>
    </linearGradient>
  </defs>
</svg>
