<svg xmlns="http://www.w3.org/2000/svg" fill="none" viewBox="0 0 20 20">
  <path fill="url(#a)" d="M8.00001 1c-3.3137 0-6 2.68629-6 6 0 1.03957.26479 2.01862.73085 2.87202l-.71161 2.49058c-.05095.1784.001.3703.13497.4986.13398.1282.32795.1718.50391.1131l2.33805-.7793c.88371.512 1.91021.805 3.00383.805C11.3137 13 14 10.3137 14 7c0-3.31371-2.6863-6-5.99999-6Z"/>
  <path fill="url(#b)" d="M8.00001 1c-3.3137 0-6 2.68629-6 6 0 1.03957.26479 2.01862.73085 2.87202l-.71161 2.49058c-.05095.1784.001.3703.13497.4986.13398.1282.32795.1718.50391.1131l2.33805-.7793c.88371.512 1.91021.805 3.00383.805C11.3137 13 14 10.3137 14 7c0-3.31371-2.6863-6-5.99999-6Z"/>
  <path fill="url(#c)" d="M6.5 5.5c-.27614 0-.5.22386-.5.5s.22386.5.5.5h3c.27614 0 .5-.22386.5-.5s-.22386-.5-.5-.5h-3Z"/>
  <path fill="url(#d)" d="M6 8c0-.27614.22386-.5.5-.5h2c.27614 0 .5.22386.5.5s-.22386.5-.5.5h-2c-.27614 0-.5-.22386-.5-.5Z"/>
  <path fill="url(#e)" fill-rule="evenodd" d="M13.9252 10.2118c.3079-.1846.6718-.25255 1.0256-.1916l.7729.133c.6412.1105 1.1887.5259 1.4676 1.1137l1.199 2.5273c.5612 1.1892.6881 2.1853.5687 3.0012-.1191.8148-.4777 1.4083-.8196 1.804-.2723.3151-.6494.4359-1.0099.3969-.3493-.0379-.6731-.222-.9028-.4944l-.8175-.9691c-.285-.3379-.7046-.5328-1.1466-.5328h-3.5252c-.442 0-.86149.1949-1.1465.5328l-.81752.9691c-.22977.2724-.5535.4565-.90282.4944-.36049.039-.73764-.0818-1.00992-.3969-.34191-.3957-.70046-.9892-.81962-1.804-.11933-.8159.00752-1.8119.5687-3.0012l.00045-.0009 1.1986-2.5263c.27891-.5879.82634-1.0033 1.46757-1.1137l.77286-.1331c.3538-.06094.7177.007 1.0256.1916l.1249.0748c.2329.1396.4995.2134.7711.2134h1.0585c.2716 0 .5381-.0738.7711-.2134l.1248-.0748Z" clip-rule="evenodd"/>
  <path fill="#3E3E3E" d="M13.25 13.25c0 .4142-.3358.75-.75.75s-.75-.3358-.75-.75.3358-.75.75-.75.75.3358.75.75Z"/>
  <defs>
    <linearGradient id="a" x1="2.42857" x2="12.9045" y1="3.25" y2="21.111" gradientUnits="userSpaceOnUse">
      <stop stop-color="#0FAFFF"/>
      <stop offset="1" stop-color="#CC23D1"/>
    </linearGradient>
    <linearGradient id="c" x1="6.34989" x2="6.72787" y1="5.55267" y2="8.80142" gradientUnits="userSpaceOnUse">
      <stop stop-color="#FDFDFD"/>
      <stop offset="1" stop-color="#CCEAFF"/>
    </linearGradient>
    <linearGradient id="d" x1="6.34989" x2="6.72787" y1="5.55267" y2="8.80142" gradientUnits="userSpaceOnUse">
      <stop stop-color="#FDFDFD"/>
      <stop offset="1" stop-color="#CCEAFF"/>
    </linearGradient>
    <linearGradient id="e" x1="8.125" x2="12.4305" y1="11.375" y2="19.5518" gradientUnits="userSpaceOnUse">
      <stop stop-color="#B5BBCE"/>
      <stop offset=".383804" stop-color="#A0A7BE"/>
      <stop offset="1" stop-color="#728192"/>
    </linearGradient>
    <radialGradient id="b" cx="0" cy="0" r="1" gradientTransform="matrix(-4.5312255 -4.34377116 4.34377808 -4.53123272 10.0313 14.3438)" gradientUnits="userSpaceOnUse">
      <stop offset=".180807" stop-color="#1B44B1"/>
      <stop offset=".927002" stop-color="#1B44B1" stop-opacity="0"/>
    </radialGradient>
  </defs>
</svg>
