<svg xmlns="http://www.w3.org/2000/svg" fill="none" viewBox="0 0 48 48">
  <path fill="url(#a)" d="M24 4c11.0457 0 20 8.9543 20 20s-8.9543 20-20 20S4 35.0457 4 24 12.9543 4 24 4Z"/>
  <path fill="url(#b)" d="m17.7824 16.025.1015.0911L24 22.233l6.1161-6.1169c.4556-.4556 1.1755-.486 1.6663-.0911l.1015.0911c.4556.4556.486 1.1755.0911 1.6663l-.0911.1015L25.767 24l6.1169 6.1161c.4556.4556.486 1.1755.0911 1.6663l-.0911.1015c-.4556.4556-1.1754.486-1.6663.0911l-.1015-.0911L24 25.767l-6.1161 6.1169c-.4556.4556-1.1754.486-1.6663.0911l-.1015-.0911c-.4556-.4556-.486-1.1754-.0911-1.6663l.0911-.1015L22.233 24l-6.1169-6.1161c-.4556-.4556-.486-1.1754-.0911-1.6663l.0911-.1015c.4556-.4556 1.1755-.486 1.6663-.0911Z"/>
  <defs>
    <linearGradient id="a" x1="10.25" x2="36.5" y1="6.5" y2="45.25" gradientUnits="userSpaceOnUse">
      <stop stop-color="#F83F54"/>
      <stop offset="1" stop-color="#CA2134"/>
    </linearGradient>
    <linearGradient id="b" x1="16.708" x2="25.2996" y1="24.7292" y2="33.6631" gradientUnits="userSpaceOnUse">
      <stop stop-color="#FDFDFD"/>
      <stop offset="1" stop-color="#FECBE6"/>
    </linearGradient>
  </defs>
</svg>
