<svg xmlns="http://www.w3.org/2000/svg" fill="none" viewBox="0 0 24 24">
  <path fill="url(#a)" d="M12 2c5.5228 0 10 4.47715 10 10 0 5.5228-4.4772 10-10 10-1.6404 0-3.22484-.3961-4.64422-1.1417l-4.2904 1.117c-.45428.1184-.91848-.154-1.0368-.6083-.03659-.1404-.0366-.2879-.00003-.4284l1.11635-4.2884C2.3972 15.2294 2 13.6428 2 12 2 6.47715 6.47715 2 12 2Z"/>
  <path fill="url(#b)" d="M13.2517 13H8.75l-.10177.0068C8.28215 13.0565 8 13.3703 8 13.75s.28215.6935.64823.7432L8.75 14.5h4.5017l.1018-.0068c.3661-.0497.6482-.3635.6482-.7432s-.2821-.6935-.6482-.7432L13.2517 13ZM15.25 9.5h-6.5l-.10177.00685C8.28215 9.55651 8 9.8703 8 10.25s.28215.6935.64823.7432L8.75 11h6.5l.1018-.0068c.366-.0497.6482-.3635.6482-.7432s-.2822-.69349-.6482-.74315L15.25 9.5Z"/>
  <defs>
    <linearGradient id="a" x1="2.71429" x2="20.178" y1="5.75056" y2="35.521" gradientUnits="userSpaceOnUse">
      <stop stop-color="#0FAFFF"/>
      <stop offset="1" stop-color="#CC23D1"/>
    </linearGradient>
    <linearGradient id="b" x1="8.69977" x2="9.2269" y1="9.58779" y2="15.0246" gradientUnits="userSpaceOnUse">
      <stop stop-color="#FDFDFD"/>
      <stop offset="1" stop-color="#CCEAFF"/>
    </linearGradient>
  </defs>
</svg>
