<svg xmlns="http://www.w3.org/2000/svg" fill="none" viewBox="0 0 16 16">
  <path fill="#E0DFDF" fill-rule="evenodd" d="M2 1a2 2 0 00-2 2v10a2 2 0 002 2h5.257a5.507 5.507 0 01-.657-1H2a1 1 0 01-1-1V3a1 1 0 011-1h3.75a1 1 0 01.8.4L7.6 3.8l.15.2H14a1 1 0 011 1v2.257c.38.314.716.677 1 1.08V5a2 2 0 00-2-2H8.25l-.9-1.2a2 2 0 00-1.6-.8H2z" clip-rule="evenodd"/>
  <path fill="#E0DFDF" fill-rule="evenodd" d="M8.277 3.916l-1.122.748A2 2 0 016.045 5H.5V4h5.546a1 1 0 00.555-.168l1.122-.748.554.832z" clip-rule="evenodd"/>
  <path fill="#4CC2FF" fill-rule="evenodd" d="M7.862 10.07l-.357-.35c.13-.311.292-.604.482-.874l.396.119a2 2 0 002.52-1.454l.115-.484a4.25 4.25 0 01.964 0l.115.484a2 2 0 002.52 1.454l.396-.119c.19.27.353.563.482.874l-.357.35a2 2 0 000 2.86l.357.35c-.13.311-.292.604-.482.874l-.396-.119a2 2 0 00-2.52 1.454l-.115.484a4.256 4.256 0 01-.964 0l-.115-.484a2 2 0 00-2.52-1.454l-.396.119a4.539 4.539 0 01-.482-.874l.357-.35a2 2 0 000-2.86zM12.5 11.5a1 1 0 11-2 0 1 1 0 012 0z" clip-rule="evenodd"/>
</svg>
