<svg xmlns="http://www.w3.org/2000/svg" fill="none" viewBox="0 0 16 16">
  <g clip-path="url(#clip0)">
    <path fill="#E0DFDF" fill-rule="evenodd" d="M13.441.442c.568-.475 1.42-.64 2.069-.052l-.337.37.337-.37c.295.268.465.611.479.997.013.372-.12.732-.328 1.056l-.007.012-1.325 1.939a47.79 47.79 0 01-7.407 8.494l-.67-.741a46.79 46.79 0 007.252-8.317l1.32-1.933c.132-.208.17-.367.165-.474-.003-.094-.039-.19-.152-.293-.169-.153-.444-.18-.755.08l-.005.004-1.534 1.257a45.917 45.917 0 00-7.83 8.229l-.804-.594a46.916 46.916 0 018-8.409L13.442.442z" clip-rule="evenodd"/>
    <path fill="#4CC2FF" fill-rule="evenodd" d="M2.902 10.504A2.96 2.96 0 014.606 10c.437.03 1.03.208 1.523.648.508.456.871 1.16.871 2.158 0 1.356-.91 2.166-1.854 2.61-.94.442-2.018.583-2.652.583-.676 0-1.702-.166-2.146-.307a.5.5 0 01-.17-.859c.2-.168.39-.323.555-.457l.272-.223c.218-.181.363-.314.471-.443.186-.22.298-.47.38-1.092.01-1.024.457-1.707 1.046-2.115zm.57.821c-.33.228-.616.617-.616 1.327a.502.502 0 01-.004.063c-.093.735-.246 1.206-.61 1.64a4.649 4.649 0 01-.608.577c.3.04.611.068.86.068.528 0 1.453-.124 2.226-.487.768-.361 1.28-.898 1.28-1.706 0-.734-.256-1.16-.538-1.413A1.61 1.61 0 004.55 11a1.964 1.964 0 00-1.078.325z" clip-rule="evenodd"/>
  </g>
  <defs>
    <clipPath id="clip0">
      <path fill="#fff" d="M0 0h16v16H0z"/>
    </clipPath>
  </defs>
</svg>
