<svg xmlns="http://www.w3.org/2000/svg" fill="none" viewBox="0 0 16 16">
  <path stroke="#E0DFDF" d="M2.5 14V2A1.5 1.5 0 014 .5h3.879a1.5 1.5 0 011.06.44l4.122 4.12a1.5 1.5 0 01.439 1.061V14a1.5 1.5 0 01-1.5 1.5H4A1.5 1.5 0 012.5 14z"/>
  <path stroke="#E0DFDF" d="M8.5.5V4A1.5 1.5 0 0010 5.5h3.5"/>
  <path fill="#4CC2FF" fill-rule="evenodd" d="M5.352 9.62l-.547-.551a3.5 3.5 0 01.472-.768l.547.17a1.25 1.25 0 001.589-.914l.12-.526a3.533 3.533 0 01.933 0l.121.526a1.25 1.25 0 001.589.914l.547-.17c.189.233.348.49.472.768l-.547.552a1.25 1.25 0 000 1.758l.547.552a3.502 3.502 0 01-.472.768l-.547-.17a1.25 1.25 0 00-1.589.914l-.12.526a3.536 3.536 0 01-.933 0l-.121-.526a1.25 1.25 0 00-1.589-.914l-.547.17a3.499 3.499 0 01-.472-.768l.547-.552a1.25 1.25 0 000-1.758zm3.398.88a.75.75 0 11-1.5 0 .75.75 0 011.5 0z" clip-rule="evenodd"/>
</svg>
