<svg xmlns="http://www.w3.org/2000/svg" fill="none" viewBox="0 0 16 16">
  <path fill="#E0DFDF" fill-rule="evenodd" d="M10 2.5a.5.5 0 00-.5-.5H2a2 2 0 00-2 2v8a2 2 0 002 2h7.5a.5.5 0 00.5-.5v-11zM9 3v10H2a1 1 0 01-1-1V4a1 1 0 011-1h7z" clip-rule="evenodd"/>
  <path fill="#4CC2FF" fill-rule="evenodd" d="M9 2.5a.5.5 0 01.5-.5H14a2 2 0 012 2v8a2 2 0 01-2 2H9.5a.5.5 0 01-.5-.5v-11zm1 .5v10h4a1 1 0 001-1V4a1 1 0 00-1-1h-4zm1 3.5a.5.5 0 01.5-.5h2a.5.5 0 010 1h-2a.5.5 0 01-.5-.5zm0 2a.5.5 0 01.5-.5h2a.5.5 0 010 1h-2a.5.5 0 01-.5-.5zm0 2a.5.5 0 01.5-.5h2a.5.5 0 010 1h-2a.5.5 0 01-.5-.5z" clip-rule="evenodd"/>
</svg>
