<svg xmlns="http://www.w3.org/2000/svg" fill="none" viewBox="0 0 16 16">
  <g clip-path="url(#clip0)">
    <path fill="#4CC2FF" fill-rule="evenodd" d="M8.209 1.1a.25.25 0 00-.418 0L2.184 9.613a.25.25 0 00.208.388h11.216a.25.25 0 00.208-.388L8.21 1.101zM6.956.55a1.25 1.25 0 012.088 0l5.608 8.512A1.25 1.25 0 0113.608 11H2.392a1.25 1.25 0 01-1.044-1.938L6.956.551zM1 13.5a.5.5 0 01.5-.5h13a.5.5 0 010 1h-13a.5.5 0 01-.5-.5z" clip-rule="evenodd"/>
  </g>
  <defs>
    <clipPath id="clip0">
      <path fill="#fff" d="M0 0h16v16H0z"/>
    </clipPath>
  </defs>
</svg>
