<svg xmlns="http://www.w3.org/2000/svg" fill="none" viewBox="0 0 16 16">
  <path fill="#E0DFDF" fill-rule="evenodd" d="M14 3h-2V2h2a2 2 0 012 2v8a2 2 0 01-2 2h-2v-1h2a1 1 0 001-1V4a1 1 0 00-1-1zM2 3a1 1 0 00-1 1v8a1 1 0 001 1h7v1H2a2 2 0 01-2-2V4a2 2 0 012-2h7v1H2z" clip-rule="evenodd"/>
  <path fill="#4CC2FF" fill-rule="evenodd" d="M8 .5a.5.5 0 01.5-.5h4a.5.5 0 010 1H11v14h1.5a.5.5 0 010 1h-4a.5.5 0 010-1H10V1H8.5A.5.5 0 018 .5z" clip-rule="evenodd"/>
  <path fill="#4CC2FF" d="M2 8a1 1 0 011-1h6v2H3a1 1 0 01-1-1z"/>
</svg>
