<svg xmlns="http://www.w3.org/2000/svg" fill="none" viewBox="0 0 16 16">
  <g clip-path="url(#clip0)">
    <path fill="#E0DFDF" fill-rule="evenodd" d="M3 2a1 1 0 00-1 1v10a1 1 0 001 1h3.151l-.25 1H3a2 2 0 01-2-2V3a2 2 0 012-2h10a2 2 0 012 2v2.852a3.07 3.07 0 00-1-.095V3a1 1 0 00-1-1H3z" clip-rule="evenodd"/>
    <path fill="#E0DFDF" fill-rule="evenodd" d="M14.5 5h-13V4h13v1zM11.535 7.155a1 1 0 00-1.372 1.391c.231-.235.478-.488.741-.76l-.002-.001.633-.63zm-2.99 3.007a1 1 0 00-1.393 1.369c.194-.202.45-.451.795-.786.176-.17.374-.363.598-.583zM5 9a1 1 0 100-2 1 1 0 000 2zm1 2a1 1 0 11-2 0 1 1 0 012 0zm2.556-2.169A1 1 0 117.444 7.17 1 1 0 018.556 8.83z" clip-rule="evenodd"/>
    <path fill="#4CC2FF" d="M11.786 8.671l-3.883 3.884c-.09.09-.153.201-.183.323l-.673 2.69a.348.348 0 00.422.421l2.69-.672a.696.696 0 00.322-.183l3.884-3.884-2.579-2.579zM15.25 10.365l.175-.176c.352-.357.557-.833.574-1.334a1.763 1.763 0 00-.53-1.354 1.824 1.824 0 00-2.545.033l-.253.252 2.58 2.579z"/>
  </g>
  <defs>
    <clipPath id="clip0">
      <path fill="#fff" d="M0 0h16v16H0z"/>
    </clipPath>
  </defs>
</svg>
