<svg xmlns="http://www.w3.org/2000/svg" fill="none" viewBox="0 0 16 16">
  <path fill="#E0DFDF" fill-rule="evenodd" d="M0 4.5A2.5 2.5 0 012.5 2h11A2.5 2.5 0 0116 4.5v7a2.5 2.5 0 01-2.5 2.5h-11A2.5 2.5 0 010 11.5v-7zM2.5 3A1.5 1.5 0 001 4.5v7A1.5 1.5 0 002.5 13h11a1.5 1.5 0 001.5-1.5v-7A1.5 1.5 0 0013.5 3h-11z" clip-rule="evenodd"/>
  <path fill="#4CC2FF" fill-rule="evenodd" d="M2.363 4.02a.5.5 0 01.618.343l2 7a.5.5 0 01-.962.274l-2-7a.5.5 0 01.344-.618zm3 0a.5.5 0 01.618.343l2 7a.5.5 0 01-.962.274l-2-7a.5.5 0 01.344-.618z" clip-rule="evenodd"/>
  <path fill="#4CC2FF" d="M11 11.25a.75.75 0 11-1.5 0 .75.75 0 011.5 0zM13.5 11.25a.75.75 0 11-1.5 0 .75.75 0 011.5 0z"/>
</svg>
