<svg xmlns="http://www.w3.org/2000/svg" fill="none" viewBox="0 0 16 16">
  <g clip-path="url(#clip0)">
    <path fill="#E0DFDF" d="M5.274 11.433L.707 16l-.002-.002H.002v-.703L0 15.293l4.567-4.567.707.707z"/>
    <path fill="#E0DFDF" fill-rule="evenodd" d="M4.896 5.603L1.314 7.036a.5.5 0 00-.168.817l7 7a.5.5 0 00.833-.21l1.144-3.813-.803-.803-1.058 3.527L2.39 7.683l3.275-1.31-.77-.77zM9.51 9.511l.775.775.057-.189a.5.5 0 01.194-.267l-.71-.711a1.5 1.5 0 00-.316.392zM6.64 5.932a1.5 1.5 0 01-.327.181l-.143.057-.769-.769.505-.202.734.733zm4.122 2.709l3.667-1.528a.5.5 0 00.162-.815L9.666 1.374l-.205-.124a.5.5 0 00-.604.27l-1.63 3.587-.7-.701-.055-.054 1.475-3.245a1.5 1.5 0 012.425-.44l4.925 4.924a1.501 1.501 0 01-.484 2.445l-3.287 1.37-.765-.765z" clip-rule="evenodd"/>
    <path fill="#4CC2FF" fill-rule="evenodd" d="M.146.147a.5.5 0 01.708 0l15 15a.5.5 0 01-.708.707l-15-15a.5.5 0 010-.707z" clip-rule="evenodd"/>
  </g>
  <defs>
    <clipPath id="clip0">
      <path fill="#fff" d="M0 0h16v16H0z"/>
    </clipPath>
  </defs>
</svg>
