<svg xmlns="http://www.w3.org/2000/svg" fill="none" viewBox="0 0 16 16">
  <path fill="#E0DFDF" fill-rule="evenodd" d="M2 1a2 2 0 00-2 2v10a2 2 0 002 2h4.938a5.751 5.751 0 01-.618-1H2c-.08 0-.159-.01-.234-.027l1.477-7.175A1 1 0 014.223 6h5.595a5.75 5.75 0 011.682-.25c.585 0 1.15.087 1.682.25h1.17a.5.5 0 01.495.569l-.032.232c.326.23.628.495.9.788l.122-.883A1.5 1.5 0 0015 5.146V5a2 2 0 00-2-2H8.25l-.9-1.2a2 2 0 00-1.6-.8H2zm11 3a1 1 0 011 1H4.223a2 2 0 00-1.96 1.597L1 12.735V3a1 1 0 011-1h3.75a1 1 0 01.8.4L7.6 3.8l.15.2H13z" clip-rule="evenodd"/>
  <path fill="#4CC2FF" d="M11.5 7a4.5 4.5 0 110 9 4.5 4.5 0 010-9z"/>
  <path fill="#fff" fill-rule="evenodd" d="M11.146 13.854a.5.5 0 010-.708l1.647-1.646-1.647-1.646a.5.5 0 01.708-.708l2 2a.5.5 0 010 .708l-2 2a.5.5 0 01-.708 0z" clip-rule="evenodd"/>
  <path fill="#fff" fill-rule="evenodd" d="M9 11.5a.5.5 0 01.5-.5h4a.5.5 0 010 1h-4a.5.5 0 01-.5-.5z" clip-rule="evenodd"/>
</svg>
