<svg xmlns="http://www.w3.org/2000/svg" fill="none" viewBox="0 0 16 16">
  <g clip-path="url(#clip0)">
    <path fill="#E0DFDF" fill-rule="evenodd" d="M0 8.952V12a2 2 0 002 2h12a2 2 0 002-2V4a2 2 0 00-2-2H9.962c.023.163.036.33.036.5V3H14a1 1 0 011 1v8a1 1 0 01-1 1H2a1 1 0 01-1-1V9.664a3.51 3.51 0 01-1-.712z" clip-rule="evenodd"/>
    <path fill="#E0DFDF" fill-rule="evenodd" d="M15.5 11H.5v-1h15v1z" clip-rule="evenodd"/>
    <path fill="#E0DFDF" d="M14 11.5a.5.5 0 11-1 0 .5.5 0 011 0zM12 11.5a.5.5 0 11-1 0 .5.5 0 011 0z"/>
    <path fill="#4CC2FF" fill-rule="evenodd" d="M2.498 1a1.5 1.5 0 00-1.5 1.5v4a1.5 1.5 0 001.5 1.5h4a1.5 1.5 0 001.5-1.5v-4a1.5 1.5 0 00-1.5-1.5h-4zm-2.5 1.5a2.5 2.5 0 012.5-2.5h4a2.5 2.5 0 012.5 2.5v4a2.5 2.5 0 01-2.5 2.5h-4a2.5 2.5 0 01-2.5-2.5v-4z" clip-rule="evenodd"/>
    <path fill="#4CC2FF" fill-rule="evenodd" d="M4.851 5.56a.5.5 0 00-.707 0L1.351 8.355l-.707-.708 2.793-2.792a1.5 1.5 0 012.121 0l2.793 2.792-.707.708L4.851 5.56z" clip-rule="evenodd"/>
    <path fill="#4CC2FF" d="M6.998 2.75a.75.75 0 11-1.5 0 .75.75 0 011.5 0z"/>
  </g>
  <defs>
    <clipPath id="clip0">
      <path fill="#fff" d="M0 0h16v16H0z"/>
    </clipPath>
  </defs>
</svg>
