<svg xmlns="http://www.w3.org/2000/svg" fill="none" viewBox="0 0 16 16">
  <g clip-path="url(#clip0)">
    <path fill="#E0DFDF" fill-rule="evenodd" d="M1 2a1 1 0 011-1h2a1 1 0 011 1v2a1 1 0 01-1 1H2a1 1 0 01-1-1V2zm3 0H2v2h2V2zM1 7a1 1 0 011-1h2a1 1 0 011 1v2a1 1 0 01-1 1H2a1 1 0 01-1-1V7zm3 0H2v2h2V7zm-3 5a1 1 0 011-1h2a1 1 0 011 1v2a1 1 0 01-1 1H2a1 1 0 01-1-1v-2zm3 0H2v2h2v-2zM6.5 2a.5.5 0 000 1h8a.5.5 0 000-1h-8zm0 5a.5.5 0 000 1h.438c.285-.372.615-.708.982-1H6.5z" clip-rule="evenodd"/>
    <circle cx="11.5" cy="11.5" r="4.5" fill="#4CC2FF" transform="rotate(-180 11.5 11.5)"/>
    <path stroke="#000" stroke-linecap="round" stroke-linejoin="round" stroke-width="1.125" d="M13.5 11.5l-2-2-2 2"/>
    <path stroke="#000" stroke-linecap="round" d="M11.5 13.5v-4"/>
  </g>
  <defs>
    <clipPath id="clip0">
      <path fill="#fff" d="M0 0h16v16H0z"/>
    </clipPath>
  </defs>
</svg>
