<svg xmlns="http://www.w3.org/2000/svg" fill="none" viewBox="0 0 16 16">
  <g clip-path="url(#clip0)">
    <circle cx="12.25" cy="6.75" r=".75" fill="#E0DFDF"/>
    <path fill="#E0DFDF" fill-rule="evenodd" d="M2 4a2 2 0 00-2 2v1.286c.293-.319.63-.598 1-.827V6a1 1 0 011-1h12a1 1 0 011 1v2a1 1 0 01-1 1H8.006c.106.32.18.654.216 1H14a2 2 0 002-2V6a2 2 0 00-2-2H2z" clip-rule="evenodd"/>
    <path stroke="#4CC2FF" stroke-linecap="round" d="M8.498 15.5l-2.75-2.75"/>
    <circle cx="3.498" cy="10.5" r="3" stroke="#4CC2FF"/>
  </g>
  <defs>
    <clipPath id="clip0">
      <path fill="#fff" d="M0 0h16v16H0z"/>
    </clipPath>
  </defs>
</svg>
