<svg xmlns="http://www.w3.org/2000/svg" fill="none" viewBox="0 0 16 16">
  <path fill="#E0DFDF" fill-rule="evenodd" d="M12 1H4a1 1 0 00-1 1v5a1 1 0 001 1h8a1 1 0 001-1V2a1 1 0 00-1-1zM4 0a2 2 0 00-2 2v5a2 2 0 002 2h8a2 2 0 002-2V2a2 2 0 00-2-2H4z" clip-rule="evenodd"/>
  <path fill="#E0DFDF" fill-rule="evenodd" d="M6.5 8a.5.5 0 01.5.5V10h2V8.5a.5.5 0 011 0V10h1.5a.5.5 0 010 1h-7a.5.5 0 010-1H6V8.5a.5.5 0 01.5-.5zM3.026 12.342A.5.5 0 013.5 12h9a.5.5 0 01.474.342l1 3A.5.5 0 0113.5 16h-11a.5.5 0 01-.474-.658l1-3zM3.86 13l-.666 2h9.612l-.666-2H3.86z" clip-rule="evenodd"/>
</svg>
